<?xml version="1.0" standalone="no"?>
<!DOCTYPE svg PUBLIC "-//W3C//DTD SVG 1.1//EN" "http://www.w3.org/Graphics/SVG/1.1/DTD/svg11.dtd" >
<svg xmlns="http://www.w3.org/2000/svg" xmlns:xlink="http://www.w3.org/1999/xlink" version="1.1">
<metadata>
Created by FontForge 20170731 at Fri Feb 11 20:33:21 2022
 By Aleksey,,,
(c) 1989, 2002 Adobe Systems Incorporated. All rights reserved.
</metadata>
<defs>
<font id="SabonLTStd-Italic" horiz-adv-x="1138" >
  <font-face 
    font-family="Sabon LT Std"
    font-weight="400"
    font-style="italic"
    font-stretch="normal"
    units-per-em="2048"
    panose-1="2 2 5 2 5 5 6 9 3 3"
    ascent="1565"
    descent="-483"
    x-height="936"
    cap-height="1430"
    bbox="-299 -467.16 2169 1898"
    underline-thickness="102"
    underline-position="-307"
    slope="-12"
    unicode-range="U+0020-FB02"
  />
<missing-glyph horiz-adv-x="1212" 
d="M188 0v1434h1024v-1434h-1024zM700 809l349 522h-697zM762 717l348 -522v1044zM352 102h697l-349 523zM291 1239v-1044l348 522z" />
    <glyph glyph-name="f_i" unicode="fi" 
d="M61 821l25 84h199q39 195 112 328t213 235q137 97 285 97q52 0 99 -13t83.5 -49t36.5 -90q0 -41 -26.5 -70.5t-65.5 -29.5q-32 0 -45.5 7t-13.5 34q1 65 -42.5 96t-105.5 31q-126 0 -219 -133q-72 -106 -102 -252l-39 -191h569l18 -18l-190 -633q-21 -72 -21 -90
q0 -31 27 -31q19 0 72.5 51t83.5 86l33 -26q-201 -275 -326 -275q-78 0 -78 86q0 33 21 101l188 665h-416l-289 -1220l-127 -68l-16 10l266 1278h-209z" />
    <glyph glyph-name="f_l" unicode="fl" 
d="M61 821l25 84h199l20 92q28 131 118.5 262t216 218.5t241.5 87.5q45 0 118 -27l19 -6l92 29l25 -19l-318 -1327q-8 -28 -8 -47q0 -35 35 -35q40 0 192 143l29 -28q-37 -44 -54.5 -63.5t-65.5 -68.5t-81 -75t-77 -49t-78 -23q-39 0 -63.5 25.5t-24.5 64.5q0 30 34 183
l279 1153q-69 59 -164 59q-49 0 -89.5 -19t-70.5 -56t-52 -78t-39 -100.5t-27.5 -106t-22.5 -111.5l-14 -78h225l-25 -84h-219l-289 -1220l-127 -68l-16 10l266 1278h-209z" />
    <glyph glyph-name=".notdef" horiz-adv-x="1212" 
d="M188 0v1434h1024v-1434h-1024zM700 809l349 522h-697zM762 717l348 -522v1044zM352 102h697l-349 523zM291 1239v-1044l348 522z" />
    <glyph glyph-name=".null" horiz-adv-x="0" 
 />
    <glyph glyph-name="nonmarkingreturn" horiz-adv-x="682" 
 />
    <glyph glyph-name="space" unicode=" " horiz-adv-x="569" 
 />
    <glyph glyph-name="exclam" unicode="!" horiz-adv-x="681" 
d="M313 385h-41l78 625q4 40 9.5 76.5t19.5 93t32 96t48.5 69t68.5 29.5q45 0 67.5 -31t22.5 -77q0 -88 -67 -267zM248 -31q-55 0 -95 39t-40 94q0 54 40.5 96t94.5 42t94.5 -41.5t40.5 -96.5t-39.5 -94t-95.5 -39z" />
    <glyph glyph-name="quotedbl" unicode="&#x22;" 
d="M614 1307l-34 -308q-6 -47 -37 -47t-37 47l-35 308q-4 16 -4 34q0 89 76 89q75 0 75 -89q0 -18 -4 -34zM874 1307l-34 -308q-6 -47 -37 -47t-37 47l-35 308q-4 16 -4 34q0 89 76 89t76 -89q0 -14 -5 -34z" />
    <glyph glyph-name="numbersign" unicode="#" 
d="M1067 557l-14 -111h-213l-64 -446h-127l64 446h-264l-64 -446h-127l64 446h-213l16 111h213l43 299h-215l16 111h213l64 446h125l-64 -446h266l64 446h125l-64 -446h213l-14 -111h-213l-43 -299h213zM772 856h-266l-43 -299h266z" />
    <glyph glyph-name="dollar" unicode="$" 
d="M602 586l-98 -563q109 9 184.5 81t75.5 181q0 76 -42 147t-120 154zM596 903l88 492q-105 0 -169 -56t-64 -159q0 -118 145 -277zM92 -14l53 430h41q3 -54 7.5 -91.5t14 -84t27.5 -79t44.5 -63t67.5 -49t95 -26.5l109 620q-49 50 -75.5 78.5t-65.5 77.5t-59.5 87t-36 89
t-15.5 102q0 178 111 283q36 34 74.5 56t73.5 30.5t58 11.5t50 2.5t28 -0.5l27 154h61l-26 -154q66 -7 123 -26q74 -23 84 -23q13 0 32.5 10t22.5 11h20l-67 -363h-41q0 9 0.5 33t0.5 37.5t-1.5 38.5t-4.5 40.5t-9.5 38t-15.5 37.5t-23.5 32.5t-33 29t-44 21t-56.5 14.5
l-96 -543q14 -15 65 -69.5t71.5 -78.5t55.5 -67t54.5 -79.5t30.5 -72.5q16 -49 16 -112q0 -90 -37 -166t-99 -126.5t-142.5 -79t-167.5 -28.5l-27 -151h-64l29 157q-79 10 -225 68l-90 -57h-25z" />
    <glyph glyph-name="percent" unicode="%" horiz-adv-x="2048" 
d="M1126 281q0 153 119 264.5t273 111.5q134 0 211 -87.5t77 -223.5q0 -101 -54 -188.5t-143 -138t-188 -50.5q-128 0 -211.5 91.5t-83.5 220.5zM1278 225q0 -50 11.5 -93.5t45 -77t84.5 -31.5q57 -1 104.5 37t75 97t42 120.5t14.5 113.5q0 41 -5.5 74.5t-19 68t-43 53
t-71.5 17.5q-59 1 -107 -38.5t-75 -100.5t-41.5 -123.5t-14.5 -116.5zM197 1067q0 153 118.5 265t272.5 112q134 0 211.5 -87.5t77.5 -223.5q0 -101 -54 -188.5t-143 -138t-188 -50.5q-128 0 -211.5 91t-83.5 220zM348 1012q0 -50 11.5 -93.5t45 -77.5t84.5 -32
q57 -1 104.5 37t75 97t42 121t14.5 114q0 41 -5.5 74.5t-19 68t-43 53t-71.5 17.5q-59 1 -107 -38.5t-75 -100.5t-41.5 -123.5t-14.5 -116.5zM494 -47l917 1507h96l-915 -1507h-98z" />
    <glyph glyph-name="ampersand" unicode="&#x26;" horiz-adv-x="1933" 
d="M1217 623q0 -38 -31.5 -57t-71.5 -19q-17 0 -37.5 8t-42 24.5t-35.5 48.5t-14 74q0 79 57.5 156.5t142 124.5t161.5 47q61 0 112.5 -26.5t86.5 -64t66.5 -75t65.5 -64t70 -26.5q31 0 50.5 23.5t19.5 54.5q0 16 -29 54.5t-29 70.5q0 26 20.5 43.5t47.5 17.5q40 0 63 -32
t23 -74q0 -63 -43 -123t-107.5 -95.5t-126.5 -35.5q-33 0 -70 20.5t-58.5 41t-51.5 53.5q-4 -125 -24.5 -231.5t-75.5 -203.5q-220 -389 -651 -389q-222 0 -368.5 145.5t-146.5 379.5q0 96 46.5 204.5t120 197.5t173.5 147.5t199 58.5q84 0 131 -47q14 18 79.5 81t110 119.5
t44.5 96.5q0 16 -9.5 51t-9.5 43q0 34 24 54t58 20q33 0 52.5 -24.5t19.5 -68.5q0 -88 -189 -270l-424 -403l-79 -80l-99 -117q-27 -33 -40 -52.5t-24.5 -50t-11.5 -63.5q0 -62 76 -147q50 -58 135.5 -90.5t167.5 -32.5q156 0 290 69t216 164q141 157 156 480
q-8 30 -70.5 58t-107.5 28q-56 0 -100 -39t-44 -93q0 -39 14 -59.5t34 -26.5t40 -11t34 -21t14 -47zM610 991q-82 0 -152.5 -65.5t-108.5 -161t-38 -189.5q0 -54 8 -81q75 103 177 208l192 203q10 10 10 23q0 24 -28 43.5t-60 19.5z" />
    <glyph glyph-name="quotesingle" unicode="'" horiz-adv-x="569" 
d="M463 1307l-35 -308q-6 -47 -37 -47t-37 47l-35 308q-4 16 -4 34q0 89 76 89t76 -89q0 -18 -4 -34z" />
    <glyph glyph-name="parenleft" unicode="(" horiz-adv-x="681" 
d="M723 1460l43 -22q-92 -150 -151.5 -255.5t-122.5 -240t-98 -251.5t-58 -259.5t-23 -294.5q0 -241 70 -508l-51 -24q-154 305 -154 588q0 146 29.5 289t75.5 262.5t121 250t147 233.5t172 232z" />
    <glyph glyph-name="parenright" unicode=")" horiz-adv-x="681" 
d="M-20 -395l-43 22q92 149 151.5 255t122 240t98 251.5t58 260t22.5 294.5q0 241 -70 508l52 24q153 -303 153 -588q0 -146 -29.5 -289t-75.5 -262.5t-120.5 -250t-146.5 -233.5t-172 -232z" />
    <glyph glyph-name="asterisk" unicode="*" 
d="M1030 1083q0 -77 -67 -77q-60 0 -226 59q4 6 4 18q0 7 -4 19q13 4 44.5 16t48 17.5t42.5 13t48 11t43 3.5q29 0 48 -22.5t19 -57.5zM369 967q0 17 16.5 33t39 26.5t56 21t57 15.5t52.5 11t33 7q0 -6 7 -17.5t13 -14.5q-5 -7 -27 -35t-39 -48.5t-40.5 -44.5t-46 -37.5
t-41.5 -13.5q-35 0 -57.5 30.5t-22.5 66.5zM737 750q-36 0 -53.5 21t-17.5 54q0 67 4 207q4 -2 10 -2q10 0 25 10q124 -169 124 -215q0 -32 -29.5 -53.5t-62.5 -21.5zM412 1321q52 55 102 16q17 -13 32 -29.5t30.5 -39t25 -37t27 -44t24.5 -40.5q-6 0 -14 -11t-10 -18
q-19 7 -56.5 20t-59.5 21t-50 23t-47 32q-21 16 -25 46q0 30 21 61zM770 1430q32 2 62 -19t30 -53q0 -14 -8.5 -34.5t-19.5 -38.5t-29 -43t-29.5 -39t-29.5 -36t-21 -26q-4 4 -17 8t-20 4q6 89 6 178q0 44 20 71.5t56 27.5z" />
    <glyph glyph-name="plus" unicode="+" 
d="M502 520v385h135v-385h385v-135h-385v-385h-135v385h-385v135h385z" />
    <glyph glyph-name="comma" unicode="," horiz-adv-x="569" 
d="M0 -287l-14 41q42 6 76 13t73 23t64.5 37t43 55.5t17.5 78.5q0 28 -14 37q-11 6 -51 17t-64 36q-25 28 -25 70q0 65 40.5 92t93.5 27q75 0 115 -58t40 -137q0 -99 -59.5 -178t-149.5 -118t-186 -36z" />
    <glyph glyph-name="hyphen" unicode="-" horiz-adv-x="681" 
d="M80 422l37 135h483l-33 -135h-487z" />
    <glyph glyph-name="period" unicode="." horiz-adv-x="569" 
d="M238 -31q-55 0 -95.5 39t-40.5 94q0 54 41 96t95 42t94.5 -41.5t40.5 -96.5t-39.5 -94t-95.5 -39z" />
    <glyph glyph-name="slash" unicode="/" horiz-adv-x="569" 
d="M102 -31h-135l608 1491h136z" />
    <glyph glyph-name="zero" unicode="0" 
d="M121 537q0 79 18.5 176t53 198.5t87 196.5t116 170t145.5 120.5t170 45.5q98 0 171.5 -48t116 -132.5t62.5 -188t20 -225.5q0 -78 -17 -171.5t-49.5 -192.5t-84.5 -191t-116 -165t-150.5 -117t-182.5 -44q-81 0 -145 38t-103.5 97t-65.5 136.5t-36 150.5t-10 146z
M285 408q0 -38 1.5 -69.5t6.5 -73t14 -73.5t25 -65t38 -54.5t55.5 -35.5t74.5 -14q60 0 115 39.5t96 104.5t76 149t59 172t40.5 173.5t24 154t7.5 114.5q0 49 -0.5 79t-4.5 82.5t-11.5 86.5t-23 75.5t-37 66t-55 41.5t-75.5 17q-76 0 -142 -56t-110.5 -147t-79.5 -198.5
t-54.5 -219t-29.5 -200.5t-10 -149z" />
    <glyph glyph-name="one" unicode="1" 
d="M616 1260l-327 -166l-27 49l545 301l20 -10l-215 -1217q-12 -73 -12 -104q0 -21 9.5 -33.5t31.5 -18.5t46.5 -8t66.5 -2h84l-11 -51q-55 0 -164 2t-165 2q-110 0 -336 -4l10 51h66q41 0 59 0.5t43 4.5t35.5 12.5t21 24.5t15.5 40z" />
    <glyph glyph-name="two" unicode="2" 
d="M244 164h635l65 119l45 -13l-80 -270q-270 4 -407 4q-149 0 -461 -4l6 72l289 272q76 73 143 149.5t136.5 173.5t111 200t41.5 194q0 111 -57.5 185.5t-165.5 74.5q-20 0 -40 -3t-35 -5.5t-34 -11.5t-30 -13t-30.5 -18.5t-26.5 -19t-28 -23t-25.5 -22.5t-28 -26.5
t-27.5 -25.5l-33 47q55 57 93 92.5t93 74.5t114 58t124 19q146 0 235.5 -86t89.5 -234q0 -91 -37.5 -186.5t-92 -174.5t-137 -169t-152 -154t-158 -146t-135.5 -130z" />
    <glyph glyph-name="three" unicode="3" 
d="M377 715l10 55q89 6 176.5 45t151 114t63.5 167q0 113 -54.5 182.5t-162.5 69.5q-26 0 -51 -5.5t-43 -12t-43 -21.5t-37 -23.5t-41 -30t-39 -28.5l-33 37q59 49 91.5 73t82.5 53.5t100.5 41.5t110.5 12q123 0 209 -72.5t86 -195.5q0 -65 -20.5 -121t-52 -96t-80.5 -76
t-95.5 -60t-107.5 -49v-4q144 -20 227.5 -101.5t83.5 -224.5q0 -125 -73 -234t-199.5 -175t-274.5 -66q-103 0 -164.5 15.5t-140.5 68.5l-22 105l86 26q35 -84 94.5 -122.5t149.5 -38.5q105 0 188 59.5t125.5 150.5t42.5 191q0 128 -67.5 210.5t-190.5 82.5q-71 0 -86 -2z
" />
    <glyph glyph-name="four" unicode="4" 
d="M553 0l88 473h-590l6 72l838 899h92l-156 -836h226l-27 -135h-223l-86 -473h-168zM666 608l110 606h-4l-559 -606h453z" />
    <glyph glyph-name="five" unicode="5" 
d="M1022 1249h-453l-88 -219q78 -50 142.5 -106t123 -126.5t92 -155.5t33.5 -175q0 -136 -60.5 -249.5t-172.5 -181t-252 -67.5q-118 0 -192 31t-109 66l-20 88l88 30q51 -87 108.5 -124t153.5 -37q90 0 159 54.5t101.5 134t32.5 167.5q0 166 -100 294.5t-259 215.5l213 524
h516z" />
    <glyph glyph-name="six" unicode="6" 
d="M412 629l22 78q57 35 132.5 59.5t142.5 24.5q124 0 214.5 -97.5t90.5 -247.5q0 -126 -62.5 -236t-171 -175.5t-235.5 -65.5q-99 0 -178.5 38t-128 102t-74 143.5t-25.5 167.5q0 141 54 281t147 255.5t212.5 210.5t255.5 158.5t271 87.5l17 -47q-205 -43 -369.5 -172.5
t-267.5 -316.5q-144 -270 -144 -515q0 -45 6 -87.5t22.5 -89.5t42.5 -82t70 -57.5t101 -22.5q73 0 129 36t88 94t48 123t16 132q0 126 -63 206t-185 80q-95 0 -178 -65z" />
    <glyph glyph-name="seven" unicode="7" 
d="M172 1161l70 252h923v-16l-872 -1442l-82 45l764 1249h-703l-49 -88h-51z" />
    <glyph glyph-name="eight" unicode="8" 
d="M135 268q0 67 22 125t54.5 99t85 79.5t99 63.5t110.5 53q-207 181 -207 381q0 99 47 184t137.5 138t204.5 53q88 0 167 -33.5t132 -103t53 -160.5q0 -74 -27 -138t-77.5 -114t-103.5 -86.5t-123 -71.5q47 -44 70 -66.5t56 -63t48 -73.5t27 -80.5t12 -101.5
q0 -178 -125 -280.5t-312 -102.5q-86 0 -165 35t-132 105t-53 159zM270 266q0 -102 64 -166.5t168 -64.5q115 0 185.5 70t70.5 192q0 49 -18 97t-55.5 96.5t-66.5 80t-79 80.5q-128 -74 -198.5 -164.5t-70.5 -220.5zM451 1135q0 -40 15.5 -84.5t35 -78.5t55.5 -79t57 -67.5
t60 -63.5q109 75 170 164t61 207q0 112 -57.5 178.5t-167.5 66.5q-95 0 -162 -73t-67 -170z" />
    <glyph glyph-name="nine" unicode="9" 
d="M772 784l-22 -77q-57 -35 -132.5 -59.5t-142.5 -24.5q-124 0 -214.5 97t-90.5 247q0 126 62.5 236t171 175.5t235.5 65.5q99 0 178 -38t127.5 -102t74 -143.5t25.5 -167.5q0 -141 -54 -281t-147 -255.5t-212.5 -210.5t-255.5 -158.5t-271 -87.5l-16 47q205 43 369.5 173
t267.5 317q143 269 143 514q0 57 -10.5 111t-35.5 108.5t-75 87.5t-120 33q-73 0 -129 -36t-88 -94t-48 -123t-16 -132q0 -126 63 -206.5t185 -80.5q95 0 178 65z" />
    <glyph glyph-name="colon" unicode=":" horiz-adv-x="569" 
d="M348 571q-54 0 -94.5 39.5t-40.5 94.5q0 54 40.5 95.5t94.5 41.5t94.5 -41t40.5 -96t-39.5 -94.5t-95.5 -39.5zM238 -31q-55 0 -95.5 39t-40.5 94q0 54 41 96t95 42t94.5 -41.5t40.5 -96.5t-39.5 -94t-95.5 -39z" />
    <glyph glyph-name="semicolon" unicode=";" horiz-adv-x="569" 
d="M0 -287l-14 41q42 6 76 13t73 23t64.5 37t43 55.5t17.5 78.5q0 28 -14 37q-11 6 -51 17t-64 36q-25 28 -25 70q0 65 40.5 92t93.5 27q75 0 115 -58t40 -137q0 -99 -59.5 -178t-149.5 -118t-186 -36zM348 571q-54 0 -94.5 39.5t-40.5 94.5q0 54 40.5 95.5t94.5 41.5
t94.5 -41t40.5 -96t-39.5 -94.5t-95.5 -39.5z" />
    <glyph glyph-name="less" unicode="&#x3c;" 
d="M1022 135v-145l-905 395v135l905 395v-145l-750 -317z" />
    <glyph glyph-name="equal" unicode="=" 
d="M1022 725v-135h-905v135h905zM1022 315v-135h-905v135h905z" />
    <glyph glyph-name="greater" unicode="&#x3e;" 
d="M117 135l749 318l-749 317v145l905 -395v-135l-905 -395v145z" />
    <glyph glyph-name="question" unicode="?" horiz-adv-x="909" 
d="M442 1284q-29 0 -46 19t-17 47q0 80 127 80q130 0 231 -92.5t101 -221.5q0 -75 -25.5 -131t-64 -87t-91.5 -55.5t-101 -36.5t-101 -28t-82 -33q-34 -20 -55 -56t-21 -75q0 -62 52 -94.5t100 -32.5q19 0 40 5.5t29 5.5q45 0 45 -52q0 -35 -17 -58t-50 -23q-71 0 -156 75
q-42 37 -84.5 120.5t-42.5 135.5q0 75 30 127t77.5 79t105 45.5t115.5 34t105.5 35.5t77.5 59.5t30 97.5q0 67 -37 104t-105 37q-39 0 -93 -15.5t-77 -15.5zM317 -31q-55 0 -95 39t-40 94q0 54 40.5 96t94.5 42t95 -41.5t41 -96.5t-40 -94t-96 -39z" />
    <glyph glyph-name="at" unicode="@" horiz-adv-x="1638" 
d="M707 578q0 -93 37.5 -135t99.5 -42q28 0 60.5 17.5t66 55.5t60.5 90.5t44 129.5t17 166q0 139 -88 139q-32 0 -71 -18t-78.5 -54.5t-72.5 -85t-54 -118t-21 -145.5zM1346 158l26 -66q-128 -59 -232.5 -91t-217.5 -32q-161 0 -298.5 46.5t-229 121t-156.5 169t-94 189
t-29 183.5q0 171 63 318.5t170 248.5t250 158t301 57q196 0 358 -83t255.5 -230.5t93.5 -327.5q0 -67 -16.5 -138.5t-51 -139.5t-81 -121.5t-112 -86t-139.5 -32.5q-50 0 -90 20t-61 47.5t-31.5 51t-9.5 35.5h-4q-31 -46 -99 -96.5t-149 -53.5q-22 -1 -44.5 3t-53.5 20
t-53.5 43.5t-39 79.5t-16.5 122q0 40 11.5 92.5t34 111.5t58.5 115.5t81 102t107.5 73.5t131.5 28q15 0 28 -2t23 -4t21 -8.5t17 -9.5t15 -13t12 -12.5t11 -16t9 -15t9 -17.5l9 -15l20 84h150l-134 -528q-12 -47 -12 -76q0 -96 82 -96q83 0 150.5 74.5t101 176.5t33.5 201
q0 76 -26.5 156t-80.5 155t-127 134t-175 95t-216 36q-124 0 -233.5 -48.5t-193.5 -139.5t-132.5 -233t-48.5 -317q0 -114 46.5 -223t127 -193.5t200 -136t255.5 -51.5q89 0 171 17t128.5 34.5t126.5 53.5z" />
    <glyph glyph-name="A" unicode="A" horiz-adv-x="1478" 
d="M199 190l704 1248q47 11 74 22l12 -8l225 -1272q9 -68 44 -99.5t104 -27.5l-10 -53q-43 0 -129 2t-129 2q-74 0 -222 -4l11 53q23 -3 49.5 -0.5t49 8t35.5 23.5t9 47l-61 406h-480l-168 -349q-22 -49 -22 -73q0 -62 88 -62h61l-10 -53q-40 0 -120.5 2t-120.5 2
q-63 0 -189 -4l10 53q67 -1 108.5 34t76.5 103zM860 1231l-330 -610h424l-90 610h-4z" />
    <glyph glyph-name="B" unicode="B" horiz-adv-x="1366" 
d="M522 711l-98 -545q-4 -24 3.5 -42.5t27 -29t36.5 -17t47.5 -8.5t44 -2.5t40.5 -0.5q166 0 265 109t99 276q0 67 -19.5 116t-50.5 77.5t-79.5 45t-96 22t-110.5 5.5q-53 0 -109 -6zM645 1360l-110 -572q89 -6 149 -6q65 0 125 21.5t109 63t78.5 110t29.5 153.5
q0 65 -25.5 112.5t-70.5 73t-96 37t-111 11.5q-28 0 -78 -4zM252 213l192 1073q5 28 -7.5 47.5t-37 28t-47 11.5t-47.5 3h-43l8 54q171 -7 295 -7q33 0 100 3.5t101 3.5q65 0 125 -7.5t123 -28.5t108.5 -54t75 -88.5t29.5 -127.5q0 -65 -23 -121.5t-62 -97.5t-90.5 -72
t-109 -48t-117.5 -23v-4q363 -36 363 -328q0 -86 -32 -158t-86 -121.5t-127.5 -84t-155 -50.5t-169.5 -16q-48 0 -143 2t-143 2q-97 0 -285 -4l10 53h33q50 -1 78.5 4.5t45.5 30t22 43t14 72.5q1 7 2 10z" />
    <glyph glyph-name="C" unicode="C" horiz-adv-x="1478" 
d="M1485 1391l-68 -361l-41 12q7 77 -9.5 138.5t-70.5 115.5q-99 99 -268 99q-121 0 -226 -44.5t-178.5 -118t-126.5 -169.5t-78.5 -199.5t-25.5 -206.5q0 -135 29.5 -247.5t86.5 -196.5t148 -131t207 -47q185 0 299 94t193 279l45 -11l-82 -348q-25 17 -55 17
q-13 0 -35.5 -8t-55.5 -22t-49 -20q-72 -27 -127 -37t-135 -10q-196 0 -350.5 84.5t-243 242t-88.5 361.5q0 163 65 312t174 256.5t257.5 171t310.5 63.5q104 0 182.5 -15t112.5 -33t64.5 -33t50.5 -15q9 0 19 4.5t15.5 9.5t15.5 14.5t13 12.5z" />
    <glyph glyph-name="D" unicode="D" horiz-adv-x="1705" 
d="M250 197l172 931q20 92 20 162q0 46 -32.5 62.5t-110.5 23.5h-39l10 54q144 -7 244 -7q43 0 135 3.5t170 3.5q106 0 193 -13.5t150 -38.5t102 -48t82 -56q108 -82 169.5 -206.5t61.5 -285.5q0 -235 -113 -414.5t-303.5 -273.5t-425.5 -94q-45 0 -136 1t-136 1
q-69 0 -208 -1t-208 -1l10 53h45q74 3 103.5 30t44.5 114zM649 1358l-217 -1165q-6 -29 0.5 -51t27 -35.5t43 -22t59 -12.5t64.5 -5t70 -1q156 0 285.5 59.5t215 161t132.5 236.5t47 288q0 79 -19 151t-48 124t-68 95t-75 69.5t-72 43.5q-84 40 -142.5 55t-158.5 15
q-51 0 -144 -6z" />
    <glyph glyph-name="E" unicode="E" horiz-adv-x="1366" 
d="M39 0l10 53h29q47 -1 77.5 7.5t47.5 29.5t24.5 42t14.5 58l192 1055q4 18 4 51q0 30 -32.5 55t-100.5 25h-41l10 54q62 -1 233.5 -5t264.5 -4t263.5 4t232.5 5l-23 -285h-41v49q0 44 -11 74t-32 49.5t-61 29.5t-88 13.5t-123 3.5h-250l-107 -582h267q82 -2 132 17t66 75
l27 99h35l-84 -465h-33l6 80q6 65 -37 87.5t-147 22.5h-244l-80 -456q-10 -68 -10 -78q0 -46 25.5 -72t91.5 -26h321q59 0 101 5t76 21.5t55.5 33t45 54.5t38.5 70t41 94h47l-92 -344q-29 0 -292 2t-399 2q-150 0 -450 -4z" />
    <glyph glyph-name="F" unicode="F" 
d="M39 0l10 53h25q88 -2 115 18t49 103l190 1024q8 41 8 80q0 63 -37 82t-120 16h-19l10 54q209 -9 559 -9q55 0 165 4.5t165 4.5l-20 -281h-43q-1 10 -3 45.5t-4.5 53.5t-12.5 43t-27 40q-14 12 -40 20t-71.5 10.5t-73 3t-92.5 0t-82 -0.5h-53l-105 -582h267q42 1 69.5 3.5
t50.5 11t36 18t25.5 30.5t20 42t19.5 59l10 33h43l-86 -496h-41q1 11 4.5 33t5.5 40t2 34q0 104 -137 108h-307l-88 -520q-4 -36 -4 -47q0 -50 30.5 -64.5t129.5 -13.5h34l-10 -53q-84 -1 -185 0.5t-128 1.5q-41 0 -138 -1t-116 -1z" />
    <glyph glyph-name="G" unicode="G" horiz-adv-x="1705" 
d="M1575 1376l-55 -346h-41q0 163 -76 248q-53 58 -145.5 87.5t-182.5 29.5q-136 0 -263 -64t-218.5 -167t-146 -238.5t-54.5 -274.5q0 -90 20.5 -178t62 -167t99 -139.5t137 -96t169.5 -35.5q62 0 109.5 7.5t93 27.5t75 60t41.5 99l33 207q5 28 -3.5 48t-22.5 30t-40 15.5
t-45 6.5t-49 1h-43l10 53q169 -6 340 -6q36 0 107.5 3t107.5 3l-10 -51h-26q-41 0 -68.5 -11.5t-44 -37.5t-24.5 -51.5t-17 -69.5l-47 -289q-273 -111 -490 -111q-147 0 -274 48t-218.5 134.5t-143.5 214t-52 279.5q0 170 70 322.5t187.5 260t275 170t327.5 62.5
q93 0 197 -19t184 -50q64 -23 80 -23q12 0 26 8t15 8z" />
    <glyph glyph-name="H" unicode="H" horiz-adv-x="1705" 
d="M600 1169l-70 -387h764l82 447q7 35 7 60.5t-6.5 41t-14.5 25.5t-23.5 14t-27 5t-31.5 1h-70l11 54q172 -7 288 -7q42 0 125.5 3.5t126.5 3.5l-10 -54h-37q-84 0 -114 -34q-24 -28 -43 -126q-2 -11 -9 -47l-170 -909q-25 -136 -11 -172.5t89 -34.5h76l-10 -53
q-45 0 -136.5 2t-136.5 2q-88 0 -264 -4l10 53h39q31 -1 52 2t37 13.5t25 20t17.5 34t12.5 43.5t12 59l86 473h-760l-84 -438q-25 -136 -11 -172.5t89 -34.5h76l-11 -53q-45 0 -136 2t-136 2q-88 0 -264 -4l10 53h39q31 -1 52 2t37 13.5t25 20t17.5 34t12.5 43.5t12 59
l184 1004q7 35 7 60.5t-6.5 41t-14.5 25.5t-23.5 14t-27 5t-31.5 1h-70l10 54q171 -7 289 -7q42 0 125.5 3.5t126.5 3.5l-10 -54h-37q-84 0 -114 -34q-24 -28 -43 -126q-2 -11 -9 -47z" />
    <glyph glyph-name="I" unicode="I" horiz-adv-x="796" 
d="M47 0l10 53h35q30 0 49.5 2t35.5 9.5t25 16t18 27.5t14.5 37.5t13.5 53.5l198 1083q5 27 -2 46t-17.5 28.5t-33 14t-35 5t-37.5 0.5h-12h-37l11 54q127 -5 301 -5q38 0 118 2.5t121 2.5l-10 -54h-39q-1 0 -9.5 0.5t-14.5 0t-17.5 -1t-20 -3t-20 -6.5t-20 -11t-17.5 -15.5
t-15 -22t-9 -29.5l-201 -1091q-17 -90 10 -117t125 -27h31l-10 -53q-45 0 -136.5 2t-136.5 2q-90 0 -266 -4z" />
    <glyph glyph-name="J" unicode="J" horiz-adv-x="796" 
d="M197 -115l247 1299q23 112 23 131q0 29 -26 45t-68 16h-97l11 54q161 -7 274 -7q43 0 130.5 3.5t131.5 3.5l-10 -54h-53q-59 0 -80 -29t-35 -100l-192 -979q-31 -166 -98 -344.5t-156 -279.5q-50 -57 -95.5 -84t-109.5 -27q-53 0 -96 31.5t-43 81.5q0 31 22.5 53t54.5 22
q31 0 48 -12.5t22.5 -30.5t10 -36t15.5 -30.5t33 -12.5q82 0 136 286z" />
    <glyph glyph-name="K" unicode="K" horiz-adv-x="1478" 
d="M266 1376l10 54q117 -5 283 -5q41 0 124 2.5t124 2.5l-10 -54q-33 0 -57.5 -3.5t-53.5 -15t-48 -37.5t-26 -65l-94 -526h23q25 0 48 7.5t44.5 24t36 29.5t37.5 37.5t34 34.5q77 75 236.5 254t159.5 213q0 51 -74 47h-29l10 54q85 -5 203 -5q37 0 111.5 2.5t111.5 2.5
l-10 -54q-69 0 -100 -14q-68 -32 -191 -150l-440 -452l412 -563q58 -78 87 -103q49 -41 99 -41h25l-11 -53q-27 0 -82 2t-83 2q-16 0 -46 -2t-45 -2q-23 0 -50.5 29t-86.5 108q-40 54 -162.5 226.5t-195.5 269.5q-11 16 -17.5 23t-18 13.5t-26.5 6.5h-22l-74 -404
q-18 -124 -18 -149q0 -14 4 -24.5t16.5 -22t42.5 -17.5t76 -6h31l-11 -53q-41 0 -121.5 2t-121.5 2q-95 0 -283 -4l10 53h9q16 1 30.5 0.5t28 0.5t26 4t25 11t23.5 21q25 29 49 164l180 981q8 39 8 70q0 27 -11 43t-30 21t-43.5 7t-50.5 0h-35z" />
    <glyph glyph-name="L" unicode="L" horiz-adv-x="1366" 
d="M1286 356l-110 -356q-418 4 -629 4q-321 0 -481 -4l10 53h53q80 7 110 45.5t48 143.5l180 1020q7 41 -10 67.5t-46.5 35t-64 12.5t-61.5 -1l10 54q51 0 154.5 -2.5t154.5 -2.5q44 0 132 2.5t132 2.5l-10 -54q-38 1 -58.5 0t-44.5 -4.5t-36.5 -12t-26 -23.5t-21.5 -37.5
t-16 -55.5l-215 -1177h434q279 0 363 290h49z" />
    <glyph glyph-name="M" unicode="M" horiz-adv-x="1933" 
d="M29 0l10 53h22q47 0 73.5 5.5t50.5 26.5t40 59t33 106l254 1016q-24 66 -66.5 87t-119.5 23h-27l10 54q79 -5 193 -5q30 0 89 2.5t89 2.5l278 -1156l590 1156q61 -5 148 -5q35 0 105 2.5t104 2.5l-11 -54h-22q-86 0 -119.5 -32.5t-38.5 -106.5l-65 -1036
q-4 -83 27 -115.5t114 -32.5h33l-11 -53q-44 0 -133 2t-133 2q-99 0 -295 -4l11 53h24q95 0 131 26.5t43 117.5l76 1017h-4l-623 -1214h-69l-271 1143h-4l-223 -950q-10 -50 -10 -60q0 -39 17.5 -59.5t64.5 -20.5h82l-11 -53q-29 0 -89 2t-89 2q-94 0 -278 -4z" />
    <glyph glyph-name="N" unicode="N" horiz-adv-x="1705" 
d="M39 0l8 53h29q39 0 61.5 4.5t46 19.5t38.5 45.5t29 81t28 128.5l155 885q1 6 -14 30.5t-42.5 53.5t-53.5 40q-31 16 -65 25.5t-50 9.5h-19l9 54q107 -7 186 -7q22 0 68 3.5t69 3.5l783 -1162l145 854q14 63 14 138q0 72 -37.5 94t-111.5 22h-39l8 54q133 -7 227 -7
q40 0 121 3.5t121 3.5l-8 -54h-31q-20 0 -37 -4t-30 -8.5t-24.5 -16l-19 -19t-15 -25.5t-11.5 -27.5t-9.5 -33t-7.5 -33.5t-7 -38t-7 -38l-176 -957q33 -53 66.5 -88t79.5 -47l-11 -41q-82 4 -121 4q-40 0 -122 -4l-760 1128l-135 -827q-21 -134 -21 -154q0 -94 131 -94h66
l-11 -53q-41 0 -123.5 2t-123.5 2q-82 0 -246 -4z" />
    <glyph glyph-name="O" unicode="O" horiz-adv-x="1820" 
d="M381 602q0 -124 28.5 -225t87.5 -178.5t157 -120.5t229 -43q116 0 217 48t171.5 127t121 180.5t74.5 208.5t24 212q0 118 -30 221t-89 185.5t-157 130t-224 47.5q-123 0 -226 -47.5t-172.5 -126t-118.5 -182t-71 -214t-22 -223.5zM180 645q0 167 63.5 318t172 260
t258.5 173t315 64q138 0 265.5 -47t224.5 -129.5t155 -205t58 -263.5q0 -173 -62 -329t-169.5 -269.5t-260.5 -180.5t-328 -67q-311 0 -501.5 183t-190.5 493z" />
    <glyph glyph-name="P" unicode="P" horiz-adv-x="1251" 
d="M47 0l10 53h43q26 2 39.5 4t32 9t29 18.5t20.5 32.5t17 51l192 1085q13 70 -31 96.5t-135 26.5h-22l10 54q120 -5 289 -5q48 0 143 2.5t143 2.5q107 0 190 -32.5t136 -107t53 -182.5q0 -99 -42.5 -180t-113 -132.5t-159 -79.5t-184.5 -28q-70 0 -105 4l10 62h64
q50 0 95.5 11t89 37t75 65t51 100.5t19.5 138.5q0 133 -66 195.5t-207 62.5q-1 0 -94 -6l-139 -772l-66 -371l-10 -74q0 -33 16 -53t40 -26t53.5 -9t56.5 0h37l-11 -53q-192 4 -288 4q-93 0 -281 -4z" />
    <glyph glyph-name="Q" unicode="Q" horiz-adv-x="1820" 
d="M381 602q0 -124 28.5 -225.5t87.5 -179.5t157 -121t229 -43q116 0 217 48t171.5 127.5t121 181t74.5 209t24 212.5q0 118 -30 221t-89 185.5t-157 130t-224 47.5q-123 0 -226 -47.5t-172.5 -126t-118.5 -182t-71 -214t-22 -223.5zM115 -207v41q126 22 326 65.5t264 61.5
l53 14v5q-264 31 -421 208t-157 457q0 167 63.5 318t172 260t258.5 173t315 64q138 0 265.5 -47t224.5 -129.5t155 -205t58 -263.5q0 -206 -85 -379.5t-257.5 -301.5t-413.5 -183q-452 -102 -455 -103v-4q58 -18 165.5 -48t135.5 -38q22 -6 106 -30.5t127 -36t113.5 -28.5
t128.5 -25t109 -9q21 0 43 3.5t45.5 11.5t38 25t14.5 40q0 14 -5 38t-5 28q0 27 19.5 45t46.5 18q53 0 53 -53q0 -43 -34.5 -88.5t-92 -82.5t-140 -60t-169.5 -21q-66 1 -174.5 24.5t-192.5 48t-214 64.5t-169 51q-71 24 -165 46.5t-150 25.5z" />
    <glyph glyph-name="R" unicode="R" horiz-adv-x="1478" 
d="M268 1376l11 54q115 -5 274 -5q35 0 105.5 2.5t105.5 2.5q83 0 158.5 -14.5t147 -48t114.5 -98t43 -153.5q0 -87 -35.5 -157t-97 -115t-134 -73t-155.5 -40q50 -48 98.5 -114.5t77 -113.5t79 -136.5t70.5 -124.5q55 -91 74 -114q72 -90 170 -75l-10 -53h-252
q-41 0 -105 90.5t-153 249.5q-11 19 -32.5 57.5t-32.5 58.5t-30.5 54t-31 52.5t-28 45t-28 41t-24 30t-22.5 23.5t-19 11q-15 4 -65 4l-86 -504l-11 -80q0 -19 6.5 -33.5t20 -23t26 -13.5t34 -7t34 -2.5t35.5 -0.5h35l-10 -53q-188 4 -281 4q-94 0 -278 -4l10 53h20
q44 0 64 2.5t44 16t37.5 44.5t24.5 85l185 1016q8 36 8 67q0 55 -36.5 73.5t-121.5 18.5h-33zM657 1364l-106 -594q94 0 141 2q151 5 248.5 93.5t97.5 236.5q0 145 -86.5 203.5t-267.5 58.5h-27z" />
    <glyph glyph-name="S" unicode="S" horiz-adv-x="1024" 
d="M102 416h41q1 -14 3.5 -56t4 -60t8.5 -50t19 -60q29 -70 99.5 -112.5t152.5 -42.5q120 0 200.5 67.5t80.5 182.5q0 60 -25 119.5t-65.5 110t-89.5 102t-97.5 104.5t-89 107.5t-65.5 120.5t-25 134q0 166 106.5 271.5t276.5 105.5q113 0 223 -37q42 -14 58 -14
q10 0 16.5 2.5t13 8t10.5 7.5h35l-63 -360h-45q0 15 2 43t2 43q0 113 -68 177.5t-182 64.5q-102 0 -161.5 -56.5t-59.5 -158.5q0 -57 26.5 -115t69 -109.5t93.5 -103.5t102.5 -107t94 -110.5t69 -123t26.5 -136.5q0 -173 -127.5 -289.5t-312.5 -116.5q-61 0 -122 13.5
t-90 25t-85 35.5l-68 -61h-47z" />
    <glyph glyph-name="T" unicode="T" horiz-adv-x="1366" 
d="M547 213l203 1133h-347q-35 0 -63.5 -7.5t-49 -24.5t-35 -32.5t-26 -42.5t-17.5 -42.5t-14.5 -45t-11.5 -37.5h-53l76 346h37q28 -16 57 -22q27 -8 62 -8h960q74 0 111 30h34l-34 -350h-54v55q0 106 -31 143.5t-130 37.5h-281l-199 -1096q0 -4 -9 -54.5t-9 -62.5
q0 -46 33.5 -63t115.5 -17h54l-11 -53q-55 0 -164 2t-163 2q-90 0 -266 -4l10 53h63q69 -2 102 31.5t50 128.5z" />
    <glyph glyph-name="U" unicode="U" horiz-adv-x="1593" 
d="M317 610l93 531q14 86 14 127q0 32 -9 53t-20.5 32t-36 16.5t-40 6t-48.5 0.5h-39l11 54q132 -5 321 -5q45 0 136 2.5t137 2.5l-11 -52h-47q-53 -2 -85 -20.5t-58 -74t-43 -159.5l-111 -686q-6 -44 -6 -82q0 -76 29 -136t77.5 -95.5t106.5 -53.5t121 -18q75 0 135 16.5
t102 40.5t75 70.5t52 84t36.5 106.5t25.5 113t20 126l99 561q6 35 6 78q0 66 -43 96.5t-131 30.5h-31l10 54q102 -5 252 -5q37 0 111.5 2.5t111.5 2.5l-10 -54h-26q-27 0 -49.5 -10t-38 -23t-29 -38.5t-21 -43.5t-15.5 -53t-11 -51t-8.5 -53t-6.5 -45l-90 -545
q-30 -173 -62 -256t-106 -154q-138 -135 -399 -135q-72 0 -139.5 12.5t-130.5 41.5t-109 71.5t-74 106.5t-28 143q0 101 30 266z" />
    <glyph glyph-name="V" unicode="V" horiz-adv-x="1478" 
d="M758 1430l-10 -54h-11q-51 0 -83 -5t-53.5 -25t-14.5 -56l213 -1050h4l481 991q25 55 25 84q0 61 -160 61h-16l10 54q97 -5 231 -5q37 0 109.5 2.5t109.5 2.5l-10 -54q-67 3 -103.5 -20t-66.5 -84l-676 -1303h-69l-265 1260q-16 83 -50 115t-128 32h-12l10 54
q43 0 130 -2.5t130 -2.5q45 0 137 2.5t138 2.5z" />
    <glyph glyph-name="W" unicode="W" horiz-adv-x="2048" 
d="M713 1430l-11 -54h-20q-51 0 -81.5 -12.5t-29.5 -48.5q2 -32 15 -78l229 -1012l281 494l-156 581q-14 40 -43 56.5t-90 19.5h-25l11 54q48 -2 138.5 -3.5t110.5 -1.5q44 -1 113.5 2t81.5 3l-10 -54h-39q-30 -1 -44.5 -20t-8.5 -45l86 -373h4l168 307q26 57 26 80
q0 32 -19 40.5t-77 10.5h-18l10 54q34 -2 100.5 -3.5t81.5 -1.5q74 -2 197 5l-11 -54h-30q-16 1 -29.5 -0.5t-25.5 -7t-21 -8.5t-19.5 -14.5t-15.5 -16t-15.5 -20.5t-14 -21t-15 -25.5t-14.5 -25.5l-234 -395l154 -617h4l473 983q35 77 35 113q0 32 -23.5 43t-101.5 12h-25
l11 54q118 -8 206 -5q152 5 187 5l-10 -54h-17q-27 -1 -46 -9t-37 -31.5t-26 -38t-30 -56.5l-651 -1272h-58l-174 649l-377 -649h-53l-315 1331q-9 40 -37 56.5t-90 19.5h-25l10 54q48 -2 138.5 -3.5t111.5 -1.5q42 -1 119.5 2t110.5 3z" />
    <glyph glyph-name="X" unicode="X" horiz-adv-x="1593" 
d="M29 0l10 53h33q67 6 118 33q35 17 101 90l459 512l-324 588q-34 62 -72.5 81t-117.5 19h-27l10 54q51 -2 148.5 -3.5t119.5 -1.5q109 -2 281 5l-10 -54h-17q-112 0 -112 -49q0 -27 30 -82l226 -414l379 443q24 31 24 49q0 53 -125 53h-20l10 54q39 0 118 -2.5t118 -2.5
q36 0 107 2.5t108 2.5l-11 -54h-30q-36 0 -81.5 -27t-74.5 -59l-483 -526l311 -559q47 -87 81 -119.5t93 -32.5h47l-10 -53q-43 0 -128 2t-128 2q-93 0 -281 -4l11 53h22q17 -2 36 -0.5t35.5 5.5t27 15.5t10.5 30.5q0 31 -39 101l-224 411l-368 -440q-37 -42 -43 -65
q-2 -8 -2 -17q0 -46 112 -41h19l-10 -53q-38 0 -115 2t-115 2q-77 0 -237 -4z" />
    <glyph glyph-name="Y" unicode="Y" horiz-adv-x="1366" 
d="M719 1430l-10 -54h-74q-38 0 -61.5 -18.5t-6.5 -57.5l262 -620l373 584q27 41 27 69q0 43 -127 43h-35l8 54q103 -5 248 -5q88 0 152 5l-11 -54q-65 7 -137 -96l-20 -31l-451 -661l-76 -402q-4 -22 -4 -39.5t2 -31t9.5 -23.5t14 -16.5t20.5 -11t23.5 -6.5t29 -3.5
t30.5 -1.5h33h37l-10 -53q-52 0 -158 2t-158 2q-88 0 -264 -4l8 53h45q61 -1 92 11.5t42.5 35.5t21.5 76l78 408l-316 721q-16 35 -56.5 53t-88.5 18h-21l9 54q105 -5 252 -5q45 0 134 2.5t134 2.5z" />
    <glyph glyph-name="Z" unicode="Z" horiz-adv-x="1478" 
d="M43 0v16l1122 1336h-477q-50 0 -80 -1t-67 -4t-59 -9.5t-48.5 -18t-43.5 -28t-36.5 -41t-35 -56.5t-31.5 -74h-49l90 310h1114v-17l-1110 -1329h647q22 0 42 1.5t35.5 3t31.5 6t25.5 7t22 9t18 9t16.5 10t13 9.5t12 10t11 9q32 25 64.5 89t52.5 128h47l-96 -375
q-422 4 -633 4q-99 0 -299 -2t-299 -2z" />
    <glyph glyph-name="bracketleft" unicode="[" horiz-adv-x="681" 
d="M430 -342l-8 -53q-28 0 -86 2t-86 2q-26 0 -82 -2t-78 -2l-6 22l346 1817l14 16q23 0 75.5 -2t72.5 -2q26 0 78 2t78 2l-9 -53h-67q-71 0 -100.5 -15t-39.5 -71l-299 -1565q-6 -48 -6 -49q0 -49 113 -49h90z" />
    <glyph glyph-name="backslash" unicode="\" horiz-adv-x="569" 
d="M633 -31h-135l-480 1491h136z" />
    <glyph glyph-name="bracketright" unicode="]" horiz-adv-x="681" 
d="M272 1407l9 53q29 0 86 -2t86 -2q26 0 81.5 2t77.5 2l6 -22l-346 -1817l-14 -16q-23 0 -75 2t-72 2q-26 0 -78 -2t-78 -2l8 53h68q70 0 99.5 15t39.5 71l299 1565q6 48 6 49q0 26 -14 37q-15 12 -99 12h-90z" />
    <glyph glyph-name="asciicircum" unicode="^" 
d="M276 666h-139l371 747h123l370 -747h-139l-293 596z" />
    <glyph glyph-name="underscore" unicode="_" horiz-adv-x="1024" 
d="M1024 -256h-1024v102h1024v-102z" />
    <glyph glyph-name="grave" unicode="`" horiz-adv-x="569" 
d="M309 1427l248 -309h-43q-12 0 -35 17l-239 180q-60 49 -60 80q0 22 19.5 43.5t42.5 21.5q26 0 37.5 -6t29.5 -27z" />
    <glyph glyph-name="a" unicode="a" horiz-adv-x="1024" 
d="M178 262q0 -60 25 -100.5t80 -40.5q71 0 154 70.5t147 168t107.5 202.5t43.5 173q0 39 -31.5 72t-70.5 33q-79 0 -163.5 -62t-147.5 -151t-103.5 -189t-40.5 -176zM819 868l29 66q0 1 3.5 6.5t5 8t5 7.5t6 7.5t7 5.5t9 4.5t9.5 1.5h43q18 0 18 -10q0 -1 -4 -17l-202 -727
q-9 -27 -9 -51q0 -29 25 -29q26 0 53 20.5t58 56.5t40 44l33 -26q-17 -18 -51 -59t-62.5 -72.5t-64.5 -65t-74 -52t-75 -18.5q-27 0 -48.5 15t-21.5 43q0 38 35 149l57 180l-2 6q-44 -67 -94 -129.5t-111.5 -125t-128.5 -100.5t-125 -38q-36 0 -64 10.5t-44.5 27.5
t-27.5 40.5t-15 45.5t-4 46q0 118 67 261.5t165 260t216.5 196t214.5 79.5q75 0 129 -68z" />
    <glyph glyph-name="b" unicode="b" 
d="M616 1561l-266 -916l4 -4q50 57 95.5 101.5t107 92.5t128.5 74.5t132 26.5q119 0 175.5 -69t56.5 -191q0 -96 -41 -199t-112 -192t-159.5 -161t-190 -113.5t-196.5 -41.5q-107 0 -175.5 55.5t-68.5 163.5q0 50 25 152l270 1077l-96 60l6 36q47 4 158 27q88 19 131 33z
M885 709q0 143 -123 143q-73 0 -149.5 -46t-138 -119t-111.5 -160t-77.5 -174.5t-27.5 -155.5q0 -72 30 -123t95 -51q90 0 184 74.5t162 181t112 225t44 205.5z" />
    <glyph glyph-name="c" unicode="c" horiz-adv-x="909" 
d="M823 299l29 -37q-56 -64 -107 -111t-114.5 -91t-135 -67.5t-147.5 -23.5q-119 0 -184.5 77.5t-65.5 201.5q0 201 131.5 371t321.5 247q160 70 229 70q37 0 69 -22.5t32 -59.5q0 -45 -28 -75.5t-67 -30.5q-37 0 -87.5 32.5t-80.5 32.5q-73 0 -142 -61t-114 -148
t-72.5 -178.5t-27.5 -157.5q0 -88 52 -138t143 -50q161 0 366 219z" />
    <glyph glyph-name="d" unicode="d" 
d="M238 268q0 -80 35 -134t112 -54q60 0 123 45t113 115t90.5 150t63 155t22.5 125q0 82 -34 132t-112 50q-66 0 -131 -42.5t-114.5 -109t-88 -145t-59 -154.5t-20.5 -133zM1038 276l29 -28q-205 -279 -344 -279q-27 0 -45.5 18.5t-18.5 45.5q0 51 39 180l15 45h-4
q-43 -51 -72 -83t-76 -75.5t-87.5 -68.5t-94 -43.5t-107.5 -18.5q-103 0 -150.5 69t-47.5 179q0 184 139 387q38 55 92 111t118 106.5t137 82.5t136 32q78 0 156 -45l100 516l-123 66l11 28q58 5 149 23q61 13 150 41l20 -9l-317 -1325q-11 -49 -11 -67q0 -33 33 -33
q10 0 22.5 5t23.5 11.5t25.5 19t23.5 21t24 25t21 23t19.5 22.5t14.5 18z" />
    <glyph glyph-name="e" unicode="e" horiz-adv-x="909" 
d="M762 270l29 -34q-113 -126 -226 -196.5t-239 -70.5q-68 0 -118.5 23.5t-78.5 64t-41.5 88t-13.5 101.5q0 120 51 245.5t132 223t190 159.5t217 62q37 0 70.5 -7t63.5 -22.5t48 -45.5t18 -70q0 -80 -43 -146t-108 -108.5t-150.5 -73.5t-160.5 -46t-148 -22
q-16 -71 -16 -157q0 -74 47 -116t121 -42q159 0 356 190zM264 449q75 5 148 26.5t139.5 60t107.5 102.5t41 144q0 40 -22.5 64t-61.5 24q-56 0 -116.5 -46.5t-107 -114t-81 -137.5t-47.5 -123z" />
    <glyph glyph-name="f" unicode="f" horiz-adv-x="681" 
d="M496 905h225l-25 -84h-223l-342 -1251l-125 -37l-6 12l315 1276h-184l23 84h180q24 84 39.5 131.5t42.5 115t55 113.5t71.5 99.5t98.5 101.5q46 41 105.5 70t113.5 29q35 0 59.5 -16t24.5 -50q0 -28 -16 -63t-41 -35q-19 0 -62 20.5t-67 20.5q-30 0 -55 -10t-44 -31
t-32.5 -42t-25.5 -55.5t-18.5 -57t-15.5 -60.5z" />
    <glyph glyph-name="g" unicode="g" horiz-adv-x="1024" 
d="M360 195l322 -166q37 -20 54 -30t42 -29.5t36 -37t19.5 -45.5t8.5 -63q0 -73 -47.5 -132t-119.5 -92t-147.5 -50t-142.5 -17q-50 0 -100.5 5t-110.5 21t-105 40.5t-75.5 68.5t-30.5 101q0 36 15 69t44 60.5t57.5 48.5t72 42t69 32t64.5 26q-7 4 -26.5 15t-31.5 19.5
t-27 21t-22.5 27t-7.5 30.5q0 19 9.5 38.5t20.5 33t33.5 32.5t34 27t38 25t30.5 20q-90 49 -132 106t-42 150t59.5 173.5t151 125.5t188.5 45q54 0 95 -9t91 -27.5t84 -27.5q35 -10 43 -10q26 0 68 25q40 24 64 24q32 0 32 -59q0 -30 -13 -53t-36 -23q-19 0 -69.5 24.5
t-92.5 28.5q66 -72 66 -172q0 -103 -62 -185.5t-156 -124.5t-196 -42q-47 0 -94 6q-15 -5 -39 -31t-24 -40q0 -13 6.5 -22t12 -12.5t19.5 -10.5zM606 -113l-260 133q-22 -8 -57 -25t-81 -45.5t-78 -68.5t-32 -80q0 -55 30.5 -96t79.5 -63t100 -32.5t102 -10.5q43 0 89 7.5
t95.5 24.5t81 51.5t31.5 81.5q0 72 -101 123zM729 709q0 73 -35.5 123.5t-109.5 50.5q-48 2 -90.5 -19.5t-72.5 -58.5t-52 -83t-32.5 -93t-10.5 -88q0 -82 35 -132.5t114 -50.5q77 0 137.5 60t88.5 138.5t28 152.5z" />
    <glyph glyph-name="h" unicode="h" 
d="M604 1556l-289 -1079h4q36 57 98.5 131t140.5 149.5t165 127t154 51.5q147 0 147 -178q0 -78 -43 -206t-107.5 -250.5t-150 -212t-160.5 -89.5q-49 0 -49 45q0 11 10 41l43 100h142q55 112 103 260.5t48 245.5q0 121 -82 121q-49 0 -119 -50t-133.5 -121t-114.5 -140
t-75 -115q-34 -63 -56 -120t-32 -93.5t-35 -136.5q-7 -33 -88 -33q-24 0 -45 9t-21 26q0 9 2.5 19.5t6 23.5t4.5 20l323 1325l-100 58l6 26q61 7 135 19q55 9 146 35z" />
    <glyph glyph-name="i" unicode="i" horiz-adv-x="569" 
d="M129 641l-29 29q35 54 84 110t117.5 106t122.5 50q63 0 63 -51q0 -28 -28 -115l-168 -520q-21 -68 -21 -86q0 -31 27 -31q19 0 74 51t82 82l32 -26q-199 -271 -325 -271q-78 0 -78 82q0 26 22 101l177 520q18 52 18 76t-25 24q-46 0 -145 -131zM469 1413q38 0 66 -29.5
t28 -66.5q0 -35 -28.5 -63.5t-65.5 -28.5t-65.5 28.5t-28.5 63.5q0 37 28 66.5t66 29.5z" />
    <glyph glyph-name="j" unicode="j" horiz-adv-x="569" 
d="M-63 -467l-15 45q87 53 125 195l236 901q16 61 16 74q0 24 -25 24q-46 0 -145 -131l-29 29q35 54 84 110t117.5 106t122.5 50q63 0 63 -51q0 -11 -7.5 -41t-20.5 -73.5t-17 -59.5l-213 -766q-8 -29 -15 -52t-14.5 -44t-12 -34t-13.5 -30t-12 -24t-14 -23.5l-14 -21
t-17.5 -24.5t-18.5 -26q-58 -81 -161 -133zM469 1413q36 0 65 -28t29 -66q0 -37 -28.5 -65.5t-65.5 -28.5q-38 0 -66 29t-28 65q0 37 28.5 65.5t65.5 28.5z" />
    <glyph glyph-name="k" unicode="k" 
d="M84 14l342 1389l-100 61l6 33q51 9 142 31t138 37l19 -9l-238 -907h4q42 59 107 121t156 114t167 52q70 0 112 -40.5t42 -111.5q0 -73 -45.5 -140t-117.5 -115t-147.5 -81.5t-148.5 -50.5v-4q41 -17 90.5 -69.5t104.5 -119.5t92 -98q38 -32 68.5 -42.5t83.5 -10.5
q24 0 61 23v-53q-89 -54 -199 -54q-141 0 -243 133l-146 193q-25 36 -49 57.5t-57 28.5l-101 -369q-11 -41 -75 -41q-30 0 -51 13t-17 30zM829 717q0 44 -26.5 70t-81.5 26q-50 0 -103 -27.5t-97.5 -70.5t-83.5 -95.5t-65 -103.5t-38 -94q28 0 86 4q57 5 126 28t133 59.5
t107 91t43 112.5z" />
    <glyph glyph-name="l" unicode="l" horiz-adv-x="569" 
d="M598 1552l-319 -1335q-7 -28 -7 -41q0 -21 5 -32t22 -11q41 0 158 158l24 -43q-11 -14 -37.5 -50.5t-45.5 -62t-49 -59.5t-56 -55t-58.5 -36.5t-62.5 -15.5q-76 0 -76 101q0 37 15 100l286 1237l-123 66l11 28q58 5 149 23q61 13 150 41z" />
    <glyph glyph-name="m" unicode="m" horiz-adv-x="1705" 
d="M1599 281l29 -31l-63 -70q-75 -83 -144 -131.5t-145 -48.5t-76 70q0 23 25 96l166 475q22 64 22 84q0 23 -14 36t-33 13q-37 0 -89.5 -32t-106 -82.5t-92 -92.5t-70.5 -80q-129 -159 -211 -372l-39 -95q-4 -12 -27.5 -18t-42.5 -6t-43.5 9.5t-28.5 19.5l185 544
q1 2 6 17.5t9 30t9 33.5t8 37.5t3 33.5q0 51 -39 51q-36 0 -75.5 -18t-83.5 -56.5t-64.5 -59t-61.5 -66.5q-10 -10 -14 -15q-175 -187 -256 -418l-41 -116q-4 -11 -28.5 -17t-47.5 -6q-16 0 -37.5 8.5t-28.5 18.5l217 653l3.5 14t4 19.5t1.5 17.5q0 41 -33 41
q-47 0 -119 -72l-55 -61l-31 37q211 260 356 260q35 0 52.5 -20.5t17.5 -51.5q0 -29 -22 -98l-107 -309h4q41 59 108.5 135.5t150.5 156t172 133.5t153 54q45 0 68.5 -18.5t23.5 -49.5q0 -39 -23 -110l-98 -305h4q52 65 117.5 136t154.5 155t181 138t160 54q82 0 82 -84
q0 -39 -21 -100l-164 -480q-3 -10 -11 -32.5t-12.5 -38t-4.5 -25.5q0 -11 10 -17.5t22 -6.5q25 0 85.5 47.5t92.5 81.5z" />
    <glyph glyph-name="n" unicode="n" 
d="M92 641l-31 37q210 258 357 258q35 0 52 -19.5t17 -50.5q0 -29 -22 -98l-107 -309h4q32 46 81 104t116 125t135 121.5t141 91t130 35.5q82 0 82 -84q0 -39 -21 -100l-164 -451q-31 -84 -31 -106q0 -43 37 -43t92 49t84 94l35 -27l-73 -90q-146 -178 -285 -178
q-38 0 -58 19.5t-20 48.5q0 53 29 127l159 436q27 81 27 102q0 19 -14 29t-33 10q-39 0 -81 -20t-79 -52t-68.5 -64.5t-60.5 -64.5q-3 -4 -5.5 -6.5t-4.5 -5.5q-175 -187 -256 -418l-41 -116q-4 -11 -28.5 -17t-47.5 -6q-16 0 -37 8.5t-28 18.5l200 604q25 81 25 102
q0 37 -33 37q-49 0 -119 -70z" />
    <glyph glyph-name="o" unicode="o" 
d="M262 311q0 -61 12.5 -110.5t39 -90.5t74 -64t112.5 -23q64 0 119.5 27.5t95.5 74t72 105t51 123t29 126t10 115.5q0 45 -7 85.5t-24 78.5t-43 65t-66.5 43.5t-91.5 16.5q-66 0 -123 -26.5t-98 -72t-73 -103t-51 -122.5t-28.5 -127.5t-9.5 -120.5zM98 381q0 109 44.5 211
t118.5 177.5t175.5 121t210.5 45.5q176 0 284.5 -118t108.5 -298q0 -107 -43.5 -208t-115.5 -176t-172 -121t-207 -46q-184 0 -294 112.5t-110 299.5z" />
    <glyph glyph-name="p" unicode="p" 
d="M322 862l65 246l170 49l-63 -258q99 37 225 37q309 0 309 -254q0 -102 -51.5 -227t-132 -232.5t-191 -180.5t-217.5 -73q-87 0 -164 60l-100 -400l166 -28l-10 -37q-6 0 -181 -15q-88 -9 -141 -16l-12 16l311 1244q-170 -60 -244 -99l15 80q106 46 246 88zM477 840
l-129 -514q-1 -8 -8.5 -42t-10.5 -61.5t-3 -62.5q0 -42 31 -89.5t81 -47.5q75 0 153.5 74.5t134 179.5t91 216t35.5 187q0 48 -14 84t-34.5 55.5t-49.5 31.5t-52.5 15.5t-48.5 3.5q-111 0 -176 -30z" />
    <glyph glyph-name="q" unicode="q" 
d="M664 840q-78 0 -159.5 -59.5t-142 -146t-99 -184.5t-38.5 -174q0 -71 32.5 -121.5t100.5 -50.5q77 0 161.5 63t148 153.5t105.5 192.5t42 177q0 69 -40.5 109.5t-110.5 40.5zM895 821l47 135l123 39l-346 -1390l137 -29l-10 -43q-72 4 -213 4q-164 0 -246 -4l10 49
l160 23l199 739h-4q-45 -61 -96 -118.5t-118 -119.5t-142 -99.5t-142 -37.5q-82 0 -131 64t-49 139q0 122 47 242t122 211.5t163.5 163.5t175 109.5t153.5 37.5q61 0 99 -26t57 -89h4z" />
    <glyph glyph-name="r" unicode="r" horiz-adv-x="796" 
d="M84 627l-27 35q33 49 81 106t115.5 112.5t113.5 55.5q84 0 84 -78q0 -27 -21 -106l-78 -281h4q246 465 377 465q64 0 64 -70q0 -28 -7.5 -60.5t-28.5 -61.5t-50 -29q-13 0 -38 4t-38 4q-34 0 -70 -29.5t-69.5 -82t-64.5 -112t-60 -133.5t-49.5 -131t-40.5 -118l-37 -131
q-5 -17 -74 -17q-21 0 -43.5 12t-22.5 25q0 4 5 19l161 565q25 82 25 121q0 20 -10 36.5t-29 16.5q-36 0 -84.5 -44t-87.5 -93z" />
    <glyph glyph-name="s" unicode="s" horiz-adv-x="796" 
d="M76 256h26q9 -55 52.5 -93.5t97 -54.5t110.5 -16q26 0 53.5 3.5t58.5 12.5t51 29t20 47q0 39 -31 78t-78.5 73t-97 66.5t-93 71t-59.5 74.5q-18 37 -18 94q0 37 21.5 74.5t62 72.5t69 55.5t70.5 47.5t72.5 36t79.5 9q178 0 178 -123q0 -24 -13 -58t-30 -34h-25
q-5 0 -8.5 1.5t-6.5 5.5t-4 6l-4.5 9l-4.5 9q-13 29 -64.5 51t-103.5 22q-59 0 -106.5 -30t-47.5 -86q0 -46 37.5 -87.5t90.5 -75t106.5 -69t91 -85.5t37.5 -109q0 -91 -134 -220q-94 -94 -243 -94q-42 0 -83 7t-83 23.5t-68 50t-26 79.5q0 22 8.5 47.5t14.5 36.5t24 43z
" />
    <glyph glyph-name="t" unicode="t" horiz-adv-x="681" 
d="M332 905l78 258h163l-84 -258h220l-25 -84h-217l-178 -592q-13 -39 -13 -63q0 -45 41 -45q28 0 63 17.5t77.5 54.5t60 53.5t53.5 52.5l29 -35q-119 -132 -185 -188q-129 -106 -225 -107q-42 0 -66 32t-24 75q0 36 27 131l182 614h-200l24 84h199z" />
    <glyph glyph-name="u" unicode="u" 
d="M1034 279l29 -29q-3 -3 -32.5 -36t-39 -43t-39 -39.5t-45.5 -42t-44.5 -34t-49.5 -30.5t-48 -17t-52 -8q-36 0 -56 19t-20 53q0 39 39 151l123 363h-4q-5 -6 -36.5 -47t-49.5 -64t-57 -71.5t-66.5 -80t-69.5 -78t-75 -77t-73.5 -65.5t-74 -55.5t-69 -34t-64.5 -13.5
q-34 0 -60 24t-26 56q0 23 20 88l178 528l8 28q1 9 1 17q0 31 -27 31q-21 0 -47.5 -17t-44 -33.5t-45 -46.5t-33.5 -36l-33 35l70 71q42 42 69 67t68.5 58t79.5 49.5t72 16.5q31 0 49 -17.5t18 -48.5q0 -36 -26 -106l-185 -551q-4 -20 -4 -29q0 -20 35 -20q49 0 141.5 85
t183 200.5t168 235t103.5 187.5q12 32 27 48t43 16q12 0 26.5 -7.5t23 -13.5t24.5 -21t18 -17l-224 -668q-6 -15 -6 -29q0 -28 31 -28q24 0 56 22t74 61t48 44z" />
    <glyph glyph-name="v" unicode="v" horiz-adv-x="1024" 
d="M84 672l-33 33q15 14 56 54t68.5 64t67 54t78.5 44.5t76 14.5q68 0 68 -76q0 -37 -25 -117l-139 -469q-25 -73 -25 -106q0 -34 26 -55t65 -21q60 0 129 45t125 112t100 137.5t65 127.5q41 103 41 193q0 17 -2 53t-2 53q0 52 22 87.5t70 35.5q39 0 57.5 -29t18.5 -71
q0 -126 -97.5 -300.5t-207.5 -299.5q-55 -64 -116.5 -119t-146 -101.5t-155.5 -46.5t-113 39.5t-42 112.5q0 46 22 123l125 399q16 59 16 90q0 51 -38 51q-31 0 -75 -36t-79 -76z" />
    <glyph glyph-name="w" unicode="w" horiz-adv-x="1593" 
d="M88 645l-31 35q29 36 67.5 75t87.5 82t100 71t89 28q32 0 55 -15.5t23 -48.5q0 -23 -8 -47l-192 -592q-9 -34 -9 -57q0 -22 10 -32.5t35 -10.5q42 0 116.5 52t144 120t124 129.5t68.5 85.5q13 49 30 106t50.5 144.5t58.5 112.5q12 14 45 29t56 20q35 -8 65 -51
q-6 -64 -37 -131q-19 -43 -100 -160l-82 -350q-8 -32 -8 -58q0 -39 20.5 -64.5t61.5 -25.5q172 0 366 293q105 162 105 295q0 26 -8.5 75t-8.5 74q0 36 29.5 69.5t65.5 33.5q86 0 86 -115q0 -66 -34 -154t-87.5 -174t-105.5 -157t-103 -129q-82 -91 -197.5 -162.5
t-216.5 -71.5q-61 0 -99 38.5t-38 94.5q0 43 10.5 92t27 108.5t23.5 92.5h-4q-19 -18 -82.5 -83t-115.5 -114.5t-119 -107t-127 -89.5t-105 -32q-26 0 -44 11.5t-26 30.5t-11 35t-3 32q0 52 19 123l145 495q4 12 4 31q0 33 -28 33q-10 0 -26.5 -9t-37 -25t-36.5 -30t-35 -31
t-23 -20z" />
    <glyph glyph-name="x" unicode="x" 
d="M561 164l-59 201l-140 -197q-53 -75 -123.5 -137t-125.5 -62q-53 0 -81 32t-28 75q0 46 29.5 83.5t72.5 53.5l23 -14q-4 -20 -4 -29q0 -22 14.5 -35.5t38.5 -13.5q70 0 164 121l141 184l-53 182q-50 164 -129 164q-80 0 -141 -129l-39 21q14 48 36 92.5t53 86.5
t74.5 67.5t92.5 25.5q62 0 99 -44t63 -120l59 -182l100 133q35 45 62.5 75.5t64.5 64t75.5 50.5t78.5 17q39 0 63.5 -26.5t24.5 -65.5q0 -48 -29 -85t-69 -57l-17 11q-7 31 -19.5 45t-47.5 14q-47 0 -88.5 -34.5t-89.5 -96.5l-89 -117l74 -248q8 -29 11.5 -41t13.5 -36.5
t19 -35.5t25 -20.5t36 -9.5q29 0 57 17t41 32.5t38.5 52.5t31.5 45l32 -24q-7 -11 -23 -39t-26.5 -46.5t-29 -46.5t-33 -47t-35.5 -40.5t-40.5 -34.5t-43 -22t-47.5 -9q-28 0 -51 13t-38 30t-29.5 48t-22 52t-17.5 56z" />
    <glyph glyph-name="y" unicode="y" horiz-adv-x="1024" 
d="M123 612l-19 -14l-49 29q0 54 11.5 105.5t36 99t69.5 76t104 28.5t106.5 -35t77.5 -97t52 -134.5t35.5 -158.5t22 -158.5l17 -145t15.5 -107.5q8 15 45 79.5t52.5 93t45 89t43 99.5t25.5 90t12 94q0 40 -12 91t-12 77q0 49 25.5 86t70.5 37q41 0 60.5 -32t19.5 -77
q0 -79 -53.5 -219.5t-130 -283.5t-155.5 -270t-136 -199q-6 -7 -30 -40t-35.5 -47t-37 -46t-42.5 -48.5t-43 -42.5t-48 -40.5t-48.5 -29.5t-53 -21.5t-53.5 -6.5q-33 0 -58.5 24.5t-25.5 57.5q0 36 19 60t54 24q13 0 41 -7t45 -7q89 0 174 98l111 129l-6 106l-19 170
q-14 103 -33 195t-48 189t-70 154.5t-88 57.5q-43 0 -70.5 -26.5t-27.5 -67.5q0 -40 14 -78z" />
    <glyph glyph-name="z" unicode="z" horiz-adv-x="909" 
d="M63 113l590 606q-55 -4 -107 11t-122 46q-62 25 -117 25q-36 0 -65 -22t-29 -56q0 -1 10 -23.5t8 -37.5q-3 -21 -16 -33.5t-31 -12.5q-26 0 -39.5 21t-13.5 49q0 24 11 47t22.5 36t34.5 36q126 131 213 131q52 0 164 -53.5t153 -53.5q35 0 55 13q5 2 7.5 4.5t4 6.5t2 6
t1 8.5t0.5 9.5q4 71 57 71q39 0 39 -41q0 -18 -35 -62t-72 -79l-532 -551q43 3 105.5 -30.5t116 -76t111 -78.5t91.5 -36q35 0 55 22t6 54q-1 5 -15.5 36t-14.5 46q0 14 15 29.5t38 15.5q26 0 40.5 -22.5t14.5 -49.5q0 -94 -75 -180t-166 -86q-34 0 -78.5 27t-87.5 65
t-85.5 76t-86 65t-76.5 27q-18 0 -36.5 -11t-18.5 -28q0 -22 7 -40t7 -28q0 -40 -43 -43q-24 -3 -38.5 14t-14.5 42q0 30 7.5 48.5t28.5 39.5z" />
    <glyph glyph-name="braceleft" unicode="{" horiz-adv-x="681" 
d="M305 778l70 381q17 95 48 155.5t78.5 92t100 42.5t129.5 11l-6 -28q-96 -21 -144 -83t-69 -178l-66 -362q-22 -123 -66.5 -185.5t-148.5 -88.5l-2 -5q69 -20 99 -57t30 -98q0 -51 -12 -119l-65 -362q-11 -68 -11 -99q0 -67 30 -106t99 -56l-6 -28q-64 0 -107 7
t-79.5 26.5t-54 58t-17.5 96.5q0 49 12 113l70 381q10 62 10 96q0 58 -28 92.5t-93 56.5q96 28 137.5 82.5t61.5 163.5z" />
    <glyph glyph-name="bar" unicode="|" horiz-adv-x="454" 
d="M190 -31v1596h136v-1596h-136z" />
    <glyph glyph-name="braceright" unicode="}" horiz-adv-x="681" 
d="M406 287l-70 -381q-17 -95 -48 -155.5t-78.5 -92t-100 -42.5t-129.5 -11l6 28q96 21 144 83t69 178l65 362q24 125 67.5 186.5t149.5 87.5v5q-67 19 -98 54.5t-31 92.5q0 47 13 127l67 362q10 58 10 95q0 69 -30 109t-99 57l4 28q66 0 109.5 -7.5t79.5 -28.5t52.5 -61.5
t16.5 -102.5q0 -36 -10 -101l-69 -381q-11 -59 -11 -108q0 -52 29 -85t92 -53q-98 -28 -139 -82t-61 -163z" />
    <glyph glyph-name="asciitilde" unicode="~" 
d="M969 596l73 -102q-29 -41 -49 -65.5t-52.5 -54t-71 -43.5t-83.5 -14q-15 0 -30.5 2t-27.5 4t-29 7.5t-25.5 8t-27.5 11t-24.5 11t-27 12.5t-25.5 12q-42 22 -70.5 34t-71.5 23t-85 11q-106 0 -172 -144l-74 103q92 176 256 176q96 0 240 -68q7 -3 35.5 -16t37 -16.5
t31.5 -12.5t34.5 -12.5t28 -6.5t29.5 -3q55 0 95.5 37t85.5 106z" />
    <glyph glyph-name="uni00A0" unicode="&#xa0;" horiz-adv-x="569" 
 />
    <glyph glyph-name="exclamdown" unicode="&#xa1;" horiz-adv-x="681" 
d="M342 578h41l-78 -625q-45 -365 -178 -365q-45 0 -67.5 31.5t-22.5 77.5q0 87 67 266zM408 993q55 0 95 -39t40 -94q0 -54 -40.5 -95.5t-94.5 -41.5t-95 41t-41 96t40 94t96 39z" />
    <glyph glyph-name="cent" unicode="&#xa2;" 
d="M440 88l197 721q-69 -5 -134 -65.5t-107.5 -144t-68.5 -169.5t-26 -147q0 -169 139 -195zM864 299l29 -39q-99 -112 -199 -184.5t-215 -95.5l-73 -271h-70l72 262q-8 -2 -19 -2q-119 0 -185.5 78t-66.5 201q0 112 43 217.5t116 188t166.5 144.5t196.5 97l70 256h72
l-64 -231q22 8 45 12q28 4 39 4q101 0 101 -84q0 -39 -28.5 -71.5t-66.5 -32.5q-28 0 -65.5 25t-56.5 28l-197 -721q151 4 356 219z" />
    <glyph glyph-name="sterling" unicode="&#xa3;" 
d="M381 754h-229l16 84h225q17 86 24.5 123.5t26.5 111.5t38 119t50.5 102.5t71.5 104.5q105 126 225 153q54 13 89 13q43 0 80.5 -10t67.5 -38.5t30 -72.5q0 -35 -21 -57.5t-53 -22.5q-19 0 -47 12q-5 14 -8 34t-8.5 33t-20.5 27q-35 31 -76 31t-76 -22t-59 -58.5
t-44 -87.5t-32 -103.5t-23 -112t-17.5 -108t-13.5 -97t-13 -74.5h278l-16 -84h-277q-57 -300 -219 -514q11 1 36.5 6.5t39.5 5.5q53 0 105 -19t94 -46.5t81 -55t79 -46.5t75 -19q42 0 72.5 27t30.5 67t-19 58t-65 36q6 48 26.5 68t55.5 20q42 0 62.5 -34.5t20.5 -80.5
q0 -75 -44.5 -135.5t-111.5 -91.5t-140 -31q-62 0 -116.5 20.5t-93.5 49.5t-74 58.5t-74 50t-77 20.5q-13 -12 -51 -61.5t-73 -78t-72 -28.5q-41 0 -41 39q0 58 64 112.5t128 75.5q4 4 33 68q38 84 80 459z" />
    <glyph glyph-name="currency" unicode="&#xa4;" 
d="M203 1014l-117 116l90 91l115 -113q62 52 144 79t169 27q179 0 303 -106l115 113l90 -91l-117 -116q113 -110 113 -307q0 -184 -107 -308l113 -116l-88 -88l-111 116q-127 -112 -311 -112q-190 0 -319 112l-111 -116l-88 88l113 116q-107 131 -107 308q0 193 111 307z
M227 707q0 -158 111 -271.5t266 -113.5q153 0 261 115t108 270q0 154 -108.5 269.5t-260.5 115.5q-156 0 -266.5 -113.5t-110.5 -271.5z" />
    <glyph glyph-name="yen" unicode="&#xa5;" 
d="M502 678l-260 598q-16 36 -34 57t-52 31q-35 10 -109 10l10 56q143 -7 250 -7q45 0 134 3.5t134 3.5l-10 -54q-39 0 -58 -1t-43 -4.5t-34 -13.5t-10 -26q0 -21 14 -53l252 -598l322 498q77 119 77 159q0 39 -161 39l10 54q140 -7 246 -7q62 0 151 7l-10 -54
q-25 0 -48.5 -11t-45.5 -34.5t-33.5 -38.5t-30.5 -43l-387 -571h211l-16 -84h-256q-14 -25 -17 -41l-20 -117h266l-16 -84h-266l-33 -178q-4 -28 -4 -53q0 -16 6 -28.5t20 -19.5t27 -11.5t37.5 -6t39.5 -2t44 -0.5h32l-10 -53q-52 0 -157.5 2t-157.5 2q-88 0 -264 -4l10 53
h22q73 0 109.5 9.5t49.5 27.5t20 55l41 207h-271l17 84h270l29 148l-7 10h-258l17 84h211z" />
    <glyph glyph-name="brokenbar" unicode="&#xa6;" horiz-adv-x="454" 
d="M190 -31v578h136v-578h-136zM190 987v578h136v-578h-136z" />
    <glyph glyph-name="section" unicode="&#xa7;" 
d="M879 233q0 -247 -179 -436q-77 -84 -184 -138t-213 -54q-40 0 -84 11t-81.5 40.5t-37.5 71.5q0 36 21 60t57 24q30 0 53.5 -22t38 -49t41.5 -49t62 -22q54 0 94.5 28t63 74.5t33 100t9.5 111.5q0 170 -139 446q-6 14 -26 58.5t-28 63.5t-24 59t-23.5 65.5t-17 61t-13 68
t-3.5 64.5q0 122 48.5 229t135.5 187q106 105 188 139.5t158 34.5q77 0 137 -33t60 -90q0 -40 -19.5 -67t-58.5 -27q-25 0 -43 15.5t-29 38t-23.5 45t-33.5 38t-51 15.5q-57 0 -95.5 -38.5t-53.5 -92t-15 -117.5q0 -74 23 -162t47.5 -148.5t64.5 -146.5q47 -101 69.5 -152.5
t46.5 -140.5t24 -164zM670 55q0 -133 -70 -264l4 -4q178 170 178 414q0 28 -4 58t-7.5 53t-15 58t-16.5 51t-22 56t-21 50t-24.5 54.5t-22.5 49.5q-7 15 -32.5 68.5t-33 71t-25 61.5t-24.5 70.5t-15 66t-11 78.5q0 97 63 237l-4 4q-77 -72 -124.5 -171.5t-47.5 -205.5
q0 -73 22.5 -155.5t47 -137.5t67.5 -141q1 -3 15.5 -35t18.5 -41l18 -40.5t19 -45t16.5 -43.5t17 -47t13 -43.5t11 -45.5t6.5 -40.5t3 -40.5z" />
    <glyph glyph-name="dieresis" unicode="&#xa8;" horiz-adv-x="569" 
d="M131 1249q0 43 28.5 72t69.5 29q43 0 73 -29t30 -72q0 -41 -30 -70.5t-73 -29.5q-41 0 -69.5 29.5t-28.5 70.5zM541 1249q0 43 28.5 72t69.5 29q43 0 72.5 -29t29.5 -72q0 -41 -29.5 -70.5t-72.5 -29.5q-41 0 -69.5 29.5t-28.5 70.5z" />
    <glyph glyph-name="copyright" unicode="&#xa9;" horiz-adv-x="1638" 
d="M819 -31q-153 0 -291.5 59t-237.5 158.5t-157.5 236t-58.5 286.5q0 153 58.5 292t157.5 239.5t237.5 160t291.5 59.5q205 0 377 -100.5t270.5 -273t98.5 -377.5q0 -150 -58.5 -286.5t-157.5 -236t-237.5 -158.5t-292.5 -59zM819 66q171 0 315.5 89.5t227 237.5t82.5 316
q0 174 -82 324.5t-226.5 240.5t-316.5 90q-171 0 -315.5 -90.5t-226.5 -241t-82 -323.5q0 -168 82.5 -316t227 -237.5t314.5 -89.5zM1151 532h37l-35 -151q-1 -12 -9 -20t-17.5 -11.5t-30.5 -9.5q-114 -37 -232 -37q-99 0 -181.5 24.5t-147.5 74.5t-101.5 134.5t-36.5 196.5
q0 56 17.5 113t56 112t93.5 97.5t136.5 69t178.5 26.5q24 0 44.5 -1t41 -4t32 -4.5t32 -7t25.5 -6.5t28 -8.5t24 -7.5q45 -14 45 -45v-152h-41q-4 36 -18.5 68.5t-41.5 62t-73 47t-105 17.5q-154 0 -232.5 -101.5t-78.5 -267.5q0 -181 79.5 -289t244.5 -108q189 0 266 188z
" />
    <glyph glyph-name="ordfeminine" unicode="&#xaa;" horiz-adv-x="665" 
d="M223 1040q0 -23 16.5 -43t51.5 -20q61 -1 131.5 63t116 146t45.5 137q0 23 -19.5 39t-46.5 16q-72 0 -142.5 -59.5t-111.5 -138t-41 -140.5zM702 1040l21 -16q-7 -7 -41.5 -44t-54.5 -56t-54 -38.5t-63 -19.5q-16 0 -30.5 10.5t-14.5 24.5q0 22 10.5 56t29 82t23.5 63
l-6 4q-10 -12 -40 -51t-54 -65.5t-59.5 -58t-77 -48.5t-86.5 -17q-44 0 -67 31t-23 88q0 65 44 147t108.5 150t144 115t143.5 47q51 0 84 -41q2 4 11 23t17 26.5t21 7.5h17.5t12 -1t8.5 -3t1 -6l-135 -436q-6 -18 -6 -25q0 -12 16 -12q18 0 35 10t38 29.5t27 23.5z" />
    <glyph glyph-name="guillemotleft" unicode="&#xab;" 
d="M967 862l30 -28l-288 -334l170 -342l-35 -21l-312 363zM639 862l31 -28l-289 -334l170 -342l-35 -21l-311 363z" />
    <glyph glyph-name="logicalnot" unicode="&#xac;" 
d="M887 156v434h-770v135h905v-569h-135z" />
    <glyph glyph-name="uni00AD" unicode="&#xad;" horiz-adv-x="681" 
d="M80 422l37 135h483l-33 -135h-487z" />
    <glyph glyph-name="registered" unicode="&#xae;" horiz-adv-x="1638" 
d="M819 -31q-153 0 -291.5 59t-237.5 158.5t-157.5 236t-58.5 286.5q0 153 58.5 292t157.5 239.5t237.5 160t291.5 59.5q205 0 377 -100.5t270.5 -273t98.5 -377.5q0 -150 -58.5 -286.5t-157.5 -236t-237.5 -158.5t-292.5 -59zM819 66q171 0 315.5 89.5t227 237.5t82.5 316
q0 174 -82 324.5t-226.5 240.5t-316.5 90q-171 0 -315.5 -90.5t-226.5 -241t-82 -323.5q0 -168 82.5 -316t227 -237.5t314.5 -89.5zM821 354v-28h-352v28q78 10 91 18q18 13 18 50v565v42t-4.5 26.5t-7.5 18.5t-19.5 9t-28.5 7t-45 4v32h381q107 0 179.5 -50.5t72.5 -147.5
q0 -81 -48.5 -142t-127.5 -86l123 -172q96 -131 164 -186v-16h-138q-20 0 -40 16t-43.5 51t-45.5 73t-59 100t-72 114h-106v-258q0 -40 16.5 -49t91.5 -19zM713 1085v-364h96q73 0 109 52.5t36 144.5q0 89 -41 128t-108 39h-92z" />
    <glyph glyph-name="macron" unicode="&#xaf;" horiz-adv-x="569" 
d="M709 1200h-531l17 96h530z" />
    <glyph glyph-name="degree" unicode="&#xb0;" horiz-adv-x="819" 
d="M330 1151q0 -85 53 -133.5t119 -48.5t119 48.5t53 133.5t-53 133.5t-119 48.5t-119 -48.5t-53 -133.5zM502 1444q123 0 208 -85t85 -208t-85 -208t-208 -85t-208 85t-85 208t85 208t208 85z" />
    <glyph glyph-name="plusminus" unicode="&#xb1;" 
d="M502 612v226h135v-226h385v-135h-385v-225h-135v225h-385v135h385zM117 0v135h905v-135h-905z" />
    <glyph glyph-name="twosuperior" unicode="&#xb2;" horiz-adv-x="739" 
d="M199 688h413l43 72l29 -8l-51 -174q-88 2 -266 2q-189 0 -283 -2q-14 0 -14 12q0 4 1 16t1 21q2 8 12 18l176 152q277 244 277 407q0 67 -37.5 111.5t-104.5 44.5q-26 0 -48 -4t-44.5 -16t-33.5 -18.5t-38 -26.5t-34 -25l-21 28q48 46 80.5 72.5t85.5 50t109 23.5
q101 0 161 -51.5t60 -141.5q0 -54 -25 -111.5t-61.5 -104t-92 -100.5t-100.5 -90l-105 -84t-89 -73z" />
    <glyph glyph-name="threesuperior" unicode="&#xb3;" horiz-adv-x="739" 
d="M287 1008l6 41q50 2 105 24t97.5 65.5t41.5 96.5q2 62 -32 102.5t-99 40.5q-15 0 -28 -2t-26.5 -6.5t-22.5 -8t-23 -12.5t-20 -13t-22 -15.5t-22 -15.5l-23 22q70 61 123.5 89t126.5 28q87 0 145 -44t58 -118q0 -40 -15 -74.5t-37.5 -58.5t-56.5 -45.5t-64 -35t-69 -26.5
v-4q100 -11 157.5 -59.5t57.5 -134.5q0 -79 -54 -145.5t-136.5 -103t-169.5 -36.5q-68 0 -112 9.5t-95 41.5l-15 70l56 16q44 -96 151 -96q91 0 157.5 71.5t66.5 159.5q0 94 -58 141t-149 36z" />
    <glyph glyph-name="acute" unicode="&#xb4;" horiz-adv-x="569" 
d="M356 1118h-53l311 303q6 4 17.5 13t17.5 13.5t15.5 8.5t19.5 4q25 0 45.5 -20t20.5 -47q0 -18 -15.5 -36t-25.5 -24.5t-31 -19.5l-236 -154q-59 -41 -86 -41z" />
    <glyph glyph-name="mu" unicode="&#xb5;" 
d="M98 168l174 528l8 28q1 9 1 17q0 31 -27 31q-21 0 -47.5 -17t-44 -33.5t-45 -46.5t-33.5 -36l-33 35l70 71q42 42 69 67t68.5 58t79.5 49.5t72 16.5q31 0 49 -17.5t18 -48.5q0 -36 -26 -106l-185 -551q-4 -20 -4 -29q0 -20 35 -20q69 0 206 150t249.5 317t140.5 241
q12 32 27 48t43 16q12 0 26.5 -7.5t23 -13.5t24.5 -21t18 -17l-224 -668q-6 -15 -6 -29q0 -28 31 -28q24 0 56 22t74 61t48 44l29 -29q-3 -3 -32.5 -36t-39 -43t-39 -39.5t-45.5 -42t-44.5 -34t-49.5 -30.5t-48 -17t-52 -8q-36 0 -56 19t-20 53q0 48 39 151l133 357h-4
q-20 -22 -72 -85t-100.5 -121t-115.5 -129t-125.5 -122.5t-121 -87t-110.5 -35.5q-13 -64 -27 -184.5t-20 -155.5q0 -2 -2 -14.5t-3 -17t-4 -16.5t-5.5 -17.5t-7 -15.5t-10 -15t-13.5 -12t-17 -10.5t-21 -6t-26 -2.5q-32 0 -49.5 19t-17.5 47q0 45 18 120t37.5 135.5
t55 164.5t50.5 149z" />
    <glyph glyph-name="paragraph" unicode="&#xb6;" 
d="M1059 1270l-309 -1481q-5 -20 -5 -41q0 -36 30 -48t122 -24l-10 -41h-303l356 1729h-190l-357 -1729h-303l10 41q12 2 36 5t34 4t28.5 5t27 8.5t21.5 12.5t19.5 18t13.5 24.5t11 33.5l160 772q-160 4 -240 90.5t-80 229.5q0 142 60.5 267t176 204.5t259.5 79.5h633
l-9 -41q-109 -14 -135 -26q-37 -17 -52 -69q-2 -11 -5 -24zM471 655l141 709h-14q-66 0 -119.5 -31.5t-87.5 -80t-58.5 -113t-35.5 -124.5t-14 -120q-3 -119 51 -179.5t137 -60.5z" />
    <glyph glyph-name="periodcentered" unicode="&#xb7;" horiz-adv-x="569" 
d="M420 604q0 -53 -40 -94t-93 -41q-57 0 -97 39.5t-40 95.5q0 57 39.5 96t95.5 39q55 0 95 -39.5t40 -95.5z" />
    <glyph glyph-name="cedilla" unicode="&#xb8;" horiz-adv-x="569" 
d="M66 -188l129 190h73l-90 -133l4 -4q17 10 64 10q62 0 101.5 -35t39.5 -100q0 -48 -21 -83.5t-57 -55t-76.5 -28.5t-85.5 -9q-93 0 -184 43l37 53q78 -31 115 -31q53 0 95 23t42 72q0 39 -27 62.5t-65 23.5q-42 0 -80 -19z" />
    <glyph glyph-name="onesuperior" unicode="&#xb9;" horiz-adv-x="739" 
d="M449 1333l-218 -100l-20 31l360 180l25 -6l-141 -729q-11 -43 -11 -64q0 -27 56 -27q18 0 53 -1t53 -1l-8 -38q-43 0 -118 1t-111 1q-148 0 -224 -2l9 38q33 2 94 2q32 0 46 11.5t17 36.5z" />
    <glyph glyph-name="ordmasculine" unicode="&#xba;" horiz-adv-x="739" 
d="M264 1069q0 -69 35.5 -115.5t112.5 -46.5q58 0 105.5 34.5t75 87t42 107.5t14.5 103q0 67 -35 115.5t-108 48.5q-49 0 -91 -23t-69 -58.5t-46 -81t-27.5 -89t-8.5 -82.5zM143 1112q0 133 108 232.5t257 99.5q119 0 190.5 -71t71.5 -179q0 -129 -105 -228.5t-251 -99.5
q-125 0 -198 67.5t-73 178.5z" />
    <glyph glyph-name="guillemotright" unicode="&#xbb;" 
d="M500 137l-31 29l289 334l-170 342l35 20l311 -362zM172 137l-31 29l289 334l-170 342l35 20l311 -362z" />
    <glyph glyph-name="onequarter" unicode="&#xbc;" horiz-adv-x="1708" 
d="M1290 381l74 336h-4l-363 -336h293zM1219 0l55 285h-385l6 59l553 522h70l-101 -485h127l-16 -96h-127l-55 -285h-127zM344 -47l918 1507h96l-916 -1507h-98zM467 1333l-217 -100l-21 31l361 180l24 -6l-141 -729q-10 -39 -10 -64q0 -27 55 -27q18 0 54 -1t53 -1l-9 -38
q-43 0 -118 1t-111 1q-147 0 -223 -2l8 38q33 2 94 2q32 0 46.5 11.5t17.5 36.5z" />
    <glyph glyph-name="onehalf" unicode="&#xbd;" horiz-adv-x="1708" 
d="M344 -47l918 1507h96l-916 -1507h-98zM481 1333l-217 -100l-20 31l360 180l12 -6l-141 -729q-10 -39 -10 -64q0 -27 55 -27q18 0 54 -1t53 -1l-9 -38q-36 0 -108 1t-109 1q-147 0 -223 -2l8 38q33 2 95 2q32 0 46 11.5t17 36.5zM1047 111h413l43 71l29 -8l-51 -174
q-88 2 -267 2q-188 0 -282 -2q-14 0 -14 12q0 4 1 16t1 21q2 9 12 19l176 151q276 244 276 408q0 67 -37 111t-104 44q-26 0 -48 -4t-45.5 -16.5t-33.5 -18.5t-38 -26.5t-34 -24.5l-20 29q48 46 80 72.5t85 49.5t109 23q101 0 161.5 -51t60.5 -141q0 -54 -25 -111.5
t-61.5 -104t-92 -100.5t-100.5 -90l-105 -84t-89 -73z" />
    <glyph glyph-name="threequarters" unicode="&#xbe;" horiz-adv-x="1708" 
d="M1219 0l55 285h-385l6 59l553 522h70l-101 -485h127l-16 -96h-127l-55 -285h-127zM1290 381l74 336h-4l-363 -336h293zM406 -47l917 1507h96l-915 -1507h-98zM356 1008l6 41q50 2 105 24t97.5 65.5t41.5 96.5q2 62 -32 102.5t-99 40.5q-15 0 -28 -2t-26.5 -6.5t-22.5 -8
t-23 -12.5t-20 -13t-22 -15.5t-22 -15.5l-22 22q70 61 123.5 89t126.5 28q87 0 144.5 -43.5t57.5 -118.5q0 -50 -20.5 -90t-58.5 -68.5t-75.5 -46.5t-86.5 -35v-4q100 -11 157.5 -59.5t57.5 -134.5q0 -79 -54 -145.5t-137 -103t-170 -36.5q-68 0 -112 9.5t-95 41.5l-14 70
l55 16q44 -96 152 -96q91 0 157 71.5t66 159.5q0 94 -58 141t-149 36z" />
    <glyph glyph-name="questiondown" unicode="&#xbf;" horiz-adv-x="909" 
d="M475 -322q29 0 46.5 -18.5t17.5 -46.5q0 -80 -127 -80q-130 0 -231 92t-101 221q0 75 25.5 131t64 87t91.5 55.5t101 36.5t101 28t82 33q34 20 55 56t21 75q0 62 -52 94.5t-100 32.5q-19 0 -40.5 -5t-29.5 -5q-45 0 -45 51q0 35 17.5 58.5t50.5 23.5q70 0 156 -76
q42 -37 84.5 -120.5t42.5 -135.5q0 -75 -30 -127t-77.5 -79t-105.5 -45t-115.5 -33.5t-105 -35.5t-77.5 -59.5t-30 -97.5q0 -67 36.5 -104t104.5 -37q39 0 93 15t77 15zM600 993q55 0 95 -39t40 -94q0 -54 -40.5 -95.5t-94.5 -41.5t-94.5 41t-40.5 96t39.5 94t95.5 39z" />
    <glyph glyph-name="Agrave" unicode="&#xc0;" horiz-adv-x="1478" 
d="M199 190l704 1248q47 11 74 22l12 -8l225 -1272q9 -68 44 -99.5t104 -27.5l-10 -53q-43 0 -129 2t-129 2q-74 0 -222 -4l11 53q23 -3 49.5 -0.5t49 8t35.5 23.5t9 47l-61 406h-480l-168 -349q-22 -49 -22 -73q0 -62 88 -62h61l-10 -53q-40 0 -120.5 2t-120.5 2
q-63 0 -189 -4l10 53q67 -1 108.5 34t76.5 103zM860 1231l-330 -610h424l-90 610h-4zM819 1819l248 -310h-43q-12 0 -35 17l-239 180q-60 49 -60 80q0 22 19.5 43.5t42.5 21.5q26 0 38 -5.5t29 -26.5z" />
    <glyph glyph-name="Aacute" unicode="&#xc1;" horiz-adv-x="1478" 
d="M199 190l704 1248q47 11 74 22l12 -8l225 -1272q9 -68 44 -99.5t104 -27.5l-10 -53q-43 0 -129 2t-129 2q-74 0 -222 -4l11 53q23 -3 49.5 -0.5t49 8t35.5 23.5t9 47l-61 406h-480l-168 -349q-22 -49 -22 -73q0 -62 88 -62h61l-10 -53q-40 0 -120.5 2t-120.5 2
q-63 0 -189 -4l10 53q67 -1 108.5 34t76.5 103zM860 1231l-330 -610h424l-90 610h-4zM866 1509h-53l311 303q6 4 17.5 13t17.5 13.5t15.5 8.5t19.5 4q25 0 45.5 -20t20.5 -47q0 -18 -15.5 -36t-25.5 -24.5t-31 -19.5l-236 -154q-59 -41 -86 -41z" />
    <glyph glyph-name="Acircumflex" unicode="&#xc2;" horiz-adv-x="1478" 
d="M199 190l704 1248q47 11 74 22l12 -8l225 -1272q9 -68 44 -99.5t104 -27.5l-10 -53q-43 0 -129 2t-129 2q-74 0 -222 -4l11 53q23 -3 49.5 -0.5t49 8t35.5 23.5t9 47l-61 406h-480l-168 -349q-22 -49 -22 -73q0 -62 88 -62h61l-10 -53q-40 0 -120.5 2t-120.5 2
q-63 0 -189 -4l10 53q67 -1 108.5 34t76.5 103zM860 1231l-330 -610h424l-90 610h-4zM1034 1851l180 -342h-67l-168 220l-277 -220h-75l329 342h78z" />
    <glyph glyph-name="Atilde" unicode="&#xc3;" horiz-adv-x="1478" 
d="M199 190l704 1248q47 11 74 22l12 -8l225 -1272q9 -68 44 -99.5t104 -27.5l-10 -53q-43 0 -129 2t-129 2q-74 0 -222 -4l11 53q23 -3 49.5 -0.5t49 8t35.5 23.5t9 47l-61 406h-480l-168 -349q-22 -49 -22 -73q0 -62 88 -62h61l-10 -53q-40 0 -120.5 2t-120.5 2
q-63 0 -189 -4l10 53q67 -1 108.5 34t76.5 103zM860 1231l-330 -610h424l-90 610h-4zM672 1554h-56q22 85 80 141t142 56q47 0 143 -45t127 -45q45 0 71.5 26t49.5 74h53q-11 -77 -74.5 -141t-140.5 -64q-41 0 -139 46q-8 4 -34 17.5t-37.5 18.5t-30 11t-31.5 6
q-48 0 -73 -23.5t-50 -77.5z" />
    <glyph glyph-name="Adieresis" unicode="&#xc4;" horiz-adv-x="1478" 
d="M199 190l704 1248q47 11 74 22l12 -8l225 -1272q9 -68 44 -99.5t104 -27.5l-10 -53q-43 0 -129 2t-129 2q-74 0 -222 -4l11 53q23 -3 49.5 -0.5t49 8t35.5 23.5t9 47l-61 406h-480l-168 -349q-22 -49 -22 -73q0 -62 88 -62h61l-10 -53q-40 0 -120.5 2t-120.5 2
q-63 0 -189 -4l10 53q67 -1 108.5 34t76.5 103zM860 1231l-330 -610h424l-90 610h-4zM641 1640q0 43 28.5 72t69.5 29q43 0 73 -29t30 -72q0 -41 -30 -70.5t-73 -29.5q-41 0 -69.5 29.5t-28.5 70.5zM1051 1640q0 43 28.5 72t69.5 29q43 0 72.5 -29t29.5 -72
q0 -41 -29.5 -70.5t-72.5 -29.5q-41 0 -69.5 29.5t-28.5 70.5z" />
    <glyph glyph-name="Aring" unicode="&#xc5;" horiz-adv-x="1478" 
d="M199 190l704 1248q47 11 74 22l12 -8l225 -1272q9 -68 44 -99.5t104 -27.5l-10 -53q-43 0 -129 2t-129 2q-74 0 -222 -4l11 53q23 -3 49.5 -0.5t49 8t35.5 23.5t9 47l-61 406h-480l-168 -349q-22 -49 -22 -73q0 -62 88 -62h61l-10 -53q-40 0 -120.5 2t-120.5 2
q-63 0 -189 -4l10 53q67 -1 108.5 34t76.5 103zM860 1231l-330 -610h424l-90 610h-4zM950 1497q-83 0 -141.5 59t-58.5 142t58.5 141.5t141.5 58.5t142 -58.5t59 -141.5t-59 -142t-142 -59zM950 1563q56 0 95.5 39.5t39.5 95.5t-39.5 95.5t-95.5 39.5t-95.5 -39.5
t-39.5 -95.5t39.5 -95.5t95.5 -39.5z" />
    <glyph glyph-name="AE" unicode="&#xc6;" horiz-adv-x="2048" 
d="M-2 0l10 53h19q47 0 91 34.5t115 137.5l730 1057q18 27 18 49q0 26 -32 35.5t-105 9.5h-29l10 54q271 -8 549 -5q83 1 249 2.5t249 2.5l-43 -285h-41v90q0 34 -9.5 54.5t-32.5 36.5t-70.5 23.5t-113.5 11t-171 3.5h-82l-101 -582h174q80 -2 125.5 16.5t61.5 75.5l26 99
h47l-83 -465h-46l7 80q6 65 -35.5 87.5t-136.5 22.5h-154l-68 -458q-12 -81 -12 -95q0 -42 61.5 -60.5t137.5 -18.5h108q68 0 119 11.5t96.5 40t77 82t49.5 132.5h54l-84 -332q-170 4 -510 4q-347 0 -521 -4l15 53h33q105 4 138 44.5t58 183.5l72 417h-367l-352 -551
q-18 -24 -18 -47q0 -47 100 -47h31l-11 -53q-35 0 -105.5 2t-105.5 2q-66 0 -192 -4zM709 782h321l94 553q4 25 -6 25q-5 0 -9 -3t-6 -6t-5.5 -9t-5.5 -9z" />
    <glyph glyph-name="Ccedilla" unicode="&#xc7;" horiz-adv-x="1478" 
d="M1485 1391l-68 -361l-41 12q7 77 -9.5 138.5t-70.5 115.5q-99 99 -268 99q-121 0 -226 -44.5t-178.5 -118t-126.5 -169.5t-78.5 -199.5t-25.5 -206.5q0 -135 29.5 -247.5t86.5 -196.5t148 -131t207 -47q185 0 299 94t193 279l45 -11l-82 -348q-25 17 -55 17
q-13 0 -35.5 -8t-55.5 -22t-49 -20q-72 -27 -127 -37t-135 -10q-39 0 -57 2l-70 -102l4 -4q17 10 64 10q61 0 101 -35t40 -100q0 -48 -21 -83.5t-56.5 -55t-76 -28.5t-85.5 -9q-94 0 -185 43l37 53q77 -31 115 -31q53 0 95 23t42 72q0 39 -27 62.5t-65 23.5q-42 0 -80 -19
l-14 21l112 168q-250 39 -402.5 221t-152.5 456q0 163 65 312t174 256.5t257.5 171t310.5 63.5q104 0 182.5 -15t112.5 -33t64.5 -33t50.5 -15q9 0 19 4.5t15.5 9.5t15.5 14.5t13 12.5z" />
    <glyph glyph-name="Egrave" unicode="&#xc8;" horiz-adv-x="1366" 
d="M39 0l10 53h29q47 -1 77.5 7.5t47.5 29.5t24.5 42t14.5 58l192 1055q4 18 4 51q0 30 -32.5 55t-100.5 25h-41l10 54q62 -1 233.5 -5t264.5 -4t263.5 4t232.5 5l-23 -285h-41v49q0 44 -11 74t-32 49.5t-61 29.5t-88 13.5t-123 3.5h-250l-107 -582h267q82 -2 132 17t66 75
l27 99h35l-84 -465h-33l6 80q6 65 -37 87.5t-147 22.5h-244l-80 -456q-10 -68 -10 -78q0 -46 25.5 -72t91.5 -26h321q59 0 101 5t76 21.5t55.5 33t45 54.5t38.5 70t41 94h47l-92 -344q-29 0 -292 2t-399 2q-150 0 -450 -4zM709 1819l247 -310h-43q-11 0 -34 17l-240 180
q-59 48 -59 80q0 22 19 43.5t42 21.5q26 0 38.5 -6t29.5 -26z" />
    <glyph glyph-name="Eacute" unicode="&#xc9;" horiz-adv-x="1366" 
d="M39 0l10 53h29q47 -1 77.5 7.5t47.5 29.5t24.5 42t14.5 58l192 1055q4 18 4 51q0 30 -32.5 55t-100.5 25h-41l10 54q62 -1 233.5 -5t264.5 -4t263.5 4t232.5 5l-23 -285h-41v49q0 44 -11 74t-32 49.5t-61 29.5t-88 13.5t-123 3.5h-250l-107 -582h267q82 -2 132 17t66 75
l27 99h35l-84 -465h-33l6 80q6 65 -37 87.5t-147 22.5h-244l-80 -456q-10 -68 -10 -78q0 -46 25.5 -72t91.5 -26h321q59 0 101 5t76 21.5t55.5 33t45 54.5t38.5 70t41 94h47l-92 -344q-29 0 -292 2t-399 2q-150 0 -450 -4zM756 1509h-54l312 303q6 4 17 13t17 13.5t15.5 8.5
t19.5 4q25 0 45.5 -20t20.5 -47q0 -18 -15.5 -36t-25.5 -24.5t-31 -19.5l-235 -154q-59 -41 -86 -41z" />
    <glyph glyph-name="Ecircumflex" unicode="&#xca;" horiz-adv-x="1366" 
d="M39 0l10 53h29q47 -1 77.5 7.5t47.5 29.5t24.5 42t14.5 58l192 1055q4 18 4 51q0 30 -32.5 55t-100.5 25h-41l10 54q62 -1 233.5 -5t264.5 -4t263.5 4t232.5 5l-23 -285h-41v49q0 44 -11 74t-32 49.5t-61 29.5t-88 13.5t-123 3.5h-250l-107 -582h267q82 -2 132 17t66 75
l27 99h35l-84 -465h-33l6 80q6 65 -37 87.5t-147 22.5h-244l-80 -456q-10 -68 -10 -78q0 -46 25.5 -72t91.5 -26h321q59 0 101 5t76 21.5t55.5 33t45 54.5t38.5 70t41 94h47l-92 -344q-29 0 -292 2t-399 2q-150 0 -450 -4zM924 1851l180 -342h-68l-168 220l-276 -220h-76
l330 342h78z" />
    <glyph glyph-name="Edieresis" unicode="&#xcb;" horiz-adv-x="1366" 
d="M39 0l10 53h29q47 -1 77.5 7.5t47.5 29.5t24.5 42t14.5 58l192 1055q4 18 4 51q0 30 -32.5 55t-100.5 25h-41l10 54q62 -1 233.5 -5t264.5 -4t263.5 4t232.5 5l-23 -285h-41v49q0 44 -11 74t-32 49.5t-61 29.5t-88 13.5t-123 3.5h-250l-107 -582h267q82 -2 132 17t66 75
l27 99h35l-84 -465h-33l6 80q6 65 -37 87.5t-147 22.5h-244l-80 -456q-10 -68 -10 -78q0 -46 25.5 -72t91.5 -26h321q59 0 101 5t76 21.5t55.5 33t45 54.5t38.5 70t41 94h47l-92 -344q-29 0 -292 2t-399 2q-150 0 -450 -4zM530 1640q0 43 29 72t70 29q43 0 72.5 -29
t29.5 -72q0 -41 -29.5 -70.5t-72.5 -29.5q-41 0 -70 29.5t-29 70.5zM940 1640q0 43 28.5 72t69.5 29q43 0 73 -29t30 -72q0 -41 -30 -70.5t-73 -29.5q-41 0 -69.5 29.5t-28.5 70.5z" />
    <glyph glyph-name="Igrave" unicode="&#xcc;" horiz-adv-x="796" 
d="M47 0l10 53h35q30 0 49.5 2t35.5 9.5t25 16t18 27.5t14.5 37.5t13.5 53.5l198 1083q5 27 -2 46t-17.5 28.5t-33 14t-35 5t-37.5 0.5h-12h-37l11 54q127 -5 301 -5q38 0 118 2.5t121 2.5l-10 -54h-39q-1 0 -9.5 0.5t-14.5 0t-17.5 -1t-20 -3t-20 -6.5t-20 -11t-17.5 -15.5
t-15 -22t-9 -29.5l-201 -1091q-17 -90 10 -117t125 -27h31l-10 -53q-45 0 -136.5 2t-136.5 2q-90 0 -266 -4zM475 1819l248 -310h-43q-12 0 -35 17l-239 180q-60 49 -60 80q0 22 19.5 43.5t42.5 21.5q26 0 38 -5.5t29 -26.5z" />
    <glyph glyph-name="Iacute" unicode="&#xcd;" horiz-adv-x="796" 
d="M47 0l10 53h35q30 0 49.5 2t35.5 9.5t25 16t18 27.5t14.5 37.5t13.5 53.5l198 1083q5 27 -2 46t-17.5 28.5t-33 14t-35 5t-37.5 0.5h-12h-37l11 54q127 -5 301 -5q38 0 118 2.5t121 2.5l-10 -54h-39q-1 0 -9.5 0.5t-14.5 0t-17.5 -1t-20 -3t-20 -6.5t-20 -11t-17.5 -15.5
t-15 -22t-9 -29.5l-201 -1091q-17 -90 10 -117t125 -27h31l-10 -53q-45 0 -136.5 2t-136.5 2q-90 0 -266 -4zM522 1509h-53l311 303q6 4 17.5 13t17.5 13.5t15.5 8.5t19.5 4q25 0 45 -20t20 -47q0 -18 -15 -36t-25.5 -25t-30.5 -19l-236 -154q-59 -41 -86 -41z" />
    <glyph glyph-name="Icircumflex" unicode="&#xce;" horiz-adv-x="796" 
d="M47 0l10 53h35q30 0 49.5 2t35.5 9.5t25 16t18 27.5t14.5 37.5t13.5 53.5l198 1083q5 27 -2 46t-17.5 28.5t-33 14t-35 5t-37.5 0.5h-12h-37l11 54q127 -5 301 -5q38 0 118 2.5t121 2.5l-10 -54h-39q-1 0 -9.5 0.5t-14.5 0t-17.5 -1t-20 -3t-20 -6.5t-20 -11t-17.5 -15.5
t-15 -22t-9 -29.5l-201 -1091q-17 -90 10 -117t125 -27h31l-10 -53q-45 0 -136.5 2t-136.5 2q-90 0 -266 -4zM690 1851l180 -342h-67l-168 220l-277 -220h-75l329 342h78z" />
    <glyph glyph-name="Idieresis" unicode="&#xcf;" horiz-adv-x="796" 
d="M47 0l10 53h35q30 0 49.5 2t35.5 9.5t25 16t18 27.5t14.5 37.5t13.5 53.5l198 1083q5 27 -2 46t-17.5 28.5t-33 14t-35 5t-37.5 0.5h-12h-37l11 54q127 -5 301 -5q38 0 118 2.5t121 2.5l-10 -54h-39q-1 0 -9.5 0.5t-14.5 0t-17.5 -1t-20 -3t-20 -6.5t-20 -11t-17.5 -15.5
t-15 -22t-9 -29.5l-201 -1091q-17 -90 10 -117t125 -27h31l-10 -53q-45 0 -136.5 2t-136.5 2q-90 0 -266 -4zM297 1640q0 43 28.5 72t69.5 29q43 0 73 -29t30 -72q0 -41 -30 -70.5t-73 -29.5q-41 0 -69.5 29.5t-28.5 70.5zM707 1640q0 43 28.5 72t69.5 29q43 0 72.5 -29
t29.5 -72q0 -41 -29.5 -70.5t-72.5 -29.5q-41 0 -69.5 29.5t-28.5 70.5z" />
    <glyph glyph-name="Eth" unicode="&#xd0;" horiz-adv-x="1705" 
d="M250 197l92 501h-186l14 84h188l64 346q20 92 20 162q0 46 -32.5 62.5t-110.5 23.5h-39l10 54q144 -7 244 -7q43 0 135 3.5t170 3.5q106 0 193 -13.5t150 -38.5t102 -48t82 -56q108 -82 169.5 -206.5t61.5 -285.5q0 -235 -113 -414.5t-303.5 -273.5t-425.5 -94
q-45 0 -136 1t-136 1q-69 0 -208 -1t-208 -1l10 53h45q74 3 103.5 30t44.5 114zM973 782l-15 -84h-432l-94 -505q-6 -29 0.5 -51t27 -35.5t43 -22t59 -12.5t64.5 -5t70 -1q156 0 285.5 59.5t215 161t132.5 236.5t47 288q0 79 -19 151t-48 124t-68 95t-75 69.5t-72 43.5
q-84 40 -142.5 55t-158.5 15q-51 0 -144 -6l-106 -576h430z" />
    <glyph glyph-name="Ntilde" unicode="&#xd1;" horiz-adv-x="1705" 
d="M39 0l8 53h29q39 0 61.5 4.5t46 19.5t38.5 45.5t29 81t28 128.5l155 885q1 6 -14 30.5t-42.5 53.5t-53.5 40q-31 16 -65 25.5t-50 9.5h-19l9 54q107 -7 186 -7q22 0 68 3.5t69 3.5l783 -1162l145 854q14 63 14 138q0 72 -37.5 94t-111.5 22h-39l8 54q133 -7 227 -7
q40 0 121 3.5t121 3.5l-8 -54h-31q-20 0 -37 -4t-30 -8.5t-24.5 -16l-19 -19t-15 -25.5t-11.5 -27.5t-9.5 -33t-7.5 -33.5t-7 -38t-7 -38l-176 -957q33 -53 66.5 -88t79.5 -47l-11 -41q-82 4 -121 4q-40 0 -122 -4l-760 1128l-135 -827q-21 -134 -21 -154q0 -94 131 -94h66
l-11 -53q-41 0 -123.5 2t-123.5 2q-82 0 -246 -4zM756 1554h-56q22 85 80 141t142 56q47 0 143 -45t127 -45q45 0 71.5 26t49.5 74h53q-11 -77 -74.5 -141t-140.5 -64q-41 0 -139 46q-8 4 -34 17.5t-37.5 18.5t-30 11t-31.5 6q-48 0 -73 -23.5t-50 -77.5z" />
    <glyph glyph-name="Ograve" unicode="&#xd2;" horiz-adv-x="1820" 
d="M381 602q0 -124 28.5 -225t87.5 -178.5t157 -120.5t229 -43q116 0 217 48t171.5 127t121 180.5t74.5 208.5t24 212q0 118 -30 221t-89 185.5t-157 130t-224 47.5q-123 0 -226 -47.5t-172.5 -126t-118.5 -182t-71 -214t-22 -223.5zM180 645q0 167 63.5 318t172 260
t258.5 173t315 64q138 0 265.5 -47t224.5 -129.5t155 -205t58 -263.5q0 -173 -62 -329t-169.5 -269.5t-260.5 -180.5t-328 -67q-311 0 -501.5 183t-190.5 493zM987 1819l248 -310h-43q-12 0 -35 17l-239 180q-60 49 -60 80q0 22 19.5 43.5t42.5 21.5q26 0 38 -5.5t29 -26.5z
" />
    <glyph glyph-name="Oacute" unicode="&#xd3;" horiz-adv-x="1820" 
d="M381 602q0 -124 28.5 -225t87.5 -178.5t157 -120.5t229 -43q116 0 217 48t171.5 127t121 180.5t74.5 208.5t24 212q0 118 -30 221t-89 185.5t-157 130t-224 47.5q-123 0 -226 -47.5t-172.5 -126t-118.5 -182t-71 -214t-22 -223.5zM180 645q0 167 63.5 318t172 260
t258.5 173t315 64q138 0 265.5 -47t224.5 -129.5t155 -205t58 -263.5q0 -173 -62 -329t-169.5 -269.5t-260.5 -180.5t-328 -67q-311 0 -501.5 183t-190.5 493zM1034 1509h-53l311 303q6 4 17.5 13t17.5 13.5t15.5 8.5t19.5 4q25 0 45 -20t20 -47q0 -18 -15 -36t-25.5 -25
t-30.5 -19l-236 -154q-59 -41 -86 -41z" />
    <glyph glyph-name="Ocircumflex" unicode="&#xd4;" horiz-adv-x="1820" 
d="M381 602q0 -124 28.5 -225t87.5 -178.5t157 -120.5t229 -43q116 0 217 48t171.5 127t121 180.5t74.5 208.5t24 212q0 118 -30 221t-89 185.5t-157 130t-224 47.5q-123 0 -226 -47.5t-172.5 -126t-118.5 -182t-71 -214t-22 -223.5zM180 645q0 167 63.5 318t172 260
t258.5 173t315 64q138 0 265.5 -47t224.5 -129.5t155 -205t58 -263.5q0 -173 -62 -329t-169.5 -269.5t-260.5 -180.5t-328 -67q-311 0 -501.5 183t-190.5 493zM1202 1851l180 -342h-67l-168 220l-277 -220h-75l329 342h78z" />
    <glyph glyph-name="Otilde" unicode="&#xd5;" horiz-adv-x="1820" 
d="M381 602q0 -124 28.5 -225t87.5 -178.5t157 -120.5t229 -43q116 0 217 48t171.5 127t121 180.5t74.5 208.5t24 212q0 118 -30 221t-89 185.5t-157 130t-224 47.5q-123 0 -226 -47.5t-172.5 -126t-118.5 -182t-71 -214t-22 -223.5zM180 645q0 167 63.5 318t172 260
t258.5 173t315 64q138 0 265.5 -47t224.5 -129.5t155 -205t58 -263.5q0 -173 -62 -329t-169.5 -269.5t-260.5 -180.5t-328 -67q-311 0 -501.5 183t-190.5 493zM803 1554h-55q22 85 80 141t141 56q47 0 143 -45t127 -45q45 0 71.5 26t49.5 74h53q-11 -77 -74.5 -141
t-140.5 -64q-41 0 -139 46q-8 4 -34 17.5t-37.5 18.5t-30 11t-31.5 6q-48 0 -73 -23.5t-50 -77.5z" />
    <glyph glyph-name="Odieresis" unicode="&#xd6;" horiz-adv-x="1820" 
d="M381 602q0 -124 28.5 -225t87.5 -178.5t157 -120.5t229 -43q116 0 217 48t171.5 127t121 180.5t74.5 208.5t24 212q0 118 -30 221t-89 185.5t-157 130t-224 47.5q-123 0 -226 -47.5t-172.5 -126t-118.5 -182t-71 -214t-22 -223.5zM180 645q0 167 63.5 318t172 260
t258.5 173t315 64q138 0 265.5 -47t224.5 -129.5t155 -205t58 -263.5q0 -173 -62 -329t-169.5 -269.5t-260.5 -180.5t-328 -67q-311 0 -501.5 183t-190.5 493zM809 1640q0 43 28.5 72t69.5 29q43 0 73 -29t30 -72q0 -41 -30 -70.5t-73 -29.5q-41 0 -69.5 29.5t-28.5 70.5z
M1219 1640q0 43 28.5 72t69.5 29q43 0 72.5 -29t29.5 -72q0 -41 -29.5 -70.5t-72.5 -29.5q-41 0 -69.5 29.5t-28.5 70.5z" />
    <glyph glyph-name="multiply" unicode="&#xd7;" 
d="M569 360l-356 -354l-96 94l360 353l-360 358l98 94l354 -358l355 358l98 -94l-360 -358l360 -353l-96 -94z" />
    <glyph glyph-name="Oslash" unicode="&#xd8;" horiz-adv-x="1820" 
d="M449 276l940 920q-134 199 -398 199q-123 0 -226 -47.5t-172.5 -126t-118.5 -182t-71 -214t-22 -223.5q0 -193 68 -326zM1694 1495l43 -53l-209 -205q164 -178 164 -422q0 -173 -62 -329t-169.5 -269.5t-260.5 -180.5t-328 -67q-290 0 -475 162l-200 -194l-50 47l201 194
q-168 182 -168 467q0 167 63.5 318t172 260t258.5 173t315 64q138 0 266 -46.5t224 -129.5zM1423 1135l-938 -918q127 -182 398 -182q116 0 217 48t171.5 127t121 180.5t74.5 208.5t24 212q0 182 -68 324z" />
    <glyph glyph-name="Ugrave" unicode="&#xd9;" horiz-adv-x="1593" 
d="M317 610l93 531q14 86 14 127q0 32 -9 53t-20.5 32t-36 16.5t-40 6t-48.5 0.5h-39l11 54q132 -5 321 -5q45 0 136 2.5t137 2.5l-11 -52h-47q-53 -2 -85 -20.5t-58 -74t-43 -159.5l-111 -686q-6 -44 -6 -82q0 -76 29 -136t77.5 -95.5t106.5 -53.5t121 -18q75 0 135 16.5
t102 40.5t75 70.5t52 84t36.5 106.5t25.5 113t20 126l99 561q6 35 6 78q0 66 -43 96.5t-131 30.5h-31l10 54q102 -5 252 -5q37 0 111.5 2.5t111.5 2.5l-10 -54h-26q-27 0 -49.5 -10t-38 -23t-29 -38.5t-21 -43.5t-15.5 -53t-11 -51t-8.5 -53t-6.5 -45l-90 -545
q-30 -173 -62 -256t-106 -154q-138 -135 -399 -135q-72 0 -139.5 12.5t-130.5 41.5t-109 71.5t-74 106.5t-28 143q0 101 30 266zM872 1819l248 -310h-43q-12 0 -35 17l-239 180q-60 49 -60 80q0 22 19.5 43.5t42.5 21.5q26 0 38 -5.5t29 -26.5z" />
    <glyph glyph-name="Uacute" unicode="&#xda;" horiz-adv-x="1593" 
d="M317 610l93 531q14 86 14 127q0 32 -9 53t-20.5 32t-36 16.5t-40 6t-48.5 0.5h-39l11 54q132 -5 321 -5q45 0 136 2.5t137 2.5l-11 -52h-47q-53 -2 -85 -20.5t-58 -74t-43 -159.5l-111 -686q-6 -44 -6 -82q0 -76 29 -136t77.5 -95.5t106.5 -53.5t121 -18q75 0 135 16.5
t102 40.5t75 70.5t52 84t36.5 106.5t25.5 113t20 126l99 561q6 35 6 78q0 66 -43 96.5t-131 30.5h-31l10 54q102 -5 252 -5q37 0 111.5 2.5t111.5 2.5l-10 -54h-26q-27 0 -49.5 -10t-38 -23t-29 -38.5t-21 -43.5t-15.5 -53t-11 -51t-8.5 -53t-6.5 -45l-90 -545
q-30 -173 -62 -256t-106 -154q-138 -135 -399 -135q-72 0 -139.5 12.5t-130.5 41.5t-109 71.5t-74 106.5t-28 143q0 101 30 266zM920 1509h-54l312 303q6 4 17 13t17 13.5t15.5 8.5t19.5 4q25 0 45.5 -20t20.5 -47q0 -18 -15.5 -36t-25.5 -24.5t-31 -19.5l-235 -154
q-59 -41 -86 -41z" />
    <glyph glyph-name="Ucircumflex" unicode="&#xdb;" horiz-adv-x="1593" 
d="M317 610l93 531q14 86 14 127q0 32 -9 53t-20.5 32t-36 16.5t-40 6t-48.5 0.5h-39l11 54q132 -5 321 -5q45 0 136 2.5t137 2.5l-11 -52h-47q-53 -2 -85 -20.5t-58 -74t-43 -159.5l-111 -686q-6 -44 -6 -82q0 -76 29 -136t77.5 -95.5t106.5 -53.5t121 -18q75 0 135 16.5
t102 40.5t75 70.5t52 84t36.5 106.5t25.5 113t20 126l99 561q6 35 6 78q0 66 -43 96.5t-131 30.5h-31l10 54q102 -5 252 -5q37 0 111.5 2.5t111.5 2.5l-10 -54h-26q-27 0 -49.5 -10t-38 -23t-29 -38.5t-21 -43.5t-15.5 -53t-11 -51t-8.5 -53t-6.5 -45l-90 -545
q-30 -173 -62 -256t-106 -154q-138 -135 -399 -135q-72 0 -139.5 12.5t-130.5 41.5t-109 71.5t-74 106.5t-28 143q0 101 30 266zM1087 1851l181 -342h-68l-168 220l-276 -220h-76l330 342h77z" />
    <glyph glyph-name="Udieresis" unicode="&#xdc;" horiz-adv-x="1593" 
d="M317 610l93 531q14 86 14 127q0 32 -9 53t-20.5 32t-36 16.5t-40 6t-48.5 0.5h-39l11 54q132 -5 321 -5q45 0 136 2.5t137 2.5l-11 -52h-47q-53 -2 -85 -20.5t-58 -74t-43 -159.5l-111 -686q-6 -44 -6 -82q0 -76 29 -136t77.5 -95.5t106.5 -53.5t121 -18q75 0 135 16.5
t102 40.5t75 70.5t52 84t36.5 106.5t25.5 113t20 126l99 561q6 35 6 78q0 66 -43 96.5t-131 30.5h-31l10 54q102 -5 252 -5q37 0 111.5 2.5t111.5 2.5l-10 -54h-26q-27 0 -49.5 -10t-38 -23t-29 -38.5t-21 -43.5t-15.5 -53t-11 -51t-8.5 -53t-6.5 -45l-90 -545
q-30 -173 -62 -256t-106 -154q-138 -135 -399 -135q-72 0 -139.5 12.5t-130.5 41.5t-109 71.5t-74 106.5t-28 143q0 101 30 266zM705 1640q0 43 28.5 72t69.5 29q43 0 72.5 -29t29.5 -72q0 -41 -29.5 -70.5t-72.5 -29.5q-41 0 -69.5 29.5t-28.5 70.5zM1114 1640
q0 43 28.5 72t69.5 29q43 0 73 -29t30 -72q0 -41 -30 -70.5t-73 -29.5q-41 0 -69.5 29.5t-28.5 70.5z" />
    <glyph glyph-name="Yacute" unicode="&#xdd;" horiz-adv-x="1366" 
d="M719 1430l-10 -54h-74q-38 0 -61.5 -18.5t-6.5 -57.5l262 -620l373 584q27 41 27 69q0 43 -127 43h-35l8 54q103 -5 248 -5q88 0 152 5l-11 -54q-65 7 -137 -96l-20 -31l-451 -661l-76 -402q-4 -22 -4 -39.5t2 -31t9.5 -23.5t14 -16.5t20.5 -11t23.5 -6.5t29 -3.5
t30.5 -1.5h33h37l-10 -53q-52 0 -158 2t-158 2q-88 0 -264 -4l8 53h45q61 -1 92 11.5t42.5 35.5t21.5 76l78 408l-316 721q-16 35 -56.5 53t-88.5 18h-21l9 54q105 -5 252 -5q45 0 134 2.5t134 2.5zM807 1509h-53l311 303q6 4 17.5 13t17.5 13.5t15.5 8.5t19.5 4
q25 0 45 -20t20 -47q0 -18 -15.5 -36t-25.5 -24.5t-31 -19.5l-235 -154q-59 -41 -86 -41z" />
    <glyph glyph-name="Thorn" unicode="&#xde;" horiz-adv-x="1251" 
d="M598 1106l-111 -596q68 -8 164 -8q63 0 119 19t104.5 59.5t77.5 112t29 167.5q0 129 -65.5 190.5t-206.5 61.5q-16 0 -52.5 -2.5t-58.5 -3.5zM238 168l202 1120q5 26 -4 44t-27 26.5t-41 13.5t-47.5 4.5t-46.5 -0.5h-36l10 54q240 -5 289 -5q45 0 280 5l-10 -54h-43
q-30 0 -49 -3.5t-38.5 -14.5t-31 -34.5t-18.5 -61.5l-15 -91q107 7 191 7q166 0 272.5 -78.5t106.5 -237.5q0 -101 -42.5 -183.5t-113.5 -134.5t-159.5 -80t-184.5 -28q-112 0 -205 13l-43 -234l-10 -74q0 -33 16 -53t40 -26t53.5 -9t56.5 0h37l-11 -53q-192 4 -288 4
q-93 0 -281 -4l10 53h43q26 2 39.5 4t32 9t29 18.5t20.5 32.5t17 51z" />
    <glyph glyph-name="germandbls" unicode="&#xdf;" 
d="M6 -467l299 1368q31 132 66 217q27 68 84 145.5t128.5 145t156 112t157.5 44.5q109 0 179.5 -65t70.5 -173q0 -34 -7 -65.5t-16 -55.5t-28 -50t-33 -42.5t-42.5 -41t-43.5 -36t-49.5 -37t-48.5 -36.5q-36 -28 -53.5 -43.5t-35.5 -46t-18 -64.5q0 -43 35 -105.5t76.5 -117
t76.5 -127.5t35 -135q0 -121 -102 -226q-132 -129 -289 -129q-55 0 -102 33t-47 86q0 68 57 107h16q33 -53 84 -84t111 -31q65 0 108 34.5t43 96.5q0 48 -26 102t-63 104.5t-74.5 101.5t-63.5 109.5t-26 112.5q0 41 20.5 78.5t53.5 69t73 63t80 65t73 69.5t53.5 83.5
t20.5 100.5q0 81 -51 126.5t-135 45.5q-32 0 -61 -8t-51.5 -20t-43 -33.5t-35 -40.5t-29 -50t-23 -52t-19 -57t-15.5 -55.5t-14 -54.5l-371 -1477l-122 -61h-19z" />
    <glyph glyph-name="agrave" unicode="&#xe0;" horiz-adv-x="1024" 
d="M178 262q0 -60 25 -100.5t80 -40.5q71 0 154 70.5t147 168t107.5 202.5t43.5 173q0 39 -31.5 72t-70.5 33q-79 0 -163.5 -62t-147.5 -151t-103.5 -189t-40.5 -176zM819 868l29 66q0 1 3.5 6.5t5 8t5 7.5t6 7.5t7 5.5t9 4.5t9.5 1.5h43q18 0 18 -10q0 -1 -4 -17l-202 -727
q-9 -27 -9 -51q0 -29 25 -29q26 0 53 20.5t58 56.5t40 44l33 -26q-17 -18 -51 -59t-62.5 -72.5t-64.5 -65t-74 -52t-75 -18.5q-27 0 -48.5 15t-21.5 43q0 38 35 149l57 180l-2 6q-44 -67 -94 -129.5t-111.5 -125t-128.5 -100.5t-125 -38q-36 0 -64 10.5t-44.5 27.5
t-27.5 40.5t-15 45.5t-4 46q0 118 67 261.5t165 260t216.5 196t214.5 79.5q75 0 129 -68zM537 1427l247 -309h-43q-11 0 -34 17l-240 180q-59 48 -59 80q0 22 19 43.5t42 21.5q26 0 38 -6t30 -27z" />
    <glyph glyph-name="aacute" unicode="&#xe1;" horiz-adv-x="1024" 
d="M178 262q0 -60 25 -100.5t80 -40.5q71 0 154 70.5t147 168t107.5 202.5t43.5 173q0 39 -31.5 72t-70.5 33q-79 0 -163.5 -62t-147.5 -151t-103.5 -189t-40.5 -176zM819 868l29 66q0 1 3.5 6.5t5 8t5 7.5t6 7.5t7 5.5t9 4.5t9.5 1.5h43q18 0 18 -10q0 -1 -4 -17l-202 -727
q-9 -27 -9 -51q0 -29 25 -29q26 0 53 20.5t58 56.5t40 44l33 -26q-17 -18 -51 -59t-62.5 -72.5t-64.5 -65t-74 -52t-75 -18.5q-27 0 -48.5 15t-21.5 43q0 38 35 149l57 180l-2 6q-44 -67 -94 -129.5t-111.5 -125t-128.5 -100.5t-125 -38q-36 0 -64 10.5t-44.5 27.5
t-27.5 40.5t-15 45.5t-4 46q0 118 67 261.5t165 260t216.5 196t214.5 79.5q75 0 129 -68zM584 1118h-54l312 303q6 4 17 13t17 13.5t15.5 8.5t19.5 4q25 0 45.5 -20t20.5 -47q0 -18 -15.5 -36t-25.5 -24.5t-31 -19.5l-235 -154q-59 -41 -86 -41z" />
    <glyph glyph-name="acircumflex" unicode="&#xe2;" horiz-adv-x="1024" 
d="M178 262q0 -60 25 -100.5t80 -40.5q71 0 154 70.5t147 168t107.5 202.5t43.5 173q0 39 -31.5 72t-70.5 33q-79 0 -163.5 -62t-147.5 -151t-103.5 -189t-40.5 -176zM819 868l29 66q0 1 3.5 6.5t5 8t5 7.5t6 7.5t7 5.5t9 4.5t9.5 1.5h43q18 0 18 -10q0 -1 -4 -17l-202 -727
q-9 -27 -9 -51q0 -29 25 -29q26 0 53 20.5t58 56.5t40 44l33 -26q-17 -18 -51 -59t-62.5 -72.5t-64.5 -65t-74 -52t-75 -18.5q-27 0 -48.5 15t-21.5 43q0 38 35 149l57 180l-2 6q-44 -67 -94 -129.5t-111.5 -125t-128.5 -100.5t-125 -38q-36 0 -64 10.5t-44.5 27.5
t-27.5 40.5t-15 45.5t-4 46q0 118 67 261.5t165 260t216.5 196t214.5 79.5q75 0 129 -68zM752 1460l180 -342h-68l-168 219l-276 -219h-76l330 342h78z" />
    <glyph glyph-name="atilde" unicode="&#xe3;" horiz-adv-x="1024" 
d="M178 262q0 -60 25 -100.5t80 -40.5q71 0 154 70.5t147 168t107.5 202.5t43.5 173q0 39 -31.5 72t-70.5 33q-79 0 -163.5 -62t-147.5 -151t-103.5 -189t-40.5 -176zM819 868l29 66q0 1 3.5 6.5t5 8t5 7.5t6 7.5t7 5.5t9 4.5t9.5 1.5h43q18 0 18 -10q0 -1 -4 -17l-202 -727
q-9 -27 -9 -51q0 -29 25 -29q26 0 53 20.5t58 56.5t40 44l33 -26q-17 -18 -51 -59t-62.5 -72.5t-64.5 -65t-74 -52t-75 -18.5q-27 0 -48.5 15t-21.5 43q0 38 35 149l57 180l-2 6q-44 -67 -94 -129.5t-111.5 -125t-128.5 -100.5t-125 -38q-36 0 -64 10.5t-44.5 27.5
t-27.5 40.5t-15 45.5t-4 46q0 118 67 261.5t165 260t216.5 196t214.5 79.5q75 0 129 -68zM352 1163h-55q22 85 80 141t141 56q48 0 144 -45t126 -45q45 0 71.5 26t49.5 74h54q-11 -77 -74.5 -141t-140.5 -64q-44 0 -140 45q-10 5 -34.5 17.5t-37 18.5t-30.5 12t-31 6
q-48 0 -73 -23.5t-50 -77.5z" />
    <glyph glyph-name="adieresis" unicode="&#xe4;" horiz-adv-x="1024" 
d="M178 262q0 -60 25 -100.5t80 -40.5q71 0 154 70.5t147 168t107.5 202.5t43.5 173q0 39 -31.5 72t-70.5 33q-79 0 -163.5 -62t-147.5 -151t-103.5 -189t-40.5 -176zM819 868l29 66q0 1 3.5 6.5t5 8t5 7.5t6 7.5t7 5.5t9 4.5t9.5 1.5h43q18 0 18 -10q0 -1 -4 -17l-202 -727
q-9 -27 -9 -51q0 -29 25 -29q26 0 53 20.5t58 56.5t40 44l33 -26q-17 -18 -51 -59t-62.5 -72.5t-64.5 -65t-74 -52t-75 -18.5q-27 0 -48.5 15t-21.5 43q0 38 35 149l57 180l-2 6q-44 -67 -94 -129.5t-111.5 -125t-128.5 -100.5t-125 -38q-36 0 -64 10.5t-44.5 27.5
t-27.5 40.5t-15 45.5t-4 46q0 118 67 261.5t165 260t216.5 196t214.5 79.5q75 0 129 -68zM358 1249q0 43 29 72t70 29q43 0 72.5 -29t29.5 -72q0 -41 -29.5 -70.5t-72.5 -29.5q-41 0 -70 29.5t-29 70.5zM768 1249q0 43 28.5 72t69.5 29q43 0 73 -29t30 -72q0 -41 -30 -70.5
t-73 -29.5q-41 0 -69.5 29.5t-28.5 70.5z" />
    <glyph glyph-name="aring" unicode="&#xe5;" horiz-adv-x="1024" 
d="M178 262q0 -60 25 -100.5t80 -40.5q71 0 154 70.5t147 168t107.5 202.5t43.5 173q0 39 -31.5 72t-70.5 33q-79 0 -163.5 -62t-147.5 -151t-103.5 -189t-40.5 -176zM819 868l29 66q0 1 3.5 6.5t5 8t5 7.5t6 7.5t7 5.5t9 4.5t9.5 1.5h43q18 0 18 -10q0 -1 -4 -17l-202 -727
q-9 -27 -9 -51q0 -29 25 -29q26 0 53 20.5t58 56.5t40 44l33 -26q-17 -18 -51 -59t-62.5 -72.5t-64.5 -65t-74 -52t-75 -18.5q-27 0 -48.5 15t-21.5 43q0 38 35 149l57 180l-2 6q-44 -67 -94 -129.5t-111.5 -125t-128.5 -100.5t-125 -38q-36 0 -64 10.5t-44.5 27.5
t-27.5 40.5t-15 45.5t-4 46q0 118 67 261.5t165 260t216.5 196t214.5 79.5q75 0 129 -68zM741 1077q-83 0 -141.5 59t-58.5 142t58.5 142t141.5 59t142 -59t59 -142t-59 -142t-142 -59zM741 1143q56 0 96 40t40 95t-40 95t-96 40q-55 0 -95 -39.5t-40 -95.5t40 -95.5
t95 -39.5z" />
    <glyph glyph-name="ae" unicode="&#xe6;" horiz-adv-x="1478" 
d="M842 854l63 131l90 16l31 -10l-78 -166h4q165 111 297 111q78 0 129.5 -31t51.5 -102q0 -80 -47 -147.5t-117.5 -111.5t-161 -77.5t-169.5 -49.5t-151 -22q-16 -86 -16 -123q0 -192 174 -192q93 0 177.5 45.5t187.5 126.5l30 -31q-233 -252 -475 -252q-119 0 -182.5 63
t-63.5 183q0 16 5 88h-5q-32 -47 -79 -100t-106.5 -107.5t-126.5 -90.5t-122 -36q-75 -4 -106 48.5t-31 140.5q0 107 60.5 239t152.5 244t212 188t228 76q46 0 77.5 -11t66.5 -40zM197 231q0 -52 20.5 -81t73.5 -29q80 0 188 107.5t184 250t76 238.5q0 104 -108 104
q-83 0 -165.5 -64t-139.5 -156.5t-93 -193.5t-36 -176zM1266 780q0 42 -25 66t-65 24q-53 0 -106 -28t-96 -73.5t-79 -101.5t-60.5 -112t-35.5 -106q65 0 145 24.5t152 66t121 105.5t49 135z" />
    <glyph glyph-name="ccedilla" unicode="&#xe7;" horiz-adv-x="909" 
d="M823 299l29 -37q-67 -76 -126 -129.5t-141 -99t-165 -58.5l-72 -106l4 -4q17 10 64 10q62 0 101.5 -35t39.5 -100q0 -48 -21 -83.5t-57 -55t-76.5 -28.5t-85.5 -9q-93 0 -184 43l37 53q78 -31 115 -31q53 0 95 23t42 72q0 39 -27 62.5t-65 23.5q-42 0 -80 -19l-14 21
l106 157q-116 1 -180 78.5t-64 200.5q0 201 131.5 371t321.5 247q160 70 229 70q37 0 69 -22.5t32 -59.5q0 -45 -28 -75.5t-67 -30.5q-37 0 -87.5 32.5t-80.5 32.5q-73 0 -142 -61t-114 -148t-72.5 -178.5t-27.5 -157.5q0 -88 52 -138t143 -50q161 0 366 219z" />
    <glyph glyph-name="egrave" unicode="&#xe8;" horiz-adv-x="909" 
d="M762 270l29 -34q-113 -126 -226 -196.5t-239 -70.5q-68 0 -118.5 23.5t-78.5 64t-41.5 88t-13.5 101.5q0 120 51 245.5t132 223t190 159.5t217 62q37 0 70.5 -7t63.5 -22.5t48 -45.5t18 -70q0 -80 -43 -146t-108 -108.5t-150.5 -73.5t-160.5 -46t-148 -22
q-16 -71 -16 -157q0 -74 47 -116t121 -42q159 0 356 190zM264 449q75 5 148 26.5t139.5 60t107.5 102.5t41 144q0 40 -22.5 64t-61.5 24q-56 0 -116.5 -46.5t-107 -114t-81 -137.5t-47.5 -123zM479 1427l248 -309h-43q-12 0 -35 17l-239 180q-60 49 -60 80q0 22 19.5 43.5
t42.5 21.5q26 0 37.5 -6t29.5 -27z" />
    <glyph glyph-name="eacute" unicode="&#xe9;" horiz-adv-x="909" 
d="M762 270l29 -34q-113 -126 -226 -196.5t-239 -70.5q-68 0 -118.5 23.5t-78.5 64t-41.5 88t-13.5 101.5q0 120 51 245.5t132 223t190 159.5t217 62q37 0 70.5 -7t63.5 -22.5t48 -45.5t18 -70q0 -80 -43 -146t-108 -108.5t-150.5 -73.5t-160.5 -46t-148 -22
q-16 -71 -16 -157q0 -74 47 -116t121 -42q159 0 356 190zM264 449q75 5 148 26.5t139.5 60t107.5 102.5t41 144q0 40 -22.5 64t-61.5 24q-56 0 -116.5 -46.5t-107 -114t-81 -137.5t-47.5 -123zM526 1118h-53l311 303q6 4 17.5 13t17.5 13.5t15.5 8.5t19.5 4q25 0 45.5 -20
t20.5 -47q0 -18 -15.5 -36t-25.5 -24.5t-31 -19.5l-236 -154q-59 -41 -86 -41z" />
    <glyph glyph-name="ecircumflex" unicode="&#xea;" horiz-adv-x="909" 
d="M762 270l29 -34q-113 -126 -226 -196.5t-239 -70.5q-68 0 -118.5 23.5t-78.5 64t-41.5 88t-13.5 101.5q0 120 51 245.5t132 223t190 159.5t217 62q37 0 70.5 -7t63.5 -22.5t48 -45.5t18 -70q0 -80 -43 -146t-108 -108.5t-150.5 -73.5t-160.5 -46t-148 -22
q-16 -71 -16 -157q0 -74 47 -116t121 -42q159 0 356 190zM264 449q75 5 148 26.5t139.5 60t107.5 102.5t41 144q0 40 -22.5 64t-61.5 24q-56 0 -116.5 -46.5t-107 -114t-81 -137.5t-47.5 -123zM694 1460l180 -342h-67l-168 219l-277 -219h-75l329 342h78z" />
    <glyph glyph-name="edieresis" unicode="&#xeb;" horiz-adv-x="909" 
d="M762 270l29 -34q-113 -126 -226 -196.5t-239 -70.5q-68 0 -118.5 23.5t-78.5 64t-41.5 88t-13.5 101.5q0 120 51 245.5t132 223t190 159.5t217 62q37 0 70.5 -7t63.5 -22.5t48 -45.5t18 -70q0 -80 -43 -146t-108 -108.5t-150.5 -73.5t-160.5 -46t-148 -22
q-16 -71 -16 -157q0 -74 47 -116t121 -42q159 0 356 190zM264 449q75 5 148 26.5t139.5 60t107.5 102.5t41 144q0 40 -22.5 64t-61.5 24q-56 0 -116.5 -46.5t-107 -114t-81 -137.5t-47.5 -123zM301 1249q0 43 28.5 72t69.5 29q43 0 73 -29t30 -72q0 -41 -30 -70.5t-73 -29.5
q-41 0 -69.5 29.5t-28.5 70.5zM711 1249q0 43 28.5 72t69.5 29q43 0 72.5 -29t29.5 -72q0 -41 -29.5 -70.5t-72.5 -29.5q-41 0 -69.5 29.5t-28.5 70.5z" />
    <glyph glyph-name="igrave" unicode="&#xec;" horiz-adv-x="569" 
d="M129 641l-29 29q35 54 84 110t117.5 106t122.5 50q63 0 63 -51q0 -28 -28 -115l-168 -520q-21 -68 -21 -86q0 -31 27 -31q19 0 74 51t82 82l32 -26q-199 -271 -325 -271q-78 0 -78 82q0 37 22 101l177 520q18 52 18 76t-25 24q-46 0 -145 -131zM309 1427l248 -309h-43
q-12 0 -35 17l-239 180q-60 49 -60 80q0 22 19.5 43.5t42.5 21.5q26 0 37.5 -6t29.5 -27z" />
    <glyph glyph-name="iacute" unicode="&#xed;" horiz-adv-x="569" 
d="M129 641l-29 29q35 54 84 110t117.5 106t122.5 50q63 0 63 -51q0 -28 -28 -115l-168 -520q-21 -68 -21 -86q0 -31 27 -31q19 0 74 51t82 82l32 -26q-199 -271 -325 -271q-78 0 -78 82q0 37 22 101l177 520q18 52 18 76t-25 24q-46 0 -145 -131zM356 1118h-53l311 303
q6 4 17.5 13t17.5 13.5t15.5 8.5t19.5 4q25 0 45.5 -20t20.5 -47q0 -18 -15.5 -36t-25.5 -24.5t-31 -19.5l-236 -154q-59 -41 -86 -41z" />
    <glyph glyph-name="icircumflex" unicode="&#xee;" horiz-adv-x="569" 
d="M129 641l-29 29q35 54 84 110t117.5 106t122.5 50q63 0 63 -51q0 -28 -28 -115l-168 -520q-21 -68 -21 -86q0 -31 27 -31q19 0 74 51t82 82l32 -26q-199 -271 -325 -271q-78 0 -78 82q0 37 22 101l177 520q18 52 18 76t-25 24q-46 0 -145 -131zM524 1460l181 -342h-68
l-168 219l-276 -219h-76l329 342h78z" />
    <glyph glyph-name="idieresis" unicode="&#xef;" horiz-adv-x="569" 
d="M129 641l-29 29q35 54 84 110t117.5 106t122.5 50q63 0 63 -51q0 -28 -28 -115l-168 -520q-21 -68 -21 -86q0 -31 27 -31q19 0 74 51t82 82l32 -26q-199 -271 -325 -271q-78 0 -78 82q0 37 22 101l177 520q18 52 18 76t-25 24q-46 0 -145 -131zM131 1249q0 43 28.5 72
t69.5 29q43 0 73 -29t30 -72q0 -41 -30 -70.5t-73 -29.5q-41 0 -69.5 29.5t-28.5 70.5zM541 1249q0 43 28.5 72t69.5 29q43 0 72.5 -29t29.5 -72q0 -41 -29.5 -70.5t-72.5 -29.5q-41 0 -69.5 29.5t-28.5 70.5z" />
    <glyph glyph-name="eth" unicode="&#xf0;" 
d="M262 311q0 -61 12.5 -110.5t39 -90.5t74 -64t112.5 -23q64 0 119.5 27.5t95.5 74t72 105t51 123t29 126t10 115.5q0 45 -7 85.5t-24 78.5t-43 65t-66.5 43.5t-91.5 16.5q-66 0 -123 -26.5t-98 -72t-73 -103t-51 -122.5t-28.5 -127.5t-9.5 -120.5zM98 381q0 109 44.5 211
t118.5 177.5t175.5 121t210.5 45.5q133 0 217 -84h4q-20 115 -80 224t-131 184l-297 -113l-41 70l271 104q-140 144 -248 199l45 45q99 -39 171.5 -82.5t152.5 -114.5l270 109l39 -68l-246 -102q266 -272 266 -639q0 -165 -42.5 -299t-116.5 -220.5t-171 -133t-208 -46.5
q-184 0 -294 112.5t-110 299.5z" />
    <glyph glyph-name="ntilde" unicode="&#xf1;" 
d="M92 641l-31 37q210 258 357 258q35 0 52 -19.5t17 -50.5q0 -29 -22 -98l-107 -309h4q32 46 81 104t116 125t135 121.5t141 91t130 35.5q82 0 82 -84q0 -39 -21 -100l-164 -451q-31 -84 -31 -106q0 -43 37 -43t92 49t84 94l35 -27l-73 -90q-146 -178 -285 -178
q-38 0 -58 19.5t-20 48.5q0 53 29 127l159 436q27 81 27 102q0 19 -14 29t-33 10q-39 0 -81 -20t-79 -52t-68.5 -64.5t-60.5 -64.5q-3 -4 -5.5 -6.5t-4.5 -5.5q-175 -187 -256 -418l-41 -116q-4 -11 -28.5 -17t-47.5 -6q-16 0 -37 8.5t-28 18.5l200 604q25 81 25 102
q0 37 -33 37q-49 0 -119 -70zM410 1163h-56q22 85 80 141t141 56q48 0 144 -45t127 -45q45 0 71.5 26t49.5 74h53q-11 -77 -74.5 -141t-140.5 -64q-43 0 -139 45q-9 4 -34.5 17t-38 19t-30.5 12t-31 6q-48 0 -72 -23.5t-50 -77.5z" />
    <glyph glyph-name="ograve" unicode="&#xf2;" 
d="M262 311q0 -61 12.5 -110.5t39 -90.5t74 -64t112.5 -23q64 0 119.5 27.5t95.5 74t72 105t51 123t29 126t10 115.5q0 45 -7 85.5t-24 78.5t-43 65t-66.5 43.5t-91.5 16.5q-66 0 -123 -26.5t-98 -72t-73 -103t-51 -122.5t-28.5 -127.5t-9.5 -120.5zM98 381q0 109 44.5 211
t118.5 177.5t175.5 121t210.5 45.5q176 0 284.5 -118t108.5 -298q0 -107 -43.5 -208t-115.5 -176t-172 -121t-207 -46q-184 0 -294 112.5t-110 299.5zM594 1427l248 -309h-43q-12 0 -35 17l-240 180q-59 48 -59 80q0 22 19 43.5t42 21.5q26 0 38 -6t30 -27z" />
    <glyph glyph-name="oacute" unicode="&#xf3;" 
d="M262 311q0 -61 12.5 -110.5t39 -90.5t74 -64t112.5 -23q64 0 119.5 27.5t95.5 74t72 105t51 123t29 126t10 115.5q0 45 -7 85.5t-24 78.5t-43 65t-66.5 43.5t-91.5 16.5q-66 0 -123 -26.5t-98 -72t-73 -103t-51 -122.5t-28.5 -127.5t-9.5 -120.5zM98 381q0 109 44.5 211
t118.5 177.5t175.5 121t210.5 45.5q176 0 284.5 -118t108.5 -298q0 -107 -43.5 -208t-115.5 -176t-172 -121t-207 -46q-184 0 -294 112.5t-110 299.5zM641 1118h-53l311 303q6 4 17.5 13t17.5 13.5t15.5 8.5t19.5 4q25 0 45 -20t20 -47q0 -18 -15 -36t-25.5 -25t-30.5 -19
l-236 -154q-59 -41 -86 -41z" />
    <glyph glyph-name="ocircumflex" unicode="&#xf4;" 
d="M262 311q0 -61 12.5 -110.5t39 -90.5t74 -64t112.5 -23q64 0 119.5 27.5t95.5 74t72 105t51 123t29 126t10 115.5q0 45 -7 85.5t-24 78.5t-43 65t-66.5 43.5t-91.5 16.5q-66 0 -123 -26.5t-98 -72t-73 -103t-51 -122.5t-28.5 -127.5t-9.5 -120.5zM98 381q0 109 44.5 211
t118.5 177.5t175.5 121t210.5 45.5q176 0 284.5 -118t108.5 -298q0 -107 -43.5 -208t-115.5 -176t-172 -121t-207 -46q-184 0 -294 112.5t-110 299.5zM809 1460l180 -342h-67l-168 219l-277 -219h-76l330 342h78z" />
    <glyph glyph-name="otilde" unicode="&#xf5;" 
d="M262 311q0 -61 12.5 -110.5t39 -90.5t74 -64t112.5 -23q64 0 119.5 27.5t95.5 74t72 105t51 123t29 126t10 115.5q0 45 -7 85.5t-24 78.5t-43 65t-66.5 43.5t-91.5 16.5q-66 0 -123 -26.5t-98 -72t-73 -103t-51 -122.5t-28.5 -127.5t-9.5 -120.5zM98 381q0 109 44.5 211
t118.5 177.5t175.5 121t210.5 45.5q176 0 284.5 -118t108.5 -298q0 -107 -43.5 -208t-115.5 -176t-172 -121t-207 -46q-184 0 -294 112.5t-110 299.5zM410 1163h-56q22 85 80 141t141 56q48 0 144 -45t127 -45q45 0 71.5 26t49.5 74h53q-11 -77 -74.5 -141t-140.5 -64
q-43 0 -139 45q-9 4 -34.5 17t-38 19t-30.5 12t-31 6q-48 0 -72 -23.5t-50 -77.5z" />
    <glyph glyph-name="odieresis" unicode="&#xf6;" 
d="M262 311q0 -61 12.5 -110.5t39 -90.5t74 -64t112.5 -23q64 0 119.5 27.5t95.5 74t72 105t51 123t29 126t10 115.5q0 45 -7 85.5t-24 78.5t-43 65t-66.5 43.5t-91.5 16.5q-66 0 -123 -26.5t-98 -72t-73 -103t-51 -122.5t-28.5 -127.5t-9.5 -120.5zM98 381q0 109 44.5 211
t118.5 177.5t175.5 121t210.5 45.5q176 0 284.5 -118t108.5 -298q0 -107 -43.5 -208t-115.5 -176t-172 -121t-207 -46q-184 0 -294 112.5t-110 299.5zM416 1249q0 43 28.5 72t69.5 29q43 0 72.5 -29t29.5 -72q0 -41 -29.5 -70.5t-72.5 -29.5q-41 0 -69.5 29.5t-28.5 70.5z
M825 1249q0 43 29 72t70 29q43 0 72.5 -29t29.5 -72q0 -41 -29.5 -70.5t-72.5 -29.5q-41 0 -70 29.5t-29 70.5z" />
    <glyph glyph-name="divide" unicode="&#xf7;" 
d="M1022 385h-905v135h905v-135zM434 104q0 57 40 96.5t97 39.5q54 0 94 -40.5t40 -95.5q0 -53 -40 -94t-94 -41q-57 0 -97 39.5t-40 95.5zM434 801q0 57 39.5 96t95.5 39t96 -40t40 -95q0 -53 -40.5 -94t-95.5 -41t-95 40t-40 95z" />
    <glyph glyph-name="oslash" unicode="&#xf8;" 
d="M840 766q-53 117 -195 117q-66 0 -123 -26.5t-98 -72t-73 -103t-51 -122.5t-28.5 -127.5t-9.5 -120.5q0 -57 12 -110zM500 23q64 0 119.5 27.5t95.5 74t72 105t51 123t29 126t10 115.5q0 64 -15 119l-565 -574q56 -116 203 -116zM1040 969l41 -37l-135 -133
q94 -114 94 -279q0 -107 -43.5 -208t-115.5 -176t-172 -121t-207 -46q-170 0 -277 99l-125 -125l-43 41l127 127q-86 106 -86 270q0 109 44.5 211t118.5 177.5t175.5 121t210.5 45.5q155 0 264 -98z" />
    <glyph glyph-name="ugrave" unicode="&#xf9;" 
d="M1034 279l29 -29q-3 -3 -32.5 -36t-39 -43t-39 -39.5t-45.5 -42t-44.5 -34t-49.5 -30.5t-48 -17t-52 -8q-36 0 -56 19t-20 53q0 39 39 151l123 363h-4q-5 -6 -36.5 -47t-49.5 -64t-57 -71.5t-66.5 -80t-69.5 -78t-75 -77t-73.5 -65.5t-74 -55.5t-69 -34t-64.5 -13.5
q-34 0 -60 24t-26 56q0 23 20 88l178 528l8 28q1 9 1 17q0 31 -27 31q-21 0 -47.5 -17t-44 -33.5t-45 -46.5t-33.5 -36l-33 35l70 71q42 42 69 67t68.5 58t79.5 49.5t72 16.5q31 0 49 -17.5t18 -48.5q0 -36 -26 -106l-185 -551q-4 -20 -4 -29q0 -20 35 -20q49 0 141.5 85
t183 200.5t168 235t103.5 187.5q12 32 27 48t43 16q12 0 26.5 -7.5t23 -13.5t24.5 -21t18 -17l-224 -668q-6 -15 -6 -29q0 -28 31 -28q24 0 56 22t74 61t48 44zM594 1427l248 -309h-43q-12 0 -35 17l-240 180q-59 48 -59 80q0 22 19 43.5t42 21.5q26 0 38 -6t30 -27z" />
    <glyph glyph-name="uacute" unicode="&#xfa;" 
d="M1034 279l29 -29q-3 -3 -32.5 -36t-39 -43t-39 -39.5t-45.5 -42t-44.5 -34t-49.5 -30.5t-48 -17t-52 -8q-36 0 -56 19t-20 53q0 39 39 151l123 363h-4q-5 -6 -36.5 -47t-49.5 -64t-57 -71.5t-66.5 -80t-69.5 -78t-75 -77t-73.5 -65.5t-74 -55.5t-69 -34t-64.5 -13.5
q-34 0 -60 24t-26 56q0 23 20 88l178 528l8 28q1 9 1 17q0 31 -27 31q-21 0 -47.5 -17t-44 -33.5t-45 -46.5t-33.5 -36l-33 35l70 71q42 42 69 67t68.5 58t79.5 49.5t72 16.5q31 0 49 -17.5t18 -48.5q0 -36 -26 -106l-185 -551q-4 -20 -4 -29q0 -20 35 -20q49 0 141.5 85
t183 200.5t168 235t103.5 187.5q12 32 27 48t43 16q12 0 26.5 -7.5t23 -13.5t24.5 -21t18 -17l-224 -668q-6 -15 -6 -29q0 -28 31 -28q24 0 56 22t74 61t48 44zM641 1118h-53l311 303q6 4 17.5 13t17.5 13.5t15.5 8.5t19.5 4q25 0 45 -20t20 -47q0 -18 -15 -36t-25.5 -25
t-30.5 -19l-236 -154q-59 -41 -86 -41z" />
    <glyph glyph-name="ucircumflex" unicode="&#xfb;" 
d="M1034 279l29 -29q-3 -3 -32.5 -36t-39 -43t-39 -39.5t-45.5 -42t-44.5 -34t-49.5 -30.5t-48 -17t-52 -8q-36 0 -56 19t-20 53q0 39 39 151l123 363h-4q-5 -6 -36.5 -47t-49.5 -64t-57 -71.5t-66.5 -80t-69.5 -78t-75 -77t-73.5 -65.5t-74 -55.5t-69 -34t-64.5 -13.5
q-34 0 -60 24t-26 56q0 23 20 88l178 528l8 28q1 9 1 17q0 31 -27 31q-21 0 -47.5 -17t-44 -33.5t-45 -46.5t-33.5 -36l-33 35l70 71q42 42 69 67t68.5 58t79.5 49.5t72 16.5q31 0 49 -17.5t18 -48.5q0 -36 -26 -106l-185 -551q-4 -20 -4 -29q0 -20 35 -20q49 0 141.5 85
t183 200.5t168 235t103.5 187.5q12 32 27 48t43 16q12 0 26.5 -7.5t23 -13.5t24.5 -21t18 -17l-224 -668q-6 -15 -6 -29q0 -28 31 -28q24 0 56 22t74 61t48 44zM809 1460l180 -342h-67l-168 219l-277 -219h-76l330 342h78z" />
    <glyph glyph-name="udieresis" unicode="&#xfc;" 
d="M1034 279l29 -29q-3 -3 -32.5 -36t-39 -43t-39 -39.5t-45.5 -42t-44.5 -34t-49.5 -30.5t-48 -17t-52 -8q-36 0 -56 19t-20 53q0 39 39 151l123 363h-4q-5 -6 -36.5 -47t-49.5 -64t-57 -71.5t-66.5 -80t-69.5 -78t-75 -77t-73.5 -65.5t-74 -55.5t-69 -34t-64.5 -13.5
q-34 0 -60 24t-26 56q0 23 20 88l178 528l8 28q1 9 1 17q0 31 -27 31q-21 0 -47.5 -17t-44 -33.5t-45 -46.5t-33.5 -36l-33 35l70 71q42 42 69 67t68.5 58t79.5 49.5t72 16.5q31 0 49 -17.5t18 -48.5q0 -36 -26 -106l-185 -551q-4 -20 -4 -29q0 -20 35 -20q49 0 141.5 85
t183 200.5t168 235t103.5 187.5q12 32 27 48t43 16q12 0 26.5 -7.5t23 -13.5t24.5 -21t18 -17l-224 -668q-6 -15 -6 -29q0 -28 31 -28q24 0 56 22t74 61t48 44zM416 1249q0 43 28.5 72t69.5 29q43 0 72.5 -29t29.5 -72q0 -41 -29.5 -70.5t-72.5 -29.5q-41 0 -69.5 29.5
t-28.5 70.5zM825 1249q0 43 29 72t70 29q43 0 72.5 -29t29.5 -72q0 -41 -29.5 -70.5t-72.5 -29.5q-41 0 -70 29.5t-29 70.5z" />
    <glyph glyph-name="yacute" unicode="&#xfd;" horiz-adv-x="1024" 
d="M123 612l-19 -14l-49 29q0 54 11.5 105.5t36 99t69.5 76t104 28.5t106.5 -35t77.5 -97t52 -134.5t35.5 -158.5t22 -158.5l17 -145t15.5 -107.5q8 15 45 79.5t52.5 93t45 89t43 99.5t25.5 90t12 94q0 40 -12 91t-12 77q0 49 25.5 86t70.5 37q41 0 60.5 -32t19.5 -77
q0 -79 -53.5 -219.5t-130 -283.5t-155.5 -270t-136 -199q-6 -7 -30 -40t-35.5 -47t-37 -46t-42.5 -48.5t-43 -42.5t-48 -40.5t-48.5 -29.5t-53 -21.5t-53.5 -6.5q-33 0 -58.5 24.5t-25.5 57.5q0 36 19 60t54 24q13 0 41 -7t45 -7q89 0 174 98l111 129l-6 106l-19 170
q-14 103 -33 195t-48 189t-70 154.5t-88 57.5q-43 0 -70.5 -26.5t-27.5 -67.5q0 -40 14 -78zM584 1118h-54l312 303q6 4 17 13t17 13.5t15.5 8.5t19.5 4q25 0 45.5 -20t20.5 -47q0 -18 -15.5 -36t-25.5 -24.5t-31 -19.5l-235 -154q-59 -41 -86 -41z" />
    <glyph glyph-name="thorn" unicode="&#xfe;" 
d="M324 866l141 561l-100 58l6 26q61 7 135 19q52 9 145 35l23 -9l-182 -657q104 37 227 37q57 0 109 -13t98.5 -41t74 -79.5t27.5 -120.5q0 -102 -51.5 -227t-132 -232.5t-191 -180.5t-217.5 -73q-87 0 -164 60l-100 -385l164 -27l-8 -53q-109 0 -181 -10q-37 -3 -141 -21
l-12 16l311 1244q-170 -60 -244 -99l15 80q83 37 248 92zM477 840l-129 -514q-1 -8 -8.5 -42t-10.5 -61.5t-3 -62.5q0 -43 33.5 -90t91.5 -47q64 0 129 50t114.5 127t88.5 166.5t60 172.5t21 141q0 190 -211 190q-111 0 -176 -30z" />
    <glyph glyph-name="ydieresis" unicode="&#xff;" horiz-adv-x="1024" 
d="M123 612l-19 -14l-49 29q0 54 11.5 105.5t36 99t69.5 76t104 28.5t106.5 -35t77.5 -97t52 -134.5t35.5 -158.5t22 -158.5l17 -145t15.5 -107.5q8 15 45 79.5t52.5 93t45 89t43 99.5t25.5 90t12 94q0 40 -12 91t-12 77q0 49 25.5 86t70.5 37q41 0 60.5 -32t19.5 -77
q0 -79 -53.5 -219.5t-130 -283.5t-155.5 -270t-136 -199q-6 -7 -30 -40t-35.5 -47t-37 -46t-42.5 -48.5t-43 -42.5t-48 -40.5t-48.5 -29.5t-53 -21.5t-53.5 -6.5q-33 0 -58.5 24.5t-25.5 57.5q0 36 19 60t54 24q13 0 41 -7t45 -7q89 0 174 98l111 129l-6 106l-19 170
q-14 103 -33 195t-48 189t-70 154.5t-88 57.5q-43 0 -70.5 -26.5t-27.5 -67.5q0 -40 14 -78zM358 1249q0 43 29 72t70 29q43 0 72.5 -29t29.5 -72q0 -41 -29.5 -70.5t-72.5 -29.5q-41 0 -70 29.5t-29 70.5zM768 1249q0 43 28.5 72t69.5 29q43 0 73 -29t30 -72
q0 -41 -30 -70.5t-73 -29.5q-41 0 -69.5 29.5t-28.5 70.5z" />
    <glyph glyph-name="dotlessi" unicode="&#x131;" horiz-adv-x="569" 
d="M129 641l-29 29q35 54 84 110t117.5 106t122.5 50q63 0 63 -51q0 -28 -28 -115l-168 -520q-21 -68 -21 -86q0 -31 27 -31q19 0 74 51t82 82l32 -26q-199 -271 -325 -271q-78 0 -78 82q0 37 22 101l177 520q18 52 18 76t-25 24q-46 0 -145 -131z" />
    <glyph glyph-name="Lslash" unicode="&#x141;" horiz-adv-x="1366" 
d="M287 242l51 293l-191 -142l23 139l192 144l105 586q7 41 -10 67.5t-46.5 35t-64 12.5t-61.5 -1l10 54q51 0 154.5 -2.5t154.5 -2.5q44 0 132 2.5t132 2.5l-10 -54q-38 1 -58.5 0t-44.5 -4.5t-36.5 -12t-26 -23.5t-21.5 -37.5t-16 -55.5l-73 -407l436 323l-23 -139
l-438 -324l-117 -630h434q279 0 363 290h49l-110 -356q-418 4 -629 4q-321 0 -481 -4l10 53h53q80 7 110 45.5t48 143.5z" />
    <glyph glyph-name="lslash" unicode="&#x142;" horiz-adv-x="569" 
d="M279 813l139 594l-123 63l10 31q46 2 150 21q54 10 149 43l14 -13l-147 -612l4 -4l160 121l-31 -125l-162 -119l-143 -596q-8 -40 -8 -51q0 -1 0.5 -4.5t1 -4.5t1 -4.5t1.5 -5t2.5 -4.5t3.5 -4.5t4.5 -3t6 -2t7.5 -0.5q41 0 158 158l25 -43q-11 -14 -37.5 -50.5
t-45.5 -62t-49 -59.5t-56 -55t-58.5 -36.5t-62.5 -15.5q-78 0 -78 101q1 18 14 100l123 522l-4 4l-152 -118l31 131z" />
    <glyph glyph-name="OE" unicode="&#x152;" horiz-adv-x="2048" 
d="M1063 326l125 841q10 68 10 115q1 32 -18 56t-46 37t-65 20.5t-67.5 9.5t-61.5 2q-120 0 -222 -44.5t-173.5 -119.5t-122 -174t-74.5 -208.5t-24 -223.5q0 -92 17.5 -179t56.5 -166.5t95 -138.5t138.5 -94.5t181.5 -35.5q68 0 113 19t72 62t40.5 92t24.5 130zM1399 1364
l-92 -582h258q98 0 137.5 26t66.5 114l23 71h45l-84 -485h-45q4 40 4 94q0 28 -7 45.5t-18.5 28t-37 15.5t-49.5 6t-70 1h-236l-59 -387q-1 -8 -8 -47.5t-12 -74.5t-5 -48q0 -49 68.5 -62t237.5 -13q48 0 79 1t72 5t67.5 11.5t57.5 21t52 33.5t40.5 49t32.5 67l29 88h53
l-96 -342h-420q-105 0 -387 -14q-257 -17 -310 -17q-205 0 -357 88.5t-229 238t-77 339.5q0 191 65 348.5t177.5 260.5t261.5 159.5t319 56.5q42 0 234 -12q10 -1 132 -12t193 -11q83 0 249 2.5t249 2.5l-23 -287h-41v49q0 123 -62 147.5t-323 24.5h-155z" />
    <glyph glyph-name="oe" unicode="&#x153;" horiz-adv-x="1593" 
d="M1464 252l31 -31q-233 -252 -483 -252q-73 0 -130 46t-87 122q-92 -90 -169 -129t-192 -39q-165 0 -258.5 104t-93.5 271q0 147 74 283.5t203.5 222.5t277.5 86q110 0 187 -49t126 -152q188 201 393 201q88 0 148.5 -38.5t60.5 -121.5q0 -79 -45.5 -143.5t-112.5 -105
t-155.5 -70t-161.5 -43t-143 -19.5q-6 -81 -6 -98q0 -97 40 -157t132 -60q65 0 135 28t116 59.5t113 84.5zM444 23q76 1 140.5 45t106.5 112t72 152t43 162t13 145q0 104 -46 167.5t-146 63.5q-87 0 -162.5 -61.5t-121 -152.5t-71.5 -187.5t-26 -175.5q0 -52 9.5 -97
t31 -85.5t62 -64t95.5 -23.5zM946 449q57 4 118 19t121.5 43.5t108 67t77.5 93.5t30 119q0 38 -26 58.5t-66 20.5q-56 0 -109.5 -27.5t-95 -72t-75 -100.5t-54.5 -112.5t-29 -108.5z" />
    <glyph glyph-name="Scaron" unicode="&#x160;" horiz-adv-x="1024" 
d="M102 416h41q1 -14 3.5 -56t4 -60t8.5 -50t19 -60q29 -70 99.5 -112.5t152.5 -42.5q120 0 200.5 67.5t80.5 182.5q0 60 -25 119.5t-65.5 110t-89.5 102t-97.5 104.5t-89 107.5t-65.5 120.5t-25 134q0 166 106.5 271.5t276.5 105.5q113 0 223 -37q42 -14 58 -14
q10 0 16.5 2.5t13 8t10.5 7.5h35l-63 -360h-45q0 15 2 43t2 43q0 113 -68 177.5t-182 64.5q-102 0 -161.5 -56.5t-59.5 -158.5q0 -57 26.5 -115t69 -109.5t93.5 -103.5t102.5 -107t94 -110.5t69 -123t26.5 -136.5q0 -173 -127.5 -289.5t-312.5 -116.5q-61 0 -122 13.5
t-90 25t-85 35.5l-68 -61h-47zM625 1509l-181 342h68l168 -219l276 219h76l-330 -342h-77z" />
    <glyph glyph-name="scaron" unicode="&#x161;" horiz-adv-x="796" 
d="M76 256h26q9 -55 52.5 -93.5t97 -54.5t110.5 -16q26 0 53.5 3.5t58.5 12.5t51 29t20 47q0 39 -31 78t-78.5 73t-97 66.5t-93 71t-59.5 74.5q-18 37 -18 94q0 37 21.5 74.5t62 72.5t69 55.5t70.5 47.5t72.5 36t79.5 9q178 0 178 -123q0 -24 -13 -58t-30 -34h-25
q-5 0 -8.5 1.5t-6.5 5.5t-4 6l-4.5 9l-4.5 9q-13 29 -64.5 51t-103.5 22q-59 0 -106.5 -30t-47.5 -86q0 -46 37.5 -87.5t90.5 -75t106.5 -69t91 -85.5t37.5 -109q0 -91 -134 -220q-94 -94 -243 -94q-42 0 -83 7t-83 23.5t-68 50t-26 79.5q0 22 8.5 47.5t14.5 36.5t24 43z
M461 1118l-180 342h67l168 -219l277 219h75l-329 -342h-78z" />
    <glyph glyph-name="Ydieresis" unicode="&#x178;" horiz-adv-x="1366" 
d="M719 1430l-10 -54h-74q-38 0 -61.5 -18.5t-6.5 -57.5l262 -620l373 584q27 41 27 69q0 43 -127 43h-35l8 54q103 -5 248 -5q88 0 152 5l-11 -54q-65 7 -137 -96l-20 -31l-451 -661l-76 -402q-4 -22 -4 -39.5t2 -31t9.5 -23.5t14 -16.5t20.5 -11t23.5 -6.5t29 -3.5
t30.5 -1.5h33h37l-10 -53q-52 0 -158 2t-158 2q-88 0 -264 -4l8 53h45q61 -1 92 11.5t42.5 35.5t21.5 76l78 408l-316 721q-16 35 -56.5 53t-88.5 18h-21l9 54q105 -5 252 -5q45 0 134 2.5t134 2.5zM582 1640q0 43 28.5 72t69.5 29q43 0 72.5 -29t29.5 -72
q0 -41 -29.5 -70.5t-72.5 -29.5q-41 0 -69.5 29.5t-28.5 70.5zM991 1640q0 43 29 72t70 29q43 0 72.5 -29t29.5 -72q0 -41 -29.5 -70.5t-72.5 -29.5q-41 0 -70 29.5t-29 70.5z" />
    <glyph glyph-name="Zcaron" unicode="&#x17d;" horiz-adv-x="1478" 
d="M43 0v16l1122 1336h-477q-50 0 -80 -1t-67 -4t-59 -9.5t-48.5 -18t-43.5 -28t-36.5 -41t-35 -56.5t-31.5 -74h-49l90 310h1114v-17l-1110 -1329h647q22 0 42 1.5t35.5 3t31.5 6t25.5 7t22 9t18 9t16.5 10t13 9.5t12 10t11 9q32 25 64.5 89t52.5 128h47l-96 -375
q-422 4 -633 4q-99 0 -299 -2t-299 -2zM852 1509l-180 342h67l168 -219l277 219h76l-330 -342h-78z" />
    <glyph glyph-name="zcaron" unicode="&#x17e;" horiz-adv-x="909" 
d="M63 113l590 606q-55 -4 -107 11t-122 46q-62 25 -117 25q-36 0 -65 -22t-29 -56q0 -1 10 -23.5t8 -37.5q-3 -21 -16 -33.5t-31 -12.5q-26 0 -39.5 21t-13.5 49q0 24 11 47t22.5 36t34.5 36q126 131 213 131q52 0 164 -53.5t153 -53.5q35 0 55 13q5 2 7.5 4.5t4 6.5t2 6
t1 8.5t0.5 9.5q4 71 57 71q39 0 39 -41q0 -18 -35 -62t-72 -79l-532 -551q43 3 105.5 -30.5t116 -76t111 -78.5t91.5 -36q35 0 55 22t6 54q-1 5 -15.5 36t-14.5 46q0 14 15 29.5t38 15.5q26 0 40.5 -22.5t14.5 -49.5q0 -94 -75 -180t-166 -86q-34 0 -78.5 27t-87.5 65
t-85.5 76t-86 65t-76.5 27q-18 0 -36.5 -11t-18.5 -28q0 -22 7 -40t7 -28q0 -40 -43 -43q-24 -3 -38.5 14t-14.5 42q0 30 7.5 48.5t28.5 39.5zM516 1118l-180 342h67l168 -219l277 219h76l-330 -342h-78z" />
    <glyph glyph-name="florin" unicode="&#x192;" 
d="M944 920l-12 -66h-244l-147 -670q-11 -48 -21 -90t-30.5 -112t-42 -126t-53.5 -119t-66 -105.5t-79 -70.5t-93 -28q-62 0 -96.5 35t-34.5 84q0 43 19 64.5t46 21.5q70 0 70 -57q0 -10 -7.5 -28.5t-7.5 -27.5q-1 -18 9.5 -28.5t29.5 -10.5q81 0 148 308l184 960h-199
l15 66h200q11 57 27 111.5t40.5 118.5t58 117t75 97.5t97 70t118.5 25.5q66 0 121 -37t55 -102q0 -38 -17 -67t-56 -29q-37 0 -57.5 19.5t-20.5 55.5q0 11 5 33.5t5 34.5q0 20 -18 29.5t-41 9.5q-39 0 -72 -30t-53.5 -72t-38.5 -103t-26.5 -107.5t-18.5 -102.5t-13 -72h242z
" />
    <glyph glyph-name="circumflex" unicode="&#x2c6;" horiz-adv-x="569" 
d="M524 1460l181 -342h-68l-168 219l-276 -219h-76l329 342h78z" />
    <glyph glyph-name="caron" unicode="&#x2c7;" horiz-adv-x="569" 
d="M346 1118l-180 342h67l168 -219l277 219h76l-330 -342h-78z" />
    <glyph glyph-name="uni02C9" unicode="&#x2c9;" horiz-adv-x="569" 
d="M709 1200h-531l17 96h530z" />
    <glyph glyph-name="breve" unicode="&#x2d8;" horiz-adv-x="569" 
d="M152 1444h53q7 -100 65 -153.5t158 -53.5t170.5 55t106.5 152h53q-32 -146 -118 -238t-226 -92q-72 0 -125 25t-82.5 71t-43 104t-11.5 130z" />
    <glyph glyph-name="dotaccent" unicode="&#x2d9;" horiz-adv-x="569" 
d="M336 1249q0 43 28.5 72t69.5 29q43 0 73 -29t30 -72q0 -41 -30 -70.5t-73 -29.5q-41 0 -69.5 29.5t-28.5 70.5z" />
    <glyph glyph-name="ring" unicode="&#x2da;" horiz-adv-x="569" 
d="M367 1077q-83 0 -142 59t-59 142t59 142t142 59t141.5 -59t58.5 -142t-58.5 -142t-141.5 -59zM367 1143q55 0 95 39.5t40 95.5t-40 95.5t-95 39.5q-56 0 -96 -40t-40 -95t40 -95t96 -40z" />
    <glyph glyph-name="ogonek" unicode="&#x2db;" horiz-adv-x="569" 
d="M375 -283l37 -20q-43 -63 -103.5 -98t-111.5 -35q-160 0 -158 123q0 164 285 313h77q-44 -30 -75.5 -56t-70.5 -64.5t-60 -82t-21 -86.5q1 -27 20 -45t44 -18q75 0 137 69z" />
    <glyph glyph-name="tilde" unicode="&#x2dc;" horiz-adv-x="569" 
d="M125 1163h-55q22 85 80 141t141 56q47 0 143 -45t127 -45q45 0 71.5 26t49.5 74h53q-11 -77 -74.5 -141t-140.5 -64q-43 0 -139 45q-10 5 -34.5 17.5t-37 18.5t-30.5 12t-31 6q-48 0 -73 -23.5t-50 -77.5z" />
    <glyph glyph-name="hungarumlaut" unicode="&#x2dd;" horiz-adv-x="569" 
d="M154 1118h-54l312 303q6 4 17 13t17 13.5t15.5 8.5t19.5 4q25 0 45.5 -20t20.5 -47q0 -18 -15.5 -36t-25.5 -24.5t-31 -19.5l-235 -154q-59 -41 -86 -41zM563 1118h-53l311 303q6 4 17.5 13t17.5 13.5t15.5 8.5t19.5 4q25 0 45 -20t20 -47q0 -18 -15 -36t-25.5 -25
t-30.5 -19l-236 -154q-59 -41 -86 -41z" />
    <glyph glyph-name="uni03A9" unicode="&#x3a9;" horiz-adv-x="1488" 
d="M1362 276l-109 -276h-471l-4 37q19 25 70 89t85.5 108.5t84.5 117.5t84 134.5t65.5 140.5t46.5 153q29 133 25 233.5t-28 171t-69.5 115t-100 64.5t-119.5 20q-70 0 -135.5 -20.5t-129 -67.5t-116 -117t-97 -175t-71.5 -236q-9 -44 -13.5 -89t-5.5 -83t4 -83.5t8.5 -76
t15.5 -76.5t18.5 -70t22.5 -70t22.5 -62.5t24.5 -63t22 -57.5l-23 -37h-467l12 276l45 3q10 -99 35 -129.5t86 -30.5h223q-27 31 -46.5 55.5t-49 67t-48.5 81t-38.5 93t-27.5 108.5t-6.5 121t16.5 137q42 197 154 348.5t263.5 231.5t317.5 80q260 0 387 -173t64 -468
q-18 -86 -59 -172t-88 -152.5t-113 -138.5t-115.5 -118t-114.5 -101h227q67 0 100 27t89 133z" />
    <glyph glyph-name="uni03BC" unicode="&#x3bc;" 
d="M98 168l174 528l8 28q1 9 1 17q0 31 -27 31q-21 0 -47.5 -17t-44 -33.5t-45 -46.5t-33.5 -36l-33 35l70 71q42 42 69 67t68.5 58t79.5 49.5t72 16.5q31 0 49 -17.5t18 -48.5q0 -36 -26 -106l-185 -551q-4 -20 -4 -29q0 -20 35 -20q69 0 206 150t249.5 317t140.5 241
q12 32 27 48t43 16q12 0 26.5 -7.5t23 -13.5t24.5 -21t18 -17l-224 -668q-6 -15 -6 -29q0 -28 31 -28q24 0 56 22t74 61t48 44l29 -29q-3 -3 -32.5 -36t-39 -43t-39 -39.5t-45.5 -42t-44.5 -34t-49.5 -30.5t-48 -17t-52 -8q-36 0 -56 19t-20 53q0 48 39 151l133 357h-4
q-20 -22 -72 -85t-100.5 -121t-115.5 -129t-125.5 -122.5t-121 -87t-110.5 -35.5q-13 -64 -27 -184.5t-20 -155.5q0 -2 -2 -14.5t-3 -17t-4 -16.5t-5.5 -17.5t-7 -15.5t-10 -15t-13.5 -12t-17 -10.5t-21 -6t-26 -2.5q-32 0 -49.5 19t-17.5 47q0 45 18 120t37.5 135.5
t55 164.5t50.5 149z" />
    <glyph glyph-name="pi" unicode="&#x3c0;" horiz-adv-x="1142" 
d="M1128 973l43 -19q-48 -105 -106 -166q-47 -8 -145 -8q-29 -96 -117 -508q-21 -91 -9 -140.5t62 -49.5q31 0 57 16t62 52l18 -39q-51 -68 -112 -102t-117 -34q-84 0 -115.5 57.5t-1.5 203.5q36 167 139 550q-308 5 -340 5l-10 -46q-34 -164 -80.5 -306t-89 -228t-73 -135
t-48.5 -66q-81 -32 -120 -35l-5 33q68 65 129.5 167.5t105.5 215.5t73.5 212t48.5 190q-51 0 -90 -6.5t-77 -24t-57 -28.5t-63 -40l-18 39q1 1 22 21t25.5 24t26.5 23t31.5 24.5t32.5 21.5t39 21.5t41.5 16t48 15t51.5 8t59 3.5q67 0 251 -4t291 -4q47 0 75 13.5t62 56.5z
" />
    <glyph glyph-name="uni2010" unicode="&#x2010;" horiz-adv-x="681" 
d="M80 422l37 135h483l-33 -135h-487z" />
    <glyph glyph-name="endash" unicode="&#x2013;" horiz-adv-x="1024" 
d="M-23 432l46 135h1024l-46 -135h-1024z" />
    <glyph glyph-name="emdash" unicode="&#x2014;" horiz-adv-x="2048" 
d="M-23 432l46 135h2048l-46 -135h-2048z" />
    <glyph glyph-name="quoteleft" unicode="&#x2018;" horiz-adv-x="569" 
d="M602 1430l23 -41q-37 2 -81 -7.5t-86 -28t-70 -52.5t-28 -76q0 -33 14 -43t48 -19.5t61 -32.5q9 -6 16 -23t7 -28q0 -58 -35 -92.5t-94 -34.5q-65 0 -101 54.5t-36 126.5q0 67 32.5 125t84.5 95.5t116.5 58t128.5 18.5z" />
    <glyph glyph-name="quoteright" unicode="&#x2019;" horiz-adv-x="569" 
d="M188 952l-22 41q37 -2 81 7.5t86 28t69.5 52.5t27.5 76q0 33 -14 42.5t-48 19t-61 32.5q-8 6 -15 23t-7 29q0 58 35 92.5t94 34.5q65 0 101 -54.5t36 -126.5q0 -67 -33 -125t-85 -95.5t-116.5 -58t-128.5 -18.5z" />
    <glyph glyph-name="quotesinglbase" unicode="&#x201a;" horiz-adv-x="569" 
d="M115 -254l-23 41q37 -2 81 7.5t86 28t69.5 52.5t27.5 76q0 33 -14 42.5t-48 19t-61 32.5q-8 6 -15 22.5t-7 28.5q0 58 35 92.5t94 34.5q65 0 101 -54t36 -126q0 -67 -32.5 -125t-84.5 -95.5t-116.5 -58t-128.5 -18.5z" />
    <glyph glyph-name="quotedblleft" unicode="&#x201c;" 
d="M676 1430l22 -41q-37 2 -81 -7.5t-86 -28t-69.5 -52.5t-27.5 -76q0 -33 14 -43t48 -19.5t61 -32.5q9 -6 16 -23t7 -28q0 -58 -35 -92.5t-94 -34.5q-65 0 -101.5 54.5t-36.5 126.5q0 67 33 125t85 95.5t116.5 58t128.5 18.5zM1079 1430l23 -41q-37 2 -81 -7.5t-86 -28
t-69.5 -52.5t-27.5 -76q0 -33 14 -43t48 -19.5t61 -32.5q8 -6 15 -23t7 -28q0 -58 -35 -92.5t-94 -34.5q-65 0 -101 54.5t-36 126.5q0 67 32.5 125t84.5 95.5t116.5 58t128.5 18.5z" />
    <glyph glyph-name="quotedblright" unicode="&#x201d;" 
d="M281 952l-23 41q37 -2 81 7.5t86 28t69.5 52.5t27.5 76q0 33 -14 42.5t-48 19t-61 32.5q-8 6 -15 23t-7 29q0 58 35 92.5t94 34.5q65 0 101 -54.5t36 -126.5q0 -67 -32.5 -125t-84.5 -95.5t-116.5 -58t-128.5 -18.5zM684 952l-22 41q37 -2 81 7.5t86 28t69.5 52.5
t27.5 76q0 33 -14 42.5t-48 19t-61 32.5q-9 6 -16 23.5t-7 28.5q0 58 35 92.5t94 34.5q65 0 101.5 -54.5t36.5 -126.5q0 -67 -33 -125t-85 -95.5t-116.5 -58t-128.5 -18.5z" />
    <glyph glyph-name="quotedblbase" unicode="&#x201e;" 
d="M549 -254l-23 41q37 -2 81 7.5t86 28t70 52.5t28 76q0 33 -14 42.5t-48 19t-61 32.5q-9 6 -16 23t-7 28q0 58 35 92.5t94 34.5q65 0 101 -54t36 -126q0 -67 -32.5 -125t-84.5 -95.5t-116.5 -58t-128.5 -18.5zM145 -254l-22 41q37 -2 81 7.5t86 28t69.5 52.5t27.5 76
q0 33 -14 42.5t-48 19t-61 32.5q-8 6 -15 22.5t-7 28.5q0 58 35 92.5t94 34.5q65 0 101 -54t36 -126q0 -67 -33 -125t-85 -95.5t-116.5 -58t-128.5 -18.5z" />
    <glyph glyph-name="dagger" unicode="&#x2020;" 
d="M573 834h-77q-183 0 -316 -13l-12 13q3 11 5.5 20.5t3.5 12.5t1.5 6.5t1 6.5t1 7.5t2 14.5t3.5 22l13 12q12 -1 62.5 -5.5t84.5 -6.5q21 -1 58.5 -2.5t67 -2.5t52.5 -1h68l59 344q19 116 19 155l12 13q15 0 37 -3.5t33 -3.5q12 0 33.5 3.5t31.5 3.5l12 -13
q-25 -80 -43 -155l-84 -344h54q70 0 340 18l12 -12q-18 -43 -18 -90l-13 -13q-198 13 -327 13h-66q-145 -710 -207 -1061q-17 -107 -20 -156l-13 -12q-14 0 -36 3t-33 3t-33 -3t-33 -3l-12 12q21 60 45 156q89 364 231 1061z" />
    <glyph glyph-name="daggerdbl" unicode="&#x2021;" 
d="M573 838h-77q-192 0 -316 -11l-12 13q10 39 18 88l13 12q177 -18 325 -18h68l59 342q19 116 19 153l12 13q15 0 37 -3.5t33 -3.5q12 0 33.5 3.5t31.5 3.5l12 -13q-27 -88 -43 -153l-84 -342h54q70 0 340 18l12 -12q-18 -41 -18 -88l-13 -13q-168 11 -327 11h-66l-14 -56
q-32 -123 -39 -266q-1 -4 -10 -26t-17 -43.5t-17.5 -52.5t-17 -69t-12.5 -77l-6 -53h59q226 0 334 12l12 -12q-10 -37 -18 -89l-12 -12q-167 17 -326 17h-68l-59 -340q-18 -110 -18 -154l-13 -12q-15 0 -36.5 3t-32.5 3q-12 0 -34 -3t-32 -3l-12 12q26 84 43 154l84 340h-53
q-85 0 -340 -17l-13 12q19 43 19 89l12 12q183 -12 328 -12h65l11 53q5 23 11.5 56.5t10 51l9 45t7 39t5 33t3 25.5t-0.5 18q27 49 67 266z" />
    <glyph glyph-name="bullet" unicode="&#x2022;" horiz-adv-x="1024" 
d="M174 715q0 149 104.5 253.5t253.5 104.5t254 -104.5t105 -253.5t-105 -254t-254 -105t-253.5 105t-104.5 254z" />
    <glyph glyph-name="ellipsis" unicode="&#x2026;" horiz-adv-x="2048" 
d="M303 -31q-55 0 -95 39t-40 94q0 54 40.5 96t94.5 42t94.5 -41.5t40.5 -96.5t-39.5 -94t-95.5 -39zM985 -31q-55 0 -95 39t-40 94q0 54 40.5 96t94.5 42t94.5 -41.5t40.5 -96.5t-39.5 -94t-95.5 -39zM1667 -31q-55 0 -95 39t-40 94q0 54 40.5 96t94.5 42t94.5 -41.5
t40.5 -96.5t-39.5 -94t-95.5 -39z" />
    <glyph glyph-name="perthousand" unicode="&#x2030;" horiz-adv-x="2048" 
d="M162 1083q0 145 96 253t240 108q113 0 182.5 -73t69.5 -187q0 -92 -44.5 -179t-125 -143.5t-174.5 -56.5q-118 0 -181 78.5t-63 199.5zM297 997q0 -62 27 -100.5t86 -38.5q51 0 92.5 43t64.5 106t35 124t12 108q0 77 -30.5 114.5t-83.5 37.5q-57 0 -100 -45t-63.5 -112.5
t-30 -127.5t-9.5 -109zM721 248q0 145 96 252.5t240 107.5q113 0 182.5 -73t69.5 -187q0 -92 -44.5 -179t-125 -143.5t-174.5 -56.5q-118 0 -181 79t-63 200zM856 162q0 -62 27 -100.5t86 -38.5q51 0 92.5 43t65 105.5t35.5 123.5t12 108q0 77 -31 114.5t-84 37.5
q-47 0 -84 -31t-58.5 -76t-36 -101t-19.5 -102t-5 -83zM1405 248q0 145 96 252.5t240 107.5q113 0 182.5 -73t69.5 -187q0 -92 -44.5 -179t-125 -143.5t-174.5 -56.5q-118 0 -181 79t-63 200zM1540 162q0 -62 27 -100.5t86 -38.5q51 0 92.5 43t65 105.5t35.5 123.5t12 108
q0 77 -31 114.5t-84 37.5q-47 0 -84 -31t-58.5 -76t-36 -101t-19.5 -102t-5 -83zM221 -47l918 1507h96l-916 -1507h-98z" />
    <glyph glyph-name="guilsinglleft" unicode="&#x2039;" horiz-adv-x="569" 
d="M537 862l30 -28l-288 -334l170 -342l-35 -21l-312 363z" />
    <glyph glyph-name="guilsinglright" unicode="&#x203a;" horiz-adv-x="569" 
d="M59 137l-30 29l288 334l-170 342l35 20l312 -362z" />
    <glyph glyph-name="fraction" unicode="&#x2044;" horiz-adv-x="342" 
d="M-299 -47l917 1507h97l-916 -1507h-98z" />
    <glyph glyph-name="Euro" unicode="&#x20ac;" 
d="M1180 1057h-43q6 27 6 53q0 130 -85.5 205.5t-207.5 75.5q-81 0 -151.5 -31.5t-122.5 -83.5t-93.5 -123.5t-67.5 -148.5t-42 -162h643l-29 -84h-629q-8 -65 -8 -144v-14h584l-27 -84h-553q11 -91 39.5 -171.5t76.5 -149.5t125 -109.5t173 -40.5q71 0 143 29.5t127 79.5
l31 -37q-63 -66 -156.5 -107t-189.5 -41q-120 0 -219 44.5t-165 121t-106 173.5t-53 208h-147l28 84h113v18q0 62 10 140h-125l27 84h115q29 123 86.5 233t137.5 196.5t188 137.5t227 51q80 0 148 -20.5t109.5 -41t59.5 -20.5q29 0 66 33h22z" />
    <glyph glyph-name="afii61289" unicode="&#x2113;" horiz-adv-x="817" 
d="M674 221l31 -31q-163 -217 -371 -217q-131 0 -180 80q-27 45 -29.5 108t22.5 189l39 180l-145 -96l-14 43l174 123l55 258q57 268 100 378t125 185q91 88 181 88q56 0 89 -37.5t37 -97.5t-10 -133q-37 -172 -148.5 -321t-283.5 -295l-41 -201q-22 -101 -24 -170.5
t15.5 -108t47 -55t74.5 -16.5q126 0 256 147zM424 985l-59 -274q117 111 203.5 252.5t115.5 275.5q22 91 8.5 151t-61.5 60q-59 0 -105.5 -106t-101.5 -359z" />
    <glyph glyph-name="trademark" unicode="&#x2122;" horiz-adv-x="2027" 
d="M555 1389v-666q0 -48 15 -59.5t85 -20.5v-41h-352v41q70 9 85 20.5t15 59.5v666h-98q-108 0 -137 -140h-41v181h704v-181h-40q-29 140 -136 140h-100zM1425 602l-305 623h-4v-449q0 -70 21 -98t88 -35v-41h-269v41q65 7 86 35t21 98v510q-19 44 -58 72t-83 28v44h247
l316 -633l327 633h211v-44q-61 -3 -84.5 -29t-23.5 -81v-553q0 -48 15 -59.5t85 -20.5v-41h-352v41q70 9 85 20.5t15 59.5v506h-4l-311 -627h-23z" />
    <glyph glyph-name="Omega" unicode="&#x2126;" horiz-adv-x="1488" 
d="M1362 276l-109 -276h-471l-4 37q19 25 70 89t85.5 108.5t84.5 117.5t84 134.5t65.5 140.5t46.5 153q29 133 25 233.5t-28 171t-69.5 115t-100 64.5t-119.5 20q-70 0 -135.5 -20.5t-129 -67.5t-116 -117t-97 -175t-71.5 -236q-9 -44 -13.5 -89t-5.5 -83t4 -83.5t8.5 -76
t15.5 -76.5t18.5 -70t22.5 -70t22.5 -62.5t24.5 -63t22 -57.5l-23 -37h-467l12 276l45 3q10 -99 35 -129.5t86 -30.5h223q-27 31 -46.5 55.5t-49 67t-48.5 81t-38.5 93t-27.5 108.5t-6.5 121t16.5 137q42 197 154 348.5t263.5 231.5t317.5 80q260 0 387 -173t64 -468
q-18 -86 -59 -172t-88 -152.5t-113 -138.5t-115.5 -118t-114.5 -101h227q67 0 100 27t89 133z" />
    <glyph glyph-name="estimated" unicode="&#x212e;" horiz-adv-x="1964" 
d="M1894 684h-1323q-12 0 -12 -8v-402q0 -18 19 -45q99 -102 228 -159.5t273 -57.5q154 0 290.5 65t236.5 179h116q-111 -131 -281.5 -208t-363.5 -77q-167 0 -318.5 58t-260.5 156.5t-173.5 234t-64.5 285.5t64.5 286.5t173.5 234.5t260.5 156t318.5 58t318.5 -58
t260.5 -156t173.5 -234.5t64.5 -286.5v-21zM1595 737v404q0 27 -20 47q-100 98 -227.5 153.5t-268.5 55.5q-143 0 -271 -57t-228 -158q-21 -24 -21 -52v-393q0 -3 4 -7.5t8 -4.5h1014q10 0 10 12z" />
    <glyph glyph-name="partialdiff" unicode="&#x2202;" horiz-adv-x="1069" 
d="M604 883h2q78 0 149.5 -39t104.5 -113q52 171 62 215q40 172 14 332q-15 84 -79.5 150.5t-156.5 66.5q-141 0 -299 -111q-16 -3 -29 16t-14 45t11 50q153 86 303 86q138 0 222.5 -74.5t127.5 -216.5q22 -73 25.5 -166t-5 -166.5t-24.5 -142.5q-29 -133 -81.5 -274
t-125.5 -250q-211 -318 -473 -318q-167 0 -244.5 112t-36.5 304q22 100 74 188t117 152q72 68 168 111t188 43zM627 807h-2q-145 0 -260 -121q-119 -136 -172 -369q-26 -119 15.5 -201.5t139.5 -82.5q152 0 295 217q60 89 100 176.5t86 220.5q-13 55 -68 107.5t-134 52.5z
" />
    <glyph glyph-name="Delta" unicode="&#x2206;" horiz-adv-x="1282" 
d="M1094 0h-1135l8 43l819 1378l72 21l246 -1399zM926 86l-191 1126l-659 -1126h850z" />
    <glyph glyph-name="product" unicode="&#x220f;" horiz-adv-x="1562" 
d="M1505 1423v-49q-47 -3 -75 -6t-50.5 -10t-32.5 -13.5t-17 -22.5t-8 -31t-1 -44v-1227q0 -34 1.5 -53.5t8.5 -37.5t17.5 -26.5t32.5 -16t48.5 -11t71.5 -6.5v-47h-500v47q47 3 70 5.5t46.5 9.5t32 14.5t16.5 25.5t9 38t1 56v1278q0 42 -13.5 53t-58.5 11h-461
q-44 0 -56 -9.5t-12 -45.5v-1287v-40.5t2 -30.5t5.5 -25.5t12 -17t18.5 -14t28.5 -8.5t40 -8t53.5 -5v-47h-485v47q66 5 97 10t52 22.5t25 41.5t4 75v1229q0 43 -3.5 62.5t-24 35t-53.5 20t-103 9.5v49h1261z" />
    <glyph glyph-name="summation" unicode="&#x2211;" horiz-adv-x="1304" 
d="M1257 182l-83 -364h-928v43l465 731l-453 786v45h916q2 -34 24 -321l-49 -10q-25 142 -66 208q-22 36 -61.5 49t-149.5 13h-426l396 -676l-459 -737h543q51 0 77 1.5t55.5 10.5t43.5 22t34 44t34.5 68.5t37.5 101.5z" />
    <glyph glyph-name="minus" unicode="&#x2212;" 
d="M1022 385h-905v135h905v-135z" />
    <glyph glyph-name="uni2215" unicode="&#x2215;" horiz-adv-x="342" 
d="M-299 -47l917 1507h97l-916 -1507h-98z" />
    <glyph glyph-name="uni2219" unicode="&#x2219;" horiz-adv-x="569" 
d="M420 604q0 -53 -40 -94t-93 -41q-57 0 -97 39.5t-40 95.5q0 57 39.5 96t95.5 39q55 0 95 -39.5t40 -95.5z" />
    <glyph glyph-name="radical" unicode="&#x221a;" horiz-adv-x="1304" 
d="M1268 1833l-334 -2126l-35 -20l-448 1136l-177 -88l-22 62l299 143l358 -938h4l281 1851z" />
    <glyph glyph-name="infinity" unicode="&#x221e;" horiz-adv-x="1611" 
d="M1513 592v-2q0 -142 -90 -230t-213 -88q-90 0 -172.5 55.5t-191.5 180.5q-47 -55 -81.5 -89.5t-82.5 -72t-100 -56t-109 -18.5q-123 0 -211 89.5t-88 220.5q0 136 88.5 225.5t222.5 89.5q103 0 190 -62t179 -173q93 105 138 143q109 92 231 92q129 0 209.5 -85t80.5 -220
zM485 367h2q30 0 62 11.5t53.5 22.5t55 41t46 41.5t48.5 50.5t41 44q-33 41 -45.5 56t-44 50t-52 50t-51.5 35t-62 28t-65 8q-90 0 -143.5 -65t-53.5 -160q0 -90 58.5 -151.5t150.5 -61.5zM1212 805h-2q-37 0 -74 -14.5t-72 -43.5t-58.5 -51t-57 -60t-43.5 -48
q107 -122 172.5 -171.5t139.5 -49.5q88 0 141 66t53 149q0 102 -55.5 162.5t-143.5 60.5z" />
    <glyph glyph-name="integral" unicode="&#x222b;" horiz-adv-x="931" 
d="M520 45l-39 854q-9 201 2.5 352t37.5 243t67.5 149t86.5 77.5t101 20.5q41 0 76.5 -22.5t36.5 -63.5q0 -36 -23.5 -57t-56.5 -21q-20 0 -35 13t-21.5 29t-18 29t-27.5 13q-15 0 -29 -9t-28.5 -33.5t-24 -63t-14 -103t-1.5 -147.5l37 -801q10 -219 -1.5 -382.5t-37.5 -261
t-68.5 -157t-86.5 -80t-99 -20.5q-51 0 -82.5 26.5t-31.5 63.5q-1 35 25.5 59.5t64.5 24.5q18 0 31.5 -13.5t21 -30.5t19.5 -30.5t26 -13.5q49 0 74.5 97t17.5 259z" />
    <glyph glyph-name="approxequal" unicode="&#x2248;" horiz-adv-x="1177" 
d="M1024 870l63 -55q-97 -190 -256 -190q-55 0 -101.5 19t-127.5 65q-110 65 -182 65q-63 0 -108.5 -38.5t-88.5 -108.5l-67 55q45 89 117 139.5t159 50.5q27 0 53 -4.5t52 -15.5t40 -17.5t41.5 -22.5t32.5 -19q8 -4 28 -15.5t27.5 -15.5t24 -12.5t26 -11.5t24 -7.5t27.5 -6
t28 -1.5q57 0 99.5 35.5t88.5 111.5zM1024 532l63 -55q-97 -190 -256 -190q-56 0 -101.5 18.5t-127.5 65.5q-38 22 -61.5 34t-57 22.5t-63.5 10.5q-64 0 -108 -38.5t-89 -110.5l-67 55q45 89 117.5 140t156.5 51q28 0 54 -5t52 -15.5t41 -18t41.5 -23t32.5 -18.5
q7 -4 29.5 -17t31 -17.5t27.5 -13.5t31.5 -12.5t30.5 -6.5t35 -3q57 0 100 35.5t88 111.5z" />
    <glyph glyph-name="notequal" unicode="&#x2260;" horiz-adv-x="1214" 
d="M895 1012l-86 -191h305v-100h-346l-131 -289h477v-98h-518l-104 -232l-80 35l88 197h-293v98h336l129 289h-465v100h506l104 228z" />
    <glyph glyph-name="lessequal" unicode="&#x2264;" horiz-adv-x="1249" 
d="M1143 205l-891 448v105l891 448v-121l-783 -376v-4l783 -381v-119zM1149 20h-907v103h907v-103z" />
    <glyph glyph-name="greaterequal" unicode="&#x2265;" horiz-adv-x="1247" 
d="M254 1206l891 -448v-105l-891 -448v119l782 378v5l-782 378v121zM1147 20h-903v103h903v-103z" />
    <glyph glyph-name="lozenge" unicode="&#x25ca;" horiz-adv-x="1320" 
d="M1221 686l-408 -827h-115l-405 827l407 836h115zM1106 686l-344 721h-6l-348 -717l348 -723h6z" />
    <glyph glyph-name="zero.taboldstyle" unicode="&#xf643;" 
d="M154 328q0 85 17.5 168.5t57.5 163.5t97 141t143.5 98t189.5 37q66 0 123 -21.5t103.5 -64t73 -113.5t26.5 -162q0 -85 -18 -168.5t-57.5 -163t-97 -140t-144 -97.5t-189.5 -37q-66 0 -123 21t-103 63.5t-72.5 113t-26.5 161.5zM274 330q0 -145 61 -211t161 -66
q102 0 187 71t133 190.5t48 260.5q0 144 -60.5 210.5t-160.5 66.5q-102 0 -187.5 -71t-133.5 -191t-48 -260z" />
    <glyph glyph-name="one.taboldstyle" unicode="&#xf644;" 
d="M164 0l6 53h82q100 0 134 20t46 83l111 567q10 55 10 80q0 29 -32.5 39t-112.5 10h-99l6 53q230 -4 347 -4q52 0 156.5 2t156.5 2l-6 -53h-88q-96 0 -125.5 -16t-38.5 -64l-119 -620q-4 -14 -4 -39q0 -60 154 -60h98l-6 -53q-56 0 -171 2t-173 2q-110 0 -332 -4z" />
    <glyph glyph-name="two.taboldstyle" unicode="&#xf645;" 
d="M92 0v33q97 65 170 118.5t154.5 122t134 127t87 124t34.5 122.5q0 73 -44.5 119.5t-115.5 46.5q-93 0 -174 -59l-80 -54l-29 37l62 58q67 58 148.5 99.5t156.5 41.5q117 0 184.5 -59.5t67.5 -161.5q0 -58 -22.5 -112t-70 -109.5t-104 -105t-141.5 -114.5l-158 -116l4 -6
h533l45 81l47 -14l-51 -219q-66 0 -208 2t-212 2t-212 -2t-206 -2z" />
    <glyph glyph-name="three.taboldstyle" unicode="&#xf646;" 
d="M276 240l-10 55q54 14 111.5 40t114 63t101 79.5t72 94t27.5 102.5q0 70 -46 110.5t-118 40.5q-103 0 -184 -69l-53 -45l-29 43l80 65q141 117 285 117q110 0 169.5 -54.5t59.5 -146.5q0 -101 -77.5 -189.5t-180.5 -142.5l-90 -45l4 -4q92 8 98 8q101 0 167.5 -69.5
t66.5 -171.5q0 -95 -61.5 -201t-156 -191t-217.5 -140.5t-237 -55.5q-55 0 -88 23.5t-33 60.5q0 22 15 35.5t36 13.5q34 0 76.5 -24.5t87.5 -24.5q57 0 126 33.5t131 89.5t103.5 141t41.5 176q0 107 -59.5 164.5t-153.5 57.5q-86 0 -179 -39z" />
    <glyph glyph-name="four.taboldstyle" unicode="&#xf647;" 
d="M35 0v55l774 881h65l-98 -801h209l-16 -135h-209l-55 -446q-3 0 -33 3t-45 3q-5 0 -74 -6l55 446h-573zM625 135l71 578l-4 4l-499 -582h432z" />
    <glyph glyph-name="five.taboldstyle" unicode="&#xf648;" 
d="M936 754h-455l-53 -119q50 -34 88.5 -65t81.5 -78t71.5 -96.5t47 -116t18.5 -140.5q0 -120 -52.5 -233.5t-135 -194t-187 -129.5t-206.5 -49q-109 0 -109 68q0 57 57 57q16 0 34 -10t47.5 -20.5t72.5 -10.5q54 0 111.5 31t106 84.5t79.5 137.5t31 179q0 136 -70.5 255
t-210.5 200l178 401h500z" />
    <glyph glyph-name="six.taboldstyle" unicode="&#xf649;" 
d="M1079 1358l6 -45l-63 -23q-132 -51 -246 -141t-192.5 -195t-134.5 -222t-82.5 -224.5t-26.5 -198.5q0 -53 8 -98.5t27.5 -90.5t59 -71t95.5 -26q102 0 180 104.5t78 275.5q0 234 -186 234q-68 0 -147 -49l10 55q113 78 199 78q131 0 216 -80.5t85 -230.5
q0 -183 -132 -312t-309 -129q-160 0 -260 116.5t-100 285.5q0 139 53.5 276.5t144.5 250.5t208 207.5t248 159t261 93.5z" />
    <glyph glyph-name="seven.taboldstyle" unicode="&#xf64a;" 
d="M145 649l64 256h856l-12 -39l-863 -1333l-71 27l768 1181h-641l-51 -104z" />
    <glyph glyph-name="eight.taboldstyle" unicode="&#xf64b;" 
d="M414 618l84 46l-78 96q-103 128 -103 246q0 63 23.5 123t69 111.5t122.5 82.5t175 31q147 0 237 -69t90 -206q0 -57 -15.5 -107t-39 -85t-59.5 -67t-68 -52t-74 -41l-67 -35l75 -86q64 -77 96.5 -143.5t32.5 -138.5q0 -86 -35.5 -156t-93.5 -112t-127.5 -64.5
t-142.5 -22.5q-166 0 -258 89t-92 225q0 118 65.5 196.5t182.5 138.5zM541 621l-66 -35q-77 -40 -125.5 -120.5t-48.5 -195.5q0 -113 56.5 -180t160.5 -67q92 0 163 61t71 162q0 77 -30.5 138.5t-94.5 135.5zM670 735l63 35q76 42 121 120t45 173q0 107 -52 172t-153 65
q-99 0 -162 -62t-63 -169q0 -110 109 -231z" />
    <glyph glyph-name="nine.taboldstyle" unicode="&#xf64c;" 
d="M61 -453l-6 45l64 23q132 51 246 141t192.5 195t134.5 222t82.5 224.5t26.5 198.5q0 53 -8 98.5t-27.5 90.5t-59.5 71.5t-96 26.5q-102 0 -180 -105t-78 -276q0 -234 187 -234q68 0 147 49l-10 -55q-113 -78 -199 -78q-131 0 -216 81t-85 231q0 183 131.5 311.5
t308.5 128.5q160 0 260.5 -116t100.5 -285q0 -139 -53.5 -276.5t-144.5 -250.5t-208.5 -208t-248.5 -159.5t-261 -93.5z" />
    <glyph glyph-name="dollar.taboldstyle" unicode="&#xf653;" 
d="M602 586l-98 -563q109 9 184.5 81t75.5 181q0 76 -42 147t-120 154zM596 903l88 492q-105 0 -169 -56t-64 -159q0 -118 145 -277zM92 -14l53 430h41q3 -54 7.5 -91.5t14 -84t27.5 -79t44.5 -63t67.5 -49t95 -26.5l109 620q-49 50 -75.5 78.5t-65.5 77.5t-59.5 87t-36 89
t-15.5 102q0 178 111 283q36 34 74.5 56t73.5 30.5t58 11.5t50 2.5t28 -0.5l27 154h61l-26 -154q66 -7 123 -26q74 -23 84 -23q13 0 32.5 10t22.5 11h20l-67 -363h-41q0 9 0.5 33t0.5 37.5t-1.5 38.5t-4.5 40.5t-9.5 38t-15.5 37.5t-23.5 32.5t-33 29t-44 21t-56.5 14.5
l-96 -543q14 -15 65 -69.5t71.5 -78.5t55.5 -67t54.5 -79.5t30.5 -72.5q16 -49 16 -112q0 -90 -37 -166t-99 -126.5t-142.5 -79t-167.5 -28.5l-27 -151h-64l29 157q-79 10 -225 68l-90 -57h-25z" />
    <glyph glyph-name="cent.taboldstyle" unicode="&#xf654;" 
d="M440 88l197 721q-69 -5 -134 -65.5t-107.5 -144t-68.5 -169.5t-26 -147q0 -169 139 -195zM864 299l29 -39q-99 -112 -199 -184.5t-215 -95.5l-73 -271h-70l72 262q-8 -2 -19 -2q-119 0 -185.5 78t-66.5 201q0 112 43 217.5t116 188t166.5 144.5t196.5 97l70 256h72
l-64 -231q22 8 45 12q28 4 39 4q101 0 101 -84q0 -39 -28.5 -71.5t-66.5 -32.5q-28 0 -65.5 25t-56.5 28l-197 -721q151 4 356 219z" />
    <glyph glyph-name="fi" unicode="&#xfb01;" 
d="M61 821l25 84h199q39 195 112 328t213 235q137 97 285 97q52 0 99 -13t83.5 -49t36.5 -90q0 -41 -26.5 -70.5t-65.5 -29.5q-32 0 -45.5 7t-13.5 34q1 65 -42.5 96t-105.5 31q-126 0 -219 -133q-72 -106 -102 -252l-39 -191h569l18 -18l-190 -633q-21 -72 -21 -90
q0 -31 27 -31q19 0 72.5 51t83.5 86l33 -26q-201 -275 -326 -275q-78 0 -78 86q0 33 21 101l188 665h-416l-289 -1220l-127 -68l-16 10l266 1278h-209z" />
    <glyph glyph-name="fl" unicode="&#xfb02;" 
d="M61 821l25 84h199l20 92q28 131 118.5 262t216 218.5t241.5 87.5q45 0 118 -27l19 -6l92 29l25 -19l-318 -1327q-8 -28 -8 -47q0 -35 35 -35q40 0 192 143l29 -28q-37 -44 -54.5 -63.5t-65.5 -68.5t-81 -75t-77 -49t-78 -23q-39 0 -63.5 25.5t-24.5 64.5q0 30 34 183
l279 1153q-69 59 -164 59q-49 0 -89.5 -19t-70.5 -56t-52 -78t-39 -100.5t-27.5 -106t-22.5 -111.5l-14 -78h225l-25 -84h-219l-289 -1220l-127 -68l-16 10l266 1278h-209z" />
    <glyph glyph-name="one.superior" horiz-adv-x="739" 
d="M449 1333l-218 -100l-20 31l360 180l25 -6l-141 -729q-11 -43 -11 -64q0 -27 56 -27q18 0 53 -1t53 -1l-8 -38q-43 0 -118 1t-111 1q-148 0 -224 -2l9 38q33 2 94 2q32 0 46 11.5t17 36.5z" />
    <glyph glyph-name="two.superior" horiz-adv-x="739" 
d="M199 688h413l43 72l29 -8l-51 -174q-88 2 -266 2q-189 0 -283 -2q-14 0 -14 12q0 4 1 16t1 21q2 8 12 18l176 152q277 244 277 407q0 67 -37.5 111.5t-104.5 44.5q-26 0 -48 -4t-44.5 -16t-33.5 -18.5t-38 -26.5t-34 -25l-21 28q48 46 80.5 72.5t85.5 50t109 23.5
q101 0 161 -51.5t60 -141.5q0 -54 -25 -111.5t-61.5 -104t-92 -100.5t-100.5 -90l-105 -84t-89 -73z" />
    <glyph glyph-name="three.superior" horiz-adv-x="739" 
d="M287 1008l6 41q50 2 105 24t97.5 65.5t41.5 96.5q2 62 -32 102.5t-99 40.5q-15 0 -28 -2t-26.5 -6.5t-22.5 -8t-23 -12.5t-20 -13t-22 -15.5t-22 -15.5l-23 22q70 61 123.5 89t126.5 28q87 0 145 -44t58 -118q0 -40 -15 -74.5t-37.5 -58.5t-56.5 -45.5t-64 -35t-69 -26.5
v-4q100 -11 157.5 -59.5t57.5 -134.5q0 -79 -54 -145.5t-136.5 -103t-169.5 -36.5q-68 0 -112 9.5t-95 41.5l-15 70l56 16q44 -96 151 -96q91 0 157.5 71.5t66.5 159.5q0 94 -58 141t-149 36z" />
    <glyph glyph-name="a.superior" horiz-adv-x="665" 
d="M223 1040q0 -23 16.5 -43t51.5 -20q61 -1 131.5 63t116 146t45.5 137q0 23 -19.5 39t-46.5 16q-72 0 -142.5 -59.5t-111.5 -138t-41 -140.5zM702 1040l21 -16q-7 -7 -41.5 -44t-54.5 -56t-54 -38.5t-63 -19.5q-16 0 -30.5 10.5t-14.5 24.5q0 22 10.5 56t29 82t23.5 63
l-6 4q-10 -12 -40 -51t-54 -65.5t-59.5 -58t-77 -48.5t-86.5 -17q-44 0 -67 31t-23 88q0 65 44 147t108.5 150t144 115t143.5 47q51 0 84 -41q2 4 11 23t17 26.5t21 7.5h17.5t12 -1t8.5 -3t1 -6l-135 -436q-6 -18 -6 -25q0 -12 16 -12q18 0 35 10t38 29.5t27 23.5z" />
    <glyph glyph-name="o.superior" horiz-adv-x="739" 
d="M264 1069q0 -69 35.5 -115.5t112.5 -46.5q58 0 105.5 34.5t75 87t42 107.5t14.5 103q0 67 -35 115.5t-108 48.5q-49 0 -91 -23t-69 -58.5t-46 -81t-27.5 -89t-8.5 -82.5zM143 1112q0 133 108 232.5t257 99.5q119 0 190.5 -71t71.5 -179q0 -129 -105 -228.5t-251 -99.5
q-125 0 -198 67.5t-73 178.5z" />
    </font>
</defs>
</svg>
