<?xml version="1.0" standalone="no"?>
<!DOCTYPE svg PUBLIC "-//W3C//DTD SVG 1.1//EN" "http://www.w3.org/Graphics/SVG/1.1/DTD/svg11.dtd" >
<svg xmlns="http://www.w3.org/2000/svg" xmlns:xlink="http://www.w3.org/1999/xlink" version="1.1">
<metadata>
Created by FontForge 20170731 at Fri Feb 11 20:33:22 2022
 By Aleksey,,,
(c) 1989, 2002 Adobe Systems Incorporated. All rights reserved.
</metadata>
<defs>
<font id="SabonLTStd-Roman" horiz-adv-x="1138" >
  <font-face 
    font-family="Sabon LT Std"
    font-weight="400"
    font-stretch="normal"
    units-per-em="2048"
    panose-1="2 2 6 2 6 5 6 2 4 3"
    ascent="1565"
    descent="-483"
    x-height="905"
    cap-height="1430"
    bbox="-338 -467 2048 1933"
    underline-thickness="102"
    underline-position="-307"
    unicode-range="U+0020-FB02"
  />
<missing-glyph horiz-adv-x="1024" 
d="M0 0v1434h1024v-1434h-1024zM512 809l348 522h-696zM573 717l349 -522v1044zM164 102h696l-348 523zM102 1239v-1044l349 522z" />
    <glyph glyph-name="f_i" unicode="fi" 
d="M367 795v-693q0 -17 7.5 -28t24.5 -15t29 -5t35 -1h53v-53q-98 4 -223 4q-96 0 -244 -4v53h68q51 0 68.5 18.5t17.5 47.5v676h-144v34q1 0 26.5 13t39.5 22t35.5 25t32 35t10.5 39q0 270 153.5 436t388.5 166q99 0 161.5 -41.5t62.5 -118.5q0 -96 -88 -96
q-39 0 -58.5 17.5t-26 43t-15.5 51t-38.5 43t-83.5 17.5q-62 0 -108.5 -17t-78 -54t-51.5 -82.5t-31.5 -116t-16 -139.5t-6.5 -167h407q41 0 71 6.5t43 15t22.5 15t13.5 6.5q17 0 22.5 -10.5t5.5 -30.5v-786q0 -20 6 -33.5t13.5 -20t23.5 -10t27 -4t33 -0.5h35v-53
q-34 0 -106 2t-110 2q-71 0 -223 -4v53h39q22 0 32.5 0.5t26 4t22 10.5t12 20t5.5 33v633q0 28 -13 34.5t-56 6.5h-352z" />
    <glyph glyph-name="f_l" unicode="fl" 
d="M852 1532l78 33h22v-1444q0 -20 6 -33.5t13.5 -20t23.5 -10t27 -4t33 -0.5h35v-53q-34 0 -106 2t-110 2q-71 0 -223 -4v53h39q22 0 32.5 0.5t26 4t22 10.5t12 20t5.5 33v1136q0 224 -161 224q-48 0 -85.5 -14t-64.5 -37.5t-46 -64t-30.5 -83.5t-19 -107.5t-10.5 -125
t-4 -144.5h235v-110h-235v-693q0 -17 7.5 -28t24.5 -15t29 -5t35 -1h53v-53q-98 4 -223 4q-96 0 -244 -4v53h68q51 0 68.5 18.5t17.5 47.5v676h-144v34q1 0 26.5 13t39.5 22t35.5 25t32 35t10.5 39q0 272 143.5 437t376.5 165q76 0 129 -33z" />
    <glyph glyph-name=".notdef" horiz-adv-x="1024" 
d="M0 0v1434h1024v-1434h-1024zM512 809l348 522h-696zM573 717l349 -522v1044zM164 102h696l-348 523zM102 1239v-1044l349 522z" />
    <glyph glyph-name=".null" horiz-adv-x="0" 
 />
    <glyph glyph-name="nonmarkingreturn" horiz-adv-x="682" 
 />
    <glyph glyph-name="space" unicode=" " horiz-adv-x="569" 
 />
    <glyph glyph-name="exclam" unicode="!" horiz-adv-x="681" 
d="M365 385h-48l-73 500q-31 208 -31 284q0 41 4 72t16 64t39 51t68 18q34 0 58.5 -13t37.5 -32t21 -48.5t10 -54.5t2 -57q0 -76 -31 -284zM342 -31q-55 0 -95 39t-40 94q0 54 40.5 96t94.5 42t94.5 -41.5t40.5 -96.5t-39.5 -94t-95.5 -39z" />
    <glyph glyph-name="quotedbl" unicode="&#x22;" 
d="M688 934l-31 303q-8 70 -8 90q0 103 88 103t88 -103q0 -20 -8 -90l-31 -303q-3 -28 -14 -40.5t-35 -12.5t-35 12.5t-14 40.5zM352 934l-30 303q-9 79 -9 90q0 103 88 103t88 -103q0 -20 -8 -90l-30 -303q-3 -28 -14.5 -40.5t-35.5 -12.5t-35 12.5t-14 40.5z" />
    <glyph glyph-name="numbersign" unicode="#" 
d="M1018 557v-111h-227l-64 -446h-127l64 446h-265l-63 -446h-127l63 446h-213v111h230l43 299h-219v111h233l64 446h125l-64 -446h266l64 446h125l-64 -446h217v-111h-231l-43 -299h213zM723 856h-266l-43 -299h266z" />
    <glyph glyph-name="dollar" unicode="$" 
d="M915 1423l17 -272h-49q-22 122 -87 182.5t-182 61.5v-578q67 -25 117.5 -49t105.5 -62t90 -81t58 -104.5t23 -133.5q0 -179 -110 -294.5t-284 -123.5v-151h-82v151q-100 0 -169.5 17t-188.5 61q-7 112 -43 301l41 8q42 -150 131.5 -239.5t228.5 -81.5v604
q-61 25 -109.5 51.5t-96.5 64.5t-79.5 81t-51 101t-19.5 126q0 162 100 273.5t256 123.5v152h82v-152q157 -8 301 -37zM532 846v549q-90 -17 -141 -88t-51 -172q0 -102 48 -167t144 -122zM614 608v-573q94 12 149.5 88.5t55.5 179.5q0 117 -49 184.5t-156 120.5z" />
    <glyph glyph-name="percent" unicode="%" horiz-adv-x="2048" 
d="M721 1122q0 269 -176 269q-53 0 -90 -30t-54.5 -80.5t-24.5 -98t-7 -99.5q0 -268 176 -268q53 0 90 30t54.5 80t24.5 97.5t7 99.5zM885 1116q0 -151 -102 -252.5t-251 -101.5q-143 0 -235 94.5t-92 233.5q0 151 101.5 252.5t250.5 101.5q143 0 235.5 -95t92.5 -233z
M1843 324q0 -152 -101.5 -253.5t-250.5 -101.5q-143 0 -235.5 95t-92.5 233q0 151 102 252.5t251 101.5q143 0 235 -94.5t92 -232.5zM1679 330q0 268 -176 268q-53 0 -90 -30t-54.5 -80t-24.5 -97.5t-7 -99.5q0 -268 176 -268q53 0 90 30t54.5 80t24.5 97.5t7 99.5zM594 -49
h-94l927 1511h95z" />
    <glyph glyph-name="ampersand" unicode="&#x26;" horiz-adv-x="1933" 
d="M1825 190l33 -30q-77 -107 -163 -169.5t-198 -62.5q-40 0 -78 10t-67.5 23t-63 40t-54.5 46t-52 57t-46 58t-46 63.5t-43 59.5q-15 -16 -52.5 -58t-53.5 -59t-51 -51.5t-56.5 -50t-57.5 -38.5t-67.5 -33t-72 -18t-83.5 -8q-171 0 -293.5 120.5t-122.5 291.5q0 73 17 135
t45.5 109t74.5 90.5t93.5 76.5t113.5 70q-166 109 -166 271q0 142 89 226.5t229 84.5q119 0 205 -64.5t86 -179.5q0 -49 -19 -92.5t-54 -78t-70.5 -59.5t-82.5 -50q235 -177 432 -443q85 99 187 250.5t102 216.5q0 19 -9.5 32t-21.5 19.5t-32.5 10t-32.5 4t-31 0.5v53
q129 -6 260 -6q144 0 285 6v-53q-81 0 -138 -14.5t-96 -38.5t-84.5 -77t-84 -107t-114 -153t-155.5 -192q27 -31 70.5 -89.5t77 -100t79 -85t99 -67t113.5 -23.5q118 0 221 127zM289 494q0 -149 109 -261t257 -112q50 0 94.5 12t75.5 27.5t68.5 48.5t59 56t61.5 69
q-95 129 -213.5 247.5t-274.5 252.5q-53 -33 -91.5 -65t-73.5 -73.5t-53.5 -92.5t-18.5 -109zM788 1188q0 92 -45 147.5t-129 55.5q-71 0 -117 -52.5t-46 -130.5q0 -57 32.5 -108t60.5 -74.5t93 -68.5l12 -9q139 89 139 240z" />
    <glyph glyph-name="quotesingle" unicode="'" horiz-adv-x="569" 
d="M236 934l-31 303q-8 70 -8 90q0 103 88 103t88 -103q0 -20 -8 -90l-31 -303q-3 -28 -14 -40.5t-35 -12.5t-35 12.5t-14 40.5z" />
    <glyph glyph-name="parenleft" unicode="(" horiz-adv-x="681" 
d="M469 1460l47 -22q-122 -299 -169.5 -502.5t-47.5 -403.5q0 -214 54 -449.5t157 -453.5l-47 -24q-139 197 -219 434t-80 493q0 225 75.5 441.5t229.5 486.5z" />
    <glyph glyph-name="parenright" unicode=")" horiz-adv-x="681" 
d="M172 1436l47 24q139 -197 219 -434.5t80 -493.5q0 -225 -75.5 -441t-229.5 -486l-47 22q122 299 169.5 502t47.5 403q0 215 -54 450.5t-157 453.5z" />
    <glyph glyph-name="asterisk" unicode="*" 
d="M553 1018l41 14q10 -18 41.5 -63.5t48 -82t16.5 -73.5q0 -36 -25.5 -54t-62.5 -18t-56 24.5t-19 61.5q0 65 16 191zM584 1147l-37 12v152q0 56 17.5 87.5t68.5 31.5q34 0 56 -20.5t22 -53.5q0 -19 -16.5 -51t-34 -56.5t-45 -60t-31.5 -41.5zM616 1071v39q11 3 58.5 18
t83.5 24t59 9q92 0 92 -82q0 -39 -21.5 -60.5t-60.5 -21.5q-29 0 -114.5 35.5t-96.5 38.5zM479 1067l33 -33q-11 -13 -48 -72t-70.5 -92.5t-69.5 -33.5q-31 0 -56.5 25.5t-25.5 56.5q0 37 28.5 63t63 37t80.5 25t65 24zM500 1143l-23 -29q-13 5 -47.5 13.5t-66 17.5
t-63.5 22.5t-51.5 34t-19.5 45.5q0 32 25 56t59 24q23 0 53 -24t50.5 -50t48.5 -64t35 -46z" />
    <glyph glyph-name="plus" unicode="+" 
d="M502 520v385h135v-385h385v-135h-385v-385h-135v385h-385v135h385z" />
    <glyph glyph-name="comma" unicode="," horiz-adv-x="569" 
d="M121 -391l-15 49q93 16 164.5 82t71.5 156q0 56 -27.5 78t-87.5 22q-51 0 -86 34.5t-35 84.5q0 61 44 93t108 32q62 0 110.5 -39t71.5 -93t23 -108q0 -84 -27 -153t-75.5 -115.5t-108 -76.5t-131.5 -46z" />
    <glyph glyph-name="hyphen" unicode="-" horiz-adv-x="681" 
d="M598 567l-18 -135q-123 6 -246 6q-166 0 -248 -6l18 135q123 -6 248 -6q123 0 246 6z" />
    <glyph glyph-name="period" unicode="." horiz-adv-x="569" 
d="M285 -31q-55 0 -95 39t-40 94q0 54 40.5 96t94.5 42t94.5 -41.5t40.5 -96.5t-39.5 -94t-95.5 -39z" />
    <glyph glyph-name="slash" unicode="/" horiz-adv-x="569" 
d="M113 -31h-136l480 1491h135z" />
    <glyph glyph-name="zero" unicode="0" 
d="M1032 748q0 -167 -31.5 -303t-81.5 -222.5t-114.5 -145.5t-127.5 -83.5t-124 -24.5q-87 0 -161 41t-126 110t-88.5 159.5t-54 188.5t-17.5 198q0 167 31.5 303t81.5 222.5t115 145t128 83t124 24.5q87 0 161 -41t125.5 -110t88 -159t54 -188t17.5 -198zM844 758
q0 78 -7 156.5t-26 164t-48.5 150.5t-78.5 107t-111 42q-291 0 -290 -713v-10q0 -78 7 -156.5t26 -164t48 -150.5t78 -107t111 -42q291 0 291 714v9z" />
    <glyph glyph-name="one" unicode="1" 
d="M694 1436v-1295q0 -49 29.5 -68.5t103.5 -19.5h93v-53q-53 0 -161 2t-161 2q-116 0 -338 -4v53h113q74 0 103.5 19.5t29.5 68.5v1116q-138 -80 -293 -157l-27 49q211 107 488 295z" />
    <glyph glyph-name="two" unicode="2" 
d="M47 0v41q655 571 655 950q0 86 -25.5 155.5t-85.5 116t-147 46.5q-62 0 -117 -29t-88 -62.5t-80 -88.5q-2 -4 -3.5 -5.5t-4 -4.5t-4.5 -5l-38 41q41 61 77.5 104t90.5 89.5t120.5 71t143.5 24.5q158 0 254 -108t96 -269q0 -72 -21.5 -146.5t-63.5 -146.5t-88 -135.5
t-111 -133.5t-115 -120.5t-118.5 -117.5t-103.5 -103h666l45 106h57l-59 -270h-932z" />
    <glyph glyph-name="three" unicode="3" 
d="M371 696v54q91 7 170.5 45t133.5 110.5t54 165.5q0 110 -65 180t-172 70q-53 0 -102 -21.5t-79.5 -47t-77.5 -72.5l-30 39q48 55 85.5 90.5t86 69t104 49.5t119.5 16q126 0 210.5 -81.5t84.5 -209.5q0 -119 -85.5 -216t-211.5 -146l4 -5q31 3 67 -1t79 -15.5t82 -36
t71.5 -59.5t52 -90.5t19.5 -124.5q0 -62 -19.5 -127.5t-63 -131t-106 -116.5t-157.5 -83t-207 -32q-130 0 -221 58t-91 114q0 27 21 46.5t45 19.5q20 0 38 -17.5t36 -43t42 -51t68 -43t103 -17.5q146 0 234.5 98t88.5 244q0 344 -411 319z" />
    <glyph glyph-name="four" unicode="4" 
d="M47 449v81l701 914h90v-860h200v-135h-200v-449h-176v449h-615zM662 584v614h-5l-458 -614h463z" />
    <glyph glyph-name="five" unicode="5" 
d="M291 889l194 524h519l-43 -164h-461l-82 -213q62 -31 104 -54t97 -57.5t91.5 -66t75 -75t61.5 -88.5t37.5 -102.5t14.5 -121.5q0 -142 -69 -257.5t-186.5 -180t-258.5 -64.5q-57 0 -122.5 18.5t-117 57.5t-51.5 88q0 32 19 47t45 15q23 0 41.5 -16.5t35.5 -40t39 -47
t61 -40t91 -16.5q142 0 225.5 100t83.5 246q0 58 -14 110.5t-35 92.5t-58.5 80t-69.5 67t-85 59t-88 51t-94 48z" />
    <glyph glyph-name="six" unicode="6" 
d="M1030 1444l19 -41q-302 -76 -507 -300.5t-235 -527.5l4 -4q64 101 143 153t199 52q86 0 154 -33.5t107.5 -87.5t60 -115t20.5 -122q0 -54 -15.5 -113t-50 -119.5t-84.5 -108t-126.5 -78t-167.5 -30.5q-108 0 -193.5 46t-136 122.5t-76.5 167t-26 187.5q0 131 39.5 252.5
t104.5 214.5t148.5 173.5t171.5 136.5t174 96t156 59.5t117 19.5zM819 344q0 128 -67.5 218.5t-190.5 90.5q-102 0 -178 -61t-76 -160q0 -78 13 -145t41.5 -125.5t81 -92.5t124.5 -34q125 0 188.5 89t63.5 220z" />
    <glyph glyph-name="seven" unicode="7" 
d="M119 1139l53 274h924l16 -16l-731 -1428l-88 31l653 1249h-719l-55 -119z" />
    <glyph glyph-name="eight" unicode="8" 
d="M795 285q0 60 -25.5 116t-71 102t-90 80t-100.5 68q-110 -86 -149.5 -162t-39.5 -200q0 -106 65.5 -180t170.5 -74q110 0 175 70t65 180zM807 1114q0 123 -62.5 200t-154.5 77q-105 0 -167.5 -71.5t-62.5 -186.5q0 -47 16.5 -91.5t40 -77.5t62.5 -69t69 -58.5t75 -52.5
q88 65 136 143.5t48 186.5zM958 1122q0 -206 -288 -364q124 -68 212.5 -171.5t88.5 -224.5q0 -163 -124.5 -278t-289.5 -115q-93 0 -169.5 31.5t-123 81.5t-71.5 107t-25 112q0 68 22 124.5t67 103t92 80.5t118 75q-59 40 -98.5 72t-83 79t-66 102t-22.5 116
q0 177 110.5 284t286.5 107q100 0 181.5 -36.5t132 -111t50.5 -174.5z" />
    <glyph glyph-name="nine" unicode="9" 
d="M109 -31l-19 41q302 76 506.5 300.5t234.5 527.5l-4 4q-64 -101 -143 -153t-199 -52q-86 0 -154 33.5t-107.5 87.5t-60 115t-20.5 122q0 54 15.5 113t50.5 119.5t85 108t126.5 78t167.5 30.5q108 0 193.5 -46t136 -122t76.5 -166.5t26 -187.5q0 -131 -39.5 -252.5
t-104.5 -214.5t-148.5 -173.5t-171.5 -137t-174 -96.5t-156 -59.5t-117 -19.5zM319 1069q0 -82 27.5 -150.5t88 -113.5t143.5 -45q102 0 177.5 61t75.5 160q0 78 -13 145t-41.5 125.5t-81 92.5t-124.5 34q-125 0 -188.5 -89t-63.5 -220z" />
    <glyph glyph-name="colon" unicode=":" horiz-adv-x="569" 
d="M285 -31q-55 0 -95 39t-40 94q0 54 40.5 96t94.5 42t94.5 -41.5t40.5 -96.5t-39.5 -94t-95.5 -39zM285 578q-55 0 -95 39t-40 94q0 54 40.5 95.5t94.5 41.5t94.5 -41t40.5 -96t-39.5 -94t-95.5 -39z" />
    <glyph glyph-name="semicolon" unicode=";" horiz-adv-x="569" 
d="M121 -391l-15 49q93 16 164.5 82t71.5 156q0 56 -27.5 78t-87.5 22q-51 0 -86 34.5t-35 84.5q0 61 44 93t108 32q62 0 110.5 -39t71.5 -93t23 -108q0 -84 -27 -153t-75.5 -115.5t-108 -76.5t-131.5 -46zM285 578q-55 0 -95 39t-40 94q0 54 40.5 95.5t94.5 41.5t94.5 -41
t40.5 -96t-39.5 -94t-95.5 -39z" />
    <glyph glyph-name="less" unicode="&#x3c;" 
d="M1022 135v-145l-905 395v135l905 395v-145l-750 -317z" />
    <glyph glyph-name="equal" unicode="=" 
d="M1022 725v-135h-905v135h905zM1022 315v-135h-905v135h905z" />
    <glyph glyph-name="greater" unicode="&#x3e;" 
d="M117 135l749 318l-749 317v145l905 -395v-135l-905 -395v145z" />
    <glyph glyph-name="question" unicode="?" horiz-adv-x="909" 
d="M367 385h-54v369q63 3 119 18t106.5 44t80.5 81t30 121q0 94 -66.5 159.5t-191.5 65.5q-10 0 -30.5 -3t-30.5 -3q-48 0 -76.5 26.5t-28.5 73.5t30.5 70t78.5 23q75 0 142.5 -36t115 -93.5t83 -127t53 -138t17.5 -126.5q0 -145 -70 -224t-229 -105q-43 -6 -61 -32t-18 -97
v-66zM360 -31q-55 0 -95 39t-40 94q0 54 40.5 96t94.5 42t95 -41.5t41 -96.5t-40 -94t-96 -39z" />
    <glyph glyph-name="at" unicode="@" horiz-adv-x="1638" 
d="M666 578q0 -93 37.5 -135t99.5 -42q28 0 60.5 17.5t66 55.5t60.5 90.5t44 129.5t17 166q0 139 -88 139q-32 0 -71 -18t-78.5 -54.5t-72.5 -85t-54 -118t-21 -145.5zM1305 158l26 -66q-128 -59 -232.5 -91t-217.5 -32q-161 0 -298.5 46.5t-229 121t-156.5 169t-94 189
t-29 183.5q0 171 63 318.5t170 248.5t250 158t301 57q196 0 358 -83t255.5 -230.5t93.5 -327.5q0 -67 -16.5 -138.5t-51 -139.5t-81 -121.5t-112 -86t-139.5 -32.5q-50 0 -90 20t-61 47.5t-31.5 51t-9.5 35.5h-4q-31 -46 -99 -96.5t-149 -53.5q-22 -1 -44.5 3t-53.5 20
t-53.5 43.5t-39 79.5t-16.5 122q0 40 11.5 92.5t34 111.5t58.5 115.5t81 102t107.5 73.5t131.5 28q15 0 28 -2t23 -4t21 -8.5t17 -9.5t15 -13t12 -12.5t11 -16t9 -15t10 -17.5l8 -15l20 84h150l-134 -528q-12 -46 -12 -76q0 -96 82 -96q83 0 150.5 74.5t101 176.5t33.5 201
q0 76 -26.5 156t-80.5 155t-127 134t-175 95t-216 36q-124 0 -233.5 -48.5t-193.5 -139.5t-132.5 -233t-48.5 -317q0 -114 46.5 -223t127 -193.5t200 -136t255.5 -51.5q89 0 171 17t128.5 34.5t126.5 53.5z" />
    <glyph glyph-name="A" unicode="A" horiz-adv-x="1476" 
d="M774 1487l391 -1079q6 -17 25 -72t32.5 -92.5t31 -78t28.5 -56.5q42 -56 158 -56v-53q-39 0 -118 2t-118 2q-99 0 -299 -4v53h37q113 0 113 68q0 33 -31 119l-102 297h-482l-45 -144q-55 -175 -55 -243q0 -32 8.5 -52t31.5 -29t36 -11t50 -4q9 -1 13 -1h47v-53
q-40 0 -120.5 2t-120.5 2q-84 0 -248 -4v53q94 10 127.5 35t71.5 111q15 33 28.5 70.5t30 87t24.5 71.5l263 731q43 126 43 184q0 38 -4 54q88 41 118 90h35zM668 1223l-199 -602h422l-219 602h-4z" />
    <glyph glyph-name="B" unicode="B" horiz-adv-x="1251" 
d="M461 717v-484q0 -26 0.5 -39t4 -34t10 -32t20 -25t32.5 -20.5t48.5 -11.5t68.5 -5q70 0 127 18.5t93 47.5t60 68.5t34 78.5t10 79q0 85 -21 149.5t-55.5 103.5t-85.5 63.5t-104.5 33.5t-118.5 9h-123zM461 1360v-578h78q68 0 119.5 13t97 45.5t70 96.5t24.5 157
q0 69 -16.5 118.5t-42.5 78.5t-67 46t-81.5 22t-95.5 5q-24 0 -86 -4zM74 0v53q186 -11 186 137v1039q0 42 -10 70t-23 43t-41.5 22.5t-49 9t-62.5 2.5v54q29 0 86 -2.5t84 -2.5h63q64 0 149 2.5t117 2.5q44 0 89 -5t102 -16.5t105.5 -36t90.5 -59.5t66.5 -90.5t24.5 -124.5
q0 -68 -28.5 -125t-77.5 -96t-105 -64.5t-119 -40.5v-4q49 3 107 -8.5t121.5 -40.5t114.5 -71.5t84.5 -111t33.5 -151.5q0 -171 -144 -278t-407 -107q-48 0 -144.5 2t-144.5 2q-92 0 -268 -4z" />
    <glyph glyph-name="C" unicode="C" horiz-adv-x="1478" 
d="M1378 1352l21 -293h-51q-28 173 -143 254.5t-296 81.5q-75 0 -151 -19.5t-154 -68t-137.5 -120.5t-97 -186.5t-37.5 -255.5q0 -151 51 -285t135.5 -226t195.5 -145.5t228 -53.5q153 0 267 97t145 257l47 -12l-47 -299q-65 -40 -208.5 -74.5t-244.5 -34.5
q-357 0 -569.5 211t-212.5 559q0 153 65 289t172.5 229.5t248.5 148t290 54.5q78 0 168 -17.5t152.5 -36.5t162.5 -54z" />
    <glyph glyph-name="D" unicode="D" horiz-adv-x="1593" 
d="M248 209v993q0 50 -10 84t-24.5 51.5t-39.5 26t-45 10.5t-52 2h-18v54q100 -5 242 -5q35 0 152.5 2.5t201.5 2.5q155 0 288.5 -39.5t229.5 -108.5t165 -160t103 -195.5t34 -213.5q0 -49 -8.5 -103.5t-32.5 -126t-62.5 -136.5t-104.5 -129.5t-151 -112t-210.5 -76.5
t-274.5 -29q-53 0 -151.5 2t-145.5 2q-91 0 -275 -4v53q35 3 50 5t39.5 7t35 11t25.5 17t21 26.5t11.5 37.5t6.5 52zM449 1356v-1114q0 -46 13 -79t32.5 -51.5t49.5 -29t56.5 -13.5t61.5 -3q107 0 196.5 26t152.5 72.5t110 106.5t74.5 133t40.5 147.5t13 153.5
q0 291 -174.5 475t-466.5 184q-37 0 -67 -1.5t-56 -3.5t-36 -3z" />
    <glyph glyph-name="E" unicode="E" horiz-adv-x="1251" 
d="M461 1364v-582h270q24 0 45 4t36 9.5t28 16t21.5 19t15.5 22t10.5 23t7 24t4.5 21.5t2.5 21t1.5 16h41q-8 -90 -8 -229q0 -29 4.5 -110t3.5 -117h-41q0 37 -2.5 65t-10.5 48.5t-15 34.5t-24.5 23.5t-29 14.5t-39 7t-45 2.5t-55.5 0.5h-2h-219v-348q0 -57 1 -88t5 -67
t13 -53t23.5 -35t38 -25t54.5 -11.5t76 -4.5h127q67 3 109 9.5t84 22t70.5 43t55.5 71.5t51 110l50 -9q-60 -185 -84 -313q-103 0 -308 2t-307 2q-302 0 -454 -4v53q47 0 76.5 3t52.5 13.5t35 24.5t19 43t9 61t2 87v909q0 44 -2.5 71.5t-12.5 48.5t-20.5 31.5t-36.5 17.5
t-50.5 9t-71.5 4v54q171 -5 413 -5q341 0 590 5v-306l-41 -10q-23 142 -97 196t-231 54h-239z" />
    <glyph glyph-name="F" unicode="F" horiz-adv-x="1140" 
d="M461 698v-497q0 -42 10 -70t23 -43t41.5 -23t49.5 -9.5t62 -2.5v-53q-204 4 -291 4q-82 0 -290 -4v53q47 0 76.5 3t52.5 13.5t35 24.5t19 43t9 61t2 87v909q0 44 -2.5 71.5t-12.5 48.5t-20.5 31.5t-36.5 17.5t-50.5 9t-71.5 4v54q72 0 220 -2.5t224 -2.5q330 0 557 5
l12 -289l-47 -8q-15 130 -88.5 180.5t-241.5 50.5h-241v-582h241q66 0 100 5t57 26.5t32 49.5t20 89h47q-8 -78 -8 -223q0 -107 8 -217h-40q-17 98 -31 124q-23 46 -91 57q-33 5 -85 5h-250z" />
    <glyph glyph-name="G" unicode="G" horiz-adv-x="1593" 
d="M1407 1350l35 -287h-45q-19 87 -65 152t-110.5 103.5t-141.5 57.5t-165 19q-106 0 -198 -35.5t-159.5 -98t-116.5 -145t-73 -177.5t-24 -196q0 -134 40.5 -260t113.5 -226.5t185.5 -161t246.5 -60.5q168 0 276 80v305q0 32 -5 55.5t-12 39.5t-22.5 26.5t-27 16t-36 8
t-38.5 3t-45 0.5v54q240 -5 283 -5q97 0 249 5v-54q-28 0 -42 -1t-37.5 -8.5t-35 -22t-21 -44.5t-9.5 -73v-268l31 -31v-35q-329 -117 -533 -117q-119 0 -224 26t-183.5 70t-143 104.5t-107.5 127.5t-72.5 140.5t-42.5 142t-13 133.5q0 158 59 297.5t161 238t243 155
t299 56.5q229 0 526 -110z" />
    <glyph glyph-name="H" unicode="H" horiz-adv-x="1708" 
d="M440 782h828v447q0 26 -3 47t-11 36t-16 26t-23 17.5t-26.5 10.5t-33 6t-35 3t-39.5 1v54q272 -5 303 -5q44 0 134 2.5t137 2.5v-54q-26 0 -39.5 -1t-35 -3t-33 -6t-26.5 -10.5t-23 -17.5t-16 -26t-11 -36t-3 -47v-1028q0 -42 10 -70t23.5 -43t42 -23t49.5 -9.5t62 -2.5
v-53q-184 4 -277 4q-85 0 -297 -4v53q41 1 62 2.5t49.5 9.5t42 23t23.5 43t10 70v497h-828v-497q0 -42 10 -70t23.5 -43t42 -23t49.5 -9.5t62 -2.5v-53q-50 0 -141.5 2t-135.5 2q-93 0 -297 -4v53q41 1 62 2.5t49.5 9.5t42 23t23.5 43t10 70v1028q0 26 -3 47t-11 36t-16 26
t-23 17.5t-26.5 10.5t-33 6t-35 3t-39.5 1v54q240 -5 283 -5q36 0 291 5v-54q-26 0 -39.5 -1t-35 -3t-33 -6t-26.5 -10.5t-23 -17.5t-16 -26t-11 -36t-3 -47v-447z" />
    <glyph glyph-name="I" unicode="I" horiz-adv-x="679" 
d="M240 201v1028q0 26 -3 47t-11 36t-16 26t-23 17.5t-26.5 10.5t-33 6t-35 3t-39.5 1v54q240 -5 283 -5q36 0 291 5v-54q-26 0 -39.5 -1t-35 -3t-33 -6t-26.5 -10.5t-23 -17.5t-16 -26t-11 -36t-3 -47v-1028q0 -42 10 -70t23.5 -43t42 -23t49.5 -9.5t62 -2.5v-53
q-50 0 -141.5 2t-135.5 2q-93 0 -297 -4v53q41 1 62 2.5t49.5 9.5t42 23t23.5 43t10 70z" />
    <glyph glyph-name="J" unicode="J" horiz-adv-x="796" 
d="M557 1229v-1053q0 -100 -6 -170t-21.5 -121t-28 -78t-38.5 -73q-42 -73 -132.5 -121.5t-187.5 -48.5q-86 0 -148.5 34.5t-62.5 102.5q0 43 26.5 67.5t59.5 22.5q27 0 46.5 -19.5t19.5 -54.5q0 -40 32.5 -64t78.5 -24q29 0 53 10.5t40.5 33t28.5 45t19 61t11.5 65t6 72
t2 67.5t0.5 66v1180q0 42 -10 70t-23 43t-41.5 22.5t-49 9t-62.5 2.5v54q240 -5 283 -5q35 0 290 5v-54q-42 -1 -62.5 -2.5t-49 -9t-41.5 -22.5t-23 -43t-10 -70z" />
    <glyph glyph-name="K" unicode="K" horiz-adv-x="1478" 
d="M449 711l481 506q76 76 76 112q0 17 -9 27t-29 14t-34.5 5t-42.5 1v54q220 -5 264 -5q32 0 197 5v-54q-48 0 -81 -6t-76 -27t-92.5 -63.5t-117.5 -114.5l-350 -366q69 -76 194 -215.5t228 -253t198 -211.5q31 -30 68 -46t57.5 -18t51.5 -2v-53q-132 4 -199 4
q-50 0 -148 -4q-90 109 -196 227.5t-237.5 261.5t-202.5 222zM53 0v53q41 1 62 2.5t49.5 9.5t42 23t23.5 43t10 70v1028q0 26 -3 47t-11 36t-16 26t-23 17.5t-26.5 10.5t-33 6t-35 3t-39.5 1v54q240 -5 283 -5q80 0 260 5v-54q-31 -1 -47 -2.5t-40.5 -9t-37 -22.5t-22 -43.5
t-9.5 -69.5v-1028q0 -41 9.5 -70t22.5 -43.5t38 -22.5t43 -9.5t51 -2.5v-53q-36 0 -121.5 2t-132.5 2q-93 0 -297 -4z" />
    <glyph glyph-name="L" unicode="L" horiz-adv-x="1251" 
d="M1212 313l-75 -313q-174 4 -521 4q-362 0 -542 -4v53q186 -11 186 137v1039q0 42 -10 70t-23 43t-41.5 22.5t-49 9t-62.5 2.5v54q240 -5 282 -5q36 0 291 5v-54q-42 -1 -62.5 -2.5t-49 -9t-41.5 -22.5t-23 -43t-10 -70v-948q0 -50 6 -81t24 -59.5t53.5 -43t94 -23
t145.5 -8.5q178 0 257 53t126 203z" />
    <glyph glyph-name="M" unicode="M" horiz-adv-x="2048" 
d="M481 1430l551 -1149q62 130 177 361t208 423t168 365q138 -5 168 -5q29 0 90 2.5t90 2.5v-54q-111 0 -143 -24q-39 -29 -39 -123q0 -193 13 -567.5t14 -409.5q1 -44 3.5 -69t10.5 -50.5t22 -38t39 -23.5t60.5 -14.5t87.5 -3.5v-53q-57 0 -169.5 2t-168.5 2q-99 0 -299 -4
v53q121 0 158 19q28 15 40.5 47.5t12.5 91.5l-14 977h-5l-483 -1004q-53 -114 -80 -202h-41q-36 81 -73 161.5t-83.5 177t-75 155.5t-87 176t-77 154.5t-88.5 176t-81 160.5h-4l-16 -742q0 -13 -1 -63.5t-1 -65.5q0 -77 9.5 -120t33.5 -64q23 -21 61 -28t104 -7v-53
q-42 0 -127 2t-127 2q-92 0 -272 -4v53q61 0 99.5 10t73 41t51.5 94.5t20 163.5q2 83 8.5 262t10 315.5t3.5 262.5q0 107 -39 141q-38 33 -141 33v54q180 -5 217 -5q22 0 66 2.5t65 2.5z" />
    <glyph glyph-name="N" unicode="N" horiz-adv-x="1705" 
d="M1483 1165v-1183h-47l-1071 1175v-764q0 -66 2 -108.5t7.5 -82.5t17 -62.5t28 -41.5t44 -27.5t61.5 -13t83 -4.5v-53q-45 0 -136 2t-136 2q-93 0 -273 -4v53q27 0 40.5 0.5t37 2.5t35.5 6.5t30 13.5t27 21.5t20.5 32.5t16.5 45.5t9 60t4 77.5v824q0 130 -59 184.5
t-193 54.5v54q158 -5 188 -5q27 0 84 2.5t84 2.5q38 -56 106 -133.5t196.5 -214t205.5 -222.5q99 -109 277.5 -301t228.5 -246v815q0 74 -9.5 118.5t-37.5 75t-75.5 42t-125.5 12.5v54q235 -5 285 -5q40 0 118.5 2.5t118.5 2.5v-54q-44 0 -68.5 -2.5t-52 -14t-40.5 -33.5
t-22 -62t-9 -99z" />
    <glyph glyph-name="O" unicode="O" horiz-adv-x="1705" 
d="M119 707q0 141 53 276t146.5 241t234 171t303.5 65q150 0 286.5 -61t233.5 -161.5t154 -235.5t57 -279q0 -141 -53 -276t-146.5 -241.5t-234 -171.5t-303.5 -65q-150 0 -286.5 61t-233.5 162t-154 236t-57 279zM344 766q0 -95 21 -195.5t65.5 -196.5t105.5 -171.5
t149 -121.5t189 -46q222 0 355 174t133 455q0 95 -21 195.5t-65.5 196.5t-106 171.5t-149.5 121.5t-189 46q-222 0 -354.5 -174t-132.5 -455z" />
    <glyph glyph-name="P" unicode="P" 
d="M59 1376v54q115 -5 277 -5q33 0 107.5 2.5t119.5 2.5q68 0 135 -11.5t137 -41t122.5 -74t86 -117t33.5 -164.5q0 -116 -65.5 -212t-166 -147t-208.5 -51q-22 0 -56.5 1t-48.5 1v68q27 -4 78 -4q63 0 113.5 29t80 76.5t45 103t15.5 112.5q0 82 -22 147t-56.5 105t-80 66.5
t-88.5 36.5t-87 10q-56 0 -90 -6v-1157q0 -42 10 -70t23.5 -43t42 -23t50 -9.5t63.5 -2.5v-53q-51 0 -143 2t-136 2q-93 0 -297 -4v53q41 1 62 2.5t49.5 9.5t42 23t23.5 43t10 70v975q0 121 -34 160.5t-147 39.5z" />
    <glyph glyph-name="Q" unicode="Q" horiz-adv-x="1705" 
d="M1626 -301l19 -37q-84 -111 -211 -111q-65 0 -128 30.5t-120.5 80.5t-114 104t-130.5 111.5t-148 91.5q-136 13 -260.5 76.5t-215.5 161.5t-144.5 228.5t-53.5 271.5t53 276t146.5 241t234 171t303.5 65q150 0 286.5 -61t233.5 -161.5t154 -235.5t57 -279
q0 -156 -61 -301t-180.5 -257.5t-276.5 -160.5q62 -36 135.5 -97t124 -106t111 -79.5t112.5 -34.5q49 0 74 12zM344 766q0 -95 21 -195.5t65.5 -196.5t105.5 -171.5t149 -121.5t189 -46q222 0 355 174t133 455q0 95 -21 195.5t-65.5 196.5t-106 171.5t-149.5 121.5t-189 46
q-222 0 -354.5 -174t-132.5 -455z" />
    <glyph glyph-name="R" unicode="R" horiz-adv-x="1478" 
d="M647 676h-186v-475q0 -42 10 -70t23 -43t41.5 -23t49.5 -9.5t62 -2.5v-53q-50 0 -141 2t-135 2q-93 0 -297 -4v53q186 -11 186 137v1039q0 42 -10 70t-23 43t-41.5 22.5t-49 9t-62.5 2.5v54q283 -5 311 -5q29 0 115 2.5t159 2.5q111 0 197.5 -24t137 -61.5t83.5 -87.5
t44.5 -96t11.5 -94q0 -126 -82.5 -219.5t-208.5 -130.5q62 -90 151 -225.5t135 -200.5t86 -109q58 -65 109 -97t123 -32v-53q-26 0 -77 2t-77 2q-60 0 -174 -4q-53 59 -103.5 122.5t-103 141.5t-85.5 129t-94 148t-85 135zM920 1055q0 142 -81.5 225.5t-254.5 83.5
q-49 0 -123 -12v-600q57 -11 108 -11q90 0 160.5 28t110.5 74.5t60 100t20 111.5z" />
    <glyph glyph-name="S" unicode="S" horiz-adv-x="1024" 
d="M135 39l-41 299h47q28 -125 114 -214t206 -89t200 76t80 196q0 77 -33.5 135.5t-87 96.5t-118 71.5t-129 70.5t-118 83.5t-87 121.5t-33.5 173q0 192 121.5 296.5t316.5 104.5q29 0 64.5 -3.5t60 -7t65 -10t60.5 -9.5l33 -263h-47q-17 108 -86 168t-178 60
q-114 0 -180 -73.5t-66 -188.5q0 -77 35 -136t90.5 -97t122.5 -72t134.5 -71.5t123 -83t90.5 -119.5t35 -169q0 -96 -41 -176.5t-109 -132t-153.5 -79.5t-177.5 -28q-165 0 -314 70z" />
    <glyph glyph-name="T" unicode="T" horiz-adv-x="1363" 
d="M1331 1487l-18 -326h-56q0 7 -1 20q-1 28 -2 41t-5 34.5t-10 31.5t-18 23.5t-28.5 19.5t-41 10.5t-57.5 4.5h-312v-1145q0 -42 10 -70t23.5 -43t42 -23t49.5 -9.5t62 -2.5v-53q-50 0 -141.5 2t-135.5 2q-93 0 -297 -4v53q41 1 62 2.5t49.5 9.5t42 23t23.5 43t10 70v1145
h-269q-45 0 -76.5 -3.5t-54 -14t-36 -22t-24.5 -34.5t-17.5 -43t-15.5 -56l-3 -12h-53l22 326h41q8 -20 21.5 -32t33.5 -17t35 -6.5t39 -1.5h930q121 0 133 57h43z" />
    <glyph glyph-name="U" unicode="U" horiz-adv-x="1478" 
d="M1454 1430v-54q-114 0 -138 -59.5t-24 -260.5v-9v-590q0 -219 -137 -353.5t-397 -134.5q-259 0 -401 128t-146 384v748q0 42 -10 70t-23 43t-41.5 22.5t-49 9t-62.5 2.5v54q240 -5 282 -5q36 0 291 5v-54q-42 -1 -62.5 -2.5t-49 -9t-41.5 -22.5t-23 -43t-10 -70v-697
q0 -479 399 -479q70 0 127.5 15.5t95.5 39.5t66.5 60t44 70.5t25 77t12 74.5t2.5 67v583q0 208 -16 262q-15 50 -59 63q-26 8 -120 11v54q215 -5 258 -5q35 0 103.5 2.5t103.5 2.5z" />
    <glyph glyph-name="V" unicode="V" horiz-adv-x="1480" 
d="M725 -31l-340 848q-15 38 -73 179t-85 218q-37 97 -77.5 129.5t-137.5 32.5v54q240 -5 289 -5q43 0 130 2.5t130 2.5v-54q-84 -5 -88 -6q-23 -2 -38 -14.5t-15 -34.5q0 -24 18.5 -81.5t37.5 -107t46 -115t29 -71.5l272 -700l156 405q11 29 67.5 174.5t81.5 223.5
q5 16 24 69.5t29.5 93.5t10.5 70q0 16 -2.5 28.5t-9 21.5t-12 16t-17.5 11.5t-19 7.5t-23 4.5t-23 2t-25.5 1.5t-24.5 1v54q200 -5 242 -5q32 0 190 5v-54q-90 0 -137 -80q-1 -2 -155 -387l-375 -940h-76z" />
    <glyph glyph-name="W" unicode="W" horiz-adv-x="2048" 
d="M823 240l207 444l-244 565q-36 84 -67.5 105.5t-126.5 21.5v54q240 -5 285 -5q35 0 107 2.5t106 2.5v-54q-113 0 -113 -51q0 -23 22 -78l134 -342l129 281q36 76 36 125q0 19 -7 32t-15 19.5t-30 9.5t-36 3.5t-49 0.5v54q190 -5 236 -5q27 0 88 2.5t90 2.5v-54
q-74 0 -113.5 -32t-72.5 -99l-209 -438l245 -567l342 936q37 97 37 133q0 32 -30.5 49t-122.5 18v54q190 -5 229 -5q25 0 81 2.5t83 2.5v-54q-35 0 -59 -9t-41.5 -31.5t-26.5 -41.5t-25 -59l-489 -1266h-53l-277 619l-289 -619h-57l-508 1245q-21 50 -34 74t-37 48t-57.5 32
t-86.5 8v54q225 -5 281 -5q39 0 120.5 2.5t120.5 2.5v-54q-127 0 -127 -47q0 -37 23 -94z" />
    <glyph glyph-name="X" unicode="X" horiz-adv-x="1593" 
d="M543 1221l278 -373l215 280q109 141 109 197q0 27 -32 39t-103 12v54q215 -5 256 -5q40 0 119 2.5t118 2.5v-54q-75 0 -127.5 -19.5t-89 -53t-88.5 -99.5l-326 -422l422 -555q45 -61 109 -125q33 -32 64 -40.5t79 -8.5v-53q-51 0 -154.5 2t-154.5 2q-73 0 -221 -4v53
q121 0 121 27q0 19 -41 76l-346 473l-273 -373q-3 -4 -17.5 -24.5t-24.5 -35t-22.5 -34.5t-19 -37t-6.5 -29q0 -15 14.5 -24.5t43.5 -13t48.5 -4.5t53.5 -1v-53q-40 0 -122 2t-122 2q-84 0 -256 -4v53q63 0 96 10q32 9 52.5 20t67 56t108.5 127l327 430l-440 582
q-72 98 -201 98v54q265 -5 328 -5q39 0 121 2.5t121 2.5v-54q-144 0 -144 -41q0 -31 60 -114z" />
    <glyph glyph-name="Y" unicode="Y" horiz-adv-x="1478" 
d="M868 729v-528q0 -42 10 -70t23.5 -43t42 -23t49.5 -9.5t62 -2.5v-53q-204 4 -291 4q-91 0 -283 -4v53q41 1 62 2.5t49.5 9.5t42 23t23.5 43t10 70v495l-428 590q-42 60 -68 71t-123 19v54q98 -5 285 -5q42 0 125 2.5t125 2.5v-54q-115 0 -115 -43q0 -31 68 -127l286 -403
l269 366q0 1 16.5 23t23 32t18 29.5t16.5 35t5 28.5q0 41 -28.5 50t-116.5 9v54q195 -5 236 -5q27 0 83 2.5t85 2.5v-54q-31 -1 -55.5 -9.5t-46.5 -29.5t-33 -34.5t-35 -45.5z" />
    <glyph glyph-name="Z" unicode="Z" horiz-adv-x="1478" 
d="M1432 348l-95 -348q-113 0 -337.5 2t-309.5 2q-106 0 -321 -2t-322 -2l1028 1346h-663q-53 0 -94.5 -13.5t-66 -32.5t-44.5 -51t-29 -56.5t-20 -62.5h-49q4 20 21.5 96t28.5 136.5t11 97.5h53q3 -16 23 -24q15 -6 30 -6h1098l-1024 -1346h598q74 0 127.5 5t96.5 19.5
t72 33t55 52.5t45 71t42 95z" />
    <glyph glyph-name="bracketleft" unicode="[" horiz-adv-x="681" 
d="M203 -383v1831l14 12q102 -6 189 -6q54 0 116 3t84 3v-53h-139q-43 0 -65.5 -3.5t-33.5 -17.5t-12.5 -28.5t-1.5 -50.5v-1551q0 -70 30 -84t161 -14h61v-53q-99 6 -198 6q-96 0 -191 -6z" />
    <glyph glyph-name="backslash" unicode="\" horiz-adv-x="569" 
d="M592 -31h-135l-480 1491h136z" />
    <glyph glyph-name="bracketright" unicode="]" horiz-adv-x="681" 
d="M479 1448v-1831l-14 -12q-102 6 -189 6q-54 0 -116 -3t-84 -3v53h139q43 0 65.5 3.5t33.5 17.5t12.5 28.5t1.5 50.5v1551q0 70 -30 84t-161 14h-61v53q99 -6 198 -6q96 0 191 6z" />
    <glyph glyph-name="asciicircum" unicode="^" 
d="M276 666h-139l371 747h123l370 -747h-139l-293 596z" />
    <glyph glyph-name="underscore" unicode="_" horiz-adv-x="1024" 
d="M1024 -256h-1024v102h1024v-102z" />
    <glyph glyph-name="grave" unicode="`" horiz-adv-x="569" 
d="M584 1116h-72l-342 213q-35 21 -35 70q0 21 19.5 41t46.5 20q11 0 22 -3.5t18.5 -7.5t19 -13.5t16.5 -14t17 -17t15 -15.5z" />
    <glyph glyph-name="a" unicode="a" horiz-adv-x="1024" 
d="M621 184v271q-20 -8 -77 -25.5t-100 -34t-91.5 -42t-75.5 -61t-27 -79.5q0 -60 42.5 -103.5t102.5 -43.5q28 0 55.5 8t44 15t47 30t37.5 28.5t42 36.5zM934 115l18 -35q-38 -36 -61 -54.5t-63 -37.5t-78 -19q-59 0 -91.5 45t-35.5 107q-82 -75 -155 -113.5t-161 -38.5
q-97 0 -159 58t-62 141q6 117 94.5 171t440.5 175v135q0 86 -50.5 131t-148.5 45q-69 0 -111 -37.5t-45 -105.5q0 -40 -36 -63t-78 -23q-20 0 -28.5 13t-8.5 28q0 32 12 59.5t28.5 47.5t51.5 44t62.5 39.5t80.5 42.5q13 7 38 20.5t37 19t31 13t37.5 10.5t41.5 3
q50 0 105.5 -18.5t99.5 -59.5t44 -94v-567q0 -117 74 -117q49 0 76 35z" />
    <glyph glyph-name="b" unicode="b" 
d="M367 1536v-748q173 148 305 148q115 0 203.5 -61.5t133 -158.5t44.5 -210q0 -100 -36 -196.5t-98.5 -172.5t-156 -122t-199.5 -46q-43 0 -81 4.5t-71 15t-51 16.5t-47.5 20t-33.5 16l-62 -47l-43 22q29 195 29 365v881q0 47 -4.5 74.5t-19.5 44t-28.5 22t-46.5 15.5
q-7 2 -10 3v33q138 45 211 88q44 23 45 23q17 0 17 -29zM367 729v-498q0 -42 23 -88.5t73.5 -83t114.5 -36.5q79 0 140.5 36t97.5 95t54.5 127t18.5 139q0 162 -102.5 283.5t-225.5 121.5q-51 0 -96 -25.5t-98 -70.5z" />
    <glyph glyph-name="c" unicode="c" horiz-adv-x="909" 
d="M823 217l35 -35q-182 -213 -399 -213q-104 0 -199 60.5t-152 158.5t-57 205q0 110 38.5 210t104.5 173t161.5 116.5t203.5 43.5q43 0 88 -7t89 -22t72 -44t28 -68q0 -37 -21.5 -63.5t-56.5 -26.5q-23 0 -42.5 17t-37 41.5t-39.5 48.5t-62 41t-94 17q-63 0 -115.5 -33
t-85 -85t-50 -113t-17.5 -121q0 -107 42 -196.5t125 -145t191 -55.5q73 0 129 23.5t121 72.5z" />
    <glyph glyph-name="d" unicode="d" 
d="M948 1536v-1360q0 -32 3.5 -48.5t18 -25t29 -9.5t50.5 -1h34v-41h-2q-29 -6 -145 -41q-23 -7 -56.5 -18.5t-50.5 -17t-22 -5.5q-23 0 -23 56v94h-4q-63 -64 -144.5 -107t-168.5 -43q-118 0 -206.5 64t-131.5 164t-43 217q0 102 39.5 197.5t107 167t161.5 114.5t198 43
q105 0 192 -37v363q0 62 -12 93.5t-27.5 40.5t-59.5 22l-9 3v33q138 45 211 88q44 23 45 23q16 0 16 -29zM784 213v469q0 54 -20.5 93t-55 58.5t-69 28t-72.5 8.5q-57 0 -109.5 -22t-97 -66t-71.5 -121t-27 -176q0 -169 92.5 -281t231.5 -112q57 0 127.5 35t70.5 86z" />
    <glyph glyph-name="e" unicode="e" horiz-adv-x="909" 
d="M809 565h-576q-5 -24 0 -119q9 -148 95 -251t207 -103q139 0 276 137l29 -28q-81 -108 -172 -170t-207 -62q-78 0 -142 23.5t-105 63.5t-70.5 87t-45 99.5t-22 94.5t-6.5 79q0 115 29.5 207.5t74.5 149.5t102 95t108.5 53t98.5 15q64 0 124 -20.5t110 -59t80.5 -101.5
t31.5 -141q0 -24 -2 -36zM240 631h356q34 0 45.5 14t11.5 37q0 81 -47.5 134.5t-130.5 53.5q-93 0 -154.5 -64t-80.5 -175z" />
    <glyph glyph-name="f" unicode="f" horiz-adv-x="681" 
d="M393 905h260v-110h-260v-693q0 -17 7.5 -28t24.5 -15t29 -5t35 -1h93v-53q-176 4 -263 4q-85 0 -253 -4v53h77q51 0 68.5 18.5t17.5 47.5v676h-143v34q9 6 40.5 22t50 27.5t35.5 33.5t17 46q0 74 13.5 150.5t52 165t98.5 149.5q74 76 143.5 109t104.5 33q92 0 92 -84
q0 -36 -18 -58t-53 -22q-25 0 -62 14q-30 15 -70 15q-137 0 -137 -232v-293z" />
    <glyph glyph-name="g" unicode="g" horiz-adv-x="1024" 
d="M973 883v-99l-203 9q53 -65 53 -156q0 -58 -24 -113t-69.5 -100.5t-120 -73.5t-165.5 -28q-50 0 -112 12q-32 -24 -47 -47t-15 -58q0 -94 144 -94q52 0 147.5 -1t134.5 -1q139 0 210 -48t71 -159q0 -23 -10.5 -57t-33 -80t-65 -90t-99.5 -81.5t-144 -61t-191 -23.5
q-183 0 -285 69t-102 160q0 93 69 154.5t171 81.5v4q-74 22 -127.5 67.5t-53.5 110.5q0 44 9 66q20 13 60 34.5t68.5 38.5t41.5 29q-93 48 -143 112.5t-50 160.5q0 139 100 227t283 88q79 0 180 -29q3 -1 21 -6t23 -6.5t21.5 -5.5t24.5 -5.5t23.5 -4.5t27.5 -4t27.5 -2
t30.5 -1q46 0 119 11zM825 -166q0 166 -288 166h-47t-49 -2t-51.5 -5t-48.5 -10t-46.5 -16t-38 -24t-32 -34t-19.5 -45t-8 -57q0 -101 77.5 -154.5t192.5 -53.5q53 0 110 12t115 37t95.5 73.5t37.5 112.5zM659 614q0 66 -22 125.5t-71 101.5t-117 42q-87 0 -134 -71
t-47 -163q0 -47 11 -93.5t32.5 -88t60.5 -67t89 -25.5q98 0 148 68.5t50 170.5z" />
    <glyph glyph-name="h" unicode="h" 
d="M190 121v1141q0 62 -12 93.5t-27.5 40.5t-59.5 22l-9 3v33q138 45 211 88q44 23 45 23q16 0 16 -29v-780q1 1 18 18.5t35.5 35.5t49 41.5t62 41.5t72 30.5t79.5 12.5q130 0 202 -85.5t72 -223.5v-506q0 -20 6 -33.5t13.5 -20t23.5 -10t27 -4t33 -0.5h36v-53q-35 0 -108 2
t-113 2q-73 0 -221 -4v53h37q26 0 41 2t28 12t18.5 21.5t9.5 41t4.5 60t0.5 86.5v232q0 37 -1.5 64.5t-6 61t-12.5 57.5t-23 48.5t-36 39.5t-51.5 24.5t-69.5 9.5q-100 0 -226 -115v-577q0 -20 6 -33.5t13.5 -20t23.5 -10t27 -4t33 -0.5h37v-53q-36 0 -108.5 2t-109.5 2
q-73 0 -221 -4v53h37q22 0 32.5 0.5t26 4t22 10.5t12 20t5.5 33z" />
    <glyph glyph-name="i" unicode="i" horiz-adv-x="569" 
d="M66 0v53h38q22 0 32.5 0.5t26 4t22.5 10.5t12.5 20t5.5 33v555q0 59 -19 82.5t-77 54.5q-7 4 -11 6v33q201 61 219 74q17 10 37 10q15 0 15 -29v-786q0 -20 6 -33t13 -20t23 -10.5t27 -4t33 -0.5h35v-53q-34 0 -106 2t-109 2q-71 0 -223 -4zM385 1354q0 -42 -29.5 -72.5
t-70.5 -30.5q-40 0 -70.5 31.5t-30.5 71.5q0 38 31 68t70 30q40 0 70 -28.5t30 -69.5z" />
    <glyph glyph-name="j" unicode="j" horiz-adv-x="569" 
d="M367 907v-985q0 -62 -9 -110t-32.5 -85.5t-45 -62.5t-66.5 -50.5t-76 -40t-93 -40.5l-14 47q42 20 71.5 40t48.5 45.5t29.5 46t15.5 56t6 60.5t1 74v774q0 23 -2 39t-10.5 29.5t-15.5 21.5t-26.5 18t-33.5 16t-47 19v33q69 13 147 37t100 37q17 10 37 10q15 0 15 -29z
M385 1354q0 -42 -29.5 -72.5t-70.5 -30.5q-40 0 -70.5 31.5t-30.5 71.5q0 38 31 68t70 30q40 0 70 -28.5t30 -69.5z" />
    <glyph glyph-name="k" unicode="k" 
d="M1028 905v-53q-77 0 -133.5 -28t-120.5 -87l-227 -205l346 -382q61 -67 90 -82.5t100 -18.5v-49q-106 4 -159 4q-48 0 -138 -4q-28 40 -65 84l-326 369h-41v-332q0 -20 6 -33.5t13.5 -20t23.5 -10t27 -4t33 -0.5h37v-53q-36 0 -108.5 2t-109.5 2q-73 0 -221 -4v53h37
q22 0 32.5 0.5t26 4t22 10.5t12 20t5.5 33v1141q0 62 -12 93.5t-27.5 40.5t-59.5 22l-9 3v33q138 45 211 88q44 23 45 23q16 0 16 -29v-1036l66 12l221 195q80 70 80 104q0 41 -100 41v53q144 -4 217 -4q64 0 190 4z" />
    <glyph glyph-name="l" unicode="l" horiz-adv-x="569" 
d="M66 0v53h38q22 0 32.5 0.5t26 4t22.5 10.5t12.5 20t5.5 33v1141q0 47 -4.5 74.5t-19.5 44t-28.5 22t-46.5 15.5q-7 2 -10 3v33q138 45 211 88q44 23 45 23q17 0 17 -29v-1415q0 -20 6 -33t13 -20t23 -10.5t27 -4t33 -0.5h35v-53q-34 0 -106 2t-109 2q-71 0 -223 -4z" />
    <glyph glyph-name="m" unicode="m" horiz-adv-x="1703" 
d="M190 121v555q0 22 -1.5 38t-10 30.5t-12 21t-22.5 19t-25 15.5t-35 19v33q193 58 219 74q17 10 37 10q14 0 14 -29v-125q116 82 163 106q94 48 192 48q83 0 139.5 -40t77.5 -118q12 8 62 43t70 46.5t61.5 32.5t79 28.5t79.5 7.5q85 0 141.5 -42t79.5 -104.5t23 -142.5
v-526q0 -20 6 -33t13 -20t23 -10.5t27 -4t33 -0.5h31v-53q-32 0 -102.5 2t-108.5 2q-73 0 -221 -4v53h37q22 0 32.5 0.5t26 4t22 10.5t12 20t5.5 33v452q0 54 -7 94.5t-25 78.5t-54.5 58.5t-91.5 20.5q-53 0 -123.5 -32t-118.5 -66v-606q0 -20 6 -33.5t13.5 -20t24 -10
t27.5 -4t33 -0.5h37v-53q-36 0 -109 2t-110 2q-73 0 -221 -4v53h37q22 0 32.5 0.5t26 4t22 10.5t12 20t5.5 33v452q0 54 -7 94.5t-25 78.5t-54.5 58.5t-91.5 20.5q-53 0 -123.5 -32t-118.5 -66v-606q0 -20 6 -33.5t13.5 -20t23.5 -10t27 -4t33 -0.5h37v-53q-36 0 -108.5 2
t-109.5 2q-67 0 -227 -4v53h43q22 0 32.5 0.5t26 4t22 10.5t12 20t5.5 33z" />
    <glyph glyph-name="n" unicode="n" 
d="M190 121v543q0 56 -22 80.5t-96 54.5v39q187 62 270 98q12 0 12 -21v-133q74 53 117 80t108.5 50.5t129.5 23.5q123 0 179 -78.5t56 -208.5v-528q0 -20 6 -33.5t13.5 -20t23.5 -10t27 -4t33 -0.5h36v-53q-36 0 -108 2t-109 2q-73 0 -221 -4v53h37q22 0 32.5 0.5t26 4
t22 10.5t12 20t5.5 33v530q0 86 -49 130t-139 44q-45 0 -112 -29.5t-126 -68.5v-606q0 -20 6 -33.5t13.5 -20t23.5 -10t27 -4t33 -0.5h37v-53q-36 0 -108.5 2t-109.5 2q-73 0 -221 -4v53h37q22 0 32.5 0.5t26 4t22 10.5t12 20t5.5 33z" />
    <glyph glyph-name="o" unicode="o" 
d="M86 449q0 131 59.5 242.5t167.5 178t242 66.5q217 0 357.5 -132t140.5 -347q0 -130 -62.5 -242.5t-171.5 -179t-237 -66.5q-209 0 -352.5 133.5t-143.5 346.5zM274 469q0 -67 18.5 -141t53.5 -144t96.5 -115.5t137.5 -45.5q73 0 130 39t89.5 102t48.5 132.5t16 139.5
q0 53 -11 111t-35 118.5t-58.5 108.5t-87.5 78.5t-115 30.5q-72 0 -129 -39.5t-89 -102.5t-48.5 -132.5t-16.5 -139.5z" />
    <glyph glyph-name="p" unicode="p" 
d="M367 8v-373q0 -17 7.5 -28t24.5 -15t29 -5t35 -1h92v-53q-176 4 -262 4t-254 -4v53h78q51 0 68.5 18.5t17.5 47.5v971q0 38 -5.5 65.5t-12.5 43t-21 27t-24 16.5t-29 12t-29 12v30q216 100 242 111q1 0 8.5 4t11.5 4q23 0 23 -18v-146q169 152 309 152q110 0 198 -64.5
t133.5 -163.5t45.5 -208q0 -139 -66 -261t-183 -196t-255 -74q-99 0 -182 39zM889 416q0 101 -38 187t-117 142t-185 56q-46 0 -96.5 -21t-85.5 -47v-557q78 -141 219 -141q72 0 131 34.5t95.5 90t56.5 122t20 134.5z" />
    <glyph glyph-name="q" unicode="q" 
d="M793 -348v434q-156 -117 -293 -117q-124 0 -220 59.5t-145 157t-49 213.5q0 109 44 210t114.5 172t160.5 113t181 42q118 0 245 -72l105 90l20 -14v-1305q0 -17 8 -28t25 -15t29 -5t35 -1h37v-53q-66 4 -207 4q-75 0 -267 -4v53h91q51 0 68.5 18.5t17.5 47.5zM793 135
v553q0 55 -67.5 118.5t-162.5 63.5q-34 0 -70.5 -10t-79 -38t-75 -71t-54.5 -115.5t-22 -164.5q0 -98 42 -186.5t121.5 -146.5t178.5 -58t189 55z" />
    <glyph glyph-name="r" unicode="r" horiz-adv-x="796" 
d="M49 0v53h55q22 0 32.5 0.5t26 4t22.5 10.5t12.5 20t5.5 33v575q0 22 -13.5 39t-27.5 24.5t-37 16.5t-29 12v31q63 27 124 57t90 45t36 15q19 0 19 -27v-184h4q26 42 46.5 69t55 64.5t75.5 57.5t85 20t80.5 -29t36.5 -80q0 -42 -27.5 -73t-69.5 -31q-30 0 -64 24.5
t-71 24.5q-15 0 -38.5 -10t-49 -28.5t-43.5 -53.5t-18 -78v-481q0 -20 5.5 -33t12 -20t22 -10.5t26 -4t32.5 -0.5h115v-53q-226 4 -287 4q-96 0 -244 -4z" />
    <glyph glyph-name="s" unicode="s" horiz-adv-x="796" 
d="M86 274l37 11q22 -110 87 -180t171 -70q84 0 125 42t41 103q0 49 -24.5 86t-64 60.5t-87.5 45t-95.5 46t-87 56t-64 82.5t-24.5 118q0 45 18.5 89.5t55.5 84t100.5 64t143.5 24.5q118 0 233 -59l15 -209h-48q-31 202 -223 202q-66 0 -112.5 -36t-46.5 -99q0 -48 26 -85
t68 -60.5t93 -45t101.5 -46t92.5 -55t68 -80.5t26 -115q0 -52 -21.5 -100.5t-63 -89t-111 -65t-157.5 -24.5q-126 0 -249 70z" />
    <glyph glyph-name="t" unicode="t" horiz-adv-x="681" 
d="M338 795v-543q0 -91 39 -131.5t90 -40.5q75 0 143 59l31 -30q-136 -140 -272 -140q-97 0 -146 49.5t-49 141.5v635h-135v32q9 7 37 28.5t36.5 28t31.5 26t33.5 30t30.5 31.5t34 40t33 45.5t38 57.5h25v-209h305v-110h-305z" />
    <glyph glyph-name="u" unicode="u" 
d="M944 868v-755q0 -25 13 -32t44 -7q12 0 40 1t42 1v-43q-58 -5 -154 -27.5t-141 -36.5l-10 6v166q-112 -91 -187.5 -131.5t-174.5 -40.5q-93 0 -159.5 62t-66.5 182v524q0 24 -3 39.5t-14.5 33.5t-37.5 28t-67 14v39q40 1 146 7.5t118 6.5q16 0 19 -10.5t3 -48.5v-529
q0 -237 178 -237q99 0 248 125v551q0 18 -26 33.5t-56 25t-74 21.5q-5 1 -8.5 2t-7.5 2v37q80 5 156.5 12t116.5 11.5t47 4.5q8 0 11.5 -5t4 -11.5t0.5 -20.5z" />
    <glyph glyph-name="v" unicode="v" horiz-adv-x="1024" 
d="M475 -31l-278 725q-22 59 -37.5 90.5t-35 47t-35 18t-50.5 2.5v53q136 -4 205 -4q36 0 106.5 2t106.5 2v-53q-72 0 -94.5 -9.5t-22.5 -45.5q0 -12 6 -32t13.5 -39.5t22 -56t24.5 -63.5l143 -389l170 422q38 95 41 158q1 31 -19 40t-90 15v53q98 -4 148 -4q30 0 92 2t94 2
v-53q-66 0 -99 -34t-65 -113l-295 -736h-51z" />
    <glyph glyph-name="w" unicode="w" horiz-adv-x="1593" 
d="M475 -31l-291 725q-23 60 -38 91t-34.5 46.5t-34.5 18t-50 2.5v53q136 -4 204 -4q37 0 105.5 2t97.5 2v-53q-57 0 -81.5 -8.5t-24.5 -30.5q0 -21 16 -61l215 -551l174 450q10 25 10 68q0 123 -147 133v53q148 -4 223 -4q34 0 101.5 2t101.5 2v-53q-7 -1 -22 -1.5
t-23.5 -1.5t-21 -2.5t-19.5 -5t-14.5 -8t-11 -12.5t-3.5 -18q0 -15 15 -62.5t32 -89.5l170 -450h4q104 258 175 446q32 93 32 146q0 10 -2.5 17.5t-8.5 13.5t-11.5 10t-15.5 7t-16.5 5t-19 3t-17 1.5t-17.5 1t-15 0.5v53q126 -4 193 -4q26 0 79.5 2t82.5 2v-53
q-64 0 -96 -34t-64 -113l-289 -723l-74 -13l-251 645l-246 -632z" />
    <glyph glyph-name="x" unicode="x" 
d="M39 0v53q92 0 135.5 18.5t101.5 90.5q28 36 104.5 123t115.5 135q-7 8 -132 173t-180 220q-8 8 -16.5 14.5t-17.5 10t-16 6.5t-17 4.5t-14.5 2t-14.5 1t-12 0.5v53q140 -4 211 -4q38 0 112.5 2t112.5 2v-53q-27 0 -40.5 -0.5t-31.5 -3.5t-26 -10t-8 -19t44 -71
t96.5 -124.5t59.5 -76.5q15 21 70.5 83.5t95 113t39.5 67.5q0 41 -94 41v53q148 -4 221 -4q26 0 79.5 2t82.5 2v-53q-79 0 -129 -22.5t-101 -81.5q-31 -37 -107 -122.5t-116 -133.5q22 -24 101.5 -127.5t151 -194t85.5 -98.5q33 -19 70 -19h45v-53q-40 0 -117 2t-115 2
q-75 0 -223 -4v53q35 0 49.5 0.5t31.5 3.5t22.5 9.5t5.5 17.5q0 6 -46 66t-104.5 133t-66.5 84q-10 -14 -69 -80.5t-110 -127.5t-51 -73q0 -22 28 -27.5t93 -5.5v-53q-126 4 -192 4q-65 0 -197 -4z" />
    <glyph glyph-name="y" unicode="y" horiz-adv-x="1024" 
d="M35 852v53q160 -4 237 -4q30 0 92 2t93 2v-53q-5 0 -18.5 -1t-21.5 -2t-20.5 -3.5t-20.5 -6t-16 -9t-12 -14t-4 -19.5q0 -32 99.5 -276t107.5 -275h4q15 42 69 167.5t94 226.5t40 126q0 30 -10 49t-30.5 26.5t-34.5 9t-40 1.5v53q126 -4 193 -4q51 0 153 4v-53
q-35 1 -60 -7.5t-44 -29t-30 -39.5t-28 -55l-462 -1086q-44 -102 -132 -102q-45 0 -72.5 28.5t-27.5 69.5q0 38 29 70.5t69 32.5q28 0 45.5 -6t38.5 -25q44 95 80 177.5t50 117.5l14 35q0 1 -68 176t-142 360.5t-85 206.5q-24 42 -53 61t-76 15z" />
    <glyph glyph-name="z" unicode="z" horiz-adv-x="909" 
d="M283 66h297q83 1 116.5 32t108.5 160q2 3 3.5 5.5t2.5 4.5l43 -10l-57 -258h-752v16l547 824h-236q-27 0 -40.5 -0.5t-36.5 -3t-35 -8.5t-29.5 -16.5t-29 -26.5t-23.5 -40.5t-21 -56.5h-49l27 260h41q0 -30 26 -36.5t111 -6.5h528z" />
    <glyph glyph-name="braceleft" unicode="{" horiz-adv-x="681" 
d="M268 -94v381q0 109 -31.5 163t-123.5 82q92 28 123.5 82.5t31.5 163.5v381q0 95 19.5 155.5t61.5 92t92.5 42.5t127.5 11v-28q-93 -21 -129.5 -83t-36.5 -178v-362q0 -124 -32.5 -186t-132.5 -88v-5q100 -26 132.5 -88t32.5 -186v-362q0 -116 36.5 -178t129.5 -83v-28
q-77 0 -127.5 11t-92.5 42.5t-61.5 92t-19.5 155.5z" />
    <glyph glyph-name="bar" unicode="|" horiz-adv-x="454" 
d="M160 -31v1596h135v-1596h-135z" />
    <glyph glyph-name="braceright" unicode="}" horiz-adv-x="681" 
d="M414 1159v-381q0 -109 31.5 -163.5t123.5 -82.5q-92 -28 -123.5 -82t-31.5 -163v-381q0 -95 -19.5 -155.5t-61.5 -92t-92.5 -42.5t-127.5 -11v28q93 21 129.5 83t36.5 178v362q0 124 32.5 186t132.5 88v5q-100 26 -132.5 88t-32.5 186v362q0 116 -36.5 178t-129.5 83v28
q77 0 127.5 -11t92.5 -42.5t61.5 -92t19.5 -155.5z" />
    <glyph glyph-name="asciitilde" unicode="~" 
d="M969 596l73 -102q-29 -41 -49 -65.5t-52.5 -54t-71 -43.5t-83.5 -14q-15 0 -30.5 2t-27.5 4t-29 7.5t-25.5 8t-27.5 11t-24.5 11t-27 12.5t-25.5 12q-42 22 -70.5 34t-71.5 23t-85 11q-106 0 -172 -144l-74 103q92 176 256 176q96 0 240 -68q7 -3 35.5 -16t37 -16.5
t31.5 -12.5t34.5 -12.5t28 -6.5t29.5 -3q55 0 95.5 37t85.5 106z" />
    <glyph glyph-name="uni00A0" unicode="&#xa0;" horiz-adv-x="569" 
 />
    <glyph glyph-name="exclamdown" unicode="&#xa1;" horiz-adv-x="681" 
d="M317 578h48l73 -500q31 -208 31 -285q0 -41 -4 -72t-16 -64t-39 -51t-68 -18q-34 0 -58.5 13t-37.5 32t-21 48.5t-10 54.5t-2 57q0 77 31 285zM340 993q55 0 95 -39t40 -94q0 -54 -40.5 -95.5t-94.5 -41.5t-94.5 41t-40.5 96t39.5 94t95.5 39z" />
    <glyph glyph-name="cent" unicode="&#xa2;" 
d="M485 186l230 656q-48 28 -117 28q-63 0 -115.5 -33t-85 -85t-50 -113t-17.5 -121q0 -103 40.5 -191t114.5 -141zM315 -303l107 307q-110 50 -183 159t-73 230q0 110 38.5 210t104.5 173t161.5 116.5t203.5 43.5q34 0 71 -6l86 250h76l-92 -265q135 -33 135 -120
q0 -37 -21.5 -63.5t-56.5 -26.5q-16 0 -30.5 8.5t-22.5 18t-23.5 29.5t-23.5 30l-223 -641q69 -29 139 -29q73 0 129 23.5t121 72.5l35 -35q-182 -213 -400 -213q-40 0 -84 13l-98 -285h-76z" />
    <glyph glyph-name="sterling" unicode="&#xa3;" 
d="M365 754h-230l8 84h234q110 727 534 727q29 0 57 -5t55 -16t43.5 -33t16.5 -53q0 -40 -22.5 -62t-56.5 -22q-22 0 -41 8q-6 64 -32.5 90.5t-90.5 26.5q-34 0 -64 -16.5t-51.5 -42.5t-40 -65t-30.5 -76t-23 -84t-17 -81t-13 -75.5t-11 -59.5q-18 -93 -25 -161h279l-10 -84
h-283q-47 -275 -213 -506q67 7 111 0q62 -8 124.5 -38t103.5 -61.5t86 -57t77 -25.5q53 0 80.5 34t27.5 64q0 63 -78 92q-2 6 -2 18q0 30 19 50t51 20q44 0 68 -33t24 -80q0 -26 -8 -57.5t-30 -68.5t-54 -66.5t-86.5 -49.5t-122.5 -20q-55 0 -108 21.5t-94.5 52t-80 60.5
t-79 49.5t-76.5 17.5q-41 -70 -94.5 -124t-102.5 -54q-17 0 -28 12.5t-11 30.5q0 60 63 120.5t142 82.5q65 113 105 516z" />
    <glyph glyph-name="currency" unicode="&#xa4;" 
d="M55 283l113 116q-107 131 -107 306q0 195 111 309l-117 116l90 93l115 -117q126 108 315 108q178 0 302 -106l114 115l92 -93l-110 -112q104 -118 104 -309q0 -185 -104 -312l110 -114l-88 -88l-110 118q-126 -114 -312 -114q-190 0 -319 112l-111 -116zM942 709
q0 153 -108.5 268t-258.5 115q-157 0 -267.5 -114t-110.5 -273q0 -157 110.5 -270t265.5 -113q153 0 261 115.5t108 271.5z" />
    <glyph glyph-name="yen" unicode="&#xa5;" 
d="M-41 1376v54q68 -5 250 -5q42 0 125 2.5t125 2.5v-54q-135 0 -135 -43q0 -6 3 -15t11.5 -25.5t14.5 -27t20 -35.5t20 -36l232 -401l225 372q74 123 74 152q0 41 -29 50t-117 9v54q195 -5 236 -5q28 0 83 2.5t83 2.5v-54q-60 -1 -97.5 -31.5t-74.5 -87.5l-326 -520h258
v-84h-270v-159h270v-84h-270v-209q0 -42 11 -70.5t26 -43t45.5 -22.5t52 -9.5t63.5 -2.5v-53q-204 4 -290 4q-103 0 -271 -4v53q42 1 63.5 2.5t52.5 9.5t45.5 22.5t26 43t11.5 70.5v209h-270v84h270v159h-270v84h243l-334 549q-33 55 -74 72.5t-112 17.5z" />
    <glyph glyph-name="brokenbar" unicode="&#xa6;" horiz-adv-x="454" 
d="M160 -31v578h135v-578h-135zM160 987v578h135v-578h-135z" />
    <glyph glyph-name="section" unicode="&#xa7;" 
d="M629 1460q47 0 102 -13t103.5 -48t48.5 -84q0 -38 -24.5 -58t-63.5 -20q-26 0 -47 16.5t-36.5 39.5t-32.5 46t-45 39.5t-65 16.5q-65 0 -95 -51.5t-30 -131.5q0 -75 26.5 -154t68 -150.5t92.5 -146.5t102 -153t92.5 -156.5t68 -170.5t26.5 -183q0 -131 -60 -244
t-168 -181t-239 -68q-50 0 -107.5 16.5t-105 56.5t-47.5 93q0 33 22 55t55 22q32 0 54.5 -18.5t38 -44.5t31.5 -52t43 -44.5t65 -18.5q77 0 114 64t37 147q0 97 -48.5 205.5t-117 209.5t-137.5 205t-117.5 227t-48.5 241q0 122 57 234.5t160.5 184.5t227.5 72zM266 981
q0 -79 33.5 -169.5t83.5 -169.5t110 -171t112 -174.5t89.5 -180t42.5 -186.5q0 -87 -47 -176l4 -4q66 66 105 155t39 181q0 80 -35.5 176t-88 181.5t-114.5 181.5t-114.5 178t-88 169.5t-35.5 157.5q0 40 4.5 70.5t7.5 42.5t15 47l-4 4q-55 -67 -87 -149t-32 -164z" />
    <glyph glyph-name="dieresis" unicode="&#xa8;" horiz-adv-x="569" 
d="M578 1249q0 -36 -29 -64t-66 -28t-65.5 27.5t-28.5 64.5t28.5 65.5t65.5 28.5t66 -28.5t29 -65.5zM180 1249q0 -37 -28.5 -64.5t-65.5 -27.5q-38 0 -66 27.5t-28 64.5t28 65.5t66 28.5q37 0 65.5 -28.5t28.5 -65.5z" />
    <glyph glyph-name="copyright" unicode="&#xa9;" horiz-adv-x="1638" 
d="M819 -31q-153 0 -291.5 59t-237.5 158.5t-157.5 236t-58.5 286.5q0 153 58.5 292t157.5 239.5t237.5 160t291.5 59.5q205 0 377 -100.5t270.5 -273t98.5 -377.5q0 -150 -58.5 -286.5t-157.5 -236t-237.5 -158.5t-292.5 -59zM819 66q171 0 315.5 89.5t227 237.5t82.5 316
q0 174 -82 324.5t-226.5 240.5t-316.5 90q-171 0 -315.5 -90.5t-226.5 -241t-82 -323.5q0 -168 82.5 -316t227 -237.5t314.5 -89.5zM1151 532h37l-35 -151q-1 -12 -9 -20t-17.5 -11.5t-30.5 -9.5q-114 -37 -232 -37q-99 0 -181.5 24.5t-147.5 74.5t-101.5 134.5t-36.5 196.5
q0 56 17.5 113t56 112t93.5 97.5t136.5 69t178.5 26.5q24 0 44.5 -1t41 -4t32 -4.5t32 -7t25.5 -6.5t28 -8.5t24 -7.5q45 -14 45 -45v-152h-41q-4 36 -18.5 68.5t-41.5 62t-73 47t-105 17.5q-154 0 -232.5 -101.5t-78.5 -267.5q0 -181 79.5 -289t244.5 -108q189 0 266 188z
" />
    <glyph glyph-name="ordfeminine" unicode="&#xaa;" horiz-adv-x="665" 
d="M385 1001v154q-110 -33 -160.5 -63.5t-50.5 -79.5q0 -36 20.5 -58t57.5 -22q72 0 133 69zM506 1343v-339q0 -72 47 -72q27 0 45 18l14 -22q-67 -62 -129 -62q-40 0 -67 29.5t-29 67.5q-93 -97 -207 -97q-53 0 -90 35t-37 84q0 62 57 95t222 88q35 12 53 18v88
q0 50 -31 77t-84 27q-38 0 -63.5 -23t-28.5 -63q0 -24 -27.5 -37.5t-56.5 -13.5q-24 0 -24 25q0 23 9.5 41t34 36t45.5 29.5t64 32.5l21 10.5t20.5 10t17 7.5t19.5 6.5t19.5 3t23.5 1.5q53 0 107.5 -28t54.5 -73z" />
    <glyph glyph-name="guillemotleft" unicode="&#xab;" 
d="M211 500l342 334l35 -29l-213 -305l213 -305l-35 -29zM551 500l342 334l35 -29l-213 -305l213 -305l-35 -29z" />
    <glyph glyph-name="logicalnot" unicode="&#xac;" 
d="M887 156v434h-770v135h905v-569h-135z" />
    <glyph glyph-name="uni00AD" unicode="&#xad;" horiz-adv-x="681" 
d="M598 567l-18 -135q-123 6 -246 6q-166 0 -248 -6l18 135q123 -6 248 -6q123 0 246 6z" />
    <glyph glyph-name="registered" unicode="&#xae;" horiz-adv-x="1638" 
d="M819 -31q-153 0 -291.5 59t-237.5 158.5t-157.5 236t-58.5 286.5q0 153 58.5 292t157.5 239.5t237.5 160t291.5 59.5q205 0 377 -100.5t270.5 -273t98.5 -377.5q0 -150 -58.5 -286.5t-157.5 -236t-237.5 -158.5t-292.5 -59zM819 66q171 0 315.5 89.5t227 237.5t82.5 316
q0 174 -82 324.5t-226.5 240.5t-316.5 90q-171 0 -315.5 -90.5t-226.5 -241t-82 -323.5q0 -168 82.5 -316t227 -237.5t314.5 -89.5zM821 354v-28h-352v28q78 10 91 18q18 13 18 50v565v42t-4.5 26.5t-7.5 18.5t-19.5 9t-28.5 7t-45 4v32h381q107 0 179.5 -50.5t72.5 -147.5
q0 -81 -48.5 -142t-127.5 -86l123 -172q96 -131 164 -186v-16h-138q-20 0 -40 16t-43.5 51t-45.5 73t-59 100t-72 114h-106v-258q0 -40 16.5 -49t91.5 -19zM713 1085v-364h96q73 0 109 52.5t36 144.5q0 89 -41 128t-108 39h-92z" />
    <glyph glyph-name="macron" unicode="&#xaf;" horiz-adv-x="569" 
d="M557 1188h-545v110h545v-110z" />
    <glyph glyph-name="degree" unicode="&#xb0;" horiz-adv-x="819" 
d="M238 1151q0 -85 53 -133.5t119 -48.5t119 48.5t53 133.5t-53 133.5t-119 48.5t-119 -48.5t-53 -133.5zM410 1444q123 0 207.5 -85t84.5 -208t-84.5 -208t-207.5 -85t-208 85t-85 208t85 208t208 85z" />
    <glyph glyph-name="plusminus" unicode="&#xb1;" 
d="M502 612v226h135v-226h385v-135h-385v-225h-135v225h-385v135h385zM117 0v135h905v-135h-905z" />
    <glyph glyph-name="twosuperior" unicode="&#xb2;" horiz-adv-x="739" 
d="M229 688h394l30 51h39l-39 -161h-596q-10 0 -10 18v12q0 3 10 13q115 85 213 190q197 215 197 360q0 80 -39 128.5t-123 48.5q-55 0 -96 -26t-86 -77l-37 25q28 38 51.5 63t60 53.5t84 43t103.5 14.5q103 0 168 -65t65 -160q0 -50 -21 -104.5t-49 -97.5t-76 -96t-82 -85
t-87.5 -80.5t-73.5 -67.5z" />
    <glyph glyph-name="threesuperior" unicode="&#xb3;" horiz-adv-x="739" 
d="M250 985v53q88 6 155.5 59t67.5 124q0 65 -36.5 102t-100.5 37q-52 0 -89.5 -18t-78.5 -56l-29 23q65 69 124.5 102t150.5 33q80 0 137 -49.5t57 -124.5q0 -71 -57 -129t-139 -88l4 -4q24 2 53.5 -1.5t64 -16t62.5 -33.5t47 -59t19 -87q0 -47 -22 -96.5t-64.5 -94.5
t-115.5 -73.5t-163 -28.5q-96 0 -157.5 34.5t-61.5 68.5q0 17 13.5 28.5t29.5 11.5q15 0 30.5 -14t29 -31t46.5 -31t80 -14q93 0 148 56t55 135q0 109 -68 149t-192 33z" />
    <glyph glyph-name="acute" unicode="&#xb4;" horiz-adv-x="569" 
d="M57 1116h-71l274 273l15 15l17.5 17.5t16 14t20 14t18.5 7t22 3.5q26 0 45.5 -19.5t19.5 -41.5q0 -49 -35 -70z" />
    <glyph glyph-name="mu" unicode="&#xb5;" 
d="M944 868v-755q0 -25 13 -32t44 -7q12 0 40 1t42 1v-43q-58 -5 -154 -27.5t-141 -36.5l-10 6v166q-112 -91 -187.5 -131.5t-174.5 -40.5q-65 0 -111 43q0 -86 15.5 -208.5t13.5 -163.5q-5 -107 -94 -107q-41 0 -61.5 30t-20.5 77q0 32 16 233.5t16 341.5v522q0 24 -3 39.5
t-14.5 33.5t-37.5 28t-67 14v39q40 1 146 7.5t118 6.5q16 0 19 -10.5t3 -48.5v-529q0 -237 178 -237q99 0 248 125v551q0 18 -26 33.5t-56 25t-74 21.5q-5 1 -8.5 2t-7.5 2v37q80 5 156.5 12t116.5 11.5t47 4.5q8 0 11.5 -5t4 -11.5t0.5 -20.5z" />
    <glyph glyph-name="paragraph" unicode="&#xb6;" 
d="M1055 1430v-41q-107 -14 -130 -25q-34 -16 -37 -66q-1 -9 -1 -20v-1491q0 -63 27 -79.5t127 -29.5q3 -1 4.5 -1t4.5 -0.5t5 -0.5v-41h-303v1729h-136v-1729h-303v41q107 14 130 25q34 16 37 66q1 9 1 20v776q-197 0 -297 121.5t-100 327.5q0 221 99.5 319.5t328.5 98.5
h543zM481 647v699q-128 0 -186.5 -73t-58.5 -265q0 -181 71.5 -271t173.5 -90z" />
    <glyph glyph-name="periodcentered" unicode="&#xb7;" horiz-adv-x="569" 
d="M420 598q0 -53 -40 -94t-93 -41q-57 0 -97 39.5t-40 95.5q0 57 39.5 96t95.5 39q55 0 95 -39.5t40 -95.5z" />
    <glyph glyph-name="cedilla" unicode="&#xb8;" horiz-adv-x="569" 
d="M317 0l-61 -131l4 -4q27 18 66 18q65 0 112 -41.5t47 -105.5q0 -60 -36.5 -100.5t-87 -56t-109.5 -15.5q-106 0 -180 30l28 62q92 -27 129 -27q47 0 84 23t37 65q0 37 -26.5 59.5t-65.5 22.5q-40 0 -74 -12l-28 10l90 203h71z" />
    <glyph glyph-name="onesuperior" unicode="&#xb9;" horiz-adv-x="739" 
d="M467 1444v-762q0 -29 19 -40t69 -11h76v-53q-45 0 -118.5 1t-106.5 1q-162 0 -238 -2v53h76q50 0 69 11t19 40v637q-1 0 -191 -94l-18 43q125 57 317 176h27z" />
    <glyph glyph-name="ordmasculine" unicode="&#xba;" horiz-adv-x="739" 
d="M53 1151q0 121 89.5 207t219.5 86q137 0 230.5 -79.5t93.5 -207.5q0 -119 -90 -205t-217 -86q-138 0 -232 79.5t-94 205.5zM188 1163q0 -40 10 -82t31 -82.5t59.5 -66t88.5 -25.5q47 0 82.5 22t54.5 58.5t28 76t9 81.5q0 41 -10 83t-31 83t-59.5 66.5t-88.5 25.5
q-48 0 -83.5 -22t-54.5 -59t-27.5 -76.5t-8.5 -82.5z" />
    <glyph glyph-name="guillemotright" unicode="&#xbb;" 
d="M928 500l-342 -334l-35 29l213 305l-213 305l35 29zM588 500l-342 -334l-35 29l213 305l-213 305l35 29z" />
    <glyph glyph-name="onequarter" unicode="&#xbc;" horiz-adv-x="1708" 
d="M1298 0v260h-389v57l449 549h61v-510h137v-96h-137v-260h-121zM1298 356v353h-4l-278 -353h282zM473 -47h-94l924 1507h94zM451 1444v-762q0 -29 19 -40t69 -11h75v-53q-45 0 -118.5 1t-106.5 1q-161 0 -237 -2v53h75q50 0 69 11t19 40v637q-31 -16 -190 -94l-19 43
q129 59 318 176h27z" />
    <glyph glyph-name="onehalf" unicode="&#xbd;" horiz-adv-x="1708" 
d="M444 -47h-94l924 1507h94zM451 1444v-762q0 -29 19 -40t69 -11h75v-53q-45 0 -118.5 1t-106.5 1q-161 0 -237 -2v53h75q50 0 69 11t19 40v637q-31 -16 -190 -94l-19 43q129 59 318 176h27zM1638 162l-39 -162h-595q-11 0 -11 18v13q0 3 1.5 5t5 4t4.5 3q115 85 213 190
q196 214 196 361q0 80 -39 128t-123 48q-55 0 -96 -26t-86 -76l-37 24q28 38 51.5 63t60 53.5t84 43t103.5 14.5q103 0 168.5 -65t65.5 -160q0 -50 -21 -104.5t-49 -97.5t-76 -95.5t-82 -84.5t-87.5 -80.5t-73.5 -67.5h393l30 51h39z" />
    <glyph glyph-name="threequarters" unicode="&#xbe;" horiz-adv-x="1708" 
d="M1298 0v260h-389v57l449 549h61v-510h137v-96h-137v-260h-121zM1298 356v353h-4l-278 -353h282zM473 -47h-94l924 1507h94zM270 985v53q88 6 156 59t68 124q0 65 -37 102t-101 37q-52 0 -89.5 -18t-78.5 -56l-28 23q65 69 124 102t150 33q80 0 137.5 -49.5t57.5 -124.5
q0 -71 -57.5 -129t-139.5 -88l4 -4q24 2 53.5 -1.5t64 -16t62.5 -33.5t47 -59t19 -87q0 -47 -22 -96.5t-64.5 -94.5t-115.5 -73.5t-163 -28.5q-96 0 -157.5 34.5t-61.5 68.5q0 17 13.5 28.5t29.5 11.5q15 0 30.5 -14t29.5 -31t47 -31t80 -14q93 0 147.5 56t54.5 135
q0 109 -68 149t-192 33z" />
    <glyph glyph-name="questiondown" unicode="&#xbf;" horiz-adv-x="909" 
d="M543 578h53v-369q-63 -3 -119 -18t-106.5 -44t-80.5 -81t-30 -121q0 -94 66.5 -160t191.5 -66q10 0 31 3.5t31 3.5q48 0 76 -27t28 -74t-30.5 -69.5t-78.5 -22.5q-75 0 -142.5 36t-115 93t-83 126.5t-53 138t-17.5 126.5q0 145 70 224.5t229 105.5q43 7 61.5 32.5
t18.5 96.5v66zM549 993q55 0 95 -39t40 -94q0 -54 -40.5 -95.5t-94.5 -41.5t-94.5 41t-40.5 96t39.5 94t95.5 39z" />
    <glyph glyph-name="Agrave" unicode="&#xc0;" horiz-adv-x="1476" 
d="M774 1487l391 -1079q6 -17 25 -72t32.5 -92.5t31 -78t28.5 -56.5q42 -56 158 -56v-53q-39 0 -118 2t-118 2q-99 0 -299 -4v53h37q113 0 113 68q0 33 -31 119l-102 297h-482l-45 -144q-55 -175 -55 -243q0 -32 8.5 -52t31.5 -29t36 -11t50 -4q9 -1 13 -1h47v-53
q-40 0 -120.5 2t-120.5 2q-84 0 -248 -4v53q94 10 127.5 35t71.5 111q15 33 28.5 70.5t30 87t24.5 71.5l263 731q43 126 43 184q0 38 -4 54q88 41 118 90h35zM668 1223l-199 -602h422l-219 602h-4zM854 1511h-72l-342 213q-34 20 -34 70q0 22 19.5 41.5t45.5 19.5
q11 0 22 -3.5t18.5 -7t20 -14t16 -14l17.5 -17.5l15 -15z" />
    <glyph glyph-name="Aacute" unicode="&#xc1;" horiz-adv-x="1476" 
d="M774 1487l391 -1079q6 -17 25 -72t32.5 -92.5t31 -78t28.5 -56.5q42 -56 158 -56v-53q-39 0 -118 2t-118 2q-99 0 -299 -4v53h37q113 0 113 68q0 33 -31 119l-102 297h-482l-45 -144q-55 -175 -55 -243q0 -32 8.5 -52t31.5 -29t36 -11t50 -4q9 -1 13 -1h47v-53
q-40 0 -120.5 2t-120.5 2q-84 0 -248 -4v53q94 10 127.5 35t71.5 111q15 33 28.5 70.5t30 87t24.5 71.5l263 731q43 126 43 184q0 38 -4 54q88 41 118 90h35zM668 1223l-199 -602h422l-219 602h-4zM641 1511h-72l275 273q3 3 15 15.5t17 17t16.5 14t19 13.5t18.5 7.5t22 3.5
q26 0 46 -19.5t20 -41.5q0 -49 -35 -70z" />
    <glyph glyph-name="Acircumflex" unicode="&#xc2;" horiz-adv-x="1476" 
d="M774 1487l391 -1079q6 -17 25 -72t32.5 -92.5t31 -78t28.5 -56.5q42 -56 158 -56v-53q-39 0 -118 2t-118 2q-99 0 -299 -4v53h37q113 0 113 68q0 33 -31 119l-102 297h-482l-45 -144q-55 -175 -55 -243q0 -32 8.5 -52t31.5 -29t36 -11t50 -4q9 -1 13 -1h47v-53
q-40 0 -120.5 2t-120.5 2q-84 0 -248 -4v53q94 10 127.5 35t71.5 111q15 33 28.5 70.5t30 87t24.5 71.5l263 731q43 126 43 184q0 38 -4 54q88 41 118 90h35zM668 1223l-199 -602h422l-219 602h-4zM682 1855h115l250 -339h-68l-240 217l-239 -217h-68z" />
    <glyph glyph-name="Atilde" unicode="&#xc3;" horiz-adv-x="1476" 
d="M774 1487l391 -1079q6 -17 25 -72t32.5 -92.5t31 -78t28.5 -56.5q42 -56 158 -56v-53q-39 0 -118 2t-118 2q-99 0 -299 -4v53h37q113 0 113 68q0 33 -31 119l-102 297h-482l-45 -144q-55 -175 -55 -243q0 -32 8.5 -52t31.5 -29t36 -11t50 -4q9 -1 13 -1h47v-53
q-40 0 -120.5 2t-120.5 2q-84 0 -248 -4v53q94 10 127.5 35t71.5 111q15 33 28.5 70.5t30 87t24.5 71.5l263 731q43 126 43 184q0 38 -4 54q88 41 118 90h35zM668 1223l-199 -602h422l-219 602h-4zM1014 1765h55q-16 -89 -61.5 -151t-124.5 -62q-56 0 -162 50
q-112 47 -152 47q-38 0 -64.5 -27t-39.5 -70h-55q23 103 73.5 158t118.5 55q60 0 158 -43q116 -47 155 -47q42 0 62.5 22t36.5 68z" />
    <glyph glyph-name="Adieresis" unicode="&#xc4;" horiz-adv-x="1476" 
d="M774 1487l391 -1079q6 -17 25 -72t32.5 -92.5t31 -78t28.5 -56.5q42 -56 158 -56v-53q-39 0 -118 2t-118 2q-99 0 -299 -4v53h37q113 0 113 68q0 33 -31 119l-102 297h-482l-45 -144q-55 -175 -55 -243q0 -32 8.5 -52t31.5 -29t36 -11t50 -4q9 -1 13 -1h47v-53
q-40 0 -120.5 2t-120.5 2q-84 0 -248 -4v53q94 10 127.5 35t71.5 111q15 33 28.5 70.5t30 87t24.5 71.5l263 731q43 126 43 184q0 38 -4 54q88 41 118 90h35zM668 1223l-199 -602h422l-219 602h-4zM1032 1645q0 -37 -28.5 -65t-65.5 -28t-65.5 28t-28.5 65t28.5 65.5
t65.5 28.5t65.5 -28.5t28.5 -65.5zM635 1645q0 -37 -28.5 -65t-65.5 -28q-38 0 -66.5 28t-28.5 65t28.5 65.5t66.5 28.5q37 0 65.5 -28.5t28.5 -65.5z" />
    <glyph glyph-name="Aring" unicode="&#xc5;" horiz-adv-x="1476" 
d="M774 1487l391 -1079q6 -17 25 -72t32.5 -92.5t31 -78t28.5 -56.5q42 -56 158 -56v-53q-39 0 -118 2t-118 2q-99 0 -299 -4v53h37q113 0 113 68q0 33 -31 119l-102 297h-482l-45 -144q-55 -175 -55 -243q0 -32 8.5 -52t31.5 -29t36 -11t50 -4q9 -1 13 -1h47v-53
q-40 0 -120.5 2t-120.5 2q-84 0 -248 -4v53q94 10 127.5 35t71.5 111q15 33 28.5 70.5t30 87t24.5 71.5l263 731q43 126 43 184q0 38 -4 54q88 41 118 90h35zM668 1223l-199 -602h422l-219 602h-4zM541 1735q0 79 59.5 138.5t138.5 59.5q80 0 139.5 -59.5t59.5 -138.5
q0 -80 -59 -140.5t-140 -60.5t-139.5 60.5t-58.5 140.5zM606 1735q0 -58 37.5 -97t95.5 -39t95.5 39t37.5 97q0 57 -38 95t-95 38t-95 -38t-38 -95z" />
    <glyph glyph-name="AE" unicode="&#xc6;" horiz-adv-x="2048" 
d="M1208 1364v-582h353q40 0 63.5 9t34.5 37.5t13 46.5t4 69q1 13 1 19h41q0 -27 -3 -96.5t-3 -118.5q0 -25 3 -102.5t3 -115.5h-43q-1 6 -2.5 29t-3 31t-6 27t-10 27t-16.5 21t-25.5 18.5t-36.5 10t-49 4.5h-318v-417q0 -72 6.5 -109t31.5 -63t66.5 -33.5t119.5 -9.5h145
q58 0 93.5 4.5t70.5 17t63 40.5t57 69.5t66 109.5l45 -12q-56 -238 -65 -295q-117 0 -313 2t-263 2q-100 0 -275 -2t-243 -2v53h29q95 0 130.5 38t35.5 114v493h-381l-226 -415q-73 -129 -73 -181q0 -27 36.5 -36t112.5 -13v-53q-39 0 -115.5 2t-115.5 2q-69 0 -209 -4v53
q49 1 86 14t65.5 40.5t48.5 56.5t46 78l495 911q2 4 21 36t28.5 50t20 45t10.5 43q0 49 -162 49v54q54 -1 271 -2.5t262 -2.5q102 0 307 2.5t311 2.5l17 -306h-49q-12 55 -23.5 91.5t-30.5 64.5t-40 43.5t-56.5 25t-75.5 12.5t-102 3h-279zM1008 782v576h-19l-317 -576h336z
" />
    <glyph glyph-name="Ccedilla" unicode="&#xc7;" horiz-adv-x="1478" 
d="M1378 1352l21 -293h-51q-28 173 -143 254.5t-296 81.5q-75 0 -151 -19.5t-154 -68t-137.5 -120.5t-97 -186.5t-37.5 -255.5q0 -151 51 -285t135.5 -226t195.5 -145.5t228 -53.5q153 0 267 97t145 257l47 -12l-47 -299q-65 -40 -208.5 -74.5t-244.5 -34.5h-16l-47 -100
l4 -4q27 18 65 18q65 0 112.5 -41.5t47.5 -105.5q0 -60 -36.5 -100.5t-87 -56t-109.5 -15.5q-107 0 -181 30l29 62q92 -27 129 -27q47 0 84 23t37 65q0 37 -26.5 59.5t-65.5 22.5q-40 0 -74 -12l-29 10l78 176q-321 26 -508.5 233.5t-187.5 532.5q0 153 65 289t172.5 229.5
t248.5 148t290 54.5q78 0 168 -17.5t152.5 -36.5t162.5 -54z" />
    <glyph glyph-name="Egrave" unicode="&#xc8;" horiz-adv-x="1251" 
d="M461 1364v-582h270q24 0 45 4t36 9.5t28 16t21.5 19t15.5 22t10.5 23t7 24t4.5 21.5t2.5 21t1.5 16h41q-8 -90 -8 -229q0 -29 4.5 -110t3.5 -117h-41q0 37 -2.5 65t-10.5 48.5t-15 34.5t-24.5 23.5t-29 14.5t-39 7t-45 2.5t-55.5 0.5h-2h-219v-348q0 -57 1 -88t5 -67
t13 -53t23.5 -35t38 -25t54.5 -11.5t76 -4.5h127q67 3 109 9.5t84 22t70.5 43t55.5 71.5t51 110l50 -9q-60 -185 -84 -313q-103 0 -308 2t-307 2q-302 0 -454 -4v53q47 0 76.5 3t52.5 13.5t35 24.5t19 43t9 61t2 87v909q0 44 -2.5 71.5t-12.5 48.5t-20.5 31.5t-36.5 17.5
t-50.5 9t-71.5 4v54q171 -5 413 -5q341 0 590 5v-306l-41 -10q-23 142 -97 196t-231 54h-239zM778 1511h-71l-342 213q-35 21 -35 70q0 22 19.5 41.5t45.5 19.5q11 0 22 -3.5t18.5 -7t20 -14t16 -14l17.5 -17.5l15 -15z" />
    <glyph glyph-name="Eacute" unicode="&#xc9;" horiz-adv-x="1251" 
d="M461 1364v-582h270q24 0 45 4t36 9.5t28 16t21.5 19t15.5 22t10.5 23t7 24t4.5 21.5t2.5 21t1.5 16h41q-8 -90 -8 -229q0 -29 4.5 -110t3.5 -117h-41q0 37 -2.5 65t-10.5 48.5t-15 34.5t-24.5 23.5t-29 14.5t-39 7t-45 2.5t-55.5 0.5h-2h-219v-348q0 -57 1 -88t5 -67
t13 -53t23.5 -35t38 -25t54.5 -11.5t76 -4.5h127q67 3 109 9.5t84 22t70.5 43t55.5 71.5t51 110l50 -9q-60 -185 -84 -313q-103 0 -308 2t-307 2q-302 0 -454 -4v53q47 0 76.5 3t52.5 13.5t35 24.5t19 43t9 61t2 87v909q0 44 -2.5 71.5t-12.5 48.5t-20.5 31.5t-36.5 17.5
t-50.5 9t-71.5 4v54q171 -5 413 -5q341 0 590 5v-306l-41 -10q-23 142 -97 196t-231 54h-239zM528 1511h-71l274 273l15 15l17.5 17.5t16 14t20 14t18.5 7t22 3.5q26 0 45.5 -19.5t19.5 -41.5q0 -49 -35 -70z" />
    <glyph glyph-name="Ecircumflex" unicode="&#xca;" horiz-adv-x="1251" 
d="M461 1364v-582h270q24 0 45 4t36 9.5t28 16t21.5 19t15.5 22t10.5 23t7 24t4.5 21.5t2.5 21t1.5 16h41q-8 -90 -8 -229q0 -29 4.5 -110t3.5 -117h-41q0 37 -2.5 65t-10.5 48.5t-15 34.5t-24.5 23.5t-29 14.5t-39 7t-45 2.5t-55.5 0.5h-2h-219v-348q0 -57 1 -88t5 -67
t13 -53t23.5 -35t38 -25t54.5 -11.5t76 -4.5h127q67 3 109 9.5t84 22t70.5 43t55.5 71.5t51 110l50 -9q-60 -185 -84 -313q-103 0 -308 2t-307 2q-302 0 -454 -4v53q47 0 76.5 3t52.5 13.5t35 24.5t19 43t9 61t2 87v909q0 44 -2.5 71.5t-12.5 48.5t-20.5 31.5t-36.5 17.5
t-50.5 9t-71.5 4v54q171 -5 413 -5q341 0 590 5v-306l-41 -10q-23 142 -97 196t-231 54h-239zM569 1855h115l250 -339h-68l-239 217l-240 -217h-68z" />
    <glyph glyph-name="Edieresis" unicode="&#xcb;" horiz-adv-x="1251" 
d="M461 1364v-582h270q24 0 45 4t36 9.5t28 16t21.5 19t15.5 22t10.5 23t7 24t4.5 21.5t2.5 21t1.5 16h41q-8 -90 -8 -229q0 -29 4.5 -110t3.5 -117h-41q0 37 -2.5 65t-10.5 48.5t-15 34.5t-24.5 23.5t-29 14.5t-39 7t-45 2.5t-55.5 0.5h-2h-219v-348q0 -57 1 -88t5 -67
t13 -53t23.5 -35t38 -25t54.5 -11.5t76 -4.5h127q67 3 109 9.5t84 22t70.5 43t55.5 71.5t51 110l50 -9q-60 -185 -84 -313q-103 0 -308 2t-307 2q-302 0 -454 -4v53q47 0 76.5 3t52.5 13.5t35 24.5t19 43t9 61t2 87v909q0 44 -2.5 71.5t-12.5 48.5t-20.5 31.5t-36.5 17.5
t-50.5 9t-71.5 4v54q171 -5 413 -5q341 0 590 5v-306l-41 -10q-23 142 -97 196t-231 54h-239zM920 1645q0 -37 -29 -65t-66 -28t-65.5 28t-28.5 65t28.5 65.5t65.5 28.5t66 -28.5t29 -65.5zM522 1645q0 -37 -28.5 -65t-65.5 -28q-38 0 -66 28t-28 65t28 65.5t66 28.5
q37 0 65.5 -28.5t28.5 -65.5z" />
    <glyph glyph-name="Igrave" unicode="&#xcc;" horiz-adv-x="679" 
d="M240 201v1028q0 26 -3 47t-11 36t-16 26t-23 17.5t-26.5 10.5t-33 6t-35 3t-39.5 1v54q240 -5 283 -5q36 0 291 5v-54q-26 0 -39.5 -1t-35 -3t-33 -6t-26.5 -10.5t-23 -17.5t-16 -26t-11 -36t-3 -47v-1028q0 -42 10 -70t23.5 -43t42 -23t49.5 -9.5t62 -2.5v-53
q-50 0 -141.5 2t-135.5 2q-93 0 -297 -4v53q41 1 62 2.5t49.5 9.5t42 23t23.5 43t10 70zM510 1511h-72l-342 213q-35 21 -35 70q0 22 19.5 41.5t46.5 19.5q11 0 22 -3.5t18.5 -7t20 -14t16 -14l17.5 -17.5l15 -15z" />
    <glyph glyph-name="Iacute" unicode="&#xcd;" horiz-adv-x="679" 
d="M240 201v1028q0 26 -3 47t-11 36t-16 26t-23 17.5t-26.5 10.5t-33 6t-35 3t-39.5 1v54q240 -5 283 -5q36 0 291 5v-54q-26 0 -39.5 -1t-35 -3t-33 -6t-26.5 -10.5t-23 -17.5t-16 -26t-11 -36t-3 -47v-1028q0 -42 10 -70t23.5 -43t42 -23t49.5 -9.5t62 -2.5v-53
q-50 0 -141.5 2t-135.5 2q-93 0 -297 -4v53q41 1 62 2.5t49.5 9.5t42 23t23.5 43t10 70zM242 1511h-72l274 273l15 15l17.5 17.5t16 14t20 14t18.5 7t22 3.5q26 0 45.5 -19.5t19.5 -41.5q0 -50 -34 -70z" />
    <glyph glyph-name="Icircumflex" unicode="&#xce;" horiz-adv-x="679" 
d="M240 201v1028q0 26 -3 47t-11 36t-16 26t-23 17.5t-26.5 10.5t-33 6t-35 3t-39.5 1v54q240 -5 283 -5q36 0 291 5v-54q-26 0 -39.5 -1t-35 -3t-33 -6t-26.5 -10.5t-23 -17.5t-16 -26t-11 -36t-3 -47v-1028q0 -42 10 -70t23.5 -43t42 -23t49.5 -9.5t62 -2.5v-53
q-50 0 -141.5 2t-135.5 2q-93 0 -297 -4v53q41 1 62 2.5t49.5 9.5t42 23t23.5 43t10 70zM283 1855h114l250 -339h-67l-240 217l-240 -217h-67z" />
    <glyph glyph-name="Idieresis" unicode="&#xcf;" horiz-adv-x="679" 
d="M240 201v1028q0 26 -3 47t-11 36t-16 26t-23 17.5t-26.5 10.5t-33 6t-35 3t-39.5 1v54q240 -5 283 -5q36 0 291 5v-54q-26 0 -39.5 -1t-35 -3t-33 -6t-26.5 -10.5t-23 -17.5t-16 -26t-11 -36t-3 -47v-1028q0 -42 10 -70t23.5 -43t42 -23t49.5 -9.5t62 -2.5v-53
q-50 0 -141.5 2t-135.5 2q-93 0 -297 -4v53q41 1 62 2.5t49.5 9.5t42 23t23.5 43t10 70zM633 1645q0 -37 -28.5 -65t-65.5 -28t-66 28t-29 65t29 65.5t66 28.5t65.5 -28.5t28.5 -65.5zM236 1645q0 -37 -29 -65t-66 -28q-38 0 -66 28t-28 65t28 65.5t66 28.5q37 0 66 -28.5
t29 -65.5z" />
    <glyph glyph-name="Eth" unicode="&#xd0;" horiz-adv-x="1593" 
d="M248 788v414q0 50 -10 84t-24.5 51.5t-39.5 26t-45 10.5t-52 2h-18v54q100 -5 242 -5q35 0 152.5 2.5t201.5 2.5q155 0 288.5 -39.5t229.5 -108.5t165 -160t103 -195.5t34 -213.5q0 -49 -8.5 -103.5t-32.5 -126t-62.5 -136.5t-104.5 -129.5t-151 -112t-210.5 -76.5
t-274.5 -29q-53 0 -151.5 2t-145.5 2q-91 0 -275 -4v53q35 3 50 5t39.5 7t35 11t25.5 17t21 26.5t11.5 37.5t6.5 52v483h-185v96h185zM815 788v-96h-366v-450q0 -46 13 -79t32.5 -51.5t49.5 -29t56.5 -13.5t61.5 -3q107 0 196.5 26t152.5 72.5t110 106.5t74.5 133
t40.5 147.5t13 153.5q0 291 -174.5 475t-466.5 184q-37 0 -67 -1.5t-56 -3.5t-36 -3v-568h366z" />
    <glyph glyph-name="Ntilde" unicode="&#xd1;" horiz-adv-x="1705" 
d="M1483 1165v-1183h-47l-1071 1175v-764q0 -66 2 -108.5t7.5 -82.5t17 -62.5t28 -41.5t44 -27.5t61.5 -13t83 -4.5v-53q-45 0 -136 2t-136 2q-93 0 -273 -4v53q27 0 40.5 0.5t37 2.5t35.5 6.5t30 13.5t27 21.5t20.5 32.5t16.5 45.5t9 60t4 77.5v824q0 130 -59 184.5
t-193 54.5v54q158 -5 188 -5q27 0 84 2.5t84 2.5q38 -56 106 -133.5t196.5 -214t205.5 -222.5q99 -109 277.5 -301t228.5 -246v815q0 74 -9.5 118.5t-37.5 75t-75.5 42t-125.5 12.5v54q235 -5 285 -5q40 0 118.5 2.5t118.5 2.5v-54q-44 0 -68.5 -2.5t-52 -14t-40.5 -33.5
t-22 -62t-9 -99zM1128 1765h56q-16 -89 -62 -151t-125 -62q-55 0 -161 50q-112 47 -152 47q-38 0 -64.5 -27t-39.5 -70h-56q23 103 74 158t119 55q59 0 157 -43q116 -47 156 -47q42 0 62 22t36 68z" />
    <glyph glyph-name="Ograve" unicode="&#xd2;" horiz-adv-x="1705" 
d="M119 707q0 141 53 276t146.5 241t234 171t303.5 65q150 0 286.5 -61t233.5 -161.5t154 -235.5t57 -279q0 -141 -53 -276t-146.5 -241.5t-234 -171.5t-303.5 -65q-150 0 -286.5 61t-233.5 162t-154 236t-57 279zM344 766q0 -95 21 -195.5t65.5 -196.5t105.5 -171.5
t149 -121.5t189 -46q222 0 355 174t133 455q0 95 -21 195.5t-65.5 196.5t-106 171.5t-149.5 121.5t-189 46q-222 0 -354.5 -174t-132.5 -455zM1024 1511h-72l-342 213q-35 21 -35 70q0 22 19.5 41.5t46.5 19.5q11 0 22 -3.5t18.5 -7t20 -14t16 -14l17.5 -17.5l15 -15z" />
    <glyph glyph-name="Oacute" unicode="&#xd3;" horiz-adv-x="1705" 
d="M119 707q0 141 53 276t146.5 241t234 171t303.5 65q150 0 286.5 -61t233.5 -161.5t154 -235.5t57 -279q0 -141 -53 -276t-146.5 -241.5t-234 -171.5t-303.5 -65q-150 0 -286.5 61t-233.5 162t-154 236t-57 279zM344 766q0 -95 21 -195.5t65.5 -196.5t105.5 -171.5
t149 -121.5t189 -46q222 0 355 174t133 455q0 95 -21 195.5t-65.5 196.5t-106 171.5t-149.5 121.5t-189 46q-222 0 -354.5 -174t-132.5 -455zM756 1511h-72l274 273l15 15l17.5 17.5t16 14t20 14t18.5 7t22 3.5q27 0 46.5 -19.5t19.5 -41.5q0 -49 -35 -70z" />
    <glyph glyph-name="Ocircumflex" unicode="&#xd4;" horiz-adv-x="1705" 
d="M119 707q0 141 53 276t146.5 241t234 171t303.5 65q150 0 286.5 -61t233.5 -161.5t154 -235.5t57 -279q0 -141 -53 -276t-146.5 -241.5t-234 -171.5t-303.5 -65q-150 0 -286.5 61t-233.5 162t-154 236t-57 279zM344 766q0 -95 21 -195.5t65.5 -196.5t105.5 -171.5
t149 -121.5t189 -46q222 0 355 174t133 455q0 95 -21 195.5t-65.5 196.5t-106 171.5t-149.5 121.5t-189 46q-222 0 -354.5 -174t-132.5 -455zM797 1855h114l250 -339h-67l-240 217l-240 -217h-67z" />
    <glyph glyph-name="Otilde" unicode="&#xd5;" horiz-adv-x="1705" 
d="M119 707q0 141 53 276t146.5 241t234 171t303.5 65q150 0 286.5 -61t233.5 -161.5t154 -235.5t57 -279q0 -141 -53 -276t-146.5 -241.5t-234 -171.5t-303.5 -65q-150 0 -286.5 61t-233.5 162t-154 236t-57 279zM344 766q0 -95 21 -195.5t65.5 -196.5t105.5 -171.5
t149 -121.5t189 -46q222 0 355 174t133 455q0 95 -21 195.5t-65.5 196.5t-106 171.5t-149.5 121.5t-189 46q-222 0 -354.5 -174t-132.5 -455zM1128 1765h56q-16 -89 -62 -151t-125 -62q-55 0 -161 50q-112 47 -152 47q-38 0 -64.5 -27t-39.5 -70h-56q23 103 74 158t119 55
q59 0 157 -43q116 -47 156 -47q42 0 62 22t36 68z" />
    <glyph glyph-name="Odieresis" unicode="&#xd6;" horiz-adv-x="1705" 
d="M119 707q0 141 53 276t146.5 241t234 171t303.5 65q150 0 286.5 -61t233.5 -161.5t154 -235.5t57 -279q0 -141 -53 -276t-146.5 -241.5t-234 -171.5t-303.5 -65q-150 0 -286.5 61t-233.5 162t-154 236t-57 279zM344 766q0 -95 21 -195.5t65.5 -196.5t105.5 -171.5
t149 -121.5t189 -46q222 0 355 174t133 455q0 95 -21 195.5t-65.5 196.5t-106 171.5t-149.5 121.5t-189 46q-222 0 -354.5 -174t-132.5 -455zM1147 1645q0 -37 -28.5 -65t-65.5 -28t-66 28t-29 65t29 65.5t66 28.5t65.5 -28.5t28.5 -65.5zM750 1645q0 -37 -29 -65t-66 -28
q-38 0 -66 28t-28 65t28 65.5t66 28.5q37 0 66 -28.5t29 -65.5z" />
    <glyph glyph-name="multiply" unicode="&#xd7;" 
d="M569 360l-356 -354l-96 94l360 353l-360 358l98 94l354 -358l355 358l98 -94l-360 -358l360 -353l-96 -94z" />
    <glyph glyph-name="Oslash" unicode="&#xd8;" horiz-adv-x="1705" 
d="M440 356l793 781q-70 119 -171.5 188.5t-230.5 69.5q-222 0 -354.5 -174t-132.5 -455q0 -222 96 -410zM1272 1061l-791 -778q68 -114 168 -181t225 -67q222 0 355 174t133 455q0 203 -90 397zM76 -4l229 225q-89 99 -137.5 225t-48.5 261q0 141 53 276t146.5 241t234 171
t303.5 65q144 0 273 -54t227 -149l217 213l57 -57l-219 -215q84 -99 130 -221.5t46 -253.5q0 -141 -53 -276t-146.5 -241.5t-234 -171.5t-303.5 -65q-140 0 -265.5 51t-224.5 144l-227 -225z" />
    <glyph glyph-name="Ugrave" unicode="&#xd9;" horiz-adv-x="1478" 
d="M1454 1430v-54q-114 0 -138 -59.5t-24 -260.5v-9v-590q0 -219 -137 -353.5t-397 -134.5q-259 0 -401 128t-146 384v748q0 42 -10 70t-23 43t-41.5 22.5t-49 9t-62.5 2.5v54q240 -5 282 -5q36 0 291 5v-54q-42 -1 -62.5 -2.5t-49 -9t-41.5 -22.5t-23 -43t-10 -70v-697
q0 -479 399 -479q70 0 127.5 15.5t95.5 39.5t66.5 60t44 70.5t25 77t12 74.5t2.5 67v583q0 208 -16 262q-15 50 -59 63q-26 8 -120 11v54q215 -5 258 -5q35 0 103.5 2.5t103.5 2.5zM946 1511h-72l-342 213q-34 20 -34 70q0 22 19.5 41.5t45.5 19.5q11 0 22 -3.5t18.5 -7
t20 -14t16 -14l17.5 -17.5l15 -15z" />
    <glyph glyph-name="Uacute" unicode="&#xda;" horiz-adv-x="1478" 
d="M1454 1430v-54q-114 0 -138 -59.5t-24 -260.5v-9v-590q0 -219 -137 -353.5t-397 -134.5q-259 0 -401 128t-146 384v748q0 42 -10 70t-23 43t-41.5 22.5t-49 9t-62.5 2.5v54q240 -5 282 -5q36 0 291 5v-54q-42 -1 -62.5 -2.5t-49 -9t-41.5 -22.5t-23 -43t-10 -70v-697
q0 -479 399 -479q70 0 127.5 15.5t95.5 39.5t66.5 60t44 70.5t25 77t12 74.5t2.5 67v583q0 208 -16 262q-15 50 -59 63q-26 8 -120 11v54q215 -5 258 -5q35 0 103.5 2.5t103.5 2.5zM659 1511h-71l274 273l15 15l17.5 17.5t16 14t20 14t18.5 7t22 3.5q26 0 45.5 -19.5
t19.5 -41.5q0 -49 -35 -70z" />
    <glyph glyph-name="Ucircumflex" unicode="&#xdb;" horiz-adv-x="1478" 
d="M1454 1430v-54q-114 0 -138 -59.5t-24 -260.5v-9v-590q0 -219 -137 -353.5t-397 -134.5q-259 0 -401 128t-146 384v748q0 42 -10 70t-23 43t-41.5 22.5t-49 9t-62.5 2.5v54q240 -5 282 -5q36 0 291 5v-54q-42 -1 -62.5 -2.5t-49 -9t-41.5 -22.5t-23 -43t-10 -70v-697
q0 -479 399 -479q70 0 127.5 15.5t95.5 39.5t66.5 60t44 70.5t25 77t12 74.5t2.5 67v583q0 208 -16 262q-15 50 -59 63q-26 8 -120 11v54q215 -5 258 -5q35 0 103.5 2.5t103.5 2.5zM682 1855h115l250 -339h-68l-240 217l-239 -217h-68z" />
    <glyph glyph-name="Udieresis" unicode="&#xdc;" horiz-adv-x="1478" 
d="M1454 1430v-54q-114 0 -138 -59.5t-24 -260.5v-9v-590q0 -219 -137 -353.5t-397 -134.5q-259 0 -401 128t-146 384v748q0 42 -10 70t-23 43t-41.5 22.5t-49 9t-62.5 2.5v54q240 -5 282 -5q36 0 291 5v-54q-42 -1 -62.5 -2.5t-49 -9t-41.5 -22.5t-23 -43t-10 -70v-697
q0 -479 399 -479q70 0 127.5 15.5t95.5 39.5t66.5 60t44 70.5t25 77t12 74.5t2.5 67v583q0 208 -16 262q-15 50 -59 63q-26 8 -120 11v54q215 -5 258 -5q35 0 103.5 2.5t103.5 2.5zM1053 1645q0 -37 -29 -65t-66 -28t-65.5 28t-28.5 65t28.5 65.5t65.5 28.5t66 -28.5
t29 -65.5zM655 1645q0 -37 -28.5 -65t-65.5 -28q-38 0 -66 28t-28 65t28 65.5t66 28.5q37 0 65.5 -28.5t28.5 -65.5z" />
    <glyph glyph-name="Yacute" unicode="&#xdd;" horiz-adv-x="1478" 
d="M868 729v-528q0 -42 10 -70t23.5 -43t42 -23t49.5 -9.5t62 -2.5v-53q-204 4 -291 4q-91 0 -283 -4v53q41 1 62 2.5t49.5 9.5t42 23t23.5 43t10 70v495l-428 590q-42 60 -68 71t-123 19v54q98 -5 285 -5q42 0 125 2.5t125 2.5v-54q-115 0 -115 -43q0 -31 68 -127l286 -403
l269 366q0 1 16.5 23t23 32t18 29.5t16.5 35t5 28.5q0 41 -28.5 50t-116.5 9v54q195 -5 236 -5q27 0 83 2.5t85 2.5v-54q-31 -1 -55.5 -9.5t-46.5 -29.5t-33 -34.5t-35 -45.5zM686 1511h-72l275 273q3 3 15 15.5t17 17t16.5 14t19 13.5t18.5 7.5t22 3.5q27 0 46.5 -19.5
t19.5 -41.5q0 -49 -35 -70z" />
    <glyph glyph-name="Thorn" unicode="&#xde;" 
d="M240 201v975q0 121 -34 160.5t-147 39.5v54q255 -5 297 -5q44 0 135.5 2.5t141.5 2.5v-54q-34 -1 -50.5 -2.5t-42 -7.5t-38 -19t-26.5 -36t-20 -60t-7 -88q99 6 114 6q68 0 135 -11.5t137 -41.5t122.5 -75t86 -118t33.5 -165q0 -116 -65.5 -212t-166 -147t-208.5 -51
q-140 0 -197 4v-151q0 -42 10 -70t23.5 -43t42 -23t49.5 -9.5t62 -2.5v-53q-50 0 -141.5 2t-135.5 2q-93 0 -297 -4v53q41 1 62 2.5t49.5 9.5t42 23t23.5 43t10 70zM440 1100v-680q49 -6 144 -6q73 0 129 29t87.5 77t47.5 102.5t16 112.5q0 82 -22 147.5t-57 106t-82 67.5
t-92.5 37.5t-92.5 10.5q-24 0 -78 -4z" />
    <glyph glyph-name="germandbls" unicode="&#xdf;" 
d="M190 119v682h-133v28l123 76q0 100 23 196t69.5 180t111.5 147.5t156.5 100t196.5 36.5q63 0 121 -16.5t106 -48t76.5 -84t28.5 -118.5q0 -57 -22 -105.5t-56.5 -83.5t-77 -65.5t-84.5 -58t-76.5 -54.5t-56.5 -61t-22 -71q0 -41 27 -78t67.5 -65t87.5 -64t87.5 -73
t67.5 -94.5t27 -125.5q0 -141 -94.5 -235.5t-234.5 -94.5q-38 0 -80 13t-75.5 43.5t-33.5 70.5q0 24 18 46t42 22q25 0 43 -11t25 -21.5t18 -31.5q10 -20 18.5 -32t26 -22.5t41.5 -10.5q70 0 110.5 51.5t40.5 124.5q0 47 -20 87.5t-52 70.5t-71 58.5t-78 57.5t-71 59.5
t-52 72.5t-20 90q0 55 21 101.5t54.5 79t73.5 62.5t80.5 59t74 60.5t54.5 76t21 97.5q0 110 -74.5 174t-184.5 64q-41 0 -80 -10t-81 -37t-73 -67.5t-51 -108t-20 -152.5v-1004q0 -17 8 -28t25 -15t29 -5t35 -1h10v-53q-12 4 -180 4q-108 0 -234 -4v53h57q51 0 68.5 18.5
t17.5 47.5z" />
    <glyph glyph-name="agrave" unicode="&#xe0;" horiz-adv-x="1024" 
d="M621 184v271q-20 -8 -77 -25.5t-100 -34t-91.5 -42t-75.5 -61t-27 -79.5q0 -60 42.5 -103.5t102.5 -43.5q28 0 55.5 8t44 15t47 30t37.5 28.5t42 36.5zM934 115l18 -35q-38 -36 -61 -54.5t-63 -37.5t-78 -19q-59 0 -91.5 45t-35.5 107q-82 -75 -155 -113.5t-161 -38.5
q-97 0 -159 58t-62 141q6 117 94.5 171t440.5 175v135q0 86 -50.5 131t-148.5 45q-69 0 -111 -37.5t-45 -105.5q0 -40 -36 -63t-78 -23q-20 0 -28.5 13t-8.5 28q0 32 12 59.5t28.5 47.5t51.5 44t62.5 39.5t80.5 42.5q13 7 38 20.5t37 19t31 13t37.5 10.5t41.5 3
q50 0 105.5 -18.5t99.5 -59.5t44 -94v-567q0 -117 74 -117q49 0 76 35zM682 1116h-72l-342 213q-35 21 -35 70q0 21 19.5 41t46.5 20q11 0 22 -3.5t18.5 -7t20 -14t16 -14l17.5 -17.5l15 -15z" />
    <glyph glyph-name="aacute" unicode="&#xe1;" horiz-adv-x="1024" 
d="M621 184v271q-20 -8 -77 -25.5t-100 -34t-91.5 -42t-75.5 -61t-27 -79.5q0 -60 42.5 -103.5t102.5 -43.5q28 0 55.5 8t44 15t47 30t37.5 28.5t42 36.5zM934 115l18 -35q-38 -36 -61 -54.5t-63 -37.5t-78 -19q-59 0 -91.5 45t-35.5 107q-82 -75 -155 -113.5t-161 -38.5
q-97 0 -159 58t-62 141q6 117 94.5 171t440.5 175v135q0 86 -50.5 131t-148.5 45q-69 0 -111 -37.5t-45 -105.5q0 -40 -36 -63t-78 -23q-20 0 -28.5 13t-8.5 28q0 32 12 59.5t28.5 47.5t51.5 44t62.5 39.5t80.5 42.5q13 7 38 20.5t37 19t31 13t37.5 10.5t41.5 3
q50 0 105.5 -18.5t99.5 -59.5t44 -94v-567q0 -117 74 -117q49 0 76 35zM414 1116h-72l274 273l15 15l17.5 17.5t16 14t20 14t18.5 7t22 3.5q27 0 46.5 -20t19.5 -41q0 -49 -35 -70z" />
    <glyph glyph-name="acircumflex" unicode="&#xe2;" horiz-adv-x="1024" 
d="M621 184v271q-20 -8 -77 -25.5t-100 -34t-91.5 -42t-75.5 -61t-27 -79.5q0 -60 42.5 -103.5t102.5 -43.5q28 0 55.5 8t44 15t47 30t37.5 28.5t42 36.5zM934 115l18 -35q-38 -36 -61 -54.5t-63 -37.5t-78 -19q-59 0 -91.5 45t-35.5 107q-82 -75 -155 -113.5t-161 -38.5
q-97 0 -159 58t-62 141q6 117 94.5 171t440.5 175v135q0 86 -50.5 131t-148.5 45q-69 0 -111 -37.5t-45 -105.5q0 -40 -36 -63t-78 -23q-20 0 -28.5 13t-8.5 28q0 32 12 59.5t28.5 47.5t51.5 44t62.5 39.5t80.5 42.5q13 7 38 20.5t37 19t31 13t37.5 10.5t41.5 3
q50 0 105.5 -18.5t99.5 -59.5t44 -94v-567q0 -117 74 -117q49 0 76 35zM455 1460h114l250 -340h-67l-240 217l-240 -217h-67z" />
    <glyph glyph-name="atilde" unicode="&#xe3;" horiz-adv-x="1024" 
d="M621 184v271q-20 -8 -77 -25.5t-100 -34t-91.5 -42t-75.5 -61t-27 -79.5q0 -60 42.5 -103.5t102.5 -43.5q28 0 55.5 8t44 15t47 30t37.5 28.5t42 36.5zM934 115l18 -35q-38 -36 -61 -54.5t-63 -37.5t-78 -19q-59 0 -91.5 45t-35.5 107q-82 -75 -155 -113.5t-161 -38.5
q-97 0 -159 58t-62 141q6 117 94.5 171t440.5 175v135q0 86 -50.5 131t-148.5 45q-69 0 -111 -37.5t-45 -105.5q0 -40 -36 -63t-78 -23q-20 0 -28.5 13t-8.5 28q0 32 12 59.5t28.5 47.5t51.5 44t62.5 39.5t80.5 42.5q13 7 38 20.5t37 19t31 13t37.5 10.5t41.5 3
q50 0 105.5 -18.5t99.5 -59.5t44 -94v-567q0 -117 74 -117q49 0 76 35zM786 1370h56q-16 -89 -62 -151t-125 -62q-57 0 -161 49q-112 47 -152 47q-74 0 -104 -96h-56q23 103 74 158t119 55q59 0 157 -43q116 -47 156 -47q42 0 62 22t36 68z" />
    <glyph glyph-name="adieresis" unicode="&#xe4;" horiz-adv-x="1024" 
d="M621 184v271q-20 -8 -77 -25.5t-100 -34t-91.5 -42t-75.5 -61t-27 -79.5q0 -60 42.5 -103.5t102.5 -43.5q28 0 55.5 8t44 15t47 30t37.5 28.5t42 36.5zM934 115l18 -35q-38 -36 -61 -54.5t-63 -37.5t-78 -19q-59 0 -91.5 45t-35.5 107q-82 -75 -155 -113.5t-161 -38.5
q-97 0 -159 58t-62 141q6 117 94.5 171t440.5 175v135q0 86 -50.5 131t-148.5 45q-69 0 -111 -37.5t-45 -105.5q0 -40 -36 -63t-78 -23q-20 0 -28.5 13t-8.5 28q0 32 12 59.5t28.5 47.5t51.5 44t62.5 39.5t80.5 42.5q13 7 38 20.5t37 19t31 13t37.5 10.5t41.5 3
q50 0 105.5 -18.5t99.5 -59.5t44 -94v-567q0 -117 74 -117q49 0 76 35zM805 1249q0 -37 -28.5 -64.5t-65.5 -27.5t-66 28t-29 64q0 37 29 65.5t66 28.5t65.5 -28.5t28.5 -65.5zM408 1249q0 -36 -29 -64t-66 -28q-38 0 -66 27.5t-28 64.5t28 65.5t66 28.5q37 0 66 -28.5
t29 -65.5z" />
    <glyph glyph-name="aring" unicode="&#xe5;" horiz-adv-x="1024" 
d="M621 184v271q-20 -8 -77 -25.5t-100 -34t-91.5 -42t-75.5 -61t-27 -79.5q0 -60 42.5 -103.5t102.5 -43.5q28 0 55.5 8t44 15t47 30t37.5 28.5t42 36.5zM934 115l18 -35q-38 -36 -61 -54.5t-63 -37.5t-78 -19q-59 0 -91.5 45t-35.5 107q-82 -75 -155 -113.5t-161 -38.5
q-97 0 -159 58t-62 141q6 117 94.5 171t440.5 175v135q0 86 -50.5 131t-148.5 45q-69 0 -111 -37.5t-45 -105.5q0 -40 -36 -63t-78 -23q-20 0 -28.5 13t-8.5 28q0 32 12 59.5t28.5 47.5t51.5 44t62.5 39.5t80.5 42.5q13 7 38 20.5t37 19t31 13t37.5 10.5t41.5 3
q50 0 105.5 -18.5t99.5 -59.5t44 -94v-567q0 -117 74 -117q49 0 76 35zM313 1262q0 79 59.5 138.5t139.5 59.5t139.5 -59.5t59.5 -138.5q0 -80 -59 -140.5t-140 -60.5t-140 60.5t-59 140.5zM379 1262q0 -58 37.5 -97t95.5 -39t95.5 39t37.5 97q0 57 -38 95t-95 38t-95 -38
t-38 -95z" />
    <glyph glyph-name="ae" unicode="&#xe6;" horiz-adv-x="1478" 
d="M1376 258l29 -33q-82 -109 -189 -182t-223 -74q-211 3 -301 193q-46 -40 -69 -59t-66.5 -50t-75.5 -45.5t-77 -26.5t-91 -12q-95 0 -161 57.5t-66 151.5q0 45 13.5 76.5t46 54.5t68 37.5t97.5 32.5l338 100v139q0 207 -190 207q-90 0 -144 -75q-11 -14 -16 -49t-14 -63.5
t-31 -35.5q-7 -2 -42 -14.5t-56 -12.5q-12 0 -23.5 12.5t-11.5 24.5q0 25 5.5 47.5t12.5 39t22 32.5t25.5 26t32 23t33 19t36 18t34.5 17q25 12 71 41.5t84 45t82 15.5q83 0 149.5 -39t88.5 -113q105 152 313 152q73 0 138.5 -24.5t111 -79.5t45.5 -130q0 -34 -19 -49.5
t-102 -40.5l-483 -145v-41q0 -146 70 -227t214 -78q157 3 291 137zM649 348v72l-272 -84q-25 -8 -39 -14t-31.5 -19t-25 -34t-7.5 -52q0 -74 43 -112.5t91 -38.5q24 0 51.5 7t62.5 26.5t62 49t46 81.5t19 118zM801 528l291 93q73 23 99 43.5t26 54.5q0 65 -49 108t-103 43
q-84 0 -145.5 -51.5t-90 -127.5t-28.5 -163z" />
    <glyph glyph-name="ccedilla" unicode="&#xe7;" horiz-adv-x="909" 
d="M823 217l35 -35q-160 -185 -346 -209l-49 -104l4 -4q27 18 65 18q65 0 112.5 -41.5t47.5 -105.5q0 -60 -36.5 -100.5t-87 -56t-109.5 -15.5q-106 0 -180 30l28 62q92 -27 129 -27q47 0 84 23t37 65q0 37 -26.5 59.5t-65.5 22.5t-74 -12l-29 10l76 172q-153 9 -270 137
t-117 287q0 110 38.5 210t104.5 173t161.5 116.5t203.5 43.5q43 0 88 -7t89 -22t72 -44t28 -68q0 -37 -21.5 -63.5t-56.5 -26.5q-23 0 -42.5 17t-37 41.5t-39.5 48.5t-62 41t-94 17q-63 0 -115.5 -33t-85 -85t-50 -113t-17.5 -121q0 -107 42 -196.5t125 -145t191 -55.5
q73 0 129 23.5t121 72.5z" />
    <glyph glyph-name="egrave" unicode="&#xe8;" horiz-adv-x="909" 
d="M809 565h-576q-5 -24 0 -119q9 -148 95 -251t207 -103q139 0 276 137l29 -28q-81 -108 -172 -170t-207 -62q-78 0 -142 23.5t-105 63.5t-70.5 87t-45 99.5t-22 94.5t-6.5 79q0 115 29.5 207.5t74.5 149.5t102 95t108.5 53t98.5 15q64 0 124 -20.5t110 -59t80.5 -101.5
t31.5 -141q0 -24 -2 -36zM240 631h356q34 0 45.5 14t11.5 37q0 81 -47.5 134.5t-130.5 53.5q-93 0 -154.5 -64t-80.5 -175zM643 1116h-72l-342 213q-34 20 -34 70q0 22 19.5 41.5t45.5 19.5q11 0 22 -3.5t18.5 -7t20 -14t16 -14l17.5 -17.5l15 -15z" />
    <glyph glyph-name="eacute" unicode="&#xe9;" horiz-adv-x="909" 
d="M809 565h-576q-5 -24 0 -119q9 -148 95 -251t207 -103q139 0 276 137l29 -28q-81 -108 -172 -170t-207 -62q-78 0 -142 23.5t-105 63.5t-70.5 87t-45 99.5t-22 94.5t-6.5 79q0 115 29.5 207.5t74.5 149.5t102 95t108.5 53t98.5 15q64 0 124 -20.5t110 -59t80.5 -101.5
t31.5 -141q0 -24 -2 -36zM240 631h356q34 0 45.5 14t11.5 37q0 81 -47.5 134.5t-130.5 53.5q-93 0 -154.5 -64t-80.5 -175zM356 1116h-71l274 273l15 15l17.5 17.5t16 14t20 14t18.5 7t22 3.5q26 0 45.5 -19.5t19.5 -41.5q0 -49 -35 -70z" />
    <glyph glyph-name="ecircumflex" unicode="&#xea;" horiz-adv-x="909" 
d="M809 565h-576q-5 -24 0 -119q9 -148 95 -251t207 -103q139 0 276 137l29 -28q-81 -108 -172 -170t-207 -62q-78 0 -142 23.5t-105 63.5t-70.5 87t-45 99.5t-22 94.5t-6.5 79q0 115 29.5 207.5t74.5 149.5t102 95t108.5 53t98.5 15q64 0 124 -20.5t110 -59t80.5 -101.5
t31.5 -141q0 -24 -2 -36zM240 631h356q34 0 45.5 14t11.5 37q0 81 -47.5 134.5t-130.5 53.5q-93 0 -154.5 -64t-80.5 -175zM397 1460h115l250 -340h-68l-239 217l-240 -217h-68z" />
    <glyph glyph-name="edieresis" unicode="&#xeb;" horiz-adv-x="909" 
d="M809 565h-576q-5 -24 0 -119q9 -148 95 -251t207 -103q139 0 276 137l29 -28q-81 -108 -172 -170t-207 -62q-78 0 -142 23.5t-105 63.5t-70.5 87t-45 99.5t-22 94.5t-6.5 79q0 115 29.5 207.5t74.5 149.5t102 95t108.5 53t98.5 15q64 0 124 -20.5t110 -59t80.5 -101.5
t31.5 -141q0 -24 -2 -36zM240 631h356q34 0 45.5 14t11.5 37q0 81 -47.5 134.5t-130.5 53.5q-93 0 -154.5 -64t-80.5 -175zM748 1249q0 -36 -29 -64t-66 -28t-65.5 27.5t-28.5 64.5t28.5 65.5t65.5 28.5t66 -28.5t29 -65.5zM350 1249q0 -37 -28.5 -64.5t-65.5 -27.5
q-38 0 -66 27.5t-28 64.5t28 65.5t66 28.5q37 0 65.5 -28.5t28.5 -65.5z" />
    <glyph glyph-name="igrave" unicode="&#xec;" horiz-adv-x="569" 
d="M66 0v53h38q22 0 32.5 0.5t26 4t22.5 10.5t12.5 20t5.5 33v555q0 59 -19 82.5t-77 54.5q-7 4 -11 6v33q201 61 219 74q17 10 37 10q15 0 15 -29v-786q0 -20 6 -33t13 -20t23 -10.5t27 -4t33 -0.5h35v-53q-34 0 -106 2t-109 2q-71 0 -223 -4zM436 1116h-71l-342 213
q-35 21 -35 70q0 22 19.5 41.5t45.5 19.5q11 0 22 -3.5t18.5 -7t20 -14t16 -14l17.5 -17.5l15 -15z" />
    <glyph glyph-name="iacute" unicode="&#xed;" horiz-adv-x="569" 
d="M66 0v53h38q22 0 32.5 0.5t26 4t22.5 10.5t12.5 20t5.5 33v555q0 59 -19 82.5t-77 54.5q-7 4 -11 6v33q201 61 219 74q17 10 37 10q15 0 15 -29v-786q0 -20 6 -33t13 -20t23 -10.5t27 -4t33 -0.5h35v-53q-34 0 -106 2t-109 2q-71 0 -223 -4zM186 1116h-71l274 273l15 15
l17.5 17.5t16 14t20 14t18.5 7t22 3.5q26 0 45.5 -19.5t19.5 -41.5q0 -49 -35 -70z" />
    <glyph glyph-name="icircumflex" unicode="&#xee;" horiz-adv-x="569" 
d="M66 0v53h38q22 0 32.5 0.5t26 4t22.5 10.5t12.5 20t5.5 33v555q0 59 -19 82.5t-77 54.5q-7 4 -11 6v33q201 61 219 74q17 10 37 10q15 0 15 -29v-786q0 -20 6 -33t13 -20t23 -10.5t27 -4t33 -0.5h35v-53q-34 0 -106 2t-109 2q-71 0 -223 -4zM227 1460h115l250 -340h-68
l-239 217l-240 -217h-68z" />
    <glyph glyph-name="idieresis" unicode="&#xef;" horiz-adv-x="569" 
d="M66 0v53h38q22 0 32.5 0.5t26 4t22.5 10.5t12.5 20t5.5 33v555q0 59 -19 82.5t-77 54.5q-7 4 -11 6v33q201 61 219 74q17 10 37 10q15 0 15 -29v-786q0 -20 6 -33t13 -20t23 -10.5t27 -4t33 -0.5h35v-53q-34 0 -106 2t-109 2q-71 0 -223 -4zM578 1249q0 -36 -29 -64
t-66 -28t-65.5 27.5t-28.5 64.5t28.5 65.5t65.5 28.5t66 -28.5t29 -65.5zM180 1249q0 -37 -28.5 -64.5t-65.5 -27.5q-38 0 -66 27.5t-28 64.5t28 65.5t66 28.5q37 0 65.5 -28.5t28.5 -65.5z" />
    <glyph glyph-name="eth" unicode="&#xf0;" 
d="M274 469q0 -67 18.5 -141t53.5 -144t96.5 -115.5t137.5 -45.5q73 0 130 39t89.5 102t48.5 132.5t16 139.5q0 53 -11 111t-35 118.5t-58.5 108.5t-87.5 78.5t-115 30.5q-72 0 -129 -39.5t-89 -102.5t-48.5 -132.5t-16.5 -139.5zM799 1565l59 -66l-215 -139
q181 -148 295.5 -357t114.5 -409q0 -158 -36.5 -280t-101 -196t-149 -111.5t-184.5 -37.5q-209 0 -352.5 133.5t-143.5 346.5q0 130 62.5 242t171 178.5t235.5 66.5q45 0 76.5 -4.5t80.5 -28t99 -67.5l4 4q-5 73 -87 205.5t-196 244.5l-233 -151l-59 65l225 146
q-143 119 -277 149l39 66q172 -26 342 -148z" />
    <glyph glyph-name="ntilde" unicode="&#xf1;" 
d="M190 121v543q0 56 -22 80.5t-96 54.5v39q187 62 270 98q12 0 12 -21v-133q74 53 117 80t108.5 50.5t129.5 23.5q123 0 179 -78.5t56 -208.5v-528q0 -20 6 -33.5t13.5 -20t23.5 -10t27 -4t33 -0.5h36v-53q-36 0 -108 2t-109 2q-73 0 -221 -4v53h37q22 0 32.5 0.5t26 4
t22 10.5t12 20t5.5 33v530q0 86 -49 130t-139 44q-45 0 -112 -29.5t-126 -68.5v-606q0 -20 6 -33.5t13.5 -20t23.5 -10t27 -4t33 -0.5h37v-53q-36 0 -108.5 2t-109.5 2q-73 0 -221 -4v53h37q22 0 32.5 0.5t26 4t22 10.5t12 20t5.5 33zM844 1370h55q-16 -89 -61.5 -151
t-124.5 -62q-58 0 -162 49q-112 47 -152 47q-74 0 -104 -96h-55q23 103 73.5 158t118.5 55q60 0 158 -43q116 -47 155 -47q42 0 62.5 22t36.5 68z" />
    <glyph glyph-name="ograve" unicode="&#xf2;" 
d="M86 449q0 131 59.5 242.5t167.5 178t242 66.5q217 0 357.5 -132t140.5 -347q0 -130 -62.5 -242.5t-171.5 -179t-237 -66.5q-209 0 -352.5 133.5t-143.5 346.5zM274 469q0 -67 18.5 -141t53.5 -144t96.5 -115.5t137.5 -45.5q73 0 130 39t89.5 102t48.5 132.5t16 139.5
q0 53 -11 111t-35 118.5t-58.5 108.5t-87.5 78.5t-115 30.5q-72 0 -129 -39.5t-89 -102.5t-48.5 -132.5t-16.5 -139.5zM739 1116h-71l-342 213q-35 21 -35 70q0 22 19.5 41.5t45.5 19.5q11 0 22 -3.5t18.5 -7t20 -14t16 -14l17.5 -17.5l15 -15z" />
    <glyph glyph-name="oacute" unicode="&#xf3;" 
d="M86 449q0 131 59.5 242.5t167.5 178t242 66.5q217 0 357.5 -132t140.5 -347q0 -130 -62.5 -242.5t-171.5 -179t-237 -66.5q-209 0 -352.5 133.5t-143.5 346.5zM274 469q0 -67 18.5 -141t53.5 -144t96.5 -115.5t137.5 -45.5q73 0 130 39t89.5 102t48.5 132.5t16 139.5
q0 53 -11 111t-35 118.5t-58.5 108.5t-87.5 78.5t-115 30.5q-72 0 -129 -39.5t-89 -102.5t-48.5 -132.5t-16.5 -139.5zM453 1116h-72l274 273l15 15l17.5 17.5t16 14t20 14t18.5 7t22 3.5q26 0 45.5 -19.5t19.5 -41.5q0 -50 -34 -70z" />
    <glyph glyph-name="ocircumflex" unicode="&#xf4;" 
d="M86 449q0 131 59.5 242.5t167.5 178t242 66.5q217 0 357.5 -132t140.5 -347q0 -130 -62.5 -242.5t-171.5 -179t-237 -66.5q-209 0 -352.5 133.5t-143.5 346.5zM274 469q0 -67 18.5 -141t53.5 -144t96.5 -115.5t137.5 -45.5q73 0 130 39t89.5 102t48.5 132.5t16 139.5
q0 53 -11 111t-35 118.5t-58.5 108.5t-87.5 78.5t-115 30.5q-72 0 -129 -39.5t-89 -102.5t-48.5 -132.5t-16.5 -139.5zM512 1460h115l250 -340h-68l-240 217l-239 -217h-68z" />
    <glyph glyph-name="otilde" unicode="&#xf5;" 
d="M86 449q0 131 59.5 242.5t167.5 178t242 66.5q217 0 357.5 -132t140.5 -347q0 -130 -62.5 -242.5t-171.5 -179t-237 -66.5q-209 0 -352.5 133.5t-143.5 346.5zM274 469q0 -67 18.5 -141t53.5 -144t96.5 -115.5t137.5 -45.5q73 0 130 39t89.5 102t48.5 132.5t16 139.5
q0 53 -11 111t-35 118.5t-58.5 108.5t-87.5 78.5t-115 30.5q-72 0 -129 -39.5t-89 -102.5t-48.5 -132.5t-16.5 -139.5zM844 1370h55q-16 -89 -61.5 -151t-124.5 -62q-58 0 -162 49q-112 47 -152 47q-74 0 -104 -96h-55q23 103 73.5 158t118.5 55q60 0 158 -43
q116 -47 155 -47q42 0 62.5 22t36.5 68z" />
    <glyph glyph-name="odieresis" unicode="&#xf6;" 
d="M86 449q0 131 59.5 242.5t167.5 178t242 66.5q217 0 357.5 -132t140.5 -347q0 -130 -62.5 -242.5t-171.5 -179t-237 -66.5q-209 0 -352.5 133.5t-143.5 346.5zM274 469q0 -67 18.5 -141t53.5 -144t96.5 -115.5t137.5 -45.5q73 0 130 39t89.5 102t48.5 132.5t16 139.5
q0 53 -11 111t-35 118.5t-58.5 108.5t-87.5 78.5t-115 30.5q-72 0 -129 -39.5t-89 -102.5t-48.5 -132.5t-16.5 -139.5zM862 1249q0 -37 -28.5 -64.5t-65.5 -27.5t-65.5 27.5t-28.5 64.5t28.5 65.5t65.5 28.5t65.5 -28.5t28.5 -65.5zM465 1249q0 -37 -28.5 -64.5t-65.5 -27.5
q-38 0 -66.5 27.5t-28.5 64.5t28.5 65.5t66.5 28.5q37 0 65.5 -28.5t28.5 -65.5z" />
    <glyph glyph-name="divide" unicode="&#xf7;" 
d="M1022 385h-905v135h905v-135zM434 104q0 57 40 96.5t97 39.5q54 0 94 -40.5t40 -95.5q0 -53 -40 -94t-94 -41q-57 0 -97 39.5t-40 95.5zM434 801q0 57 39.5 96t95.5 39t96 -40t40 -95q0 -53 -40.5 -94t-95.5 -41t-95 40t-40 95z" />
    <glyph glyph-name="oslash" unicode="&#xf8;" 
d="M315 250l482 459q-37 78 -98 126t-142 48q-72 0 -129 -39.5t-89 -102.5t-48.5 -132.5t-16.5 -139.5q0 -114 41 -219zM825 647l-479 -459q38 -75 97 -120t137 -45q73 0 130 39t89.5 102t48.5 132.5t16 139.5q0 101 -39 211zM1047 948l53 -41l-152 -143q105 -127 105 -307
q0 -130 -62.5 -242.5t-171.5 -179t-237 -66.5q-201 0 -338 121l-158 -151l-47 47l160 151q-113 129 -113 312q0 131 59.5 242.5t167.5 178t242 66.5q214 0 348 -125z" />
    <glyph glyph-name="ugrave" unicode="&#xf9;" 
d="M944 868v-755q0 -25 13 -32t44 -7q12 0 40 1t42 1v-43q-58 -5 -154 -27.5t-141 -36.5l-10 6v166q-112 -91 -187.5 -131.5t-174.5 -40.5q-93 0 -159.5 62t-66.5 182v524q0 24 -3 39.5t-14.5 33.5t-37.5 28t-67 14v39q40 1 146 7.5t118 6.5q16 0 19 -10.5t3 -48.5v-529
q0 -237 178 -237q99 0 248 125v551q0 18 -26 33.5t-56 25t-74 21.5q-5 1 -8.5 2t-7.5 2v37q80 5 156.5 12t116.5 11.5t47 4.5q8 0 11.5 -5t4 -11.5t0.5 -20.5zM739 1116h-71l-342 213q-35 21 -35 70q0 22 19.5 41.5t45.5 19.5q11 0 22 -3.5t18.5 -7t20 -14t16 -14
l17.5 -17.5l15 -15z" />
    <glyph glyph-name="uacute" unicode="&#xfa;" 
d="M944 868v-755q0 -25 13 -32t44 -7q12 0 40 1t42 1v-43q-58 -5 -154 -27.5t-141 -36.5l-10 6v166q-112 -91 -187.5 -131.5t-174.5 -40.5q-93 0 -159.5 62t-66.5 182v524q0 24 -3 39.5t-14.5 33.5t-37.5 28t-67 14v39q40 1 146 7.5t118 6.5q16 0 19 -10.5t3 -48.5v-529
q0 -237 178 -237q99 0 248 125v551q0 18 -26 33.5t-56 25t-74 21.5q-5 1 -8.5 2t-7.5 2v37q80 5 156.5 12t116.5 11.5t47 4.5q8 0 11.5 -5t4 -11.5t0.5 -20.5zM489 1116h-71l274 273l15 15l17.5 17.5t16 14t20 14t18.5 7t22 3.5q26 0 45.5 -19.5t19.5 -41.5q0 -49 -35 -70z
" />
    <glyph glyph-name="ucircumflex" unicode="&#xfb;" 
d="M944 868v-755q0 -25 13 -32t44 -7q12 0 40 1t42 1v-43q-58 -5 -154 -27.5t-141 -36.5l-10 6v166q-112 -91 -187.5 -131.5t-174.5 -40.5q-93 0 -159.5 62t-66.5 182v524q0 24 -3 39.5t-14.5 33.5t-37.5 28t-67 14v39q40 1 146 7.5t118 6.5q16 0 19 -10.5t3 -48.5v-529
q0 -237 178 -237q99 0 248 125v551q0 18 -26 33.5t-56 25t-74 21.5q-5 1 -8.5 2t-7.5 2v37q80 5 156.5 12t116.5 11.5t47 4.5q8 0 11.5 -5t4 -11.5t0.5 -20.5zM475 1460h115l250 -340h-68l-240 217l-239 -217h-68z" />
    <glyph glyph-name="udieresis" unicode="&#xfc;" 
d="M944 868v-755q0 -25 13 -32t44 -7q12 0 40 1t42 1v-43q-58 -5 -154 -27.5t-141 -36.5l-10 6v166q-112 -91 -187.5 -131.5t-174.5 -40.5q-93 0 -159.5 62t-66.5 182v524q0 24 -3 39.5t-14.5 33.5t-37.5 28t-67 14v39q40 1 146 7.5t118 6.5q16 0 19 -10.5t3 -48.5v-529
q0 -237 178 -237q99 0 248 125v551q0 18 -26 33.5t-56 25t-74 21.5q-5 1 -8.5 2t-7.5 2v37q80 5 156.5 12t116.5 11.5t47 4.5q8 0 11.5 -5t4 -11.5t0.5 -20.5zM825 1249q0 -37 -28.5 -64.5t-65.5 -27.5t-65.5 27.5t-28.5 64.5t28.5 65.5t65.5 28.5t65.5 -28.5t28.5 -65.5z
M428 1249q0 -37 -28.5 -64.5t-65.5 -27.5q-38 0 -66 27.5t-28 64.5t28 65.5t66 28.5q37 0 65.5 -28.5t28.5 -65.5z" />
    <glyph glyph-name="yacute" unicode="&#xfd;" horiz-adv-x="1024" 
d="M35 852v53q160 -4 237 -4q30 0 92 2t93 2v-53q-5 0 -18.5 -1t-21.5 -2t-20.5 -3.5t-20.5 -6t-16 -9t-12 -14t-4 -19.5q0 -32 99.5 -276t107.5 -275h4q15 42 69 167.5t94 226.5t40 126q0 30 -10 49t-30.5 26.5t-34.5 9t-40 1.5v53q126 -4 193 -4q51 0 153 4v-53
q-35 1 -60 -7.5t-44 -29t-30 -39.5t-28 -55l-462 -1086q-44 -102 -132 -102q-45 0 -72.5 28.5t-27.5 69.5q0 38 29 70.5t69 32.5q28 0 45.5 -6t38.5 -25q44 95 80 177.5t50 117.5l14 35q0 1 -68 176t-142 360.5t-85 206.5q-24 42 -53 61t-76 15zM444 1116h-71l274 273l15 15
l17.5 17.5t16 14t20 14t18.5 7t22 3.5q26 0 45.5 -19.5t19.5 -41.5q0 -49 -35 -70z" />
    <glyph glyph-name="thorn" unicode="&#xfe;" 
d="M39 -467v53h78q51 0 68.5 18.5t17.5 47.5v1610q0 47 -4.5 74.5t-19.5 44t-28.5 22t-46.5 15.5q-7 2 -10 3v33q28 11 68 25t60.5 21t48.5 20t53 28q3 2 7 5t7 5.5t7 4.5t7 2q15 0 15 -29v-752q169 152 309 152q110 0 198 -64.5t133.5 -163.5t45.5 -208q0 -139 -66 -261
t-183 -196t-255 -74q-99 0 -182 39v-373q0 -17 7.5 -28t24.5 -15t29 -5t35 -1h92v-53q-176 4 -262 4t-254 -4zM367 733v-557q78 -141 219 -141q72 0 131 34.5t95.5 90t56.5 122t20 134.5q0 101 -38 187t-117 142t-185 56q-46 0 -96.5 -21t-85.5 -47z" />
    <glyph glyph-name="ydieresis" unicode="&#xff;" horiz-adv-x="1024" 
d="M35 852v53q160 -4 237 -4q30 0 92 2t93 2v-53q-5 0 -18.5 -1t-21.5 -2t-20.5 -3.5t-20.5 -6t-16 -9t-12 -14t-4 -19.5q0 -32 99.5 -276t107.5 -275h4q15 42 69 167.5t94 226.5t40 126q0 30 -10 49t-30.5 26.5t-34.5 9t-40 1.5v53q126 -4 193 -4q51 0 153 4v-53
q-35 1 -60 -7.5t-44 -29t-30 -39.5t-28 -55l-462 -1086q-44 -102 -132 -102q-45 0 -72.5 28.5t-27.5 69.5q0 38 29 70.5t69 32.5q28 0 45.5 -6t38.5 -25q44 95 80 177.5t50 117.5l14 35q0 1 -68 176t-142 360.5t-85 206.5q-24 42 -53 61t-76 15zM805 1249q0 -37 -28.5 -64.5
t-65.5 -27.5t-66 28t-29 64q0 37 29 65.5t66 28.5t65.5 -28.5t28.5 -65.5zM408 1249q0 -36 -29 -64t-66 -28q-38 0 -66 27.5t-28 64.5t28 65.5t66 28.5q37 0 66 -28.5t29 -65.5z" />
    <glyph glyph-name="dotlessi" unicode="&#x131;" horiz-adv-x="569" 
d="M66 0v53h38q22 0 32.5 0.5t26 4t22.5 10.5t12.5 20t5.5 33v555q0 59 -19 82.5t-77 54.5q-7 4 -11 6v33q201 61 219 74q17 10 37 10q15 0 15 -29v-786q0 -20 6 -33t13 -20t23 -10.5t27 -4t33 -0.5h35v-53q-34 0 -106 2t-109 2q-71 0 -223 -4z" />
    <glyph glyph-name="Lslash" unicode="&#x141;" horiz-adv-x="1251" 
d="M260 190v363l-186 -135v114l186 136v561q0 42 -10 70t-23 43t-41.5 22.5t-49 9t-62.5 2.5v54q240 -5 282 -5q36 0 291 5v-54q-42 -1 -62.5 -2.5t-49 -9t-41.5 -22.5t-23 -43t-10 -70v-414l438 320v-115l-438 -320v-419q0 -50 6 -81t24 -59.5t53.5 -43t94 -23t145.5 -8.5
q178 0 257 53t126 203l45 -9l-75 -313q-174 4 -521 4q-362 0 -542 -4v53q186 -11 186 137z" />
    <glyph glyph-name="lslash" unicode="&#x142;" horiz-adv-x="569" 
d="M66 0v53h38q22 0 32.5 0.5t26 4t22.5 10.5t12.5 20t5.5 33v571l-137 -106v98l137 107v471q0 47 -4.5 74.5t-19.5 44t-28.5 22t-46.5 15.5q-7 2 -10 3v33q138 45 211 88q44 23 45 23q17 0 17 -29v-621l137 107v-98l-137 -107v-696q0 -20 6 -33t13 -20t23 -10.5t27 -4
t33 -0.5h35v-53q-34 0 -106 2t-109 2q-71 0 -223 -4z" />
    <glyph glyph-name="OE" unicode="&#x152;" horiz-adv-x="2048" 
d="M1120 328v764q0 52 -2.5 85.5t-11 72t-26.5 62t-47 44t-74.5 30t-106.5 9.5q-101 0 -186 -40.5t-143.5 -108t-99.5 -155t-60 -180.5t-19 -186q0 -101 20.5 -199t64.5 -187t106 -156.5t151.5 -107.5t194.5 -40q75 0 123.5 19t73 59.5t33.5 90t9 124.5zM1321 1364v-582h270
q42 0 66 6t42.5 24.5t25 53t6.5 92.5h43q-5 -185 -5 -229q0 -53 5 -205h-41q0 47 -4.5 74.5t-19.5 52.5t-46.5 36t-83.5 11h-258v-442q0 -31 2.5 -55t6.5 -43t14 -33t18.5 -24t26.5 -16.5t33 -10.5t42.5 -5.5t50 -2t60.5 -0.5q51 0 78 0.5t66.5 3.5t61 9.5t50 18.5t45.5 30
t36 43.5t32.5 61t25.5 80.5l45 -10q-4 -18 -30 -130.5t-33 -172.5q-68 0 -202 2t-202 2q-168 0 -394 -17.5t-290 -17.5q-212 0 -381.5 92t-266.5 260.5t-97 383.5q0 203 94.5 376t262 276t370.5 103q61 0 185 -12t130 -12q158 -11 359 -11q80 0 378 5q0 -42 7.5 -153.5
t13.5 -146.5l-49 -6q-25 137 -80.5 188.5t-187.5 51.5h-281z" />
    <glyph glyph-name="oe" unicode="&#x153;" horiz-adv-x="1593" 
d="M1526 229l28 -28q-167 -232 -380 -232q-184 0 -312 183q-64 -83 -153.5 -133t-188.5 -50q-100 0 -183 41t-137 110t-84 157.5t-30 185.5q0 93 31 178t87.5 151t145 105t195.5 39q219 0 348 -152q131 152 307 152q63 0 123 -20.5t110.5 -58.5t82 -101.5t32.5 -141.5
q0 -24 -2 -36l-18 -13h-576q-5 -24 0 -119q9 -149 94.5 -251.5t206.5 -102.5q132 0 273 137zM274 467q0 -68 14 -138t43 -138.5t84 -112t128 -43.5q52 0 94 19.5t69.5 54.5t47 76.5t29.5 92t14 95t4 90.5q0 55 -7 107.5t-25.5 108t-47 97t-76 68t-108.5 26.5q-73 0 -127 -39
t-82 -102t-41 -128.5t-13 -133.5zM958 631h359q33 0 44 14t11 37q0 81 -46.5 134.5t-129.5 53.5q-93 0 -155.5 -63.5t-82.5 -175.5z" />
    <glyph glyph-name="Scaron" unicode="&#x160;" horiz-adv-x="1024" 
d="M135 39l-41 299h47q28 -125 114 -214t206 -89t200 76t80 196q0 77 -33.5 135.5t-87 96.5t-118 71.5t-129 70.5t-118 83.5t-87 121.5t-33.5 173q0 192 121.5 296.5t316.5 104.5q29 0 64.5 -3.5t60 -7t65 -10t60.5 -9.5l33 -263h-47q-17 108 -86 168t-178 60
q-114 0 -180 -73.5t-66 -188.5q0 -77 35 -136t90.5 -97t122.5 -72t134.5 -71.5t123 -83t90.5 -119.5t35 -169q0 -96 -41 -176.5t-109 -132t-153.5 -79.5t-177.5 -28q-165 0 -314 70zM569 1516h-114l-250 339h67l240 -217l240 217h67z" />
    <glyph glyph-name="scaron" unicode="&#x161;" horiz-adv-x="796" 
d="M86 274l37 11q22 -110 87 -180t171 -70q84 0 125 42t41 103q0 49 -24.5 86t-64 60.5t-87.5 45t-95.5 46t-87 56t-64 82.5t-24.5 118q0 45 18.5 89.5t55.5 84t100.5 64t143.5 24.5q118 0 233 -59l15 -209h-48q-31 202 -223 202q-66 0 -112.5 -36t-46.5 -99q0 -48 26 -85
t68 -60.5t93 -45t101.5 -46t92.5 -55t68 -80.5t26 -115q0 -52 -21.5 -100.5t-63 -89t-111 -65t-157.5 -24.5q-126 0 -249 70zM457 1120h-115l-250 340h68l239 -217l240 217h68z" />
    <glyph glyph-name="Ydieresis" unicode="&#x178;" horiz-adv-x="1478" 
d="M868 729v-528q0 -42 10 -70t23.5 -43t42 -23t49.5 -9.5t62 -2.5v-53q-204 4 -291 4q-91 0 -283 -4v53q41 1 62 2.5t49.5 9.5t42 23t23.5 43t10 70v495l-428 590q-42 60 -68 71t-123 19v54q98 -5 285 -5q42 0 125 2.5t125 2.5v-54q-115 0 -115 -43q0 -31 68 -127l286 -403
l269 366q0 1 16.5 23t23 32t18 29.5t16.5 35t5 28.5q0 41 -28.5 50t-116.5 9v54q195 -5 236 -5q27 0 83 2.5t85 2.5v-54q-31 -1 -55.5 -9.5t-46.5 -29.5t-33 -34.5t-35 -45.5zM1053 1645q0 -37 -29 -65t-66 -28t-65.5 28t-28.5 65t28.5 65.5t65.5 28.5t66 -28.5t29 -65.5z
M655 1645q0 -37 -28.5 -65t-65.5 -28q-38 0 -66 28t-28 65t28 65.5t66 28.5q37 0 65.5 -28.5t28.5 -65.5z" />
    <glyph glyph-name="Zcaron" unicode="&#x17d;" horiz-adv-x="1478" 
d="M1432 348l-95 -348q-113 0 -337.5 2t-309.5 2q-106 0 -321 -2t-322 -2l1028 1346h-663q-53 0 -94.5 -13.5t-66 -32.5t-44.5 -51t-29 -56.5t-20 -62.5h-49q4 20 21.5 96t28.5 136.5t11 97.5h53q3 -16 23 -24q15 -6 30 -6h1098l-1024 -1346h598q74 0 127.5 5t96.5 19.5
t72 33t55 52.5t45 71t42 95zM797 1516h-115l-250 339h68l239 -217l240 217h68z" />
    <glyph glyph-name="zcaron" unicode="&#x17e;" horiz-adv-x="909" 
d="M283 66h297q83 1 116.5 32t108.5 160q2 3 3.5 5.5t2.5 4.5l43 -10l-57 -258h-752v16l547 824h-236q-27 0 -40.5 -0.5t-36.5 -3t-35 -8.5t-29.5 -16.5t-29 -26.5t-23.5 -40.5t-21 -56.5h-49l27 260h41q0 -30 26 -36.5t111 -6.5h528zM512 1120h-115l-250 340h68l240 -217
l239 217h68z" />
    <glyph glyph-name="florin" unicode="&#x192;" 
d="M934 920l-8 -66h-248q-21 -89 -59.5 -272.5t-64 -294t-72 -263t-101.5 -274.5q-42 -96 -107.5 -156.5t-140.5 -60.5q-46 0 -81.5 38t-35.5 89q0 37 17.5 62.5t52.5 25.5q28 0 47 -14.5t19 -42.5q0 -12 -8.5 -33t-8.5 -29q0 -13 7.5 -21.5t19.5 -8.5q21 0 38 10.5
t38.5 44.5t42 94.5t46 166t52.5 253.5l127 686h-199l10 66h201q104 540 420 540q77 0 130.5 -29.5t53.5 -95.5q0 -44 -24 -72t-68 -28q-28 0 -49 19.5t-18 41.5q0 3 4 35t4 41q0 35 -62 35q-45 0 -80 -38t-57.5 -102.5t-37 -123.5t-27.5 -130t-19 -93h246z" />
    <glyph glyph-name="circumflex" unicode="&#x2c6;" horiz-adv-x="569" 
d="M227 1460h115l250 -340h-68l-239 217l-240 -217h-68z" />
    <glyph glyph-name="caron" unicode="&#x2c7;" horiz-adv-x="569" 
d="M342 1120h-115l-250 340h68l240 -217l239 217h68z" />
    <glyph glyph-name="uni02C9" unicode="&#x2c9;" horiz-adv-x="569" 
d="M557 1188h-545v110h545v-110z" />
    <glyph glyph-name="breve" unicode="&#x2d8;" horiz-adv-x="569" 
d="M0 1430h53q7 -90 73 -148.5t159 -58.5t158.5 58.5t72.5 148.5h53q-11 -147 -81.5 -232.5t-202.5 -85.5t-203 85.5t-82 232.5z" />
    <glyph glyph-name="dotaccent" unicode="&#x2d9;" horiz-adv-x="569" 
d="M379 1249q0 -37 -28.5 -64.5t-65.5 -27.5q-38 0 -66.5 27.5t-28.5 64.5t28.5 65.5t66.5 28.5q37 0 65.5 -28.5t28.5 -65.5z" />
    <glyph glyph-name="ring" unicode="&#x2da;" horiz-adv-x="569" 
d="M86 1262q0 79 59.5 138.5t139.5 59.5q79 0 138.5 -59t59.5 -139t-58.5 -140.5t-139.5 -60.5t-140 60.5t-59 140.5zM152 1262q0 -58 37.5 -97t95.5 -39t95.5 39t37.5 97q0 57 -38 95t-95 38t-95 -38t-38 -95z" />
    <glyph glyph-name="ogonek" unicode="&#x2db;" horiz-adv-x="569" 
d="M324 0h77q-100 -83 -136 -142.5t-36 -117.5q0 -41 24.5 -66.5t57.5 -25.5q73 0 123 69l41 -20q-31 -63 -84 -98t-104 -35q-16 0 -28.5 1t-38.5 5t-45 15t-39 28.5t-31 48t-11 70.5q0 19 7.5 41.5t28.5 58.5t71 80t123 88z" />
    <glyph glyph-name="tilde" unicode="&#x2dc;" horiz-adv-x="569" 
d="M559 1370h55q-16 -89 -61.5 -151t-124.5 -62q-58 0 -162 49q-112 47 -151 47t-65.5 -27t-39.5 -69h-55q23 103 73.5 158t118.5 55q60 0 158 -43q116 -47 156 -47q42 0 62 22t36 68z" />
    <glyph glyph-name="hungarumlaut" unicode="&#x2dd;" horiz-adv-x="569" 
d="M-125 1118h-86l295 295q42 47 84 47q72 0 72 -76q0 -38 -60 -75zM254 1118h-86l293 295q42 47 84 47q71 0 71 -76q0 -39 -59 -75z" />
    <glyph glyph-name="uni03A9" unicode="&#x3a9;" horiz-adv-x="1488" 
d="M1419 281l-51 -281h-473l-14 37q12 21 51.5 89.5t62.5 110t58 116.5t55 135.5t34.5 139t14.5 152.5q-1 129 -24.5 232.5t-63 171.5t-93 113.5t-111.5 65t-122 19.5q-87 0 -159.5 -34t-130 -104t-89.5 -191t-32 -283q0 -100 20 -195.5t67.5 -198.5t74.5 -152.5t90 -155.5
q4 -7 6 -11t5.5 -9.5t6.5 -10.5l-16 -37h-469l-47 281l47 2q31 -98 62 -128t93 -30h220q-49 44 -85 80.5t-87.5 103t-85 131.5t-58 156.5t-24.5 187.5q0 147 46.5 271.5t126.5 208.5t189 131t234 47q127 0 235 -44t186 -125.5t122 -202.5t44 -269q0 -85 -23 -170.5
t-55.5 -151.5t-83.5 -137t-90.5 -116t-93.5 -101h225q67 0 94.5 27t59.5 131z" />
    <glyph glyph-name="uni03BC" unicode="&#x3bc;" 
d="M944 868v-755q0 -25 13 -32t44 -7q12 0 40 1t42 1v-43q-58 -5 -154 -27.5t-141 -36.5l-10 6v166q-112 -91 -187.5 -131.5t-174.5 -40.5q-65 0 -111 43q0 -86 15.5 -208.5t13.5 -163.5q-5 -107 -94 -107q-41 0 -61.5 30t-20.5 77q0 32 16 233.5t16 341.5v522q0 24 -3 39.5
t-14.5 33.5t-37.5 28t-67 14v39q40 1 146 7.5t118 6.5q16 0 19 -10.5t3 -48.5v-529q0 -237 178 -237q99 0 248 125v551q0 18 -26 33.5t-56 25t-74 21.5q-5 1 -8.5 2t-7.5 2v37q80 5 156.5 12t116.5 11.5t47 4.5q8 0 11.5 -5t4 -11.5t0.5 -20.5z" />
    <glyph glyph-name="pi" unicode="&#x3c0;" horiz-adv-x="1146" 
d="M1040 973l47 -19q-20 -94 -71 -170q-44 -8 -144 -8q-8 -100 -8 -502q0 -95 21.5 -142.5t70.5 -47.5q30 0 53.5 15.5t51.5 50.5l26 -37q-37 -69 -91 -103.5t-111 -34.5q-84 0 -129 57.5t-45 203.5q0 242 22 546q-246 4 -336 4v-43q0 -164 -16.5 -305.5t-40.5 -227
t-44 -134.5t-34 -66q-76 -32 -117 -35l-12 33q55 66 94.5 168t59.5 213.5t28.5 209.5t8.5 189q-66 1 -116.5 -13.5t-76.5 -31t-72 -53.5l-28 43q3 3 20 23.5t23.5 27t25 25.5t31 27.5t33.5 23t41.5 21.5t47 15.5t56.5 11.5t64 3q68 0 252 -4q188 -4 293 -4q46 0 71 14t51 56
z" />
    <glyph glyph-name="uni2010" unicode="&#x2010;" horiz-adv-x="681" 
d="M598 567l-18 -135q-123 6 -246 6q-166 0 -248 -6l18 135q123 -6 248 -6q123 0 246 6z" />
    <glyph glyph-name="endash" unicode="&#x2013;" horiz-adv-x="1024" 
d="M0 432v135h1024v-135h-1024z" />
    <glyph glyph-name="emdash" unicode="&#x2014;" horiz-adv-x="2048" 
d="M0 432v135h2048v-135h-2048z" />
    <glyph glyph-name="quoteleft" unicode="&#x2018;" horiz-adv-x="569" 
d="M412 1430l20 -50q-196 -65 -196 -200q0 -29 8 -47.5t24.5 -26.5t31 -10t38.5 -2q48 0 76 -21.5t28 -85.5q0 -54 -35 -80t-90 -26q-90 0 -140 66t-50 159q0 123 79 205t206 119z" />
    <glyph glyph-name="quoteright" unicode="&#x2019;" horiz-adv-x="569" 
d="M158 881l-21 49q197 65 197 200q0 29 -8 48t-25 26.5t-32 10t-38 2.5q-49 0 -76.5 21t-27.5 85q0 54 35 80.5t90 26.5q90 0 140 -66.5t50 -159.5q0 -123 -78.5 -204.5t-205.5 -118.5z" />
    <glyph glyph-name="quotesinglbase" unicode="&#x201a;" horiz-adv-x="569" 
d="M158 -313l-21 49q197 65 197 201q0 29 -8 47.5t-25 26.5t-31.5 10t-38.5 2q-49 0 -76.5 21t-27.5 85q0 54 35 80.5t90 26.5q90 0 140 -66.5t50 -159.5q0 -123 -78.5 -204.5t-205.5 -118.5z" />
    <glyph glyph-name="quotedblleft" unicode="&#x201c;" 
d="M487 1430l21 -50q-197 -65 -197 -200q0 -29 8 -47.5t25 -26.5t31.5 -10t38.5 -2q48 0 76 -21.5t28 -85.5q0 -54 -35 -80t-90 -26q-90 0 -140 66t-50 159q0 123 79 205.5t205 118.5zM905 1430l21 -50q-197 -65 -197 -200q0 -29 8 -47.5t24.5 -26.5t31 -10t38.5 -2
q48 0 76.5 -21.5t28.5 -85.5q0 -54 -35 -80t-90 -26q-90 0 -140 66t-50 159q0 123 79 205.5t205 118.5z" />
    <glyph glyph-name="quotedblright" unicode="&#x201d;" 
d="M651 881l-20 49q196 65 196 200q0 29 -8 48t-24.5 26.5t-31.5 10t-38 2.5q-49 0 -76.5 21t-27.5 85q0 54 34.5 80.5t89.5 26.5q90 0 140.5 -66.5t50.5 -159.5q0 -123 -79 -204.5t-206 -118.5zM233 881l-20 49q197 65 197 200q0 29 -8 48t-25 26.5t-32 10t-38 2.5
q-49 0 -76.5 21t-27.5 85q0 54 35 80.5t90 26.5q90 0 140 -66.5t50 -159.5q0 -123 -79 -204.5t-206 -118.5z" />
    <glyph glyph-name="quotedblbase" unicode="&#x201e;" 
d="M651 -313l-20 49q196 65 196 201q0 29 -8 47.5t-24.5 26.5t-31 10t-38.5 2q-49 0 -76.5 21t-27.5 85q0 54 34.5 80.5t89.5 26.5q90 0 140.5 -66.5t50.5 -159.5q0 -123 -79 -204.5t-206 -118.5zM233 -313l-20 49q197 65 197 201q0 29 -8 47.5t-25 26.5t-31.5 10t-38.5 2
q-49 0 -76.5 21t-27.5 85q0 54 35 80.5t90 26.5q90 0 140 -66.5t50 -159.5q0 -123 -79 -204.5t-206 -118.5z" />
    <glyph glyph-name="dagger" unicode="&#x2020;" 
d="M629 1090v-172h80q189 0 307 14q-6 -34 -6 -68q3 -32 6 -63q-215 20 -387 20v-329q0 -161 6.5 -465.5t7.5 -397.5h-4q-54 6 -70 6q-17 0 -71 -6h-4q1 93 7.5 397.5t6.5 465.5v329q-172 0 -387 -20q3 31 6 63q0 34 -6 68q85 -8 139 -10q102 -4 168 -4h80v172
q0 145 -14 346q5 0 32.5 -3t42.5 -3q11 0 23.5 1t27.5 2.5t23 2.5q-14 -201 -14 -346z" />
    <glyph glyph-name="daggerdbl" unicode="&#x2021;" 
d="M508 166v127q0 97 -3.5 140t-19.5 87v4q23 74 23 211v148q-124 0 -379 -15q4 40 4 66q0 23 -4 63q239 -18 379 -18q2 17 0 100.5t-4 129.5t-5.5 128.5t-4.5 98.5q44 -6 77 -6q12 0 72 6q-1 -16 -4.5 -98.5t-5.5 -128.5t-4 -129.5t0 -100.5q141 0 379 18q-4 -40 -4 -63
q0 -26 4 -66q-255 15 -379 15v-148q0 -140 22 -211v-4q-11 -32 -16 -67.5t-5.5 -60t-0.5 -89.5v-137q141 0 379 18q-4 -40 -4 -63q0 -26 4 -66q-255 15 -379 15q0 -91 14 -441q-11 0 -34 3t-34 3q-13 0 -26.5 -1t-29.5 -2.5t-25 -2.5q14 350 14 441q-124 0 -379 -15
q4 40 4 66q0 23 -4 63q238 -18 379 -18z" />
    <glyph glyph-name="bullet" unicode="&#x2022;" horiz-adv-x="1024" 
d="M512 1073q148 0 253 -104.5t105 -253.5q0 -148 -105 -253.5t-253 -105.5q-149 0 -253.5 105.5t-104.5 253.5q0 149 104.5 253.5t253.5 104.5z" />
    <glyph glyph-name="ellipsis" unicode="&#x2026;" horiz-adv-x="2048" 
d="M1704 -31q-55 0 -95 39t-40 94q0 54 40.5 96t94.5 42t94.5 -41.5t40.5 -96.5t-39.5 -94t-95.5 -39zM1024 -31q-55 0 -95 39t-40 94q0 54 40.5 96t94.5 42t94.5 -41.5t40.5 -96.5t-39.5 -94t-95.5 -39zM344 -31q-55 0 -95 39t-40 94q0 54 40.5 96t94.5 42t94.5 -41.5
t40.5 -96.5t-39.5 -94t-95.5 -39z" />
    <glyph glyph-name="perthousand" unicode="&#x2030;" horiz-adv-x="2048" 
d="M662 1120q0 -145 -83 -240.5t-219 -95.5q-140 0 -214 93.5t-74 230.5q0 145 82.5 240.5t218.5 95.5q140 0 214.5 -93.5t74.5 -230.5zM510 1124q0 32 -1 53t-4.5 57t-13 59.5t-24 48t-40 37t-58.5 12.5q-146 0 -146 -287q0 -31 1 -53t5 -57t13 -59t24 -48t40.5 -36.5
t58.5 -12.5q145 0 145 286zM1296 305q0 -145 -82.5 -240.5t-218.5 -95.5q-140 0 -214 93.5t-74 230.5q0 145 82.5 240.5t218.5 95.5q140 0 214 -93.5t74 -230.5zM1145 309q0 32 -1 53t-4.5 56.5t-13 59.5t-24 48t-40 36.5t-58.5 12.5q-146 0 -146 -286q0 -32 1 -53
t4.5 -56.5t13 -59.5t24 -48t40 -36.5t58.5 -12.5q146 0 146 286zM1976 305q0 -145 -82.5 -240.5t-218.5 -95.5q-140 0 -214.5 93.5t-74.5 230.5q0 145 83 240.5t219 95.5q140 0 214 -93.5t74 -230.5zM1825 309q0 31 -1 53t-5 57t-13 59t-24 48t-40.5 36.5t-58.5 12.5
q-145 0 -145 -286q0 -32 1 -53t4.5 -56.5t13 -59.5t24 -48t40 -36.5t58.5 -12.5q146 0 146 286zM264 -49h-94l928 1511h94z" />
    <glyph glyph-name="guilsinglleft" unicode="&#x2039;" horiz-adv-x="569" 
d="M96 500l342 334l35 -29l-213 -305l213 -305l-35 -29z" />
    <glyph glyph-name="guilsinglright" unicode="&#x203a;" horiz-adv-x="569" 
d="M473 500l-342 -334l-35 29l213 305l-213 305l35 29z" />
    <glyph glyph-name="fraction" unicode="&#x2044;" horiz-adv-x="342" 
d="M-244 -47h-94l924 1507h94z" />
    <glyph glyph-name="Euro" unicode="&#x20ac;" 
d="M57 598h113q-4 70 -4 107v53h-125l16 84h117q13 94 42.5 182t77.5 168t110.5 139t146.5 94t180 35q181 0 346 -84l21 -293h-51q-53 312 -306 312q-42 0 -83 -11.5t-85 -35.5t-82 -67.5t-70 -102.5t-53 -145.5t-28 -190.5h590l-17 -84h-575q0 -72 10 -160h531l-17 -84
h-502q18 -96 51 -175.5t83 -145.5t124 -103t164 -37q171 0 299 119l33 -39q-69 -74 -171.5 -119t-209.5 -45q-120 0 -218 44t-164 121t-108 172.5t-61 207.5h-141z" />
    <glyph glyph-name="afii61289" unicode="&#x2113;" horiz-adv-x="821" 
d="M748 225l36 -32q-117 -220 -327 -220q-134 0 -201 80q-36 47 -52 112.5t-16 184.5v178l-125 -96l-24 45l149 123v260q0 264 20.5 374t86.5 185q72 90 166 90q84 0 130 -77t46 -191q0 -171 -80 -319.5t-221 -294.5v-199q0 -134 23.5 -213t62.5 -108t100 -29q130 0 226 147
zM336 985v-270q92 111 148.5 250.5t56.5 273.5q0 94 -25.5 152.5t-73.5 58.5q-58 0 -82 -106t-24 -359z" />
    <glyph glyph-name="trademark" unicode="&#x2122;" horiz-adv-x="2027" 
d="M494 1389v-666q0 -48 15 -59.5t85 -20.5v-41h-352v41q70 9 85 20.5t15 59.5v666h-98q-109 0 -138 -140h-40v181h704v-181h-41q-29 140 -135 140h-100zM1364 602l-305 623h-4v-449q0 -70 20.5 -98t87.5 -35v-41h-268v41q65 7 85.5 35t20.5 98v510q-19 44 -58 72t-83 28v44
h248l315 -633l328 633h211v-44q-61 -3 -85 -29t-24 -81v-553q0 -48 15.5 -59.5t85.5 -20.5v-41h-352v41q70 9 85 20.5t15 59.5v506h-4l-312 -627h-22z" />
    <glyph glyph-name="Omega" unicode="&#x2126;" horiz-adv-x="1488" 
d="M1419 281l-51 -281h-473l-14 37q12 21 51.5 89.5t62.5 110t58 116.5t55 135.5t34.5 139t14.5 152.5q-1 129 -24.5 232.5t-63 171.5t-93 113.5t-111.5 65t-122 19.5q-87 0 -159.5 -34t-130 -104t-89.5 -191t-32 -283q0 -100 20 -195.5t67.5 -198.5t74.5 -152.5t90 -155.5
q4 -7 6 -11t5.5 -9.5t6.5 -10.5l-16 -37h-469l-47 281l47 2q31 -98 62 -128t93 -30h220q-49 44 -85 80.5t-87.5 103t-85 131.5t-58 156.5t-24.5 187.5q0 147 46.5 271.5t126.5 208.5t189 131t234 47q127 0 235 -44t186 -125.5t122 -202.5t44 -269q0 -85 -23 -170.5
t-55.5 -151.5t-83.5 -137t-90.5 -116t-93.5 -101h225q67 0 94.5 27t59.5 131z" />
    <glyph glyph-name="estimated" unicode="&#x212e;" horiz-adv-x="1775" 
d="M1704 684h-1323q-12 0 -12 -8v-402q0 -24 18 -45q99 -102 228 -159.5t272 -57.5q155 0 291.5 65t236.5 179h117q-111 -131 -281.5 -208t-365.5 -77q-166 0 -317 58t-260 156.5t-173.5 234t-64.5 285.5q0 201 109 370t296.5 267t409.5 98q168 0 319.5 -58t261 -156
t174 -234.5t64.5 -286.5v-21zM1403 737v404q0 28 -19 47q-100 98 -227.5 153.5t-269.5 55.5q-141 0 -270 -57t-228 -158q-20 -20 -20 -52v-393q0 -12 12 -12h1014q8 0 8 12z" />
    <glyph glyph-name="partialdiff" unicode="&#x2202;" horiz-adv-x="1071" 
d="M532 883h5q76 0 154 -38.5t128 -111.5q15 170 15 217q7 171 -56 330q-34 84 -110.5 148.5t-167.5 64.5q-137 0 -277 -115q-24 -3 -46.5 40.5t-10.5 76.5q134 86 285 86q139 0 240 -74.5t175 -216.5q99 -196 99 -477q0 -129 -23.5 -271t-73.5 -253q-143 -316 -409 -316
q-167 0 -268 112t-101 304q0 100 33 188.5t86 151.5q56 68 143 111t180 43zM573 807h-2q-139 0 -231 -123q-92 -140 -92 -371q-2 -118 55.5 -199t153.5 -81q80 0 142 62t103 155q42 90 63 176.5t40 222.5q-26 54 -90.5 106t-141.5 52z" />
    <glyph glyph-name="Delta" unicode="&#x2206;" horiz-adv-x="1288" 
d="M1212 0h-1140v45l528 1374l70 23l542 -1397v-45zM1018 88l-426 1116l-418 -1116h844z" />
    <glyph glyph-name="product" unicode="&#x220f;" horiz-adv-x="1382" 
d="M1325 1423v-49q-47 -4 -75 -7t-51 -10.5t-33.5 -14.5t-17.5 -23t-8 -32t-1 -46v-1216q0 -51 4 -75.5t24.5 -43t53.5 -24.5t100 -11v-49h-508v49q45 3 69.5 5.5t47 9.5t31.5 15t16.5 27t8.5 39.5t1 57.5v1269q0 42 -13.5 54t-58.5 12h-452q-44 0 -56 -9.5t-12 -47.5v-1278
q0 -38 0.5 -54t5.5 -37t13.5 -27.5t27.5 -16t44 -12.5t67 -7v-49h-492v49q45 3 71 6t48.5 10.5t33 16.5t18 27t9 38.5t1.5 55.5v1216q0 30 -1.5 47t-9 32.5t-17.5 22.5t-33.5 14t-50.5 10t-75 7v49h1270z" />
    <glyph glyph-name="summation" unicode="&#x2211;" horiz-adv-x="1124" 
d="M1073 186l-86 -370h-928v45l461 727l-450 790v45h917q1 -15 5.5 -67t11 -126.5t10.5 -129.5l-53 -10q-22 135 -64 208q-21 37 -61.5 50.5t-151.5 13.5h-416l391 -674l-458 -735h538q51 0 77 1.5t56 10.5t44.5 22.5t34.5 44t34.5 68t36.5 101.5z" />
    <glyph glyph-name="minus" unicode="&#x2212;" 
d="M1022 385h-905v135h905v-135z" />
    <glyph glyph-name="uni2215" unicode="&#x2215;" horiz-adv-x="342" 
d="M-244 -47h-94l924 1507h94z" />
    <glyph glyph-name="uni2219" unicode="&#x2219;" horiz-adv-x="569" 
d="M420 598q0 -53 -40 -94t-93 -41q-57 0 -97 39.5t-40 95.5q0 57 39.5 96t95.5 39q55 0 95 -39.5t40 -95.5z" />
    <glyph glyph-name="radical" unicode="&#x221a;" horiz-adv-x="1118" 
d="M1079 1831l-334 -2126l-38 -22l-447 1134l-176 -86l-23 64l304 143l354 -928h4l283 1839z" />
    <glyph glyph-name="infinity" unicode="&#x221e;" horiz-adv-x="1540" 
d="M1440 590v-2q0 -142 -90.5 -231t-214.5 -89q-90 0 -174 55.5t-189 180.5q-37 -43 -64 -71.5t-66 -63t-73.5 -54t-79.5 -33.5t-92 -14q-123 0 -211 90.5t-88 223.5q0 138 89.5 227.5t224.5 89.5q103 0 188.5 -61t177.5 -172q93 103 134 138q112 95 235 95q129 0 211 -85.5
t82 -223.5zM412 369h2q23 0 46.5 6.5t41.5 13t42 24t36.5 27t37.5 34.5l33 33t34 37.5t30 33.5q-36 46 -53.5 67t-53.5 58t-63 54t-66 31.5t-80 14.5q-90 0 -143 -64.5t-51 -158.5q0 -89 58 -150t149 -61zM1137 803h-2q-37 0 -73.5 -14t-72.5 -43.5t-57.5 -50t-57 -61
t-43.5 -48.5q107 -121 171.5 -169t138.5 -48q87 0 140.5 65t53.5 148q0 101 -55 161t-143 60z" />
    <glyph glyph-name="integral" unicode="&#x222b;" horiz-adv-x="749" 
d="M330 41l-41 852q-9 201 3 353.5t39 244.5t69 149.5t87 78t101 20.5q42 0 79 -23.5t38 -64.5q0 -38 -24 -59t-58 -21q-21 0 -36 13.5t-22.5 29.5t-19 29.5t-27.5 13.5q-15 0 -28.5 -8.5t-27.5 -33t-23.5 -62.5t-13.5 -102t-1 -146l37 -799q10 -160 4.5 -286t-17 -221
t-35 -164t-49 -114t-60.5 -71.5t-68.5 -37.5t-73.5 -11q-51 0 -84 27t-33 65q-1 36 27.5 61t68.5 25q18 0 31.5 -14t21 -31t19.5 -31t27 -14q49 0 73.5 95.5t16.5 256.5z" />
    <glyph glyph-name="approxequal" unicode="&#x2248;" horiz-adv-x="1105" 
d="M950 874l68 -59q-100 -190 -258 -190q-55 0 -101.5 18.5t-128.5 63.5q-107 67 -180 67q-62 0 -105.5 -37.5t-90.5 -109.5l-70 57q45 89 118 139.5t160 50.5q23 0 46.5 -4.5t39.5 -8.5t40.5 -15t32.5 -15.5t33.5 -18.5t27.5 -15q8 -4 32.5 -18t32 -18t26.5 -13t30 -12
t27.5 -6t33.5 -3q56 0 99 36t87 111zM950 535l68 -60q-100 -190 -258 -190q-39 0 -78 11.5t-67 25t-85 45.5q-40 23 -61.5 34t-55 22t-63.5 11q-64 0 -107.5 -38.5t-88.5 -110.5l-70 57q45 89 118 141t158 52q28 0 53.5 -4.5t52.5 -15.5t40 -17t42 -22.5t32 -18.5
q8 -4 31 -17.5t31 -17.5t27 -13t31 -12.5t29.5 -6.5t34.5 -3q57 0 98.5 35.5t87.5 112.5z" />
    <glyph glyph-name="notequal" unicode="&#x2260;" horiz-adv-x="1105" 
d="M788 1014l-86 -191h304v-104h-344l-132 -285h476v-104h-517l-104 -232l-84 37l88 195h-289v104h332l129 285h-461v104h502l105 228z" />
    <glyph glyph-name="lessequal" unicode="&#x2264;" horiz-adv-x="1105" 
d="M1001 205l-890 448v109l888 448v-125l-778 -374v-4l780 -379v-123zM1006 18h-906v107h906v-107z" />
    <glyph glyph-name="greaterequal" unicode="&#x2265;" horiz-adv-x="1105" 
d="M113 1210l888 -448v-109l-888 -448v123l778 379v4l-778 374v125zM1004 18h-902v107h902v-107z" />
    <glyph glyph-name="lozenge" unicode="&#x25ca;" horiz-adv-x="1132" 
d="M1032 686l-405 -827h-121l-406 827l408 836h119zM913 686l-342 719h-6l-346 -715l346 -719h6z" />
    <glyph glyph-name="A.sc" unicode="&#xe000;" 
d="M659 0v53h25q42 0 72 12.5t30 36.5q0 25 -16 68l-76 207h-348l-45 -133q-1 -3 -11.5 -35t-17 -56.5t-6.5 -41.5q0 -32 33.5 -45t73.5 -13h24v-53q-140 4 -209 4q-58 0 -168 -4v53q71 0 104 23.5t48 62.5l293 748q20 50 20 67q0 9 -4 29l158 59l307 -868
q25 -72 58.5 -96.5t113.5 -24.5v-53q-156 4 -229 4q-78 0 -230 -4zM672 442l-148 414h-4l-149 -414h301z" />
    <glyph glyph-name="AE.sc" unicode="&#xe001;" horiz-adv-x="1593" 
d="M764 545v354q0 39 -12 39q-4 0 -8.5 -4t-11.5 -13.5t-12 -18t-15 -26t-17 -28.5l-174 -303h250zM764 143v340h-287l-115 -198q-6 -11 -16 -28.5t-15.5 -27.5t-13.5 -24t-12.5 -22.5t-10.5 -19.5t-9 -17.5t-6 -14t-4 -13t-1 -9.5q0 -20 10 -32t30.5 -17t36.5 -6t44 -1v-53
q-136 4 -202 4q-59 0 -173 -4v53q72 0 119 35t117 152l334 559q57 92 57 121q0 11 -7 17.5t-23.5 9t-26 3t-31.5 0.5h-55v54q357 -5 385 -5q89 0 504 5l12 -218h-43q-18 103 -63.5 127.5t-206.5 24.5h-152v-387h170q28 0 41.5 1.5t31.5 8.5t26 21.5t14 42.5t6 69h53
q-4 -106 -4 -164q0 -56 4 -170h-53q0 81 -23 103t-96 22h-170v-299q0 -67 46.5 -93.5t172.5 -26.5q54 0 88.5 2t63 10.5t43.5 17t30.5 30.5t24 41.5t23.5 59.5h51l-49 -227q-266 4 -426 4q-134 0 -396 -4v53q80 0 116 17.5t36 72.5z" />
    <glyph glyph-name="Aacute.sc" unicode="&#xe002;" 
d="M659 0v53h25q42 0 72 12.5t30 36.5q0 25 -16 68l-76 207h-348l-45 -133q-1 -3 -11.5 -35t-17 -56.5t-6.5 -41.5q0 -32 33.5 -45t73.5 -13h24v-53q-140 4 -209 4q-58 0 -168 -4v53q71 0 104 23.5t48 62.5l293 748q20 50 20 67q0 9 -4 29l158 59l307 -868
q25 -72 58.5 -96.5t113.5 -24.5v-53q-156 4 -229 4q-78 0 -230 -4zM672 442l-148 414h-4l-149 -414h301zM471 1075h-72l275 273q3 3 15 15.5t17 17t16.5 14t19 13.5t18.5 7.5t22 3.5q26 0 46 -19.5t20 -41.5q0 -49 -35 -70z" />
    <glyph glyph-name="Acircumflex.sc" unicode="&#xe003;" 
d="M659 0v53h25q42 0 72 12.5t30 36.5q0 25 -16 68l-76 207h-348l-45 -133q-1 -3 -11.5 -35t-17 -56.5t-6.5 -41.5q0 -32 33.5 -45t73.5 -13h24v-53q-140 4 -209 4q-58 0 -168 -4v53q71 0 104 23.5t48 62.5l293 748q20 50 20 67q0 9 -4 29l158 59l307 -868
q25 -72 58.5 -96.5t113.5 -24.5v-53q-156 4 -229 4q-78 0 -230 -4zM672 442l-148 414h-4l-149 -414h301zM512 1419h115l250 -340h-68l-240 217l-239 -217h-68z" />
    <glyph glyph-name="Adieresis.sc" unicode="&#xe004;" 
d="M659 0v53h25q42 0 72 12.5t30 36.5q0 25 -16 68l-76 207h-348l-45 -133q-1 -3 -11.5 -35t-17 -56.5t-6.5 -41.5q0 -32 33.5 -45t73.5 -13h24v-53q-140 4 -209 4q-58 0 -168 -4v53q71 0 104 23.5t48 62.5l293 748q20 50 20 67q0 9 -4 29l158 59l307 -868
q25 -72 58.5 -96.5t113.5 -24.5v-53q-156 4 -229 4q-78 0 -230 -4zM672 442l-148 414h-4l-149 -414h301zM862 1208q0 -37 -28.5 -64.5t-65.5 -27.5t-65.5 27.5t-28.5 64.5t28.5 66t65.5 29t65.5 -29t28.5 -66zM465 1208q0 -37 -28.5 -64.5t-65.5 -27.5q-38 0 -66.5 27.5
t-28.5 64.5t28.5 66t66.5 29q37 0 65.5 -29t28.5 -66z" />
    <glyph glyph-name="Agrave.sc" unicode="&#xe005;" 
d="M659 0v53h25q42 0 72 12.5t30 36.5q0 25 -16 68l-76 207h-348l-45 -133q-1 -3 -11.5 -35t-17 -56.5t-6.5 -41.5q0 -32 33.5 -45t73.5 -13h24v-53q-140 4 -209 4q-58 0 -168 -4v53q71 0 104 23.5t48 62.5l293 748q20 50 20 67q0 9 -4 29l158 59l307 -868
q25 -72 58.5 -96.5t113.5 -24.5v-53q-156 4 -229 4q-78 0 -230 -4zM672 442l-148 414h-4l-149 -414h301zM739 1075h-71l-342 213q-35 21 -35 70q0 22 19.5 41.5t45.5 19.5q11 0 22 -3.5t18.5 -7t20 -14t16 -14l17.5 -17.5l15 -15z" />
    <glyph glyph-name="Aring.sc" unicode="&#xe006;" 
d="M659 0v53h25q42 0 72 12.5t30 36.5q0 25 -16 68l-76 207h-348l-45 -133q-1 -3 -11.5 -35t-17 -56.5t-6.5 -41.5q0 -32 33.5 -45t73.5 -13h24v-53q-140 4 -209 4q-58 0 -168 -4v53q71 0 104 23.5t48 62.5l293 748q20 50 20 67q0 9 -4 29l158 59l307 -868
q25 -72 58.5 -96.5t113.5 -24.5v-53q-156 4 -229 4q-78 0 -230 -4zM672 442l-148 414h-4l-149 -414h301zM371 1262q0 80 59.5 139t138.5 59q80 0 139.5 -59.5t59.5 -138.5q0 -80 -59 -140.5t-140 -60.5t-139.5 60.5t-58.5 140.5zM436 1262q0 -58 37.5 -97t95.5 -39t95.5 39
t37.5 97q0 57 -38 95t-95 38t-95 -38t-38 -95z" />
    <glyph glyph-name="Atilde.sc" unicode="&#xe007;" 
d="M659 0v53h25q42 0 72 12.5t30 36.5q0 25 -16 68l-76 207h-348l-45 -133q-1 -3 -11.5 -35t-17 -56.5t-6.5 -41.5q0 -32 33.5 -45t73.5 -13h24v-53q-140 4 -209 4q-58 0 -168 -4v53q71 0 104 23.5t48 62.5l293 748q20 50 20 67q0 9 -4 29l158 59l307 -868
q25 -72 58.5 -96.5t113.5 -24.5v-53q-156 4 -229 4q-78 0 -230 -4zM672 442l-148 414h-4l-149 -414h301zM844 1329h55q-16 -89 -61.5 -151t-124.5 -62q-58 0 -162 49q-112 47 -152 47q-74 0 -104 -96h-55q23 103 73.5 158t118.5 55q60 0 158 -43q116 -47 155 -47
q42 0 62.5 22t36.5 68z" />
    <glyph glyph-name="B.sc" unicode="&#xe008;" 
d="M252 143v717q0 55 -36 72.5t-116 17.5v54q210 -5 252 -5q36 0 107 2.5t106 2.5q33 0 59.5 -1t65 -6t67.5 -13.5t61 -25t52.5 -39t34 -57.5t13.5 -78q0 -46 -14.5 -81.5t-35 -57.5t-57.5 -40.5t-67.5 -28t-79.5 -21.5v-4q85 -7 144.5 -22t109.5 -45t75 -81.5t25 -126.5
q0 -122 -104 -199t-281 -77q-38 0 -131 2t-137 2q-101 0 -265 -4v53q80 0 116 17.5t36 72.5zM428 508v-367q0 -18 6 -31.5t20 -21.5t26 -13t34.5 -6.5t34.5 -2t37 -0.5q38 0 65.5 2.5t63.5 14.5t58.5 33t39 61t16.5 95q0 58 -19 101.5t-48 68.5t-69 40.5t-75.5 20.5t-74.5 5
h-115zM428 932v-359h84q110 0 169.5 55.5t59.5 139.5q0 35 -9 63t-21 45.5t-32.5 30t-37 18.5t-41 9t-36.5 3.5t-32 0.5q-29 0 -104 -6z" />
    <glyph glyph-name="C.sc" unicode="&#xe009;" 
d="M1049 276l-39 -233q-20 -6 -61.5 -19.5t-56.5 -18t-46.5 -12.5t-53 -10.5t-53 -5t-67.5 -2.5q-265 0 -418.5 147.5t-153.5 379.5q0 158 76 279t203 184t283 63q87 0 188 -26t180 -29l12 -238h-47q0 17 -8 42t-29.5 58.5t-54 61t-88.5 47t-125 19.5q-56 0 -110 -13.5
t-107.5 -45.5t-93.5 -80t-65 -124t-25 -170q0 -119 46.5 -229.5t138.5 -185t208 -74.5q114 0 190 52.5t123 189.5z" />
    <glyph glyph-name="Ccedilla.sc" unicode="&#xe00a;" 
d="M1049 276l-39 -233q-21 -6 -59.5 -18.5t-54 -17t-45.5 -12.5t-51 -11t-50.5 -6t-63.5 -3l-51 -106l4 -4q27 18 66 18q65 0 112 -41.5t47 -105.5q0 -60 -36.5 -100.5t-87 -56t-109.5 -15.5q-106 0 -180 30l28 62q92 -27 129 -27q47 0 84 23t37 65q0 37 -26.5 59.5
t-65.5 22.5t-74 -12l-28 10l81 178q-241 18 -378.5 163.5t-137.5 363.5q0 158 76 279t203 184t283 63q87 0 188 -26t180 -29l12 -238h-47q0 17 -8 42t-29.5 58.5t-54 61t-88.5 47t-125 19.5q-56 0 -110 -13.5t-107.5 -45.5t-93.5 -80t-65 -124t-25 -170q0 -119 46.5 -229.5
t138.5 -185t208 -74.5q114 0 190 52.5t123 189.5z" />
    <glyph glyph-name="D.sc" unicode="&#xe00b;" horiz-adv-x="1366" 
d="M252 143v717q0 55 -36 72.5t-116 17.5v54q190 -5 246 -5q52 0 156 2.5t155 2.5q119 0 218.5 -28.5t167 -76.5t114 -112t67.5 -133t21 -142q0 -112 -34 -201.5t-90 -146.5t-134.5 -95t-162 -53.5t-177.5 -15.5q-46 0 -139.5 2t-132.5 2q-91 0 -275 -4v53q80 0 116 17.5
t36 72.5zM428 932v-737q0 -43 11 -70t35.5 -39.5t49.5 -16t68 -3.5q66 0 123.5 9t120 36.5t106.5 72t73 122.5t29 181q0 97 -23 177.5t-69.5 142.5t-122.5 96.5t-176 34.5q-36 0 -225 -6z" />
    <glyph glyph-name="E.sc" unicode="&#xe00c;" horiz-adv-x="1024" 
d="M975 227l-64 -227q-294 4 -440 4q-133 0 -395 -4v53q80 0 115.5 17.5t35.5 72.5v717q0 55 -35.5 72.5t-115.5 17.5v54q230 -5 276 -5q89 0 504 5l12 -218h-43q-18 103 -63.5 127.5t-206.5 24.5h-152v-387h170q47 0 68 2.5t43 16t29.5 43t7.5 81.5h53q-4 -106 -4 -164
q0 -56 4 -170h-53q0 82 -27 103.5t-121 21.5h-170v-299q0 -67 47 -93.5t173 -26.5q54 0 88.5 1.5t64 11t45 16.5t36 31t31.5 41t36 60h51z" />
    <glyph glyph-name="Eacute.sc" unicode="&#xe00d;" horiz-adv-x="1024" 
d="M975 227l-64 -227q-294 4 -440 4q-133 0 -395 -4v53q80 0 115.5 17.5t35.5 72.5v717q0 55 -35.5 72.5t-115.5 17.5v54q230 -5 276 -5q89 0 504 5l12 -218h-43q-18 103 -63.5 127.5t-206.5 24.5h-152v-387h170q47 0 68 2.5t43 16t29.5 43t7.5 81.5h53q-4 -106 -4 -164
q0 -56 4 -170h-53q0 82 -27 103.5t-121 21.5h-170v-299q0 -67 47 -93.5t173 -26.5q54 0 88.5 1.5t64 11t45 16.5t36 31t31.5 41t36 60h51zM414 1075h-72l274 273l15 15l17.5 17.5t16 14t20 14t18.5 7t22 3.5q27 0 46.5 -19.5t19.5 -41.5q0 -49 -35 -70z" />
    <glyph glyph-name="Ecircumflex.sc" unicode="&#xe00e;" horiz-adv-x="1024" 
d="M975 227l-64 -227q-294 4 -440 4q-133 0 -395 -4v53q80 0 115.5 17.5t35.5 72.5v717q0 55 -35.5 72.5t-115.5 17.5v54q230 -5 276 -5q89 0 504 5l12 -218h-43q-18 103 -63.5 127.5t-206.5 24.5h-152v-387h170q47 0 68 2.5t43 16t29.5 43t7.5 81.5h53q-4 -106 -4 -164
q0 -56 4 -170h-53q0 82 -27 103.5t-121 21.5h-170v-299q0 -67 47 -93.5t173 -26.5q54 0 88.5 1.5t64 11t45 16.5t36 31t31.5 41t36 60h51zM455 1419h114l250 -340h-67l-240 217l-240 -217h-67z" />
    <glyph glyph-name="Edieresis.sc" unicode="&#xe00f;" horiz-adv-x="1024" 
d="M975 227l-64 -227q-294 4 -440 4q-133 0 -395 -4v53q80 0 115.5 17.5t35.5 72.5v717q0 55 -35.5 72.5t-115.5 17.5v54q230 -5 276 -5q89 0 504 5l12 -218h-43q-18 103 -63.5 127.5t-206.5 24.5h-152v-387h170q47 0 68 2.5t43 16t29.5 43t7.5 81.5h53q-4 -106 -4 -164
q0 -56 4 -170h-53q0 82 -27 103.5t-121 21.5h-170v-299q0 -67 47 -93.5t173 -26.5q54 0 88.5 1.5t64 11t45 16.5t36 31t31.5 41t36 60h51zM805 1208q0 -37 -28.5 -64.5t-65.5 -27.5t-66 28t-29 64q0 37 29 66t66 29t65.5 -29t28.5 -66zM408 1208q0 -36 -29 -64t-66 -28
q-38 0 -66 27.5t-28 64.5t28 66t66 29q37 0 66 -29t29 -66z" />
    <glyph glyph-name="Egrave.sc" unicode="&#xe010;" horiz-adv-x="1024" 
d="M975 227l-64 -227q-294 4 -440 4q-133 0 -395 -4v53q80 0 115.5 17.5t35.5 72.5v717q0 55 -35.5 72.5t-115.5 17.5v54q230 -5 276 -5q89 0 504 5l12 -218h-43q-18 103 -63.5 127.5t-206.5 24.5h-152v-387h170q47 0 68 2.5t43 16t29.5 43t7.5 81.5h53q-4 -106 -4 -164
q0 -56 4 -170h-53q0 82 -27 103.5t-121 21.5h-170v-299q0 -67 47 -93.5t173 -26.5q54 0 88.5 1.5t64 11t45 16.5t36 31t31.5 41t36 60h51zM700 1075h-71l-342 213q-35 21 -35 70q0 22 19.5 41.5t45.5 19.5q11 0 22 -3.5t18.5 -7t20 -14t16 -14l17.5 -17.5l15 -15z" />
    <glyph glyph-name="Eth.sc" unicode="&#xe011;" horiz-adv-x="1366" 
d="M252 143v342h-152v66h152v309q0 55 -36 72.5t-116 17.5v54q190 -5 246 -5q52 0 156 2.5t155 2.5q119 0 218.5 -28.5t167 -76.5t114 -112t67.5 -133t21 -142q0 -112 -34 -201.5t-90 -146.5t-134.5 -95t-162 -53.5t-177.5 -15.5q-46 0 -139.5 2t-132.5 2q-91 0 -275 -4v53
q80 0 116 17.5t36 72.5zM428 485v-290q0 -43 11 -70t35.5 -39.5t49.5 -16t68 -3.5q66 0 123.5 9t120 36.5t106.5 72t73 122.5t29 181q0 97 -23 177.5t-69.5 142.5t-122.5 96.5t-176 34.5q-36 0 -225 -6v-381h342v-66h-342z" />
    <glyph glyph-name="F.sc" unicode="&#xe012;" horiz-adv-x="1024" 
d="M252 143v717q0 55 -36 72.5t-116 17.5v54q332 -5 398 -5q134 0 432 5l8 -226h-41q-20 104 -65.5 132t-184.5 28h-219v-387h193q37 0 55 1t40 7.5t30.5 20t15 37.5t6.5 61h53q-4 -106 -4 -164q0 -56 4 -170h-53q0 50 -5 76.5t-23.5 42t-43.5 19t-75 3.5h-193v-301
q0 -78 32 -104.5t109 -26.5h43v-53q-160 4 -276 4q-80 0 -236 -4v53q80 0 116 17.5t36 72.5z" />
    <glyph glyph-name="G.sc" unicode="&#xe013;" horiz-adv-x="1251" 
d="M1077 975l17 -244h-45q-15 33 -22.5 49t-25 45.5t-31.5 45t-39 36t-51.5 31t-64.5 18t-82 7.5q-86 0 -158.5 -27t-130 -81t-90 -145t-32.5 -210q0 -60 13 -120.5t45.5 -122.5t80 -109.5t123.5 -77t170 -29.5q67 0 145 33q0 8 2 75t2 82q0 47 -4.5 72t-21.5 43.5
t-47.5 24.5t-84.5 6v53q234 -6 244 -6q14 0 197 6v-53q-73 0 -96 -15t-23 -67v-131q0 -18 0.5 -27t4 -21.5t11.5 -20t21 -11.5v-39q-251 -70 -422 -70q-121 0 -226.5 41t-178.5 111t-114.5 165t-41.5 202q0 120 44.5 221t122 169.5t183 106t225.5 37.5q49 0 193 -18
q66 -10 188 -35z" />
    <glyph glyph-name="H.sc" unicode="&#xe014;" horiz-adv-x="1366" 
d="M227 143v717q0 55 -35.5 72.5t-115.5 17.5v54q195 -5 235 -5q54 0 244 5v-54q-40 0 -63 -2.5t-46 -11t-33 -27.5t-10 -49v-309h560v309q0 30 -10 49t-33 27.5t-46 11t-63 2.5v54q190 -5 244 -5q40 0 235 5v-54q-80 0 -115.5 -17.5t-35.5 -72.5v-717q0 -55 35.5 -72.5
t115.5 -17.5v-53q-156 4 -235 4q-92 0 -244 -4v53q40 0 63 2.5t46 11t33 27.5t10 49v342h-560v-342q0 -30 10 -49t33 -27.5t46 -11t63 -2.5v-53q-152 4 -244 4q-79 0 -235 -4v53q80 0 115.5 17.5t35.5 72.5z" />
    <glyph glyph-name="I.sc" unicode="&#xe015;" horiz-adv-x="679" 
d="M252 143v717q0 55 -36 72.5t-116 17.5v54q195 -5 236 -5q54 0 244 5v-54q-80 0 -116 -17.5t-36 -72.5v-717q0 -55 36 -72.5t116 -17.5v-53q-152 4 -244 4q-80 0 -236 -4v53q80 0 116 17.5t36 72.5z" />
    <glyph glyph-name="Iacute.sc" unicode="&#xe016;" horiz-adv-x="679" 
d="M252 143v717q0 55 -36 72.5t-116 17.5v54q195 -5 236 -5q54 0 244 5v-54q-80 0 -116 -17.5t-36 -72.5v-717q0 -55 36 -72.5t116 -17.5v-53q-152 4 -244 4q-80 0 -236 -4v53q80 0 116 17.5t36 72.5zM242 1075h-72l274 273l15 15l17.5 17.5t16 14t20 14t18.5 7t22 3.5
q26 0 45.5 -19.5t19.5 -41.5q0 -50 -34 -70z" />
    <glyph glyph-name="Icircumflex.sc" unicode="&#xe017;" horiz-adv-x="679" 
d="M252 143v717q0 55 -36 72.5t-116 17.5v54q195 -5 236 -5q54 0 244 5v-54q-80 0 -116 -17.5t-36 -72.5v-717q0 -55 36 -72.5t116 -17.5v-53q-152 4 -244 4q-80 0 -236 -4v53q80 0 116 17.5t36 72.5zM283 1419h114l250 -340h-67l-240 217l-240 -217h-67z" />
    <glyph glyph-name="Idieresis.sc" unicode="&#xe018;" horiz-adv-x="679" 
d="M252 143v717q0 55 -36 72.5t-116 17.5v54q195 -5 236 -5q54 0 244 5v-54q-80 0 -116 -17.5t-36 -72.5v-717q0 -55 36 -72.5t116 -17.5v-53q-152 4 -244 4q-80 0 -236 -4v53q80 0 116 17.5t36 72.5zM633 1208q0 -37 -28.5 -64.5t-65.5 -27.5t-66 28t-29 64q0 37 29 66
t66 29t65.5 -29t28.5 -66zM236 1208q0 -36 -29 -64t-66 -28q-38 0 -66 27.5t-28 64.5t28 66t66 29q37 0 66 -29t29 -66z" />
    <glyph glyph-name="Igrave.sc" unicode="&#xe019;" horiz-adv-x="679" 
d="M252 143v717q0 55 -36 72.5t-116 17.5v54q195 -5 236 -5q54 0 244 5v-54q-80 0 -116 -17.5t-36 -72.5v-717q0 -55 36 -72.5t116 -17.5v-53q-152 4 -244 4q-80 0 -236 -4v53q80 0 116 17.5t36 72.5zM492 1075h-72l-342 213q-35 21 -35 70q0 22 19.5 41.5t46.5 19.5
q11 0 22 -3.5t18.5 -7.5t19 -13.5t16.5 -14t17 -17t15 -15.5z" />
    <glyph glyph-name="J.sc" unicode="&#xe01a;" horiz-adv-x="796" 
d="M332 -18v878q0 56 -42.5 73t-154.5 17v54q40 -1 138 -3t143 -2q30 0 260 5v-54q-92 0 -130 -17.5t-38 -72.5v-760q0 -98 -20 -180.5t-51.5 -136.5t-73 -91.5t-83 -54t-81.5 -16.5q-179 0 -179 123q0 27 19 45t47 18q40 0 55 -47q22 -73 84 -73q33 0 54.5 20.5t33 62.5
t15.5 91.5t4 120.5z" />
    <glyph glyph-name="K.sc" unicode="&#xe01b;" 
d="M582 575l370 -423q83 -99 166 -99v-53q-78 4 -127 4q-45 0 -143 -4l-418 512l342 356q25 25 25 50q0 32 -39 32h-45v54q148 -5 186 -5q29 0 91 2.5t91 2.5v-54q-40 0 -68 -7t-62 -24.5t-85.5 -64t-113.5 -107.5t-170 -172zM252 143v717q0 55 -36 72.5t-116 17.5v54
q195 -5 236 -5q54 0 244 5v-54q-80 0 -116 -17.5t-36 -72.5v-717q0 -55 36 -72.5t116 -17.5v-53q-152 4 -244 4q-80 0 -236 -4v53q80 0 116 17.5t36 72.5z" />
    <glyph glyph-name="L.sc" unicode="&#xe01c;" horiz-adv-x="1024" 
d="M281 143v717q0 55 -36 72.5t-116 17.5v54q195 -5 236 -5q53 0 243 5v-54q-31 0 -50.5 -1.5t-41 -6.5t-33 -14t-19 -26t-7.5 -42v-682q0 -67 35 -89.5t153 -22.5q72 0 114 6.5t77 29t58.5 58t53.5 100.5h51l-61 -260q-106 4 -379 4q-144 0 -430 -4v53q80 0 116 17.5
t36 72.5z" />
    <glyph glyph-name="Lslash.sc" unicode="&#xe01d;" horiz-adv-x="1024" 
d="M457 555l317 229v-84l-317 -229v-293q0 -67 35 -89.5t153 -22.5q72 0 114 6.5t77 29t58.5 58t53.5 100.5h51l-61 -260q-106 4 -379 4q-144 0 -430 -4v53q80 0 116 17.5t36 72.5v201l-152 -111v84l152 111v432q0 55 -36 72.5t-116 17.5v54q195 -5 236 -5q53 0 243 5v-54
q-31 0 -50.5 -1.5t-41 -6.5t-33 -14t-19 -26t-7.5 -42v-305z" />
    <glyph glyph-name="M.sc" unicode="&#xe01e;" horiz-adv-x="1593" 
d="M809 250l354 754q117 -5 144 -5q39 0 166 5v-54q-74 0 -108 -15t-34 -50q0 -9 4 -115l21 -532q2 -67 9 -102.5t28 -55t47 -23.5t80 -4v-53q-156 4 -242 4q-88 0 -244 -4v53q86 0 117 19t31 84q0 84 -10 317.5t-13 357.5h-4l-387 -843h-29l-389 813h-4q-39 -554 -39 -633
q0 -60 39 -87.5t119 -27.5v-53q-29 0 -90 2t-90 2q-75 0 -211 -4v53q96 0 125 30.5t34 106.5l39 533q9 120 9 170q0 37 -29.5 47t-122.5 10v54q29 0 90 -2.5t90 -2.5q21 0 65.5 2.5t63.5 2.5z" />
    <glyph glyph-name="N.sc" unicode="&#xe01f;" horiz-adv-x="1251" 
d="M227 285v569q0 96 -164 96v54q122 -5 144 -5q29 0 137 5l625 -734v537q0 42 -7.5 69t-18 42t-35 22t-44 8.5t-59.5 1.5v54q165 -5 203 -5q36 0 184 5v-54q-82 0 -111.5 -17.5t-29.5 -88.5v-869h-50l-692 807v-546q0 -114 30.5 -148.5t143.5 -34.5v-53q-136 4 -215 4
q-69 0 -209 -4v53q61 0 96.5 13t50.5 50t18 68t3 101z" />
    <glyph glyph-name="Ntilde.sc" unicode="&#xe020;" horiz-adv-x="1251" 
d="M227 285v569q0 96 -164 96v54q122 -5 144 -5q29 0 137 5l625 -734v537q0 42 -7.5 69t-18 42t-35 22t-44 8.5t-59.5 1.5v54q165 -5 203 -5q36 0 184 5v-54q-82 0 -111.5 -17.5t-29.5 -88.5v-869h-50l-692 807v-546q0 -114 30.5 -148.5t143.5 -34.5v-53q-136 4 -215 4
q-69 0 -209 -4v53q61 0 96.5 13t50.5 50t18 68t3 101zM901 1329h55q-16 -89 -61.5 -151t-124.5 -62q-58 0 -162 49q-112 47 -151 47t-65.5 -27t-39.5 -69h-55q23 103 73.5 158t118.5 55q60 0 158 -43q116 -47 156 -47q42 0 62 22t36 68z" />
    <glyph glyph-name="O.sc" unicode="&#xe021;" horiz-adv-x="1366" 
d="M121 506q0 117 47.5 216.5t127 165.5t183.5 103t217 37q245 0 397 -147.5t152 -372.5q0 -96 -39.5 -190.5t-109.5 -171t-178.5 -124t-235.5 -47.5q-252 0 -406.5 147.5t-154.5 383.5zM322 526q0 -205 111 -345t272 -140q75 0 134 25.5t97 67.5t63 100.5t35 121t10 131.5
q0 213 -106.5 344.5t-271.5 131.5q-72 0 -130 -24.5t-97.5 -65.5t-66 -97.5t-38.5 -119t-12 -130.5z" />
    <glyph glyph-name="OE.sc" unicode="&#xe022;" horiz-adv-x="1593" 
d="M846 227v580q0 25 -2 42t-12.5 40.5t-29.5 38t-56 25t-89 10.5q-62 0 -124 -29.5t-113.5 -83.5t-84 -142t-32.5 -194q0 -89 24 -172t69 -151t119.5 -109t166.5 -41q40 0 68 4.5t46 17.5t28 25t15 37.5t6 45t1 56.5zM1022 485v-299q0 -65 35 -92.5t110 -27.5q40 0 68.5 1
t54.5 6t42 8t33.5 15.5t26 20t24 29.5t23.5 36t27 47h52l-62 -229q-294 4 -391 4q-75 0 -197 -14q-175 -15 -196 -15q-161 0 -289 61t-204.5 182t-76.5 284q0 157 75.5 278t203.5 184.5t287 63.5q81 0 184 -14q153 -15 188 -15q51 0 175.5 2t214.5 3l12 -205h-43
q-18 94 -64 116.5t-207 22.5h-106v-387h96q47 0 68 2.5t43 16t29.5 43t7.5 81.5h53q-4 -106 -4 -164q0 -56 4 -170h-53q0 82 -27 103.5t-121 21.5h-96z" />
    <glyph glyph-name="Oacute.sc" unicode="&#xe023;" horiz-adv-x="1366" 
d="M121 506q0 117 47.5 216.5t127 165.5t183.5 103t217 37q245 0 397 -147.5t152 -372.5q0 -96 -39.5 -190.5t-109.5 -171t-178.5 -124t-235.5 -47.5q-252 0 -406.5 147.5t-154.5 383.5zM322 526q0 -205 111 -345t272 -140q75 0 134 25.5t97 67.5t63 100.5t35 121t10 131.5
q0 213 -106.5 344.5t-271.5 131.5q-72 0 -130 -24.5t-97.5 -65.5t-66 -97.5t-38.5 -119t-12 -130.5zM567 1075h-71l274 273l15 15l17.5 17.5t16 14t20 14t18.5 7t22 3.5q26 0 45.5 -19.5t19.5 -41.5q0 -49 -35 -70z" />
    <glyph glyph-name="Ocircumflex.sc" unicode="&#xe024;" horiz-adv-x="1366" 
d="M121 506q0 117 47.5 216.5t127 165.5t183.5 103t217 37q245 0 397 -147.5t152 -372.5q0 -96 -39.5 -190.5t-109.5 -171t-178.5 -124t-235.5 -47.5q-252 0 -406.5 147.5t-154.5 383.5zM322 526q0 -205 111 -345t272 -140q75 0 134 25.5t97 67.5t63 100.5t35 121t10 131.5
q0 213 -106.5 344.5t-271.5 131.5q-72 0 -130 -24.5t-97.5 -65.5t-66 -97.5t-38.5 -119t-12 -130.5zM627 1419h114l250 -340h-67l-240 217l-240 -217h-67z" />
    <glyph glyph-name="Odieresis.sc" unicode="&#xe025;" horiz-adv-x="1366" 
d="M121 506q0 117 47.5 216.5t127 165.5t183.5 103t217 37q245 0 397 -147.5t152 -372.5q0 -96 -39.5 -190.5t-109.5 -171t-178.5 -124t-235.5 -47.5q-252 0 -406.5 147.5t-154.5 383.5zM322 526q0 -205 111 -345t272 -140q75 0 134 25.5t97 67.5t63 100.5t35 121t10 131.5
q0 213 -106.5 344.5t-271.5 131.5q-72 0 -130 -24.5t-97.5 -65.5t-66 -97.5t-38.5 -119t-12 -130.5zM977 1208q0 -37 -28.5 -64.5t-65.5 -27.5t-66 28t-29 64q0 37 29 66t66 29t65.5 -29t28.5 -66zM580 1208q0 -36 -29 -64t-66 -28q-38 0 -66 27.5t-28 64.5t28 66t66 29
q37 0 66 -29t29 -66z" />
    <glyph glyph-name="Ograve.sc" unicode="&#xe026;" horiz-adv-x="1366" 
d="M121 506q0 117 47.5 216.5t127 165.5t183.5 103t217 37q245 0 397 -147.5t152 -372.5q0 -96 -39.5 -190.5t-109.5 -171t-178.5 -124t-235.5 -47.5q-252 0 -406.5 147.5t-154.5 383.5zM322 526q0 -205 111 -345t272 -140q75 0 134 25.5t97 67.5t63 100.5t35 121t10 131.5
q0 213 -106.5 344.5t-271.5 131.5q-72 0 -130 -24.5t-97.5 -65.5t-66 -97.5t-38.5 -119t-12 -130.5zM854 1075h-72l-342 213q-34 20 -34 70q0 22 19.5 41.5t45.5 19.5q11 0 22 -3.5t18.5 -7t20 -14t16 -14l17.5 -17.5l15 -15z" />
    <glyph glyph-name="Oslash.sc" unicode="&#xe027;" horiz-adv-x="1366" 
d="M395 242l555 573q-119 148 -284 148q-72 0 -130 -24.5t-97.5 -65.5t-66 -97.5t-38.5 -119t-12 -130.5q0 -163 73 -284zM979 770l-557 -573q54 -74 127 -115t156 -41q75 0 134 25.5t97 67.5t63 100.5t35 121t10 131.5q0 160 -65 283zM1051 918l153 159l39 -33l-153 -159
q155 -149 155 -377q0 -96 -39.5 -190.5t-109.5 -171t-178.5 -124t-235.5 -47.5q-217 0 -365 113l-155 -162l-39 33l156 162q-76 68 -117 167t-41 218q0 117 47.5 216.5t127 165.5t183.5 103t217 37q210 0 355 -110z" />
    <glyph glyph-name="Otilde.sc" unicode="&#xe028;" horiz-adv-x="1366" 
d="M121 506q0 117 47.5 216.5t127 165.5t183.5 103t217 37q245 0 397 -147.5t152 -372.5q0 -96 -39.5 -190.5t-109.5 -171t-178.5 -124t-235.5 -47.5q-252 0 -406.5 147.5t-154.5 383.5zM322 526q0 -205 111 -345t272 -140q75 0 134 25.5t97 67.5t63 100.5t35 121t10 131.5
q0 213 -106.5 344.5t-271.5 131.5q-72 0 -130 -24.5t-97.5 -65.5t-66 -97.5t-38.5 -119t-12 -130.5zM958 1329h56q-16 -89 -62 -151t-125 -62q-57 0 -161 49q-112 47 -152 47q-74 0 -104 -96h-56q23 103 74 158t119 55q60 0 158 -43q116 -47 155 -47q42 0 62 22t36 68z" />
    <glyph glyph-name="P.sc" unicode="&#xe029;" horiz-adv-x="1024" 
d="M252 143v717q0 55 -36 72.5t-116 17.5v54q195 -5 236 -5q44 0 140.5 2.5t154.5 2.5q67 0 122 -14.5t100.5 -46t71 -88t25.5 -132.5q0 -64 -24.5 -116.5t-63 -85.5t-87.5 -55.5t-94.5 -32t-88.5 -9.5q-46 0 -70 6v53q2 0 24 -3t34 -3q182 0 182 217q0 256 -250 256
q-54 0 -84 -6v-801q0 -55 36 -72.5t116 -17.5v-53q-152 4 -244 4q-80 0 -236 -4v53q80 0 116 17.5t36 72.5z" />
    <glyph glyph-name="Q.sc" unicode="&#xe02a;" horiz-adv-x="1366" 
d="M1286 -256v-39q-54 -33 -87 -47t-71 -14q-52 0 -90 21.5t-100 78.5q-174 159 -295 231q-240 17 -381 162t-141 369q0 117 47.5 216.5t127 165.5t183.5 103t217 37q245 0 397 -147.5t152 -372.5q0 -110 -49 -215.5t-146.5 -187.5t-224.5 -111v-4q23 -1 91.5 -46t121.5 -91
q85 -74 123.5 -99.5t67.5 -25.5q16 0 28 3.5t19.5 8t9.5 4.5zM322 526q0 -205 111 -345t272 -140q75 0 134 25.5t97 67.5t63 100.5t35 121t10 131.5q0 213 -106.5 344.5t-271.5 131.5q-72 0 -130 -24.5t-97.5 -65.5t-66 -97.5t-38.5 -119t-12 -130.5z" />
    <glyph glyph-name="R.sc" unicode="&#xe02b;" 
d="M227 143v717q0 55 -35.5 72.5t-115.5 17.5v54q195 -5 235 -5q53 0 163 2.5t142 2.5q134 0 222 -65t88 -183q0 -169 -219 -242q85 -148 137 -229t98 -132t80.5 -69t87.5 -31v-53q-78 4 -123 4q-43 0 -133 -4q-37 42 -99.5 135t-97 149t-116.5 191q-40 -4 -68 -4
q-30 0 -70 4v-332q0 -30 10 -49t33 -27.5t46 -11t63 -2.5v-53q-152 4 -244 4q-79 0 -235 -4v53q80 0 115.5 17.5t35.5 72.5zM403 537h76q271 0 271 219q0 96 -64 145t-182 49q-41 0 -101 -6v-407z" />
    <glyph glyph-name="S.sc" unicode="&#xe02c;" horiz-adv-x="909" 
d="M162 31l-31 217h47q32 -113 89 -166t165 -53q56 0 96.5 17t60.5 45t29 54.5t9 53.5q0 63 -41 109t-144 100q-168 87 -226 160t-58 194q0 108 84.5 187t214.5 79q42 0 127 -9.5t114 -10.5l19 -201h-43q-10 35 -23 61.5t-36 52.5t-59.5 40t-84.5 14q-79 0 -128.5 -46.5
t-49.5 -117.5q0 -52 16 -84t63.5 -66t147.5 -83q80 -39 131.5 -76t79 -77t37.5 -78.5t10 -90.5q0 -123 -102 -202t-260 -79q-136 0 -254 56z" />
    <glyph glyph-name="Scaron.sc" unicode="&#xe02d;" horiz-adv-x="909" 
d="M162 31l-31 217h47q32 -113 89 -166t165 -53q56 0 96.5 17t60.5 45t29 54.5t9 53.5q0 63 -41 109t-144 100q-168 87 -226 160t-58 194q0 108 84.5 187t214.5 79q42 0 127 -9.5t114 -10.5l19 -201h-43q-10 35 -23 61.5t-36 52.5t-59.5 40t-84.5 14q-79 0 -128.5 -46.5
t-49.5 -117.5q0 -52 16 -84t63.5 -66t147.5 -83q80 -39 131.5 -76t79 -77t37.5 -78.5t10 -90.5q0 -123 -102 -202t-260 -79q-136 0 -254 56zM512 1079h-115l-250 340h68l240 -217l239 217h68z" />
    <glyph glyph-name="T.sc" unicode="&#xe02e;" horiz-adv-x="1024" 
d="M424 143v795h-156q-95 0 -126.5 -26.5t-57.5 -129.5h-53l28 271h41q0 -49 90 -49h654q29 0 42 2t30.5 12.5t35.5 34.5h41l-20 -271h-55q-9 99 -29.5 127.5t-83.5 28.5h-205v-795q0 -55 37.5 -72.5t126.5 -17.5v-53q-176 4 -256 4q-68 0 -248 -4v53q89 0 126.5 17.5
t37.5 72.5z" />
    <glyph glyph-name="Thorn.sc" unicode="&#xe02f;" horiz-adv-x="1024" 
d="M252 143v717q0 55 -36 72.5t-116 17.5v54q195 -5 236 -5q54 0 244 5v-54q-80 0 -116 -17.5t-36 -72.5v-63q153 6 203 6q67 0 122 -14.5t100.5 -46t71 -88t25.5 -132.5q0 -64 -24.5 -116.5t-63 -85.5t-87.5 -55.5t-94.5 -32t-88.5 -9.5q-46 0 -70 6v54q2 0 24 -3.5
t34 -3.5q182 0 182 218q0 256 -250 256q-49 0 -84 -7v-600q0 -55 36 -72.5t116 -17.5v-53q-152 4 -244 4q-80 0 -236 -4v53q80 0 116 17.5t36 72.5z" />
    <glyph glyph-name="U.sc" unicode="&#xe030;" horiz-adv-x="1251" 
d="M219 313v564q0 18 -6 31t-19 20.5t-24 12.5t-31.5 6.5t-30.5 2t-30 0.5v54q190 -5 233 -5q42 0 217 5v-54q-22 0 -32 -0.5t-29 -2t-29 -6t-21.5 -11.5t-16.5 -19.5t-5 -29.5v-557q0 -135 74.5 -200t200.5 -65q69 0 120 15.5t81.5 51t48.5 68t25.5 92t9 95t1.5 104.5v2
v242q0 65 -4 102t-11.5 63.5t-28 37t-44 14.5t-69.5 4v54q170 -5 205 -5q28 0 170 5v-54q-31 0 -49.5 -4t-37.5 -17.5t-27.5 -43.5t-8.5 -78v-416q0 -91 -23 -165t-70.5 -131t-128.5 -88.5t-190 -31.5q-420 0 -420 338z" />
    <glyph glyph-name="Uacute.sc" unicode="&#xe031;" horiz-adv-x="1251" 
d="M219 313v564q0 18 -6 31t-19 20.5t-24 12.5t-31.5 6.5t-30.5 2t-30 0.5v54q190 -5 233 -5q42 0 217 5v-54q-22 0 -32 -0.5t-29 -2t-29 -6t-21.5 -11.5t-16.5 -19.5t-5 -29.5v-557q0 -135 74.5 -200t200.5 -65q69 0 120 15.5t81.5 51t48.5 68t25.5 92t9 95t1.5 104.5v2
v242q0 65 -4 102t-11.5 63.5t-28 37t-44 14.5t-69.5 4v54q170 -5 205 -5q28 0 170 5v-54q-31 0 -49.5 -4t-37.5 -17.5t-27.5 -43.5t-8.5 -78v-416q0 -91 -23 -165t-70.5 -131t-128.5 -88.5t-190 -31.5q-420 0 -420 338zM588 1075h-72l275 273q3 3 15 15.5t17 17t16.5 14
t19 13.5t18.5 7.5t22 3.5q27 0 46.5 -19.5t19.5 -41.5q0 -49 -35 -70z" />
    <glyph glyph-name="Ucircumflex.sc" unicode="&#xe032;" horiz-adv-x="1251" 
d="M219 313v564q0 18 -6 31t-19 20.5t-24 12.5t-31.5 6.5t-30.5 2t-30 0.5v54q190 -5 233 -5q42 0 217 5v-54q-22 0 -32 -0.5t-29 -2t-29 -6t-21.5 -11.5t-16.5 -19.5t-5 -29.5v-557q0 -135 74.5 -200t200.5 -65q69 0 120 15.5t81.5 51t48.5 68t25.5 92t9 95t1.5 104.5v2
v242q0 65 -4 102t-11.5 63.5t-28 37t-44 14.5t-69.5 4v54q170 -5 205 -5q28 0 170 5v-54q-31 0 -49.5 -4t-37.5 -17.5t-27.5 -43.5t-8.5 -78v-416q0 -91 -23 -165t-70.5 -131t-128.5 -88.5t-190 -31.5q-420 0 -420 338zM610 1419h115l250 -340h-68l-239 217l-240 -217h-68z
" />
    <glyph glyph-name="Udieresis.sc" unicode="&#xe033;" horiz-adv-x="1251" 
d="M219 313v564q0 18 -6 31t-19 20.5t-24 12.5t-31.5 6.5t-30.5 2t-30 0.5v54q190 -5 233 -5q42 0 217 5v-54q-22 0 -32 -0.5t-29 -2t-29 -6t-21.5 -11.5t-16.5 -19.5t-5 -29.5v-557q0 -135 74.5 -200t200.5 -65q69 0 120 15.5t81.5 51t48.5 68t25.5 92t9 95t1.5 104.5v2
v242q0 65 -4 102t-11.5 63.5t-28 37t-44 14.5t-69.5 4v54q170 -5 205 -5q28 0 170 5v-54q-31 0 -49.5 -4t-37.5 -17.5t-27.5 -43.5t-8.5 -78v-416q0 -91 -23 -165t-70.5 -131t-128.5 -88.5t-190 -31.5q-420 0 -420 338zM975 1208q0 -37 -28.5 -64.5t-65.5 -27.5t-66 28
t-29 64q0 37 29 66t66 29t65.5 -29t28.5 -66zM578 1208q0 -36 -29 -64t-66 -28q-38 0 -66 27.5t-28 64.5t28 66t66 29q37 0 66 -29t29 -66z" />
    <glyph glyph-name="Ugrave.sc" unicode="&#xe034;" horiz-adv-x="1251" 
d="M219 313v564q0 18 -6 31t-19 20.5t-24 12.5t-31.5 6.5t-30.5 2t-30 0.5v54q190 -5 233 -5q42 0 217 5v-54q-22 0 -32 -0.5t-29 -2t-29 -6t-21.5 -11.5t-16.5 -19.5t-5 -29.5v-557q0 -135 74.5 -200t200.5 -65q69 0 120 15.5t81.5 51t48.5 68t25.5 92t9 95t1.5 104.5v2
v242q0 65 -4 102t-11.5 63.5t-28 37t-44 14.5t-69.5 4v54q170 -5 205 -5q28 0 170 5v-54q-31 0 -49.5 -4t-37.5 -17.5t-27.5 -43.5t-8.5 -78v-416q0 -91 -23 -165t-70.5 -131t-128.5 -88.5t-190 -31.5q-420 0 -420 338zM817 1075h-72l-342 213q-34 20 -34 70q0 22 19.5 41.5
t45.5 19.5q11 0 22 -3.5t18.5 -7t20 -14t16 -14l17.5 -17.5l15 -15z" />
    <glyph glyph-name="V.sc" unicode="&#xe035;" 
d="M535 -25l-367 879q-18 43 -29.5 60t-36.5 26.5t-73 9.5v54q175 -5 215 -5q37 0 227 5v-54h-49q-74 0 -74 -49q0 -16 14 -53l265 -653l241 612q23 54 23 90q0 13 -4.5 22.5t-15 15t-20.5 9t-29 4.5t-30.5 1.5t-35.5 0.5v54q165 -5 200 -5q31 0 154 5v-54q-25 0 -36 -1
t-26.5 -7t-25.5 -19.5t-23.5 -37.5t-29.5 -62l-363 -848h-71z" />
    <glyph glyph-name="W.sc" unicode="&#xe036;" horiz-adv-x="1593" 
d="M539 -25l-377 865q-21 49 -46.5 74.5t-45 30.5t-50.5 5v54q170 -5 203 -5q29 0 172 5v-54q-69 0 -69 -30q0 -32 26 -93l275 -661l145 291l-192 440q-14 32 -38 42.5t-67 10.5v54q142 -5 172 -5q20 0 67.5 2.5t69.5 2.5h168q16 0 53 -2.5t54 -2.5q23 0 110 5v-54
q-64 0 -86 -18t-65 -98l-123 -248l174 -410l281 676q10 20 10 47q0 18 -7.5 29t-24.5 15.5t-30.5 5.5t-40.5 1v54q143 -5 170 -5q23 0 146 5v-54q-52 0 -81.5 -21t-59.5 -91l-388 -863h-63l-178 414l-199 -414h-65zM784 856l80 -192l94 208q11 26 11 50q0 28 -66 28h-72
q-38 0 -49.5 -5t-11.5 -25q0 -32 14 -64z" />
    <glyph glyph-name="X.sc" unicode="&#xe037;" 
d="M481 467l-313 410q-37 42 -63.5 57.5t-81.5 15.5v54q190 -5 229 -5q40 0 215 5v-54q-100 0 -100 -28q0 -15 28 -54l193 -262l164 211q49 57 49 92q0 27 -24 34t-91 7v54q175 -5 217 -5q37 0 174 5v-54q-66 -3 -106.5 -21.5t-98.5 -84.5l-249 -289l331 -422
q34 -44 65.5 -58t96.5 -22v-53q-148 4 -223 4q-79 0 -231 -4v53h59q39 0 39 27q0 22 -23 53l-217 285l-176 -242q-4 -6 -13.5 -19t-13.5 -19.5t-8 -16.5t-4 -19q0 -27 25 -38t94 -11v-53q-132 4 -205 4q-64 0 -196 -4v53q65 0 111.5 25.5t98.5 87.5z" />
    <glyph glyph-name="Y.sc" unicode="&#xe038;" 
d="M657 487v-364q0 -17 5.5 -29.5t18.5 -20t24.5 -12t35 -6t38 -2t44.5 -0.5v-53q-164 4 -250 4q-87 0 -251 -4v53q33 0 48 0.5t38 2.5t32.5 7t21 13.5t15.5 22.5t4 34v309l-325 445q-29 35 -57.5 49t-69.5 14v54q165 -5 217 -5q41 0 231 5v-54q-112 0 -112 -26q0 -4 1 -8.5
t2 -8t4.5 -8.5t5.5 -8l7 -10.5t8 -12.5l228 -325l198 276q43 54 43 84q0 18 -6 26.5t-32.5 14.5t-80.5 6v54q153 -5 197 -5q24 0 82 2.5t88 2.5v-54q-59 0 -95 -19t-95 -97z" />
    <glyph glyph-name="Yacute.sc" unicode="&#xe039;" 
d="M657 487v-364q0 -17 5.5 -29.5t18.5 -20t24.5 -12t35 -6t38 -2t44.5 -0.5v-53q-164 4 -250 4q-87 0 -251 -4v53q33 0 48 0.5t38 2.5t32.5 7t21 13.5t15.5 22.5t4 34v309l-325 445q-29 35 -57.5 49t-69.5 14v54q165 -5 217 -5q41 0 231 5v-54q-112 0 -112 -26q0 -4 1 -8.5
t2 -8t4.5 -8.5t5.5 -8l7 -10.5t8 -12.5l228 -325l198 276q43 54 43 84q0 18 -6 26.5t-32.5 14.5t-80.5 6v54q153 -5 197 -5q24 0 82 2.5t88 2.5v-54q-59 0 -95 -19t-95 -97zM502 1075h-72l275 273q3 3 15 15.5t17 17t16.5 14t19 13.5t18.5 7.5t22 3.5q27 0 46.5 -19.5
t19.5 -41.5q0 -49 -35 -70z" />
    <glyph glyph-name="Ydieresis.sc" unicode="&#xe03a;" 
d="M657 487v-364q0 -17 5.5 -29.5t18.5 -20t24.5 -12t35 -6t38 -2t44.5 -0.5v-53q-164 4 -250 4q-87 0 -251 -4v53q33 0 48 0.5t38 2.5t32.5 7t21 13.5t15.5 22.5t4 34v309l-325 445q-29 35 -57.5 49t-69.5 14v54q165 -5 217 -5q41 0 231 5v-54q-112 0 -112 -26q0 -4 1 -8.5
t2 -8t4.5 -8.5t5.5 -8l7 -10.5t8 -12.5l228 -325l198 276q43 54 43 84q0 18 -6 26.5t-32.5 14.5t-80.5 6v54q153 -5 197 -5q24 0 82 2.5t88 2.5v-54q-59 0 -95 -19t-95 -97zM887 1208q0 -37 -28.5 -64.5t-65.5 -27.5t-66 28t-29 64q0 37 29 66t66 29t65.5 -29t28.5 -66z
M489 1208q0 -37 -28.5 -64.5t-65.5 -27.5q-38 0 -66 27.5t-28 64.5t28 66t66 29q37 0 65.5 -29t28.5 -66z" />
    <glyph glyph-name="Z.sc" unicode="&#xe03b;" 
d="M1030 1004l-706 -938h411q71 0 116 9.5t76 35.5t49 58t40 91l51 -8l-66 -252q-328 4 -497 4q-146 0 -432 -4l694 938h-363q-59 0 -101 -7.5t-67 -18.5t-40 -32t-21.5 -41.5t-11.5 -52.5h-51l34 271h45q5 -23 24 -36.5t67 -16.5q103 -5 297 -5q120 0 452 5z" />
    <glyph glyph-name="Zcaron.sc" unicode="&#xe03c;" 
d="M1030 1004l-706 -938h411q71 0 116 9.5t76 35.5t49 58t40 91l51 -8l-66 -252q-328 4 -497 4q-146 0 -432 -4l694 938h-363q-59 0 -101 -7.5t-67 -18.5t-40 -32t-21.5 -41.5t-11.5 -52.5h-51l34 271h45q5 -23 24 -36.5t67 -16.5q103 -5 297 -5q120 0 452 5zM627 1079h-115
l-250 340h68l239 -217l240 217h68z" />
    <glyph glyph-name="germandbls.sc" unicode="&#xe03f;" horiz-adv-x="1818" 
d="M162 31l-31 217h47q32 -113 89 -166t165 -53q56 0 96.5 17t60.5 45t29 54.5t9 53.5q0 63 -41 109t-144 100q-168 87 -226 160t-58 194q0 108 84.5 187t214.5 79q42 0 127 -9.5t114 -10.5l19 -201h-43q-10 35 -23 61.5t-36 52.5t-59.5 40t-84.5 14q-79 0 -128.5 -46.5
t-49.5 -117.5q0 -52 16 -84t63.5 -66t147.5 -83q80 -39 131.5 -76t79 -77t37.5 -78.5t10 -90.5q0 -123 -102 -202t-260 -79q-136 0 -254 56zM1071 31l-31 217h47q32 -113 89 -166t165 -53q56 0 96.5 17t60.5 45t29 54.5t9 53.5q0 63 -40.5 109t-143.5 100
q-168 87 -226.5 160t-58.5 194q0 108 84.5 187t214.5 79q42 0 127.5 -9.5t114.5 -10.5l18 -201h-43q-10 35 -23 61.5t-36 52.5t-59.5 40t-84.5 14q-79 0 -128.5 -46.5t-49.5 -117.5q0 -39 7.5 -64.5t33 -52.5t68.5 -53t119 -63q80 -39 131.5 -76t79 -77t37.5 -78.5t10 -90.5
q0 -123 -102.5 -202t-260.5 -79q-136 0 -254 56z" />
    <glyph glyph-name="zero.taboldstyle" unicode="&#xf643;" 
d="M1055 453q0 -131 -65 -242.5t-177 -176.5t-244 -65t-243.5 65t-176.5 176.5t-65 242.5t65 242t176.5 176t243.5 65t244 -65t177 -176t65 -242zM569 813q-151 0 -256.5 -105.5t-105.5 -254.5t105.5 -255t256.5 -106t257 106t106 255t-106 254.5t-257 105.5z" />
    <glyph glyph-name="one.taboldstyle" unicode="&#xf644;" 
d="M481 229v465q0 37 -1 57.5t-6 41t-13.5 30t-25 17.5t-39 10t-56.5 2h-119v53q246 -4 348 -4q103 0 349 4v-53h-119q-52 0 -79 -5.5t-42 -25.5t-18 -46t-3 -81v-465v-52.5t2.5 -39.5t5.5 -32t10.5 -21.5t17.5 -16t26.5 -8t35.5 -5.5t48 -1h115v-53q-230 4 -349 4
q-118 0 -348 -4v53h115q29 0 48 0.5t35.5 5.5t26 8.5t17 16.5t11 21t5.5 32t2 40v52z" />
    <glyph glyph-name="two.taboldstyle" unicode="&#xf645;" 
d="M946 176l58 90h45l-58 -266q-270 4 -418 4q-144 0 -426 -4v33q271 233 371 355.5t100 223.5q0 85 -54 137t-118 52t-114 -31.5t-127 -118.5l-33 39q82 110 178.5 178t188.5 68q112 0 184 -68.5t72 -183.5q0 -98 -96 -215t-318 -289v-4h565z" />
    <glyph glyph-name="three.taboldstyle" unicode="&#xf646;" 
d="M301 213l-18 41q206 142 280 222.5t74 164.5q0 74 -47.5 117t-110.5 43q-96 0 -246 -135l-30 28q181 242 368 242q98 0 164 -54t66 -149q0 -84 -66 -166t-225 -202v-7q69 21 129 21q45 0 86 -14.5t76 -44.5t55.5 -83t20.5 -122q0 -101 -57.5 -208t-145 -188
t-195.5 -133.5t-203 -52.5q-116 0 -116 66q0 27 17.5 48t43.5 21q20 0 69 -19.5t97 -19.5q80 0 153 56t116.5 147.5t43.5 190.5q0 130 -63 195t-156 65q-39 0 -93 -20.5t-87 -49.5z" />
    <glyph glyph-name="four.taboldstyle" unicode="&#xf647;" 
d="M635 -436v452h-574v35l689 885h49v-784h196v-136h-196v-452h-164zM635 152v520h-4l-404 -520h408z" />
    <glyph glyph-name="five.taboldstyle" unicode="&#xf648;" 
d="M295 463l135 442h498l-37 -164h-447l-41 -129q441 -221 441 -561q0 -99 -47 -195.5t-120.5 -166t-165.5 -113t-179 -43.5q-54 0 -87.5 26t-33.5 56q0 24 15 41.5t38 17.5q17 0 71.5 -22.5t102.5 -22.5q103 0 172.5 99.5t69.5 226.5q0 281 -385 508z" />
    <glyph glyph-name="six.taboldstyle" unicode="&#xf649;" 
d="M1067 1341l20 -43q-83 -24 -175.5 -69.5t-197 -125.5t-187 -178.5t-137 -238t-54.5 -293.5q0 -171 73.5 -270.5t186.5 -99.5q100 0 167.5 82t67.5 212q0 118 -60 192.5t-161 74.5q-37 0 -85 -21t-67 -34t-59 -42v66q83 79 148.5 110t154.5 31q51 0 102.5 -19.5t98.5 -58
t76 -105.5t29 -153q0 -110 -60.5 -199.5t-162.5 -139.5t-224 -50q-184 0 -292.5 123.5t-108.5 319.5q0 212 120.5 403t325 326t461.5 200z" />
    <glyph glyph-name="seven.taboldstyle" unicode="&#xf64a;" 
d="M109 637l67 268h873l-736 -1356l-69 41l624 1151h-651l-65 -104h-43z" />
    <glyph glyph-name="eight.taboldstyle" unicode="&#xf64b;" 
d="M797 1042q0 113 -60 179.5t-149 66.5q-96 0 -153.5 -65t-57.5 -160q0 -146 248 -318q90 71 131 142t41 155zM213 1008q0 151 111.5 242t271.5 91q68 0 129.5 -17.5t112 -51.5t80.5 -90.5t30 -126.5q0 -203 -276 -340q147 -89 215.5 -176.5t68.5 -204.5
q0 -156 -119 -260.5t-286 -104.5q-89 0 -161 27.5t-116.5 73t-68 102t-23.5 117.5q0 108 81 202.5t212 151.5q-130 77 -196 170.5t-66 194.5zM780 254q0 201 -260 360q-113 -92 -149.5 -161t-36.5 -156q0 -113 62 -193.5t165 -80.5q92 0 155.5 66.5t63.5 164.5z" />
    <glyph glyph-name="nine.taboldstyle" unicode="&#xf64c;" 
d="M72 -436l-21 43q57 16 121 44t138 73t143 99.5t133.5 129t112 157t76 187t28.5 215.5q0 171 -73.5 271t-186.5 100q-100 0 -168 -82.5t-68 -212.5q0 -117 60 -191.5t161 -74.5q37 0 84.5 20.5t68 34.5t58.5 41v-66q-83 -79 -148.5 -110t-154.5 -31q-51 0 -102.5 19.5
t-98 58t-75.5 105.5t-29 153q0 110 60.5 199.5t162.5 139.5t224 50q184 0 292.5 -123t108.5 -319q0 -159 -70 -309.5t-191.5 -270.5t-288 -211t-357.5 -139z" />
    <glyph glyph-name="dollar.taboldstyle" unicode="&#xf653;" 
d="M915 1423l17 -272h-49q-22 122 -87 182.5t-182 61.5v-578q67 -25 117.5 -49t105.5 -62t90 -81t58 -104.5t23 -133.5q0 -179 -110 -294.5t-284 -123.5v-151h-82v151q-100 0 -169.5 17t-188.5 61q-7 112 -43 301l41 8q42 -150 131.5 -239.5t228.5 -81.5v604
q-61 25 -109.5 51.5t-96.5 64.5t-79.5 81t-51 101t-19.5 126q0 162 100 273.5t256 123.5v152h82v-152q157 -8 301 -37zM532 846v549q-90 -17 -141 -88t-51 -172q0 -102 48 -167t144 -122zM614 608v-573q94 12 149.5 88.5t55.5 179.5q0 117 -49 184.5t-156 120.5z" />
    <glyph glyph-name="cent.taboldstyle" unicode="&#xf654;" 
d="M485 186l230 656q-48 28 -117 28q-63 0 -115.5 -33t-85 -85t-50 -113t-17.5 -121q0 -103 40.5 -191t114.5 -141zM315 -303l107 307q-110 50 -183 159t-73 230q0 110 38.5 210t104.5 173t161.5 116.5t203.5 43.5q34 0 71 -6l86 250h76l-92 -265q135 -33 135 -120
q0 -37 -21.5 -63.5t-56.5 -26.5q-16 0 -30.5 8.5t-22.5 18t-23.5 29.5t-23.5 30l-223 -641q69 -29 139 -29q73 0 129 23.5t121 72.5l35 -35q-182 -213 -400 -213q-40 0 -84 13l-98 -285h-76z" />
    <glyph glyph-name="breve.sc" unicode="&#xf6f4;" horiz-adv-x="569" 
d="M0 1430h53q7 -90 73 -148.5t159 -58.5t158.5 58.5t72.5 148.5h53q-11 -147 -81.5 -232.5t-202.5 -85.5t-203 85.5t-82 232.5z" />
    <glyph glyph-name="caron.sc" unicode="&#xf6f5;" horiz-adv-x="569" 
d="M342 1120h-115l-250 340h68l240 -217l239 217h68z" />
    <glyph glyph-name="circumflex.sc" unicode="&#xf6f6;" horiz-adv-x="569" 
d="M227 1460h115l250 -340h-68l-239 217l-240 -217h-68z" />
    <glyph glyph-name="dotaccent.sc" unicode="&#xf6f7;" horiz-adv-x="569" 
d="M379 1249q0 -37 -28.5 -64.5t-65.5 -27.5q-38 0 -66.5 27.5t-28.5 64.5t28.5 65.5t66.5 28.5q37 0 65.5 -28.5t28.5 -65.5z" />
    <glyph glyph-name="hungarumlaut.sc" unicode="&#xf6f8;" horiz-adv-x="569" 
d="M-125 1118h-86l295 295q42 47 84 47q72 0 72 -76q0 -38 -60 -75zM254 1118h-86l293 295q42 47 84 47q71 0 71 -76q0 -39 -59 -75z" />
    <glyph glyph-name="lslash.sc" unicode="&#xf6f9;" horiz-adv-x="1024" 
d="M457 555l317 229v-84l-317 -229v-293q0 -67 35 -89.5t153 -22.5q72 0 114 6.5t77 29t58.5 58t53.5 100.5h51l-61 -260q-106 4 -379 4q-144 0 -430 -4v53q80 0 116 17.5t36 72.5v201l-152 -111v84l152 111v432q0 55 -36 72.5t-116 17.5v54q195 -5 236 -5q53 0 243 5v-54
q-31 0 -50.5 -1.5t-41 -6.5t-33 -14t-19 -26t-7.5 -42v-305z" />
    <glyph glyph-name="oe.sc" unicode="&#xf6fa;" horiz-adv-x="1593" 
d="M846 227v580q0 25 -2 42t-12.5 40.5t-29.5 38t-56 25t-89 10.5q-62 0 -124 -29.5t-113.5 -83.5t-84 -142t-32.5 -194q0 -89 24 -172t69 -151t119.5 -109t166.5 -41q40 0 68 4.5t46 17.5t28 25t15 37.5t6 45t1 56.5zM1022 485v-299q0 -65 35 -92.5t110 -27.5q40 0 68.5 1
t54.5 6t42 8t33.5 15.5t26 20t24 29.5t23.5 36t27 47h52l-62 -229q-294 4 -391 4q-75 0 -197 -14q-175 -15 -196 -15q-161 0 -289 61t-204.5 182t-76.5 284q0 157 75.5 278t203.5 184.5t287 63.5q81 0 184 -14q153 -15 188 -15q51 0 175.5 2t214.5 3l12 -205h-43
q-18 94 -64 116.5t-207 22.5h-106v-387h96q47 0 68 2.5t43 16t29.5 43t7.5 81.5h53q-4 -106 -4 -164q0 -56 4 -170h-53q0 82 -27 103.5t-121 21.5h-96z" />
    <glyph glyph-name="ogonek.sc" unicode="&#xf6fb;" horiz-adv-x="569" 
d="M324 0h77q-100 -83 -136 -142.5t-36 -117.5q0 -41 24.5 -66.5t57.5 -25.5q73 0 123 69l41 -20q-31 -63 -84 -98t-104 -35q-16 0 -28.5 1t-38.5 5t-45 15t-39 28.5t-31 48t-11 70.5q0 19 7.5 41.5t28.5 58.5t71 80t123 88z" />
    <glyph glyph-name="ring.sc" unicode="&#xf6fc;" horiz-adv-x="569" 
d="M86 1262q0 79 59.5 138.5t139.5 59.5q79 0 138.5 -59t59.5 -139t-58.5 -140.5t-139.5 -60.5t-140 60.5t-59 140.5zM152 1262q0 -58 37.5 -97t95.5 -39t95.5 39t37.5 97q0 57 -38 95t-95 38t-95 -38t-38 -95z" />
    <glyph glyph-name="scaron.sc" unicode="&#xf6fd;" horiz-adv-x="909" 
d="M162 31l-31 217h47q32 -113 89 -166t165 -53q56 0 96.5 17t60.5 45t29 54.5t9 53.5q0 63 -41 109t-144 100q-168 87 -226 160t-58 194q0 108 84.5 187t214.5 79q42 0 127 -9.5t114 -10.5l19 -201h-43q-10 35 -23 61.5t-36 52.5t-59.5 40t-84.5 14q-79 0 -128.5 -46.5
t-49.5 -117.5q0 -52 16 -84t63.5 -66t147.5 -83q80 -39 131.5 -76t79 -77t37.5 -78.5t10 -90.5q0 -123 -102 -202t-260 -79q-136 0 -254 56zM512 1079h-115l-250 340h68l240 -217l239 217h68z" />
    <glyph glyph-name="tilde.sc" unicode="&#xf6fe;" horiz-adv-x="569" 
d="M559 1370h55q-16 -89 -61.5 -151t-124.5 -62q-58 0 -162 49q-112 47 -151 47t-65.5 -27t-39.5 -69h-55q23 103 73.5 158t118.5 55q60 0 158 -43q116 -47 156 -47q42 0 62 22t36 68z" />
    <glyph glyph-name="zcaron.sc" unicode="&#xf6ff;" 
d="M1030 1004l-706 -938h411q71 0 116 9.5t76 35.5t49 58t40 91l51 -8l-66 -252q-328 4 -497 4q-146 0 -432 -4l694 938h-363q-59 0 -101 -7.5t-67 -18.5t-40 -32t-21.5 -41.5t-11.5 -52.5h-51l34 271h45q5 -23 24 -36.5t67 -16.5q103 -5 297 -5q120 0 452 5zM627 1079h-115
l-250 340h68l239 -217l240 217h68z" />
    <glyph glyph-name="exclam.sc" unicode="&#xf721;" horiz-adv-x="681" 
d="M365 385h-48l-73 500q-31 208 -31 284q0 41 4 72t16 64t39 51t68 18q34 0 58.5 -13t37.5 -32t21 -48.5t10 -54.5t2 -57q0 -76 -31 -284zM342 -31q-55 0 -95 39t-40 94q0 54 40.5 96t94.5 42t94.5 -41.5t40.5 -96.5t-39.5 -94t-95.5 -39z" />
    <glyph glyph-name="ampersand.sc" unicode="&#xf726;" horiz-adv-x="1441" 
d="M1276 127l18 -49q-29 -29 -104.5 -69t-130.5 -40q-67 0 -127.5 54.5t-130.5 162.5q-106 -107 -191.5 -156.5t-185.5 -49.5q-63 0 -114 21t-80.5 52t-49 70.5t-26.5 72t-7 60.5q0 115 58 195t168 155q-113 96 -113 189q0 54 28.5 106t89 89.5t138.5 37.5q84 0 144.5 -41
t60.5 -123q0 -16 -3.5 -31t-6.5 -26t-14 -24.5t-17 -21t-24.5 -22.5t-26.5 -21t-33.5 -25t-36.5 -27q160 -93 318 -306q111 189 135 248q22 52 22 84q0 33 -25 43t-85 10v54q118 -4 186 -4q62 0 176 4v-54q-4 -1 -11 -2q-67 -10 -94 -26l-10 -6q-32 -23 -58.5 -64.5
t-129.5 -222.5q-2 -3 -34 -51.5t-38 -59.5q95 -137 148.5 -192t97.5 -55q10 0 21 3t25 11t22.5 13.5t26.5 17.5zM526 115q49 0 94.5 16t77 39.5t46 37.5t22.5 23q-95 117 -151.5 172.5t-198.5 174.5q-133 -81 -133 -211q0 -33 15 -74.5t43.5 -82t77 -68t107.5 -27.5z
M383 854q0 -28 13 -53.5t38.5 -47t40 -31.5t41.5 -26q94 78 94 158q0 46 -26 83.5t-80 37.5q-60 0 -90.5 -37t-30.5 -84z" />
    <glyph glyph-name="question.sc" unicode="&#xf73f;" horiz-adv-x="909" 
d="M367 385h-54v369q63 3 119 18t106.5 44t80.5 81t30 121q0 94 -66.5 159.5t-191.5 65.5q-10 0 -30.5 -3t-30.5 -3q-48 0 -76.5 26.5t-28.5 73.5t30.5 70t78.5 23q75 0 142.5 -36t115 -93.5t83 -127t53 -138t17.5 -126.5q0 -145 -70 -224t-229 -105q-43 -6 -61 -32t-18 -97
v-66zM360 -31q-55 0 -95 39t-40 94q0 54 40.5 96t94.5 42t95 -41.5t41 -96.5t-40 -94t-96 -39z" />
    <glyph glyph-name="grave.sc" unicode="&#xf760;" horiz-adv-x="569" 
d="M584 1116h-72l-342 213q-35 21 -35 70q0 21 19.5 41t46.5 20q11 0 22 -3.5t18.5 -7.5t19 -13.5t16.5 -14t17 -17t15 -15.5z" />
    <glyph glyph-name="a.sc" unicode="&#xf761;" 
d="M659 0v53h25q42 0 72 12.5t30 36.5q0 25 -16 68l-76 207h-348l-45 -133q-1 -3 -11.5 -35t-17 -56.5t-6.5 -41.5q0 -32 33.5 -45t73.5 -13h24v-53q-140 4 -209 4q-58 0 -168 -4v53q71 0 104 23.5t48 62.5l293 748q20 50 20 67q0 9 -4 29l158 59l307 -868
q25 -72 58.5 -96.5t113.5 -24.5v-53q-156 4 -229 4q-78 0 -230 -4zM672 442l-148 414h-4l-149 -414h301z" />
    <glyph glyph-name="b.sc" unicode="&#xf762;" 
d="M252 143v717q0 55 -36 72.5t-116 17.5v54q210 -5 252 -5q36 0 107 2.5t106 2.5q33 0 59.5 -1t65 -6t67.5 -13.5t61 -25t52.5 -39t34 -57.5t13.5 -78q0 -46 -14.5 -81.5t-35 -57.5t-57.5 -40.5t-67.5 -28t-79.5 -21.5v-4q85 -7 144.5 -22t109.5 -45t75 -81.5t25 -126.5
q0 -122 -104 -199t-281 -77q-38 0 -131 2t-137 2q-101 0 -265 -4v53q80 0 116 17.5t36 72.5zM428 508v-367q0 -18 6 -31.5t20 -21.5t26 -13t34.5 -6.5t34.5 -2t37 -0.5q38 0 65.5 2.5t63.5 14.5t58.5 33t39 61t16.5 95q0 58 -19 101.5t-48 68.5t-69 40.5t-75.5 20.5t-74.5 5
h-115zM428 932v-359h84q110 0 169.5 55.5t59.5 139.5q0 35 -9 63t-21 45.5t-32.5 30t-37 18.5t-41 9t-36.5 3.5t-32 0.5q-29 0 -104 -6z" />
    <glyph glyph-name="c.sc" unicode="&#xf763;" 
d="M1049 276l-39 -233q-20 -6 -61.5 -19.5t-56.5 -18t-46.5 -12.5t-53 -10.5t-53 -5t-67.5 -2.5q-265 0 -418.5 147.5t-153.5 379.5q0 158 76 279t203 184t283 63q87 0 188 -26t180 -29l12 -238h-47q0 17 -8 42t-29.5 58.5t-54 61t-88.5 47t-125 19.5q-56 0 -110 -13.5
t-107.5 -45.5t-93.5 -80t-65 -124t-25 -170q0 -119 46.5 -229.5t138.5 -185t208 -74.5q114 0 190 52.5t123 189.5z" />
    <glyph glyph-name="d.sc" unicode="&#xf764;" horiz-adv-x="1366" 
d="M252 143v717q0 55 -36 72.5t-116 17.5v54q190 -5 246 -5q52 0 156 2.5t155 2.5q119 0 218.5 -28.5t167 -76.5t114 -112t67.5 -133t21 -142q0 -112 -34 -201.5t-90 -146.5t-134.5 -95t-162 -53.5t-177.5 -15.5q-46 0 -139.5 2t-132.5 2q-91 0 -275 -4v53q80 0 116 17.5
t36 72.5zM428 932v-737q0 -43 11 -70t35.5 -39.5t49.5 -16t68 -3.5q66 0 123.5 9t120 36.5t106.5 72t73 122.5t29 181q0 97 -23 177.5t-69.5 142.5t-122.5 96.5t-176 34.5q-36 0 -225 -6z" />
    <glyph glyph-name="e.sc" unicode="&#xf765;" horiz-adv-x="1024" 
d="M975 227l-64 -227q-294 4 -440 4q-133 0 -395 -4v53q80 0 115.5 17.5t35.5 72.5v717q0 55 -35.5 72.5t-115.5 17.5v54q230 -5 276 -5q89 0 504 5l12 -218h-43q-18 103 -63.5 127.5t-206.5 24.5h-152v-387h170q47 0 68 2.5t43 16t29.5 43t7.5 81.5h53q-4 -106 -4 -164
q0 -56 4 -170h-53q0 82 -27 103.5t-121 21.5h-170v-299q0 -67 47 -93.5t173 -26.5q54 0 88.5 1.5t64 11t45 16.5t36 31t31.5 41t36 60h51z" />
    <glyph glyph-name="f.sc" unicode="&#xf766;" horiz-adv-x="1024" 
d="M252 143v717q0 55 -36 72.5t-116 17.5v54q332 -5 398 -5q134 0 432 5l8 -226h-41q-20 104 -65.5 132t-184.5 28h-219v-387h193q37 0 55 1t40 7.5t30.5 20t15 37.5t6.5 61h53q-4 -106 -4 -164q0 -56 4 -170h-53q0 50 -5 76.5t-23.5 42t-43.5 19t-75 3.5h-193v-301
q0 -78 32 -104.5t109 -26.5h43v-53q-160 4 -276 4q-80 0 -236 -4v53q80 0 116 17.5t36 72.5z" />
    <glyph glyph-name="g.sc" unicode="&#xf767;" horiz-adv-x="1251" 
d="M1077 975l17 -244h-45q-15 33 -22.5 49t-25 45.5t-31.5 45t-39 36t-51.5 31t-64.5 18t-82 7.5q-86 0 -158.5 -27t-130 -81t-90 -145t-32.5 -210q0 -60 13 -120.5t45.5 -122.5t80 -109.5t123.5 -77t170 -29.5q67 0 145 33q0 8 2 75t2 82q0 47 -4.5 72t-21.5 43.5
t-47.5 24.5t-84.5 6v53q234 -6 244 -6q14 0 197 6v-53q-73 0 -96 -15t-23 -67v-131q0 -18 0.5 -27t4 -21.5t11.5 -20t21 -11.5v-39q-251 -70 -422 -70q-121 0 -226.5 41t-178.5 111t-114.5 165t-41.5 202q0 120 44.5 221t122 169.5t183 106t225.5 37.5q49 0 193 -18
q66 -10 188 -35z" />
    <glyph glyph-name="h.sc" unicode="&#xf768;" horiz-adv-x="1366" 
d="M227 143v717q0 55 -35.5 72.5t-115.5 17.5v54q195 -5 235 -5q54 0 244 5v-54q-40 0 -63 -2.5t-46 -11t-33 -27.5t-10 -49v-309h560v309q0 30 -10 49t-33 27.5t-46 11t-63 2.5v54q190 -5 244 -5q40 0 235 5v-54q-80 0 -115.5 -17.5t-35.5 -72.5v-717q0 -55 35.5 -72.5
t115.5 -17.5v-53q-156 4 -235 4q-92 0 -244 -4v53q40 0 63 2.5t46 11t33 27.5t10 49v342h-560v-342q0 -30 10 -49t33 -27.5t46 -11t63 -2.5v-53q-152 4 -244 4q-79 0 -235 -4v53q80 0 115.5 17.5t35.5 72.5z" />
    <glyph glyph-name="i.sc" unicode="&#xf769;" horiz-adv-x="679" 
d="M252 143v717q0 55 -36 72.5t-116 17.5v54q195 -5 236 -5q54 0 244 5v-54q-80 0 -116 -17.5t-36 -72.5v-717q0 -55 36 -72.5t116 -17.5v-53q-152 4 -244 4q-80 0 -236 -4v53q80 0 116 17.5t36 72.5z" />
    <glyph glyph-name="j.sc" unicode="&#xf76a;" horiz-adv-x="796" 
d="M332 -18v878q0 56 -42.5 73t-154.5 17v54q40 -1 138 -3t143 -2q30 0 260 5v-54q-92 0 -130 -17.5t-38 -72.5v-760q0 -98 -20 -180.5t-51.5 -136.5t-73 -91.5t-83 -54t-81.5 -16.5q-179 0 -179 123q0 27 19 45t47 18q40 0 55 -47q22 -73 84 -73q33 0 54.5 20.5t33 62.5
t15.5 91.5t4 120.5z" />
    <glyph glyph-name="k.sc" unicode="&#xf76b;" 
d="M582 575l370 -423q83 -99 166 -99v-53q-78 4 -127 4q-45 0 -143 -4l-418 512l342 356q25 25 25 50q0 32 -39 32h-45v54q148 -5 186 -5q29 0 91 2.5t91 2.5v-54q-40 0 -68 -7t-62 -24.5t-85.5 -64t-113.5 -107.5t-170 -172zM252 143v717q0 55 -36 72.5t-116 17.5v54
q195 -5 236 -5q54 0 244 5v-54q-80 0 -116 -17.5t-36 -72.5v-717q0 -55 36 -72.5t116 -17.5v-53q-152 4 -244 4q-80 0 -236 -4v53q80 0 116 17.5t36 72.5z" />
    <glyph glyph-name="l.sc" unicode="&#xf76c;" horiz-adv-x="1024" 
d="M281 143v717q0 55 -36 72.5t-116 17.5v54q195 -5 236 -5q53 0 243 5v-54q-31 0 -50.5 -1.5t-41 -6.5t-33 -14t-19 -26t-7.5 -42v-682q0 -67 35 -89.5t153 -22.5q72 0 114 6.5t77 29t58.5 58t53.5 100.5h51l-61 -260q-106 4 -379 4q-144 0 -430 -4v53q80 0 116 17.5
t36 72.5z" />
    <glyph glyph-name="m.sc" unicode="&#xf76d;" horiz-adv-x="1593" 
d="M809 250l354 754q117 -5 144 -5q39 0 166 5v-54q-74 0 -108 -15t-34 -50q0 -9 4 -115l21 -532q2 -67 9 -102.5t28 -55t47 -23.5t80 -4v-53q-156 4 -242 4q-88 0 -244 -4v53q86 0 117 19t31 84q0 84 -10 317.5t-13 357.5h-4l-387 -843h-29l-389 813h-4q-39 -554 -39 -633
q0 -60 39 -87.5t119 -27.5v-53q-29 0 -90 2t-90 2q-75 0 -211 -4v53q96 0 125 30.5t34 106.5l39 533q9 120 9 170q0 37 -29.5 47t-122.5 10v54q29 0 90 -2.5t90 -2.5q21 0 65.5 2.5t63.5 2.5z" />
    <glyph glyph-name="n.sc" unicode="&#xf76e;" horiz-adv-x="1251" 
d="M227 285v569q0 96 -164 96v54q122 -5 144 -5q29 0 137 5l625 -734v537q0 42 -7.5 69t-18 42t-35 22t-44 8.5t-59.5 1.5v54q165 -5 203 -5q36 0 184 5v-54q-82 0 -111.5 -17.5t-29.5 -88.5v-869h-50l-692 807v-546q0 -114 30.5 -148.5t143.5 -34.5v-53q-136 4 -215 4
q-69 0 -209 -4v53q61 0 96.5 13t50.5 50t18 68t3 101z" />
    <glyph glyph-name="o.sc" unicode="&#xf76f;" horiz-adv-x="1366" 
d="M121 506q0 117 47.5 216.5t127 165.5t183.5 103t217 37q245 0 397 -147.5t152 -372.5q0 -96 -39.5 -190.5t-109.5 -171t-178.5 -124t-235.5 -47.5q-252 0 -406.5 147.5t-154.5 383.5zM322 526q0 -205 111 -345t272 -140q75 0 134 25.5t97 67.5t63 100.5t35 121t10 131.5
q0 213 -106.5 344.5t-271.5 131.5q-72 0 -130 -24.5t-97.5 -65.5t-66 -97.5t-38.5 -119t-12 -130.5z" />
    <glyph glyph-name="p.sc" unicode="&#xf770;" horiz-adv-x="1024" 
d="M252 143v717q0 55 -36 72.5t-116 17.5v54q195 -5 236 -5q44 0 140.5 2.5t154.5 2.5q67 0 122 -14.5t100.5 -46t71 -88t25.5 -132.5q0 -64 -24.5 -116.5t-63 -85.5t-87.5 -55.5t-94.5 -32t-88.5 -9.5q-46 0 -70 6v53q2 0 24 -3t34 -3q182 0 182 217q0 256 -250 256
q-54 0 -84 -6v-801q0 -55 36 -72.5t116 -17.5v-53q-152 4 -244 4q-80 0 -236 -4v53q80 0 116 17.5t36 72.5z" />
    <glyph glyph-name="q.sc" unicode="&#xf771;" horiz-adv-x="1366" 
d="M1286 -256v-39q-54 -33 -87 -47t-71 -14q-52 0 -90 21.5t-100 78.5q-174 159 -295 231q-240 17 -381 162t-141 369q0 117 47.5 216.5t127 165.5t183.5 103t217 37q245 0 397 -147.5t152 -372.5q0 -110 -49 -215.5t-146.5 -187.5t-224.5 -111v-4q23 -1 91.5 -46t121.5 -91
q85 -74 123.5 -99.5t67.5 -25.5q16 0 28 3.5t19.5 8t9.5 4.5zM322 526q0 -205 111 -345t272 -140q75 0 134 25.5t97 67.5t63 100.5t35 121t10 131.5q0 213 -106.5 344.5t-271.5 131.5q-72 0 -130 -24.5t-97.5 -65.5t-66 -97.5t-38.5 -119t-12 -130.5z" />
    <glyph glyph-name="r.sc" unicode="&#xf772;" 
d="M227 143v717q0 55 -35.5 72.5t-115.5 17.5v54q195 -5 235 -5q53 0 163 2.5t142 2.5q134 0 222 -65t88 -183q0 -169 -219 -242q85 -148 137 -229t98 -132t80.5 -69t87.5 -31v-53q-78 4 -123 4q-43 0 -133 -4q-37 42 -99.5 135t-97 149t-116.5 191q-40 -4 -68 -4
q-30 0 -70 4v-332q0 -30 10 -49t33 -27.5t46 -11t63 -2.5v-53q-152 4 -244 4q-79 0 -235 -4v53q80 0 115.5 17.5t35.5 72.5zM403 537h76q271 0 271 219q0 96 -64 145t-182 49q-41 0 -101 -6v-407z" />
    <glyph glyph-name="s.sc" unicode="&#xf773;" horiz-adv-x="909" 
d="M162 31l-31 217h47q32 -113 89 -166t165 -53q56 0 96.5 17t60.5 45t29 54.5t9 53.5q0 63 -41 109t-144 100q-168 87 -226 160t-58 194q0 108 84.5 187t214.5 79q42 0 127 -9.5t114 -10.5l19 -201h-43q-10 35 -23 61.5t-36 52.5t-59.5 40t-84.5 14q-79 0 -128.5 -46.5
t-49.5 -117.5q0 -52 16 -84t63.5 -66t147.5 -83q80 -39 131.5 -76t79 -77t37.5 -78.5t10 -90.5q0 -123 -102 -202t-260 -79q-136 0 -254 56z" />
    <glyph glyph-name="t.sc" unicode="&#xf774;" horiz-adv-x="1024" 
d="M424 143v795h-156q-95 0 -126.5 -26.5t-57.5 -129.5h-53l28 271h41q0 -49 90 -49h654q29 0 42 2t30.5 12.5t35.5 34.5h41l-20 -271h-55q-9 99 -29.5 127.5t-83.5 28.5h-205v-795q0 -55 37.5 -72.5t126.5 -17.5v-53q-176 4 -256 4q-68 0 -248 -4v53q89 0 126.5 17.5
t37.5 72.5z" />
    <glyph glyph-name="u.sc" unicode="&#xf775;" horiz-adv-x="1251" 
d="M219 313v564q0 18 -6 31t-19 20.5t-24 12.5t-31.5 6.5t-30.5 2t-30 0.5v54q190 -5 233 -5q42 0 217 5v-54q-22 0 -32 -0.5t-29 -2t-29 -6t-21.5 -11.5t-16.5 -19.5t-5 -29.5v-557q0 -135 74.5 -200t200.5 -65q69 0 120 15.5t81.5 51t48.5 68t25.5 92t9 95t1.5 104.5v2
v242q0 65 -4 102t-11.5 63.5t-28 37t-44 14.5t-69.5 4v54q170 -5 205 -5q28 0 170 5v-54q-31 0 -49.5 -4t-37.5 -17.5t-27.5 -43.5t-8.5 -78v-416q0 -91 -23 -165t-70.5 -131t-128.5 -88.5t-190 -31.5q-420 0 -420 338z" />
    <glyph glyph-name="v.sc" unicode="&#xf776;" 
d="M535 -25l-367 879q-18 43 -29.5 60t-36.5 26.5t-73 9.5v54q175 -5 215 -5q37 0 227 5v-54h-49q-74 0 -74 -49q0 -16 14 -53l265 -653l241 612q23 54 23 90q0 13 -4.5 22.5t-15 15t-20.5 9t-29 4.5t-30.5 1.5t-35.5 0.5v54q165 -5 200 -5q31 0 154 5v-54q-25 0 -36 -1
t-26.5 -7t-25.5 -19.5t-23.5 -37.5t-29.5 -62l-363 -848h-71z" />
    <glyph glyph-name="w.sc" unicode="&#xf777;" horiz-adv-x="1593" 
d="M539 -25l-377 865q-21 49 -46.5 74.5t-45 30.5t-50.5 5v54q170 -5 203 -5q29 0 172 5v-54q-69 0 -69 -30q0 -32 26 -93l275 -661l145 291l-192 440q-14 32 -38 42.5t-67 10.5v54q142 -5 172 -5q20 0 67.5 2.5t69.5 2.5h168q16 0 53 -2.5t54 -2.5q23 0 110 5v-54
q-64 0 -86 -18t-65 -98l-123 -248l174 -410l281 676q10 20 10 47q0 18 -7.5 29t-24.5 15.5t-30.5 5.5t-40.5 1v54q143 -5 170 -5q23 0 146 5v-54q-52 0 -81.5 -21t-59.5 -91l-388 -863h-63l-178 414l-199 -414h-65zM784 856l80 -192l94 208q11 26 11 50q0 28 -66 28h-72
q-38 0 -49.5 -5t-11.5 -25q0 -32 14 -64z" />
    <glyph glyph-name="x.sc" unicode="&#xf778;" 
d="M481 467l-313 410q-37 42 -63.5 57.5t-81.5 15.5v54q190 -5 229 -5q40 0 215 5v-54q-100 0 -100 -28q0 -15 28 -54l193 -262l164 211q49 57 49 92q0 27 -24 34t-91 7v54q175 -5 217 -5q37 0 174 5v-54q-66 -3 -106.5 -21.5t-98.5 -84.5l-249 -289l331 -422
q34 -44 65.5 -58t96.5 -22v-53q-148 4 -223 4q-79 0 -231 -4v53h59q39 0 39 27q0 22 -23 53l-217 285l-176 -242q-4 -6 -13.5 -19t-13.5 -19.5t-8 -16.5t-4 -19q0 -27 25 -38t94 -11v-53q-132 4 -205 4q-64 0 -196 -4v53q65 0 111.5 25.5t98.5 87.5z" />
    <glyph glyph-name="y.sc" unicode="&#xf779;" 
d="M657 487v-364q0 -17 5.5 -29.5t18.5 -20t24.5 -12t35 -6t38 -2t44.5 -0.5v-53q-164 4 -250 4q-87 0 -251 -4v53q33 0 48 0.5t38 2.5t32.5 7t21 13.5t15.5 22.5t4 34v309l-325 445q-29 35 -57.5 49t-69.5 14v54q165 -5 217 -5q41 0 231 5v-54q-112 0 -112 -26q0 -4 1 -8.5
t2 -8t4.5 -8.5t5.5 -8l7 -10.5t8 -12.5l228 -325l198 276q43 54 43 84q0 18 -6 26.5t-32.5 14.5t-80.5 6v54q153 -5 197 -5q24 0 82 2.5t88 2.5v-54q-59 0 -95 -19t-95 -97z" />
    <glyph glyph-name="z.sc" unicode="&#xf77a;" 
d="M1030 1004l-706 -938h411q71 0 116 9.5t76 35.5t49 58t40 91l51 -8l-66 -252q-328 4 -497 4q-146 0 -432 -4l694 938h-363q-59 0 -101 -7.5t-67 -18.5t-40 -32t-21.5 -41.5t-11.5 -52.5h-51l34 271h45q5 -23 24 -36.5t67 -16.5q103 -5 297 -5q120 0 452 5z" />
    <glyph glyph-name="exclamdown.sc" unicode="&#xf7a1;" horiz-adv-x="681" 
d="M317 578h48l73 -500q31 -208 31 -285q0 -41 -4 -72t-16 -64t-39 -51t-68 -18q-34 0 -58.5 13t-37.5 32t-21 48.5t-10 54.5t-2 57q0 77 31 285zM340 993q55 0 95 -39t40 -94q0 -54 -40.5 -95.5t-94.5 -41.5t-94.5 41t-40.5 96t39.5 94t95.5 39z" />
    <glyph glyph-name="dieresis.sc" unicode="&#xf7a8;" horiz-adv-x="569" 
d="M578 1249q0 -36 -29 -64t-66 -28t-65.5 27.5t-28.5 64.5t28.5 65.5t65.5 28.5t66 -28.5t29 -65.5zM180 1249q0 -37 -28.5 -64.5t-65.5 -27.5q-38 0 -66 27.5t-28 64.5t28 65.5t66 28.5q37 0 65.5 -28.5t28.5 -65.5z" />
    <glyph glyph-name="macron.sc" unicode="&#xf7af;" horiz-adv-x="569" 
d="M557 1188h-545v110h545v-110z" />
    <glyph glyph-name="acute.sc" unicode="&#xf7b4;" horiz-adv-x="569" 
d="M57 1116h-71l274 273l15 15l17.5 17.5t16 14t20 14t18.5 7t22 3.5q26 0 45.5 -19.5t19.5 -41.5q0 -49 -35 -70z" />
    <glyph glyph-name="cedilla.sc" unicode="&#xf7b8;" horiz-adv-x="569" 
d="M317 0l-61 -131l4 -4q27 18 66 18q65 0 112 -41.5t47 -105.5q0 -60 -36.5 -100.5t-87 -56t-109.5 -15.5q-106 0 -180 30l28 62q92 -27 129 -27q47 0 84 23t37 65q0 37 -26.5 59.5t-65.5 22.5q-40 0 -74 -12l-28 10l90 203h71z" />
    <glyph glyph-name="questiondown.sc" unicode="&#xf7bf;" horiz-adv-x="909" 
d="M543 578h53v-369q-63 -3 -119 -18t-106.5 -44t-80.5 -81t-30 -121q0 -94 66.5 -160t191.5 -66q10 0 31 3.5t31 3.5q48 0 76 -27t28 -74t-30.5 -69.5t-78.5 -22.5q-75 0 -142.5 36t-115 93t-83 126.5t-53 138t-17.5 126.5q0 145 70 224.5t229 105.5q43 7 61.5 32.5
t18.5 96.5v66zM549 993q55 0 95 -39t40 -94q0 -54 -40.5 -95.5t-94.5 -41.5t-94.5 41t-40.5 96t39.5 94t95.5 39z" />
    <glyph glyph-name="agrave.sc" unicode="&#xf7e0;" 
d="M659 0v53h25q42 0 72 12.5t30 36.5q0 25 -16 68l-76 207h-348l-45 -133q-1 -3 -11.5 -35t-17 -56.5t-6.5 -41.5q0 -32 33.5 -45t73.5 -13h24v-53q-140 4 -209 4q-58 0 -168 -4v53q71 0 104 23.5t48 62.5l293 748q20 50 20 67q0 9 -4 29l158 59l307 -868
q25 -72 58.5 -96.5t113.5 -24.5v-53q-156 4 -229 4q-78 0 -230 -4zM672 442l-148 414h-4l-149 -414h301zM739 1075h-71l-342 213q-35 21 -35 70q0 22 19.5 41.5t45.5 19.5q11 0 22 -3.5t18.5 -7t20 -14t16 -14l17.5 -17.5l15 -15z" />
    <glyph glyph-name="aacute.sc" unicode="&#xf7e1;" 
d="M659 0v53h25q42 0 72 12.5t30 36.5q0 25 -16 68l-76 207h-348l-45 -133q-1 -3 -11.5 -35t-17 -56.5t-6.5 -41.5q0 -32 33.5 -45t73.5 -13h24v-53q-140 4 -209 4q-58 0 -168 -4v53q71 0 104 23.5t48 62.5l293 748q20 50 20 67q0 9 -4 29l158 59l307 -868
q25 -72 58.5 -96.5t113.5 -24.5v-53q-156 4 -229 4q-78 0 -230 -4zM672 442l-148 414h-4l-149 -414h301zM471 1075h-72l275 273q3 3 15 15.5t17 17t16.5 14t19 13.5t18.5 7.5t22 3.5q26 0 46 -19.5t20 -41.5q0 -49 -35 -70z" />
    <glyph glyph-name="acircumflex.sc" unicode="&#xf7e2;" 
d="M659 0v53h25q42 0 72 12.5t30 36.5q0 25 -16 68l-76 207h-348l-45 -133q-1 -3 -11.5 -35t-17 -56.5t-6.5 -41.5q0 -32 33.5 -45t73.5 -13h24v-53q-140 4 -209 4q-58 0 -168 -4v53q71 0 104 23.5t48 62.5l293 748q20 50 20 67q0 9 -4 29l158 59l307 -868
q25 -72 58.5 -96.5t113.5 -24.5v-53q-156 4 -229 4q-78 0 -230 -4zM672 442l-148 414h-4l-149 -414h301zM512 1419h115l250 -340h-68l-240 217l-239 -217h-68z" />
    <glyph glyph-name="atilde.sc" unicode="&#xf7e3;" 
d="M659 0v53h25q42 0 72 12.5t30 36.5q0 25 -16 68l-76 207h-348l-45 -133q-1 -3 -11.5 -35t-17 -56.5t-6.5 -41.5q0 -32 33.5 -45t73.5 -13h24v-53q-140 4 -209 4q-58 0 -168 -4v53q71 0 104 23.5t48 62.5l293 748q20 50 20 67q0 9 -4 29l158 59l307 -868
q25 -72 58.5 -96.5t113.5 -24.5v-53q-156 4 -229 4q-78 0 -230 -4zM672 442l-148 414h-4l-149 -414h301zM844 1329h55q-16 -89 -61.5 -151t-124.5 -62q-58 0 -162 49q-112 47 -152 47q-74 0 -104 -96h-55q23 103 73.5 158t118.5 55q60 0 158 -43q116 -47 155 -47
q42 0 62.5 22t36.5 68z" />
    <glyph glyph-name="adieresis.sc" unicode="&#xf7e4;" 
d="M659 0v53h25q42 0 72 12.5t30 36.5q0 25 -16 68l-76 207h-348l-45 -133q-1 -3 -11.5 -35t-17 -56.5t-6.5 -41.5q0 -32 33.5 -45t73.5 -13h24v-53q-140 4 -209 4q-58 0 -168 -4v53q71 0 104 23.5t48 62.5l293 748q20 50 20 67q0 9 -4 29l158 59l307 -868
q25 -72 58.5 -96.5t113.5 -24.5v-53q-156 4 -229 4q-78 0 -230 -4zM672 442l-148 414h-4l-149 -414h301zM862 1208q0 -37 -28.5 -64.5t-65.5 -27.5t-65.5 27.5t-28.5 64.5t28.5 66t65.5 29t65.5 -29t28.5 -66zM465 1208q0 -37 -28.5 -64.5t-65.5 -27.5q-38 0 -66.5 27.5
t-28.5 64.5t28.5 66t66.5 29q37 0 65.5 -29t28.5 -66z" />
    <glyph glyph-name="aring.sc" unicode="&#xf7e5;" 
d="M659 0v53h25q42 0 72 12.5t30 36.5q0 25 -16 68l-76 207h-348l-45 -133q-1 -3 -11.5 -35t-17 -56.5t-6.5 -41.5q0 -32 33.5 -45t73.5 -13h24v-53q-140 4 -209 4q-58 0 -168 -4v53q71 0 104 23.5t48 62.5l293 748q20 50 20 67q0 9 -4 29l158 59l307 -868
q25 -72 58.5 -96.5t113.5 -24.5v-53q-156 4 -229 4q-78 0 -230 -4zM672 442l-148 414h-4l-149 -414h301zM371 1262q0 80 59.5 139t138.5 59q80 0 139.5 -59.5t59.5 -138.5q0 -80 -59 -140.5t-140 -60.5t-139.5 60.5t-58.5 140.5zM436 1262q0 -58 37.5 -97t95.5 -39t95.5 39
t37.5 97q0 57 -38 95t-95 38t-95 -38t-38 -95z" />
    <glyph glyph-name="ae.sc" unicode="&#xf7e6;" horiz-adv-x="1593" 
d="M764 545v354q0 39 -12 39q-4 0 -8.5 -4t-11.5 -13.5t-12 -18t-15 -26t-17 -28.5l-174 -303h250zM764 143v340h-287l-115 -198q-6 -11 -16 -28.5t-15.5 -27.5t-13.5 -24t-12.5 -22.5t-10.5 -19.5t-9 -17.5t-6 -14t-4 -13t-1 -9.5q0 -20 10 -32t30.5 -17t36.5 -6t44 -1v-53
q-136 4 -202 4q-59 0 -173 -4v53q72 0 119 35t117 152l334 559q57 92 57 121q0 11 -7 17.5t-23.5 9t-26 3t-31.5 0.5h-55v54q357 -5 385 -5q89 0 504 5l12 -218h-43q-18 103 -63.5 127.5t-206.5 24.5h-152v-387h170q28 0 41.5 1.5t31.5 8.5t26 21.5t14 42.5t6 69h53
q-4 -106 -4 -164q0 -56 4 -170h-53q0 81 -23 103t-96 22h-170v-299q0 -67 46.5 -93.5t172.5 -26.5q54 0 88.5 2t63 10.5t43.5 17t30.5 30.5t24 41.5t23.5 59.5h51l-49 -227q-266 4 -426 4q-134 0 -396 -4v53q80 0 116 17.5t36 72.5z" />
    <glyph glyph-name="ccedilla.sc" unicode="&#xf7e7;" 
d="M1049 276l-39 -233q-21 -6 -59.5 -18.5t-54 -17t-45.5 -12.5t-51 -11t-50.5 -6t-63.5 -3l-51 -106l4 -4q27 18 66 18q65 0 112 -41.5t47 -105.5q0 -60 -36.5 -100.5t-87 -56t-109.5 -15.5q-106 0 -180 30l28 62q92 -27 129 -27q47 0 84 23t37 65q0 37 -26.5 59.5
t-65.5 22.5t-74 -12l-28 10l81 178q-241 18 -378.5 163.5t-137.5 363.5q0 158 76 279t203 184t283 63q87 0 188 -26t180 -29l12 -238h-47q0 17 -8 42t-29.5 58.5t-54 61t-88.5 47t-125 19.5q-56 0 -110 -13.5t-107.5 -45.5t-93.5 -80t-65 -124t-25 -170q0 -119 46.5 -229.5
t138.5 -185t208 -74.5q114 0 190 52.5t123 189.5z" />
    <glyph glyph-name="egrave.sc" unicode="&#xf7e8;" horiz-adv-x="1024" 
d="M975 227l-64 -227q-294 4 -440 4q-133 0 -395 -4v53q80 0 115.5 17.5t35.5 72.5v717q0 55 -35.5 72.5t-115.5 17.5v54q230 -5 276 -5q89 0 504 5l12 -218h-43q-18 103 -63.5 127.5t-206.5 24.5h-152v-387h170q47 0 68 2.5t43 16t29.5 43t7.5 81.5h53q-4 -106 -4 -164
q0 -56 4 -170h-53q0 82 -27 103.5t-121 21.5h-170v-299q0 -67 47 -93.5t173 -26.5q54 0 88.5 1.5t64 11t45 16.5t36 31t31.5 41t36 60h51zM700 1075h-71l-342 213q-35 21 -35 70q0 22 19.5 41.5t45.5 19.5q11 0 22 -3.5t18.5 -7t20 -14t16 -14l17.5 -17.5l15 -15z" />
    <glyph glyph-name="eacute.sc" unicode="&#xf7e9;" horiz-adv-x="1024" 
d="M975 227l-64 -227q-294 4 -440 4q-133 0 -395 -4v53q80 0 115.5 17.5t35.5 72.5v717q0 55 -35.5 72.5t-115.5 17.5v54q230 -5 276 -5q89 0 504 5l12 -218h-43q-18 103 -63.5 127.5t-206.5 24.5h-152v-387h170q47 0 68 2.5t43 16t29.5 43t7.5 81.5h53q-4 -106 -4 -164
q0 -56 4 -170h-53q0 82 -27 103.5t-121 21.5h-170v-299q0 -67 47 -93.5t173 -26.5q54 0 88.5 1.5t64 11t45 16.5t36 31t31.5 41t36 60h51zM414 1075h-72l274 273l15 15l17.5 17.5t16 14t20 14t18.5 7t22 3.5q27 0 46.5 -19.5t19.5 -41.5q0 -49 -35 -70z" />
    <glyph glyph-name="ecircumflex.sc" unicode="&#xf7ea;" horiz-adv-x="1024" 
d="M975 227l-64 -227q-294 4 -440 4q-133 0 -395 -4v53q80 0 115.5 17.5t35.5 72.5v717q0 55 -35.5 72.5t-115.5 17.5v54q230 -5 276 -5q89 0 504 5l12 -218h-43q-18 103 -63.5 127.5t-206.5 24.5h-152v-387h170q47 0 68 2.5t43 16t29.5 43t7.5 81.5h53q-4 -106 -4 -164
q0 -56 4 -170h-53q0 82 -27 103.5t-121 21.5h-170v-299q0 -67 47 -93.5t173 -26.5q54 0 88.5 1.5t64 11t45 16.5t36 31t31.5 41t36 60h51zM455 1419h114l250 -340h-67l-240 217l-240 -217h-67z" />
    <glyph glyph-name="edieresis.sc" unicode="&#xf7eb;" horiz-adv-x="1024" 
d="M975 227l-64 -227q-294 4 -440 4q-133 0 -395 -4v53q80 0 115.5 17.5t35.5 72.5v717q0 55 -35.5 72.5t-115.5 17.5v54q230 -5 276 -5q89 0 504 5l12 -218h-43q-18 103 -63.5 127.5t-206.5 24.5h-152v-387h170q47 0 68 2.5t43 16t29.5 43t7.5 81.5h53q-4 -106 -4 -164
q0 -56 4 -170h-53q0 82 -27 103.5t-121 21.5h-170v-299q0 -67 47 -93.5t173 -26.5q54 0 88.5 1.5t64 11t45 16.5t36 31t31.5 41t36 60h51zM805 1208q0 -37 -28.5 -64.5t-65.5 -27.5t-66 28t-29 64q0 37 29 66t66 29t65.5 -29t28.5 -66zM408 1208q0 -36 -29 -64t-66 -28
q-38 0 -66 27.5t-28 64.5t28 66t66 29q37 0 66 -29t29 -66z" />
    <glyph glyph-name="igrave.sc" unicode="&#xf7ec;" horiz-adv-x="679" 
d="M252 143v717q0 55 -36 72.5t-116 17.5v54q195 -5 236 -5q54 0 244 5v-54q-80 0 -116 -17.5t-36 -72.5v-717q0 -55 36 -72.5t116 -17.5v-53q-152 4 -244 4q-80 0 -236 -4v53q80 0 116 17.5t36 72.5zM492 1075h-72l-342 213q-35 21 -35 70q0 22 19.5 41.5t46.5 19.5
q11 0 22 -3.5t18.5 -7.5t19 -13.5t16.5 -14t17 -17t15 -15.5z" />
    <glyph glyph-name="iacute.sc" unicode="&#xf7ed;" horiz-adv-x="679" 
d="M252 143v717q0 55 -36 72.5t-116 17.5v54q195 -5 236 -5q54 0 244 5v-54q-80 0 -116 -17.5t-36 -72.5v-717q0 -55 36 -72.5t116 -17.5v-53q-152 4 -244 4q-80 0 -236 -4v53q80 0 116 17.5t36 72.5zM242 1075h-72l274 273l15 15l17.5 17.5t16 14t20 14t18.5 7t22 3.5
q26 0 45.5 -19.5t19.5 -41.5q0 -50 -34 -70z" />
    <glyph glyph-name="icircumflex.sc" unicode="&#xf7ee;" horiz-adv-x="679" 
d="M252 143v717q0 55 -36 72.5t-116 17.5v54q195 -5 236 -5q54 0 244 5v-54q-80 0 -116 -17.5t-36 -72.5v-717q0 -55 36 -72.5t116 -17.5v-53q-152 4 -244 4q-80 0 -236 -4v53q80 0 116 17.5t36 72.5zM283 1419h114l250 -340h-67l-240 217l-240 -217h-67z" />
    <glyph glyph-name="idieresis.sc" unicode="&#xf7ef;" horiz-adv-x="679" 
d="M252 143v717q0 55 -36 72.5t-116 17.5v54q195 -5 236 -5q54 0 244 5v-54q-80 0 -116 -17.5t-36 -72.5v-717q0 -55 36 -72.5t116 -17.5v-53q-152 4 -244 4q-80 0 -236 -4v53q80 0 116 17.5t36 72.5zM633 1208q0 -37 -28.5 -64.5t-65.5 -27.5t-66 28t-29 64q0 37 29 66
t66 29t65.5 -29t28.5 -66zM236 1208q0 -36 -29 -64t-66 -28q-38 0 -66 27.5t-28 64.5t28 66t66 29q37 0 66 -29t29 -66z" />
    <glyph glyph-name="eth.sc" unicode="&#xf7f0;" horiz-adv-x="1366" 
d="M252 143v342h-152v66h152v309q0 55 -36 72.5t-116 17.5v54q190 -5 246 -5q52 0 156 2.5t155 2.5q119 0 218.5 -28.5t167 -76.5t114 -112t67.5 -133t21 -142q0 -112 -34 -201.5t-90 -146.5t-134.5 -95t-162 -53.5t-177.5 -15.5q-46 0 -139.5 2t-132.5 2q-91 0 -275 -4v53
q80 0 116 17.5t36 72.5zM428 485v-290q0 -43 11 -70t35.5 -39.5t49.5 -16t68 -3.5q66 0 123.5 9t120 36.5t106.5 72t73 122.5t29 181q0 97 -23 177.5t-69.5 142.5t-122.5 96.5t-176 34.5q-36 0 -225 -6v-381h342v-66h-342z" />
    <glyph glyph-name="ntilde.sc" unicode="&#xf7f1;" horiz-adv-x="1251" 
d="M227 285v569q0 96 -164 96v54q122 -5 144 -5q29 0 137 5l625 -734v537q0 42 -7.5 69t-18 42t-35 22t-44 8.5t-59.5 1.5v54q165 -5 203 -5q36 0 184 5v-54q-82 0 -111.5 -17.5t-29.5 -88.5v-869h-50l-692 807v-546q0 -114 30.5 -148.5t143.5 -34.5v-53q-136 4 -215 4
q-69 0 -209 -4v53q61 0 96.5 13t50.5 50t18 68t3 101zM901 1329h55q-16 -89 -61.5 -151t-124.5 -62q-58 0 -162 49q-112 47 -151 47t-65.5 -27t-39.5 -69h-55q23 103 73.5 158t118.5 55q60 0 158 -43q116 -47 156 -47q42 0 62 22t36 68z" />
    <glyph glyph-name="ograve.sc" unicode="&#xf7f2;" horiz-adv-x="1366" 
d="M121 506q0 117 47.5 216.5t127 165.5t183.5 103t217 37q245 0 397 -147.5t152 -372.5q0 -96 -39.5 -190.5t-109.5 -171t-178.5 -124t-235.5 -47.5q-252 0 -406.5 147.5t-154.5 383.5zM322 526q0 -205 111 -345t272 -140q75 0 134 25.5t97 67.5t63 100.5t35 121t10 131.5
q0 213 -106.5 344.5t-271.5 131.5q-72 0 -130 -24.5t-97.5 -65.5t-66 -97.5t-38.5 -119t-12 -130.5zM854 1075h-72l-342 213q-34 20 -34 70q0 22 19.5 41.5t45.5 19.5q11 0 22 -3.5t18.5 -7t20 -14t16 -14l17.5 -17.5l15 -15z" />
    <glyph glyph-name="oacute.sc" unicode="&#xf7f3;" horiz-adv-x="1366" 
d="M121 506q0 117 47.5 216.5t127 165.5t183.5 103t217 37q245 0 397 -147.5t152 -372.5q0 -96 -39.5 -190.5t-109.5 -171t-178.5 -124t-235.5 -47.5q-252 0 -406.5 147.5t-154.5 383.5zM322 526q0 -205 111 -345t272 -140q75 0 134 25.5t97 67.5t63 100.5t35 121t10 131.5
q0 213 -106.5 344.5t-271.5 131.5q-72 0 -130 -24.5t-97.5 -65.5t-66 -97.5t-38.5 -119t-12 -130.5zM567 1075h-71l274 273l15 15l17.5 17.5t16 14t20 14t18.5 7t22 3.5q26 0 45.5 -19.5t19.5 -41.5q0 -49 -35 -70z" />
    <glyph glyph-name="ocircumflex.sc" unicode="&#xf7f4;" horiz-adv-x="1366" 
d="M121 506q0 117 47.5 216.5t127 165.5t183.5 103t217 37q245 0 397 -147.5t152 -372.5q0 -96 -39.5 -190.5t-109.5 -171t-178.5 -124t-235.5 -47.5q-252 0 -406.5 147.5t-154.5 383.5zM322 526q0 -205 111 -345t272 -140q75 0 134 25.5t97 67.5t63 100.5t35 121t10 131.5
q0 213 -106.5 344.5t-271.5 131.5q-72 0 -130 -24.5t-97.5 -65.5t-66 -97.5t-38.5 -119t-12 -130.5zM627 1419h114l250 -340h-67l-240 217l-240 -217h-67z" />
    <glyph glyph-name="otilde.sc" unicode="&#xf7f5;" horiz-adv-x="1366" 
d="M121 506q0 117 47.5 216.5t127 165.5t183.5 103t217 37q245 0 397 -147.5t152 -372.5q0 -96 -39.5 -190.5t-109.5 -171t-178.5 -124t-235.5 -47.5q-252 0 -406.5 147.5t-154.5 383.5zM322 526q0 -205 111 -345t272 -140q75 0 134 25.5t97 67.5t63 100.5t35 121t10 131.5
q0 213 -106.5 344.5t-271.5 131.5q-72 0 -130 -24.5t-97.5 -65.5t-66 -97.5t-38.5 -119t-12 -130.5zM958 1329h56q-16 -89 -62 -151t-125 -62q-57 0 -161 49q-112 47 -152 47q-74 0 -104 -96h-56q23 103 74 158t119 55q60 0 158 -43q116 -47 155 -47q42 0 62 22t36 68z" />
    <glyph glyph-name="odieresis.sc" unicode="&#xf7f6;" horiz-adv-x="1366" 
d="M121 506q0 117 47.5 216.5t127 165.5t183.5 103t217 37q245 0 397 -147.5t152 -372.5q0 -96 -39.5 -190.5t-109.5 -171t-178.5 -124t-235.5 -47.5q-252 0 -406.5 147.5t-154.5 383.5zM322 526q0 -205 111 -345t272 -140q75 0 134 25.5t97 67.5t63 100.5t35 121t10 131.5
q0 213 -106.5 344.5t-271.5 131.5q-72 0 -130 -24.5t-97.5 -65.5t-66 -97.5t-38.5 -119t-12 -130.5zM977 1208q0 -37 -28.5 -64.5t-65.5 -27.5t-66 28t-29 64q0 37 29 66t66 29t65.5 -29t28.5 -66zM580 1208q0 -36 -29 -64t-66 -28q-38 0 -66 27.5t-28 64.5t28 66t66 29
q37 0 66 -29t29 -66z" />
    <glyph glyph-name="oslash.sc" unicode="&#xf7f8;" horiz-adv-x="1366" 
d="M395 242l555 573q-119 148 -284 148q-72 0 -130 -24.5t-97.5 -65.5t-66 -97.5t-38.5 -119t-12 -130.5q0 -163 73 -284zM979 770l-557 -573q54 -74 127 -115t156 -41q75 0 134 25.5t97 67.5t63 100.5t35 121t10 131.5q0 160 -65 283zM1051 918l153 159l39 -33l-153 -159
q155 -149 155 -377q0 -96 -39.5 -190.5t-109.5 -171t-178.5 -124t-235.5 -47.5q-217 0 -365 113l-155 -162l-39 33l156 162q-76 68 -117 167t-41 218q0 117 47.5 216.5t127 165.5t183.5 103t217 37q210 0 355 -110z" />
    <glyph glyph-name="ugrave.sc" unicode="&#xf7f9;" horiz-adv-x="1251" 
d="M219 313v564q0 18 -6 31t-19 20.5t-24 12.5t-31.5 6.5t-30.5 2t-30 0.5v54q190 -5 233 -5q42 0 217 5v-54q-22 0 -32 -0.5t-29 -2t-29 -6t-21.5 -11.5t-16.5 -19.5t-5 -29.5v-557q0 -135 74.5 -200t200.5 -65q69 0 120 15.5t81.5 51t48.5 68t25.5 92t9 95t1.5 104.5v2
v242q0 65 -4 102t-11.5 63.5t-28 37t-44 14.5t-69.5 4v54q170 -5 205 -5q28 0 170 5v-54q-31 0 -49.5 -4t-37.5 -17.5t-27.5 -43.5t-8.5 -78v-416q0 -91 -23 -165t-70.5 -131t-128.5 -88.5t-190 -31.5q-420 0 -420 338zM817 1075h-72l-342 213q-34 20 -34 70q0 22 19.5 41.5
t45.5 19.5q11 0 22 -3.5t18.5 -7t20 -14t16 -14l17.5 -17.5l15 -15z" />
    <glyph glyph-name="uacute.sc" unicode="&#xf7fa;" horiz-adv-x="1251" 
d="M219 313v564q0 18 -6 31t-19 20.5t-24 12.5t-31.5 6.5t-30.5 2t-30 0.5v54q190 -5 233 -5q42 0 217 5v-54q-22 0 -32 -0.5t-29 -2t-29 -6t-21.5 -11.5t-16.5 -19.5t-5 -29.5v-557q0 -135 74.5 -200t200.5 -65q69 0 120 15.5t81.5 51t48.5 68t25.5 92t9 95t1.5 104.5v2
v242q0 65 -4 102t-11.5 63.5t-28 37t-44 14.5t-69.5 4v54q170 -5 205 -5q28 0 170 5v-54q-31 0 -49.5 -4t-37.5 -17.5t-27.5 -43.5t-8.5 -78v-416q0 -91 -23 -165t-70.5 -131t-128.5 -88.5t-190 -31.5q-420 0 -420 338zM588 1075h-72l275 273q3 3 15 15.5t17 17t16.5 14
t19 13.5t18.5 7.5t22 3.5q27 0 46.5 -19.5t19.5 -41.5q0 -49 -35 -70z" />
    <glyph glyph-name="ucircumflex.sc" unicode="&#xf7fb;" horiz-adv-x="1251" 
d="M219 313v564q0 18 -6 31t-19 20.5t-24 12.5t-31.5 6.5t-30.5 2t-30 0.5v54q190 -5 233 -5q42 0 217 5v-54q-22 0 -32 -0.5t-29 -2t-29 -6t-21.5 -11.5t-16.5 -19.5t-5 -29.5v-557q0 -135 74.5 -200t200.5 -65q69 0 120 15.5t81.5 51t48.5 68t25.5 92t9 95t1.5 104.5v2
v242q0 65 -4 102t-11.5 63.5t-28 37t-44 14.5t-69.5 4v54q170 -5 205 -5q28 0 170 5v-54q-31 0 -49.5 -4t-37.5 -17.5t-27.5 -43.5t-8.5 -78v-416q0 -91 -23 -165t-70.5 -131t-128.5 -88.5t-190 -31.5q-420 0 -420 338zM610 1419h115l250 -340h-68l-239 217l-240 -217h-68z
" />
    <glyph glyph-name="udieresis.sc" unicode="&#xf7fc;" horiz-adv-x="1251" 
d="M219 313v564q0 18 -6 31t-19 20.5t-24 12.5t-31.5 6.5t-30.5 2t-30 0.5v54q190 -5 233 -5q42 0 217 5v-54q-22 0 -32 -0.5t-29 -2t-29 -6t-21.5 -11.5t-16.5 -19.5t-5 -29.5v-557q0 -135 74.5 -200t200.5 -65q69 0 120 15.5t81.5 51t48.5 68t25.5 92t9 95t1.5 104.5v2
v242q0 65 -4 102t-11.5 63.5t-28 37t-44 14.5t-69.5 4v54q170 -5 205 -5q28 0 170 5v-54q-31 0 -49.5 -4t-37.5 -17.5t-27.5 -43.5t-8.5 -78v-416q0 -91 -23 -165t-70.5 -131t-128.5 -88.5t-190 -31.5q-420 0 -420 338zM975 1208q0 -37 -28.5 -64.5t-65.5 -27.5t-66 28
t-29 64q0 37 29 66t66 29t65.5 -29t28.5 -66zM578 1208q0 -36 -29 -64t-66 -28q-38 0 -66 27.5t-28 64.5t28 66t66 29q37 0 66 -29t29 -66z" />
    <glyph glyph-name="yacute.sc" unicode="&#xf7fd;" 
d="M657 487v-364q0 -17 5.5 -29.5t18.5 -20t24.5 -12t35 -6t38 -2t44.5 -0.5v-53q-164 4 -250 4q-87 0 -251 -4v53q33 0 48 0.5t38 2.5t32.5 7t21 13.5t15.5 22.5t4 34v309l-325 445q-29 35 -57.5 49t-69.5 14v54q165 -5 217 -5q41 0 231 5v-54q-112 0 -112 -26q0 -4 1 -8.5
t2 -8t4.5 -8.5t5.5 -8l7 -10.5t8 -12.5l228 -325l198 276q43 54 43 84q0 18 -6 26.5t-32.5 14.5t-80.5 6v54q153 -5 197 -5q24 0 82 2.5t88 2.5v-54q-59 0 -95 -19t-95 -97zM502 1075h-72l275 273q3 3 15 15.5t17 17t16.5 14t19 13.5t18.5 7.5t22 3.5q27 0 46.5 -19.5
t19.5 -41.5q0 -49 -35 -70z" />
    <glyph glyph-name="thorn.sc" unicode="&#xf7fe;" horiz-adv-x="1024" 
d="M252 143v717q0 55 -36 72.5t-116 17.5v54q195 -5 236 -5q54 0 244 5v-54q-80 0 -116 -17.5t-36 -72.5v-63q153 6 203 6q67 0 122 -14.5t100.5 -46t71 -88t25.5 -132.5q0 -64 -24.5 -116.5t-63 -85.5t-87.5 -55.5t-94.5 -32t-88.5 -9.5q-46 0 -70 6v54q2 0 24 -3.5
t34 -3.5q182 0 182 218q0 256 -250 256q-49 0 -84 -7v-600q0 -55 36 -72.5t116 -17.5v-53q-152 4 -244 4q-80 0 -236 -4v53q80 0 116 17.5t36 72.5z" />
    <glyph glyph-name="ydieresis.sc" unicode="&#xf7ff;" 
d="M657 487v-364q0 -17 5.5 -29.5t18.5 -20t24.5 -12t35 -6t38 -2t44.5 -0.5v-53q-164 4 -250 4q-87 0 -251 -4v53q33 0 48 0.5t38 2.5t32.5 7t21 13.5t15.5 22.5t4 34v309l-325 445q-29 35 -57.5 49t-69.5 14v54q165 -5 217 -5q41 0 231 5v-54q-112 0 -112 -26q0 -4 1 -8.5
t2 -8t4.5 -8.5t5.5 -8l7 -10.5t8 -12.5l228 -325l198 276q43 54 43 84q0 18 -6 26.5t-32.5 14.5t-80.5 6v54q153 -5 197 -5q24 0 82 2.5t88 2.5v-54q-59 0 -95 -19t-95 -97zM887 1208q0 -37 -28.5 -64.5t-65.5 -27.5t-66 28t-29 64q0 37 29 66t66 29t65.5 -29t28.5 -66z
M489 1208q0 -37 -28.5 -64.5t-65.5 -27.5q-38 0 -66 27.5t-28 64.5t28 66t66 29q37 0 65.5 -29t28.5 -66z" />
    <glyph glyph-name="fi" unicode="&#xfb01;" 
d="M367 795v-693q0 -17 7.5 -28t24.5 -15t29 -5t35 -1h53v-53q-98 4 -223 4q-96 0 -244 -4v53h68q51 0 68.5 18.5t17.5 47.5v676h-144v34q1 0 26.5 13t39.5 22t35.5 25t32 35t10.5 39q0 270 153.5 436t388.5 166q99 0 161.5 -41.5t62.5 -118.5q0 -96 -88 -96
q-39 0 -58.5 17.5t-26 43t-15.5 51t-38.5 43t-83.5 17.5q-62 0 -108.5 -17t-78 -54t-51.5 -82.5t-31.5 -116t-16 -139.5t-6.5 -167h407q41 0 71 6.5t43 15t22.5 15t13.5 6.5q17 0 22.5 -10.5t5.5 -30.5v-786q0 -20 6 -33.5t13.5 -20t23.5 -10t27 -4t33 -0.5h35v-53
q-34 0 -106 2t-110 2q-71 0 -223 -4v53h39q22 0 32.5 0.5t26 4t22 10.5t12 20t5.5 33v633q0 28 -13 34.5t-56 6.5h-352z" />
    <glyph glyph-name="fl" unicode="&#xfb02;" 
d="M852 1532l78 33h22v-1444q0 -20 6 -33.5t13.5 -20t23.5 -10t27 -4t33 -0.5h35v-53q-34 0 -106 2t-110 2q-71 0 -223 -4v53h39q22 0 32.5 0.5t26 4t22 10.5t12 20t5.5 33v1136q0 224 -161 224q-48 0 -85.5 -14t-64.5 -37.5t-46 -64t-30.5 -83.5t-19 -107.5t-10.5 -125
t-4 -144.5h235v-110h-235v-693q0 -17 7.5 -28t24.5 -15t29 -5t35 -1h53v-53q-98 4 -223 4q-96 0 -244 -4v53h68q51 0 68.5 18.5t17.5 47.5v676h-144v34q1 0 26.5 13t39.5 22t35.5 25t32 35t10.5 39q0 272 143.5 437t376.5 165q76 0 129 -33z" />
    <glyph glyph-name="one.superior" horiz-adv-x="739" 
d="M467 1444v-762q0 -29 19 -40t69 -11h76v-53q-45 0 -118.5 1t-106.5 1q-162 0 -238 -2v53h76q50 0 69 11t19 40v637q-1 0 -191 -94l-18 43q125 57 317 176h27z" />
    <glyph glyph-name="two.superior" horiz-adv-x="739" 
d="M229 688h394l30 51h39l-39 -161h-596q-10 0 -10 18v12q0 3 10 13q115 85 213 190q197 215 197 360q0 80 -39 128.5t-123 48.5q-55 0 -96 -26t-86 -77l-37 25q28 38 51.5 63t60 53.5t84 43t103.5 14.5q103 0 168 -65t65 -160q0 -50 -21 -104.5t-49 -97.5t-76 -96t-82 -85
t-87.5 -80.5t-73.5 -67.5z" />
    <glyph glyph-name="three.superior" horiz-adv-x="739" 
d="M250 985v53q88 6 155.5 59t67.5 124q0 65 -36.5 102t-100.5 37q-52 0 -89.5 -18t-78.5 -56l-29 23q65 69 124.5 102t150.5 33q80 0 137 -49.5t57 -124.5q0 -71 -57 -129t-139 -88l4 -4q24 2 53.5 -1.5t64 -16t62.5 -33.5t47 -59t19 -87q0 -47 -22 -96.5t-64.5 -94.5
t-115.5 -73.5t-163 -28.5q-96 0 -157.5 34.5t-61.5 68.5q0 17 13.5 28.5t29.5 11.5q15 0 30.5 -14t29 -31t46.5 -31t80 -14q93 0 148 56t55 135q0 109 -68 149t-192 33z" />
    <glyph glyph-name="dotlessi.sc" horiz-adv-x="679" 
d="M252 143v717q0 55 -36 72.5t-116 17.5v54q195 -5 236 -5q54 0 244 5v-54q-80 0 -116 -17.5t-36 -72.5v-717q0 -55 36 -72.5t116 -17.5v-53q-152 4 -244 4q-80 0 -236 -4v53q80 0 116 17.5t36 72.5z" />
    <glyph glyph-name="a.superior" horiz-adv-x="665" 
d="M385 1001v154q-110 -33 -160.5 -63.5t-50.5 -79.5q0 -36 20.5 -58t57.5 -22q72 0 133 69zM506 1343v-339q0 -72 47 -72q27 0 45 18l14 -22q-67 -62 -129 -62q-40 0 -67 29.5t-29 67.5q-93 -97 -207 -97q-53 0 -90 35t-37 84q0 62 57 95t222 88q35 12 53 18v88
q0 50 -31 77t-84 27q-38 0 -63.5 -23t-28.5 -63q0 -24 -27.5 -37.5t-56.5 -13.5q-24 0 -24 25q0 23 9.5 41t34 36t45.5 29.5t64 32.5l21 10.5t20.5 10t17 7.5t19.5 6.5t19.5 3t23.5 1.5q53 0 107.5 -28t54.5 -73z" />
    <glyph glyph-name="o.superior" horiz-adv-x="739" 
d="M53 1151q0 121 89.5 207t219.5 86q137 0 230.5 -79.5t93.5 -207.5q0 -119 -90 -205t-217 -86q-138 0 -232 79.5t-94 205.5zM188 1163q0 -40 10 -82t31 -82.5t59.5 -66t88.5 -25.5q47 0 82.5 22t54.5 58.5t28 76t9 81.5q0 41 -10 83t-31 83t-59.5 66.5t-88.5 25.5
q-48 0 -83.5 -22t-54.5 -59t-27.5 -76.5t-8.5 -82.5z" />
    <glyph glyph-name="fi.sc" horiz-adv-x="1703" 
d="M252 143v717q0 55 -36 72.5t-116 17.5v54q332 -5 398 -5q134 0 432 5l8 -226h-41q-20 104 -65.5 132t-184.5 28h-219v-387h193q37 0 55 1t40 7.5t30.5 20t15 37.5t6.5 61h53q-4 -106 -4 -164q0 -56 4 -170h-53q0 50 -5 76.5t-23.5 42t-43.5 19t-75 3.5h-193v-301
q0 -78 32 -104.5t109 -26.5h43v-53q-160 4 -276 4q-80 0 -236 -4v53q80 0 116 17.5t36 72.5zM1276 143v717q0 55 -36 72.5t-116 17.5v54q195 -5 236 -5q54 0 244 5v-54q-80 0 -116 -17.5t-36 -72.5v-717q0 -55 36 -72.5t116 -17.5v-53q-152 4 -244 4q-80 0 -236 -4v53
q80 0 116 17.5t36 72.5z" />
    <glyph glyph-name="fl.sc" horiz-adv-x="2048" 
d="M252 143v717q0 55 -36 72.5t-116 17.5v54q332 -5 398 -5q134 0 432 5l8 -226h-41q-20 104 -65.5 132t-184.5 28h-219v-387h193q37 0 55 1t40 7.5t30.5 20t15 37.5t6.5 61h53q-4 -106 -4 -164q0 -56 4 -170h-53q0 50 -5 76.5t-23.5 42t-43.5 19t-75 3.5h-193v-301
q0 -78 32 -104.5t109 -26.5h43v-53q-160 4 -276 4q-80 0 -236 -4v53q80 0 116 17.5t36 72.5zM1305 143v717q0 55 -36 72.5t-116 17.5v54q195 -5 236 -5q53 0 243 5v-54q-31 0 -50.5 -1.5t-41 -6.5t-33 -14t-19 -26t-7.5 -42v-682q0 -67 35 -89.5t153 -22.5q72 0 114 6.5
t77 29t58.5 58t53.5 100.5h51l-61 -260q-106 4 -379 4q-144 0 -430 -4v53q80 0 116 17.5t36 72.5z" />
    </font>
</defs>
</svg>
