<?xml version="1.0" standalone="no"?>
<!DOCTYPE svg PUBLIC "-//W3C//DTD SVG 1.1//EN" "http://www.w3.org/Graphics/SVG/1.1/DTD/svg11.dtd" >
<svg xmlns="http://www.w3.org/2000/svg" xmlns:xlink="http://www.w3.org/1999/xlink" version="1.1">
<metadata>
Created by FontForge 20170731 at Fri Feb 11 20:33:21 2022
 By Aleksey,,,
(c) 1989, 2002 Adobe Systems Incorporated. All rights reserved.
</metadata>
<defs>
<font id="SabonLTStd-Bold" horiz-adv-x="1138" >
  <font-face 
    font-family="Sabon LT Std"
    font-weight="700"
    font-stretch="normal"
    units-per-em="2048"
    panose-1="2 2 7 2 5 5 6 2 4 3"
    ascent="1565"
    descent="-483"
    x-height="920"
    cap-height="1430"
    bbox="-334 -467.02 2048 1982"
    underline-thickness="102"
    underline-position="-307"
    unicode-range="U+0020-FB02"
  />
<missing-glyph horiz-adv-x="1024" 
d="M0 0v1434h1024v-1434h-1024zM512 809l348 522h-696zM573 717l349 -522v1044zM164 102h696l-348 523zM102 1239v-1044l349 522z" />
    <glyph glyph-name="f_i" unicode="fi" 
d="M403 805v-664q-1 -50 22.5 -65t76.5 -15h39v-61q-204 8 -256 8q-84 0 -256 -8v61h47q29 0 43 1.5t29 9t20.5 23.5t5.5 44v666h-145v37q60 28 145 82v131q0 132 72 249.5t197.5 189t271.5 71.5q71 0 132.5 -18t105.5 -61.5t44 -105.5q0 -50 -32.5 -74t-83.5 -24
q-43 0 -67 20t-34 48t-21.5 56.5t-41.5 48.5t-82 20q-38 0 -69 -8.5t-54 -21.5t-40.5 -37t-29 -44t-19.5 -55t-11.5 -58.5t-5.5 -65.5t-2.5 -64.5t-0.5 -66.5v-3.5v-3v-3.5v-124h422q28 0 51.5 9.5t32 16.5t31.5 29l41 -25v-839q0 -18 7.5 -28.5t23.5 -15t29.5 -5.5t37.5 -1
h31v-61q-156 8 -233 8q-86 0 -246 -8v61h14q22 0 34 0.5t28.5 3.5t24.5 9.5t14 18.5t6 30v579q0 58 -18 80.5t-64 22.5h-267z" />
    <glyph glyph-name="f_l" unicode="fl" 
d="M403 805v-664q-1 -50 22.5 -65t76.5 -15h39v-61q-204 8 -256 8q-84 0 -256 -8v61h47q29 0 43 1.5t29 9t20.5 23.5t5.5 44v666h-145v37q60 28 145 82v73q0 182 113 338q80 110 186 170t223 60q25 0 48 -2.5t48.5 -8.5t37.5 -9.5t40 -12.5t31 -10l55 28l25 -10v-1434
q0 -16 8.5 -26t26.5 -13.5t30.5 -4.5t34.5 -1h29v-61q-168 8 -250 8q-75 0 -227 -8v61h24q23 0 35 1t28.5 4.5t24 13.5t7.5 26v1293q-57 63 -144 63q-108 0 -156.5 -76.5t-48.5 -261.5v-204h246v-115h-246z" />
    <glyph glyph-name=".notdef" horiz-adv-x="1024" 
d="M0 0v1434h1024v-1434h-1024zM512 809l348 522h-696zM573 717l349 -522v1044zM164 102h696l-348 523zM102 1239v-1044l349 522z" />
    <glyph glyph-name=".null" horiz-adv-x="0" 
 />
    <glyph glyph-name="nonmarkingreturn" horiz-adv-x="682" 
 />
    <glyph glyph-name="space" unicode=" " horiz-adv-x="569" 
 />
    <glyph glyph-name="exclam" unicode="!" horiz-adv-x="681" 
d="M362 406h-40q-20 119 -63.5 339.5t-61.5 319.5q-11 65 -11 127q0 79 39 138t115 59q83 0 118.5 -59.5t35.5 -149.5q0 -73 -11 -127q-21 -107 -61 -323.5t-60 -323.5zM504 131q0 -66 -49 -114t-115 -48q-65 0 -113.5 48t-48.5 114q0 65 49 114.5t113 49.5t114 -49.5
t50 -114.5z" />
    <glyph glyph-name="quotedbl" unicode="&#x22;" 
d="M846 1280l-43 -373q-3 -30 -16 -42.5t-44 -12.5q-34 0 -47 12t-16 43l-43 373q-4 24 -4 41q0 23 3.5 39.5t13 33.5t31.5 26.5t56 9.5q68 0 90.5 -30t22.5 -79q0 -17 -4 -41zM502 1280l-43 -373q-3 -30 -16 -42.5t-44 -12.5q-34 0 -47 12t-16 43l-43 373q-4 24 -4 41
q0 23 3.5 39.5t13 33.5t31.5 26.5t56 9.5q68 0 90.5 -30t22.5 -79q0 -17 -4 -41z" />
    <glyph glyph-name="numbersign" unicode="#" 
d="M57 403v140h217l41 297h-198v139h219l59 434h158l-59 -434h233l59 434h158l-59 -434h196v-139h-217l-41 -297h199v-140h-219l-60 -434h-157l59 434h-233l-60 -434h-157l59 434h-197zM705 840h-228l-41 -297h230z" />
    <glyph glyph-name="dollar" unicode="$" 
d="M532 909v461q-147 -51 -147 -237q0 -78 38.5 -130.5t108.5 -93.5zM594 555v-489q63 -2 123.5 71.5t60.5 159.5q0 90 -47.5 150.5t-136.5 107.5zM143 377l58 12q38 -124 49 -150q50 -122 150 -160q56 -21 132 -20v531q-60 30 -98.5 52t-85 53.5t-75.5 64t-55 74t-38 93
t-12 113.5q0 174 98 284.5t266 135.5v115h62v-115q135 0 321 -24q-2 -74 21 -295l-62 -11q-9 102 -74.5 179t-158.5 77q-33 0 -47 -2v-510q157 -82 200 -110q129 -84 173 -194q28 -73 28 -167q0 -162 -119.5 -293.5t-281.5 -140.5v-178h-62v178q-177 0 -356 97z" />
    <glyph glyph-name="percent" unicode="%" horiz-adv-x="2048" 
d="M1362 322q0 -279 139 -279t139 279q0 278 -139 278t-139 -278zM1145 322q0 156 97 254t259 98t259.5 -98t97.5 -254t-97.5 -254.5t-259.5 -98.5t-259 98.5t-97 254.5zM190 1092q0 156 97.5 254t259.5 98t259 -98t97 -254t-97 -254.5t-259 -98.5t-259.5 98.5t-97.5 254.5z
M408 1092q0 -279 139 -279t139 279q0 278 -139 278t-139 -278zM520 -61l901 1536h111l-901 -1536h-111z" />
    <glyph glyph-name="ampersand" unicode="&#x26;" horiz-adv-x="1933" 
d="M635 965q129 96 129 223q0 70 -45.5 119t-116.5 49q-64 0 -106.5 -44.5t-42.5 -107.5q0 -140 182 -239zM1241 1008v59q188 -8 285 -8q94 0 286 8v-61q-27 0 -110 -9q-58 -4 -118.5 -45.5t-114.5 -108t-99 -132t-93.5 -139t-76.5 -107.5q35 -53 59.5 -87.5t70.5 -88.5
t85 -87t91 -58t102 -25q69 0 118 29t99 90l43 -33q-73 -110 -173.5 -180t-217.5 -70q-61 0 -116.5 19t-96.5 46.5t-83.5 73.5t-71 85.5t-65.5 96.5q-240 -307 -512 -307q-181 0 -298 120t-117 302q0 140 92.5 260.5t228.5 192.5q-153 114 -153 284q0 131 105 216.5t239 85.5
q52 0 101 -12t93 -36t70.5 -66.5t26.5 -98.5q0 -35 -7.5 -65t-25 -55.5t-33.5 -44t-46 -40.5t-48.5 -33.5t-54.5 -33.5l-15 -9q268 -147 469 -418q1 2 39 62.5t59.5 97t53 93.5t47.5 97.5t16 63.5q0 81 -133 76zM485 811q-172 -133 -172 -293q0 -148 108.5 -250t258.5 -102
q107 0 177 38t153 124q-208 295 -525 483z" />
    <glyph glyph-name="quotesingle" unicode="'" horiz-adv-x="569" 
d="M389 1280l-43 -373q-3 -30 -15.5 -42.5t-43.5 -12.5q-34 0 -47.5 12.5t-16.5 42.5l-43 373q-4 24 -4 41q0 49 21 79t84 30q36 0 60 -9t34.5 -26.5t14 -34t3.5 -39.5q0 -17 -4 -41z" />
    <glyph glyph-name="parenleft" unicode="(" horiz-adv-x="681" 
d="M451 1473l61 -37q-104 -278 -157.5 -479.5t-53.5 -405.5q0 -205 54 -410t157 -473l-68 -51q-139 197 -219 434.5t-80 493.5q0 225 76 441.5t230 486.5z" />
    <glyph glyph-name="parenright" unicode=")" horiz-adv-x="681" 
d="M231 -383l-61 37q104 278 157.5 479.5t53.5 405.5q0 205 -54 409.5t-157 472.5l68 52q139 -197 219 -434.5t80 -493.5q0 -225 -76 -441.5t-230 -486.5z" />
    <glyph glyph-name="asterisk" unicode="*" 
d="M940 1040q0 -39 -19.5 -63.5t-58.5 -24.5q-11 0 -25 2t-34 6.5t-35 8.5t-41 12.5t-39 12.5t-43 13.5t-39 12.5q6 7 8.5 22t-0.5 21l60 22.5t67 24.5t58 15.5t63 7.5q34 0 56 -26.5t22 -66.5zM199 909q0 13 8 25.5t22.5 23t31.5 19.5t40.5 16.5t42.5 13.5t44 11.5
t39.5 8.5t33.5 6.5t22 4.5q9 -28 23 -34q-3 -3 -24.5 -32.5t-34 -45t-37 -43t-42.5 -42.5t-40.5 -27.5t-40.5 -12.5q-39 0 -63.5 33.5t-24.5 74.5zM610 666q-41 0 -61.5 24t-20.5 60q0 73 4 237q3 0 12 -1t13 -1q12 0 18 6q70 -98 104 -154t34 -87q0 -35 -32.5 -59.5
t-70.5 -24.5zM244 1309q57 64 114 16q19 -15 36.5 -33t35 -43t28 -41.5t30 -50t26.5 -45.5q-6 -2 -16 -13t-11 -20q-20 8 -79.5 29t-95.5 38.5t-64 41.5q-23 18 -27 53q0 35 23 68zM645 1430q37 2 71 -20.5t34 -57.5q0 -12 -5.5 -28.5t-13 -31.5t-21 -36.5t-23 -35t-27 -36
t-25 -31t-24 -28.5t-17.5 -21q-20 16 -39 16q6 99 6 199q0 50 22.5 80.5t61.5 30.5z" />
    <glyph glyph-name="plus" unicode="+" 
d="M477 608v424h185v-424h423v-184h-423v-424h-185v424h-424v184h424z" />
    <glyph glyph-name="comma" unicode="," horiz-adv-x="569" 
d="M106 -352l-32 55q40 11 76.5 26.5t73.5 40t59 59.5t22 77q0 41 -18.5 65.5t-45.5 35.5t-54 22.5t-45.5 38t-18.5 71.5q0 62 44.5 109t106.5 47q95 0 147 -69t52 -167q0 -159 -102 -263.5t-265 -147.5z" />
    <glyph glyph-name="hyphen" unicode="-" horiz-adv-x="681" 
d="M53 406l35 163q92 -2 277 -2q44 0 132 1t132 1l-35 -163q-39 0 -118 1t-118 1q-254 0 -305 -2z" />
    <glyph glyph-name="period" unicode="." horiz-adv-x="569" 
d="M449 131q0 -66 -49 -114t-115 -48q-65 0 -113.5 48t-48.5 114q0 65 49 114.5t113 49.5q65 0 114.5 -49.5t49.5 -114.5z" />
    <glyph glyph-name="slash" unicode="/" horiz-adv-x="796" 
d="M-14 -31l610 1491h195l-609 -1491h-196z" />
    <glyph glyph-name="zero" unicode="0" 
d="M569 1370q-41 0 -75.5 -18.5t-59 -47.5t-44 -73.5t-32 -86.5t-21.5 -98t-13 -96t-6 -92t-2.5 -75t-0.5 -56t0.5 -57t2.5 -79t6 -97.5t13 -102.5t21.5 -105t32 -93t44 -79t59 -51t75.5 -20t75.5 20t59 51t44 79t32 93t21.5 105t13 102.5t6 97.5t2.5 79t0.5 57t-0.5 56
t-2.5 75t-6 92t-13 96t-21.5 98t-32 86.5t-44 73.5t-59 47.5t-75.5 18.5zM569 1444q113 0 200 -42.5t139.5 -110t86 -164t46 -193t12.5 -207.5q0 -91 -10.5 -178t-32.5 -174t-60.5 -159t-90 -128t-126 -87.5t-164.5 -31.5q-111 0 -197 46t-139 119.5t-87 175.5t-47 203.5
t-13 213.5q0 109 14 207t49 193.5t88.5 164t138.5 110.5t193 42z" />
    <glyph glyph-name="one" unicode="1" 
d="M727 1444v-1270q0 -27 6 -47.5t20.5 -32.5t28 -19t39 -10t42 -3.5t48.5 -0.5h47v-61q-57 0 -171.5 3t-172.5 3q-68 1 -193 -2.5t-179 -3.5v61h45q35 0 55.5 1t49.5 7t45 17t28 33t12 53v1030q-45 -21 -140.5 -66t-137.5 -65l-33 59q123 63 268 156q180 117 236 158h57z
" />
    <glyph glyph-name="two" unicode="2" 
d="M135 1081l-41 41q62 140 186.5 231t270.5 91q163 0 260.5 -103t97.5 -270q0 -54 -11.5 -108t-36.5 -108.5t-50.5 -101.5t-68.5 -102t-74.5 -93.5t-84 -92.5t-82 -83t-83.5 -81.5t-74 -71.5h578q36 80 51 117h55q-43 -273 -49 -346h-936v70q84 62 164 132t168.5 164
t153.5 187t108 200.5t43 204.5q0 127 -72.5 214.5t-201.5 87.5q-155 0 -271 -179z" />
    <glyph glyph-name="three" unicode="3" 
d="M289 664l-13 61q69 22 130.5 51.5t119 71.5t91.5 98t34 119q0 94 -59 154.5t-154 60.5q-131 0 -245 -123l-41 43q82 108 190.5 176t228.5 68q75 0 144.5 -30.5t117.5 -91.5t48 -138q0 -72 -22.5 -130.5t-66.5 -103t-91 -76t-115 -65.5v-4q164 11 273.5 -72t109.5 -246
q0 -112 -55 -211t-142 -165t-194 -104t-213 -38q-53 0 -102.5 9t-96.5 36t-64 68q-14 32 -14 84q0 11 23 20q52 21 86 17q23 -75 84 -117.5t139 -42.5q132 0 215.5 96t83.5 230q0 146 -71.5 233.5t-182.5 87.5q-79 0 -176 -26z" />
    <glyph glyph-name="four" unicode="4" 
d="M637 1184l-430 -590h434v590h-4zM1030 594v-184h-160v-410h-229v410h-584v118l684 916h129v-850h160z" />
    <glyph glyph-name="five" unicode="5" 
d="M205 797l198 616h570l-70 -211h-491l-66 -196q87 -24 161.5 -54.5t148 -77.5t124.5 -104.5t83 -137t32 -171.5q0 -112 -46.5 -206t-123.5 -155.5t-177 -96t-208 -34.5q-37 0 -76.5 7.5t-79 24t-65 47t-25.5 71.5q0 31 17 53.5t51 22.5q23 0 40 -15.5t32 -38t35 -45
t59.5 -38t95.5 -15.5q125 0 199.5 86.5t74.5 214.5q0 75 -30 142.5t-78.5 117t-113.5 90t-133 65.5t-138 38z" />
    <glyph glyph-name="six" unicode="6" 
d="M401 596l-6 51q40 68 125 117t178 49q112 0 193 -56.5t118.5 -143t37.5 -191.5q0 -130 -69.5 -235t-181.5 -161.5t-239 -56.5q-113 0 -205.5 45.5t-151.5 122.5t-90.5 175t-31.5 206q0 143 56 278.5t150.5 242t217.5 192t258.5 139t271.5 74.5l29 -55
q-211 -50 -374.5 -165t-261 -294t-97.5 -395q0 -51 8 -110.5t28.5 -128.5t50.5 -124.5t80 -92t111 -36.5q104 0 157.5 72t53.5 180q0 83 -30.5 162.5t-93.5 135.5t-144 56q-32 0 -59.5 -8t-43 -16.5t-45.5 -28.5z" />
    <glyph glyph-name="seven" unicode="7" 
d="M260 0l614 1184h-636l-60 -127h-55l47 356h926l14 -24l-752 -1436z" />
    <glyph glyph-name="eight" unicode="8" 
d="M133 303q0 71 20 127.5t60 98.5t88 72.5t115 57.5l-29 19q-107 69 -164 156.5t-57 214.5q0 86 28.5 155.5t73.5 113t103.5 73t115.5 41.5t113 12q74 0 142 -21t121.5 -61t85.5 -104.5t32 -143.5q0 -60 -24 -114.5t-65 -97.5t-88 -76t-102 -58q135 -58 219.5 -155.5
t84.5 -233.5q0 -121 -63.5 -216t-164 -144.5t-217.5 -49.5q-77 0 -151 21t-137 60.5t-101.5 105t-38.5 147.5zM301 322q0 -123 73 -201t195 -78q98 0 158.5 64.5t60.5 162.5q0 42 -9 78t-30.5 67t-40.5 53.5t-56 48.5t-58.5 40t-66.5 39.5t-62 36.5q-78 -46 -121 -130.5
t-43 -180.5zM362 1145q0 -54 17.5 -101t42.5 -80.5t67 -66t77 -53.5t87 -47q74 51 117 132.5t43 170.5q0 111 -65 190.5t-173 79.5q-88 0 -150.5 -68.5t-62.5 -156.5z" />
    <glyph glyph-name="nine" unicode="9" 
d="M737 817l6 -51q-40 -68 -125 -117t-178 -49q-85 0 -152.5 32.5t-109.5 87.5t-64 124t-22 147q0 130 69.5 235t181.5 161.5t239 56.5q113 0 205.5 -45.5t151.5 -122.5t90.5 -175t31.5 -206q0 -143 -56 -278.5t-151 -242t-218 -192t-258.5 -139t-271.5 -74.5l-28 56
q211 50 374.5 165t261 294t97.5 395q0 51 -8 110.5t-28.5 128.5t-51 124t-80.5 91.5t-111 36.5q-104 0 -157 -72t-53 -180q0 -83 30.5 -162.5t93.5 -135.5t144 -56q32 0 59.5 8t42 16.5t45.5 28.5z" />
    <glyph glyph-name="colon" unicode=":" horiz-adv-x="569" 
d="M449 131q0 -66 -49 -114t-115 -48q-65 0 -113.5 48t-48.5 114q0 65 49 114.5t113 49.5q65 0 114.5 -49.5t49.5 -114.5zM449 756q0 -66 -49 -114t-115 -48q-65 0 -113.5 48t-48.5 114q0 65 49 114.5t113 49.5q65 0 114.5 -50t49.5 -114z" />
    <glyph glyph-name="semicolon" unicode=";" horiz-adv-x="569" 
d="M106 -352l-32 55q40 11 76.5 26.5t73.5 40t59 59.5t22 77q0 41 -18.5 65.5t-45.5 35.5t-54 22.5t-45.5 38t-18.5 71.5q0 62 44.5 109t106.5 47q95 0 147 -69t52 -167q0 -159 -102 -263.5t-265 -147.5zM449 756q0 -66 -49 -114t-115 -48q-65 0 -113.5 48t-48.5 114
q0 65 49 114.5t113 49.5q65 0 114.5 -50t49.5 -114z" />
    <glyph glyph-name="less" unicode="&#x3c;" 
d="M1090 176v-182l-1041 452v140l1041 452v-182l-785 -340z" />
    <glyph glyph-name="equal" unicode="=" 
d="M1085 817v-184h-1032v184h1032zM1085 399v-184h-1032v184h1032z" />
    <glyph glyph-name="greater" unicode="&#x3e;" 
d="M49 856v182l1041 -452v-140l-1041 -452v182l785 340z" />
    <glyph glyph-name="question" unicode="?" horiz-adv-x="909" 
d="M389 406h-53l-8 368q0 27 24 27q53 0 104 9t102 29.5t82.5 62.5t31.5 99q0 98 -58.5 155.5t-158.5 57.5q-21 0 -54.5 -4t-44.5 -4q-54 0 -91.5 30t-37.5 87q0 53 47 87t101 34q86 1 154.5 -48.5t134.5 -150.5q52 -80 81 -174.5t29 -171.5q0 -151 -72.5 -232t-222.5 -108
q-73 -13 -80 -47q-10 -62 -10 -106zM551 131q0 -66 -49 -114t-115 -48q-65 0 -113.5 48t-48.5 114q0 65 49 114.5t113 49.5q65 0 114.5 -49.5t49.5 -114.5z" />
    <glyph glyph-name="at" unicode="@" horiz-adv-x="1638" 
d="M1038 848q0 66 -24 98.5t-78 32.5q-84 0 -164 -107t-80 -260q0 -91 24.5 -134.5t86.5 -43.5q79 0 157 124.5t78 289.5zM1264 1079l-127 -540q-4 -24 -4 -45q0 -60 65 -60q59 0 108.5 60t76 148.5t26.5 178.5q0 227 -145 369.5t-406 142.5q-89 0 -173 -24.5t-159.5 -77
t-132 -128t-90 -184t-33.5 -237.5q0 -118 46.5 -225.5t126.5 -187t194 -126.5t242 -47q133 0 228.5 25.5t197.5 77.5l22 -97q-239 -133 -446 -133q-127 0 -236.5 24.5t-190.5 66t-146.5 98.5t-108.5 121t-71.5 134.5t-41 137t-12.5 131.5q0 172 59 317.5t163 246.5
t249 157.5t313 56.5q159 0 292 -48.5t224 -133t141 -202t50 -253.5q0 -143 -45.5 -258.5t-138 -186.5t-216.5 -71q-41 0 -75 13.5t-55.5 33t-37 42t-21.5 41t-5 30.5h-4q-15 -43 -89.5 -101.5t-164.5 -58.5q-43 0 -79 12.5t-68.5 41t-51 83.5t-18.5 131q0 57 15.5 125
t51 140.5t85 131t125.5 96.5t165 38q18 0 34 -3t27 -6t22.5 -11.5t17 -12t14.5 -16.5t11 -16t10 -18.5t9 -16.5l21 73h160z" />
    <glyph glyph-name="A" unicode="A" horiz-adv-x="1478" 
d="M428 506l-66 -213q-7 -25 -19.5 -61.5t-19 -59.5t-6.5 -39q0 -72 154 -72h23v-61q-164 8 -248 8q-73 0 -221 -8v61h12q61 0 108 35t70 99l328 940q63 177 75 254q109 38 187 88q12 4 16 4q11 0 15 -6q3 -8 9 -26t9 -26l377 -1071q60 -173 76 -209q36 -82 135 -82h12v-61
q-184 8 -283 8t-307 -8v61h23q29 0 54.5 4t49 18t23.5 38q0 29 -41 147l-80 238h-465zM850 621l-188 579h-5l-190 -579h383z" />
    <glyph glyph-name="B" unicode="B" horiz-adv-x="1366" 
d="M39 0v61h29q33 0 56 3.5t46.5 15t36 36t12.5 62.5v1073q0 38 -12.5 62.5t-36 36t-46.5 15t-56 3.5h-29v62q42 0 150 -4.5t169 -4.5t172.5 4.5t155.5 4.5q125 0 218.5 -25t148 -69.5t80.5 -101.5t26 -126q0 -75 -32 -134.5t-88 -98t-118 -62.5t-135 -37v-4
q85 2 165.5 -20.5t146 -66.5t105.5 -116.5t40 -162.5q0 -166 -142 -286t-341 -120q-48 0 -170 4t-189 4q-68 0 -195.5 -4t-166.5 -4zM481 729v-481q0 -57 6.5 -88t27.5 -52t55.5 -27.5t95.5 -6.5q130 0 216.5 93t86.5 230q0 164 -98 248t-259 84h-131zM481 1356v-553h101
q139 0 221 64t82 202q0 287 -281 287h-123z" />
    <glyph glyph-name="C" unicode="C" horiz-adv-x="1478" 
d="M1403 1016l-62 -8q-19 66 -40 115t-57.5 98t-83 80t-117.5 50t-160 19q-164 0 -281 -81.5t-174 -220.5t-57 -320q0 -105 21 -203t65.5 -187t109 -155t158.5 -105t207 -39q160 0 268.5 92t149.5 250l57 -8q-33 -138 -51 -332q-215 -92 -469 -92q-175 0 -320.5 48
t-253.5 141.5t-168.5 241t-60.5 335.5q0 167 64.5 306t174 229.5t252.5 140t302 49.5q105 0 187.5 -18.5t165.5 -45.5t156 -38q-3 -177 17 -342z" />
    <glyph glyph-name="D" unicode="D" horiz-adv-x="1593" 
d="M481 1346v-1110q0 -53 11.5 -85.5t40.5 -49t65 -22t96 -5.5q126 0 228.5 50t167 135t99 193t34.5 228q0 132 -21.5 237.5t-62 178.5t-94 124.5t-123 80.5t-142.5 42t-159 13q-27 0 -140 -10zM39 0v61h29q33 0 56 3.5t46.5 15t36 36t12.5 62.5v1073q0 38 -12.5 62.5
t-36 36t-46.5 15t-56 3.5h-29v62q22 0 138 -4.5t190 -4.5q71 0 180.5 4.5t148.5 4.5q375 0 594 -194t219 -517q0 -151 -60.5 -288.5t-162.5 -235t-242.5 -151t-293.5 -44.5q-180 8 -373 8q-80 0 -201 -4t-137 -4z" />
    <glyph glyph-name="E" unicode="E" horiz-adv-x="1251" 
d="M39 0v61h29q33 0 56 3.5t46.5 15t36 36t12.5 62.5v1073q0 38 -12.5 62.5t-36 36t-46.5 15t-56 3.5h-29v62q57 0 237.5 -4.5t272.5 -4.5q90 0 274.5 4.5t249.5 4.5q-7 -151 4 -314l-61 -16q-3 46 -9 76.5t-21.5 64.5t-41.5 53t-70.5 32t-107.5 13h-285v-536h244
q86 0 119 43.5t43 136.5h61q-6 -120 -6 -240q0 -116 6 -233l-61 -12q-3 35 -5 50.5t-7 42.5t-11.5 39t-18 28.5t-27 23.5t-38.5 12.5t-53 5.5h-246v-477q0 -32 8.5 -56t28.5 -38t38 -22.5t53 -12t57 -4t65 -0.5q70 0 113 2.5t90 10.5t75.5 24.5t56.5 44t47 69t34 99.5
l57 -14q-45 -184 -69 -326q-59 0 -255.5 4t-295.5 4q-100 0 -297.5 -4t-247.5 -4z" />
    <glyph glyph-name="F" unicode="F" 
d="M481 1339v-536h287q71 0 101 42.5t30 123.5h62q-9 -167 -9 -219q0 -124 9 -250h-62q0 96 -36 148t-128 52h-254v-522q0 -28 7 -48.5t22.5 -33t30.5 -20t41.5 -10.5t45 -4t50.5 -1h27v-61q-45 0 -168.5 4t-184.5 4q-56 0 -165.5 -4t-147.5 -4v61h29q33 0 56 3.5t46.5 15
t36 36t12.5 62.5v1073q0 38 -12.5 62.5t-36 36t-46.5 15t-56 3.5h-29v62q57 0 237.5 -4.5t272.5 -4.5q90 0 274.5 4.5t249.5 4.5q-7 -151 4 -314l-61 -16q-5 59 -15 98t-32 73.5t-61.5 51t-98.5 16.5h-328z" />
    <glyph glyph-name="G" unicode="G" horiz-adv-x="1593" 
d="M1454 1034l-61 -4q-44 181 -164.5 260.5t-310.5 79.5q-134 0 -239.5 -47t-172 -131t-101 -194t-34.5 -240q0 -104 19.5 -202.5t63 -189.5t106.5 -158.5t157 -108t207 -40.5q75 -2 141 9.5t86 29.5v334q0 105 -156 105h-26v61q204 -8 307 -8q90 0 274 8v-61h-26
q-111 0 -111 -105v-311l47 -27v-37q-314 -88 -571 -88q-173 0 -319.5 51t-255 147t-169.5 242.5t-61 327.5q0 138 45.5 257t123.5 203.5t182.5 144.5t223.5 89t244 29q131 0 295 -37q11 -2 38.5 -8.5t40 -9.5t36 -7.5t39.5 -6.5t37 -4.5t41 -2.5q0 -236 24 -350z" />
    <glyph glyph-name="H" unicode="H" horiz-adv-x="1705" 
d="M481 688v-510q0 -32 10 -54.5t24.5 -34.5t38 -18.5t42 -8t45.5 -1.5h39v-61q-42 0 -158 4t-174 4q-55 0 -163 -4t-146 -4v61h29q33 0 56 3.5t46.5 15t36 36t12.5 62.5v1073q0 38 -12.5 62.5t-36 36t-46.5 15t-56 3.5h-29v62q38 0 146 -4.5t163 -4.5q58 0 174 4.5t158 4.5
v-62h-39q-27 0 -45.5 -1.5t-42 -8t-38 -18.5t-24.5 -34.5t-10 -54.5v-448h744v448q0 32 -10 54.5t-24.5 34.5t-38 18.5t-42 8t-45.5 1.5h-39v62q42 0 158 -4.5t174 -4.5q55 0 163 4.5t146 4.5v-62h-29q-33 0 -56 -3.5t-46.5 -15t-36 -36t-12.5 -62.5v-1073q0 -38 12.5 -62.5
t36 -36t46.5 -15t56 -3.5h29v-61q-38 0 -146 4t-163 4q-58 0 -174 -4t-158 -4v61h39q27 0 45.5 1.5t42 8t38 18.5t24.5 34.5t10 54.5v510h-744z" />
    <glyph glyph-name="I" unicode="I" horiz-adv-x="681" 
d="M29 0v61h28q33 0 56 3.5t47 15t36.5 36t12.5 62.5v1073q0 38 -12.5 62.5t-36.5 36t-47 15t-56 3.5h-28v62q37 0 144 -4.5t159 -4.5t163 4.5t158 4.5v-62h-28q-33 0 -56 -3.5t-47 -15t-36.5 -36t-12.5 -62.5v-1073q0 -38 12.5 -62.5t36.5 -36t47 -15t56 -3.5h28v-61
q-49 0 -160 4t-163 4t-157.5 -4t-143.5 -4z" />
    <glyph glyph-name="J" unicode="J" horiz-adv-x="796" 
d="M303 -201v1461q0 32 -10.5 53t-23.5 32t-40.5 16.5t-44.5 6t-53 0.5h-29v62q43 0 152.5 -4.5t163.5 -4.5q56 0 167 4.5t152 4.5v-62h-30q-142 0 -142 -108v-1205q0 -90 -32 -179.5t-87 -161t-137.5 -116t-175.5 -44.5q-47 0 -88 9t-76 28t-55 54t-20 83q0 46 33 80t87 34
q47 0 73 -20.5t34.5 -49.5t15 -58t25 -49.5t53.5 -20.5q26 0 44.5 16t27.5 42t12.5 49.5t3.5 47.5z" />
    <glyph glyph-name="K" unicode="K" horiz-adv-x="1478" 
d="M39 0v61h29q33 0 56 3.5t46.5 15t36 36t12.5 62.5v1073q0 38 -12.5 62.5t-36 36t-46.5 15t-56 3.5h-29v62q38 0 146 -4.5t163 -4.5q59 0 173 4.5t153 4.5v-62h-25q-25 0 -41.5 -1t-43 -7t-42.5 -17.5t-28.5 -35t-12.5 -56.5v-1073q0 -33 12.5 -56.5t28.5 -35t42.5 -17.5
t43 -7t41.5 -1h25v-61q-39 0 -153 4t-173 4q-55 0 -163 -4t-146 -4zM870 1368v62q44 0 131.5 -4.5t131.5 -4.5q46 0 137 4.5t137 4.5v-62h-27q-159 0 -329 -182l-324 -350l526 -662q80 -113 187 -113v-61q-34 0 -104 2t-105 2q-33 0 -97.5 -2t-97.5 -2q-13 27 -47.5 77
t-58.5 77l-443 553l431 479q90 90 90 139q0 43 -115 43h-23z" />
    <glyph glyph-name="L" unicode="L" horiz-adv-x="1251" 
d="M492 1257v-1056q0 -57 32.5 -82.5t89.5 -32.5q140 -10 271 4q61 7 113.5 38.5t82.5 72.5q39 53 64 147h59q-13 -67 -40.5 -189t-35.5 -159q-90 0 -270 4t-270 4t-270.5 -4t-270.5 -4v61h29q33 0 56 4t47.5 17t37 42.5t12.5 74.5v1052q0 31 -9 53t-23 34t-35.5 19t-40.5 9
t-45 2h-29v62q54 0 161.5 -4.5t162.5 -4.5q52 0 155.5 4.5t155.5 4.5v-62h-51q-29 0 -45 -1t-37 -6.5t-31.5 -17t-18 -33t-7.5 -53.5z" />
    <glyph glyph-name="M" unicode="M" horiz-adv-x="2048" 
d="M563 1430l479 -1072l486 1072q29 0 99.5 -4.5t109.5 -4.5q36 0 108.5 4.5t108.5 4.5v-62h-19q-186 0 -190 -94q-1 -33 10 -160l78 -938q6 -72 43.5 -92t138.5 -23v-61q-192 8 -295 8q-112 0 -338 -8v61q102 6 131 18q46 20 46 79q0 21 -3 100l-57 864h-4l-522 -1153h-49
l-496 1131h-4l-70 -899q0 -88 43 -117q34 -20 131 -23h25v-61q-184 8 -279 8q-81 0 -241 -8v61h28q59 2 93.5 13.5t53.5 47.5t24.5 61.5t14.5 96.5q1 3 1 5l61 569q25 227 25 360q0 80 -51 117t-127 37h-27v62q42 0 125 -4.5t125 -4.5q31 0 92 4.5t92 4.5z" />
    <glyph glyph-name="N" unicode="N" horiz-adv-x="1705" 
d="M446 1430l912 -1027l4 5v768q0 59 -18.5 100t-48.5 59.5t-56.5 25.5t-54.5 7h-45v62q48 0 143 -4.5t143 -4.5q42 0 126 4.5t126 4.5v-62h-30q-31 0 -52.5 -3.5t-48.5 -18t-43 -41t-27.5 -77t-11.5 -120.5v-932q0 -125 13 -207h-78l-1055 1176v-844q0 -137 38.5 -188.5
t154.5 -51.5h34v-61q-44 0 -132 4t-132 4q-46 0 -139 -4t-139 -4v61h28q101 0 143 65.5t42 195.5v862q0 82 -56.5 133t-130.5 51h-26v62q39 0 117.5 -4.5t117.5 -4.5q30 0 91 4.5t91 4.5z" />
    <glyph glyph-name="O" unicode="O" horiz-adv-x="1708" 
d="M84 705q0 157 58.5 297t159 240.5t241 159t297.5 58.5q219 0 396 -84.5t282.5 -247t105.5 -374.5q0 -231 -102.5 -411t-278.5 -277t-393 -97q-216 0 -390 91.5t-275 260t-101 384.5zM371 776q0 -140 32 -267t92.5 -228.5t157.5 -161.5t217 -60q467 0 467 650
q0 92 -19 183.5t-60 178t-98.5 153t-141.5 106.5t-182 40q-103 0 -185 -36t-133.5 -94t-85.5 -137t-47.5 -159.5t-13.5 -167.5z" />
    <glyph glyph-name="P" unicode="P" 
d="M471 1356v-1125q0 -35 6 -62t14.5 -44.5t24 -30t29.5 -19t37.5 -10t39.5 -4t44 -0.5h32v-61q-52 0 -155.5 4t-155.5 4q-56 0 -168.5 -4t-171.5 -4v61h33q24 0 37.5 1.5t33.5 10t31 25t19 49.5t8 80v979q0 99 -30 130.5t-107 31.5h-25v62q33 0 132 -4.5t155 -4.5
q55 0 155 4.5t144 4.5q87 0 157.5 -12t132 -40t103 -72.5t65 -112t23.5 -155.5q0 -175 -110.5 -286t-284.5 -129q-79 -5 -164 -5v62h43q120 0 181 95.5t61 254.5q0 152 -78 239t-232 87h-59z" />
    <glyph glyph-name="Q" unicode="Q" horiz-adv-x="1708" 
d="M84 705q0 157 58.5 297t159 240.5t241 159t297.5 58.5q219 0 396 -84.5t282.5 -247t105.5 -374.5q0 -292 -159 -495t-418 -261q39 -24 83 -57q51 -36 133.5 -103t108.5 -86q6 -5 21.5 -16.5t21.5 -16t19 -14t19.5 -13t17.5 -10.5t18 -10t16 -6.5t17 -4.5t16 -1
q22 0 49.5 11t36.5 20l31 -39q-62 -67 -110 -93t-118 -26q-63 0 -111.5 22t-107.5 66q-33 26 -68.5 57.5t-72.5 66t-53 48.5q-137 123 -228 176q-150 10 -279 68t-222.5 152.5t-147 227.5t-53.5 288zM371 776q0 -140 32 -267t92.5 -228.5t157.5 -161.5t217 -60
q467 0 467 650q0 92 -19 183.5t-60 178t-98.5 153t-141.5 106.5t-182 40q-103 0 -185 -36t-133.5 -94t-85.5 -137t-47.5 -159.5t-13.5 -167.5z" />
    <glyph glyph-name="R" unicode="R" horiz-adv-x="1478" 
d="M492 1348v-611h100q160 0 237.5 72.5t77.5 247.5q0 137 -81.5 218t-217.5 81q-27 0 -48.5 -1.5t-40 -3.5t-27.5 -3zM229 172v1040q0 43 -9.5 73.5t-22.5 46.5t-35 24.5t-38 10t-40 1.5h-37v62q26 0 137 -4.5t181 -4.5q63 0 169.5 4.5t159.5 4.5q82 0 150 -9.5t132.5 -34
t108.5 -64.5t70.5 -104t26.5 -149q0 -131 -77 -220t-208 -140l350 -525q43 -64 83.5 -89t115.5 -34v-61q-34 0 -100.5 4t-100.5 4q-31 0 -96 -4t-96 -4q-198 259 -426 664h-135v-439q0 -46 9 -77.5t22 -48.5t37.5 -25.5t44.5 -10.5t54 -2h37v-61q-58 0 -176 4t-176 4
q-48 0 -147 -4t-150 -4v61h37q61 0 103 28.5t42 82.5z" />
    <glyph glyph-name="S" unicode="S" horiz-adv-x="1024" 
d="M877 1137l-58 -11q-11 107 -76 183.5t-165 76.5q-121 0 -186.5 -68t-65.5 -190q0 -69 34 -121t88 -86.5t119.5 -66.5t131 -69.5t119.5 -84.5t88 -124t34 -177q0 -103 -40.5 -186t-109.5 -135.5t-157.5 -80.5t-188.5 -28q-145 0 -325 92q-5 52 -17.5 156t-17.5 156l57 12
q10 -68 33.5 -125t61.5 -103t95 -72t128 -26q107 0 179.5 64t72.5 170q0 64 -26 115.5t-68 84t-96.5 64.5t-110.5 58t-110.5 64.5t-96.5 83t-68 115t-26 158.5q0 196 125 310t327 114q59 0 295 -30q0 -122 21 -293z" />
    <glyph glyph-name="T" unicode="T" horiz-adv-x="1478" 
d="M614 1327h-335q-30 0 -51.5 -1t-39.5 -7.5t-29 -10.5t-21.5 -18.5t-16 -23t-12.5 -34t-10 -40t-11 -51.5h-61q23 163 24 174q12 85 12 174h50q6 -22 17 -35t31.5 -17.5t33 -5.5t41.5 -1h1056q21 0 33 0.5t28 4t25.5 10t16.5 18.5t8 30l49 -8q-16 -107 -22 -166
q-5 -69 -5 -166l-61 -23q-1 24 -3 41.5t-7.5 43t-16 43t-26 34.5t-41 26t-58.5 9h-335v-1089q0 -57 12 -94t37 -54t52 -23t69 -6h38v-61q-36 0 -155 4t-178 4q-67 0 -189 -4t-157 -4v61h38q49 0 75.5 4.5t51 21t34 51.5t9.5 95v1094z" />
    <glyph glyph-name="U" unicode="U" horiz-adv-x="1593" 
d="M219 479v740q0 43 -9.5 72t-22 44t-36.5 22.5t-41 9t-49 1.5h-24v62q39 0 147 -4.5t178 -4.5q67 0 169.5 4.5t138.5 4.5v-62h-25q-32 0 -49.5 -1.5t-43 -9t-38.5 -22.5t-23 -44.5t-10 -71.5v-707q0 -101 20 -179t64 -138t121 -91.5t184 -31.5q197 0 293.5 117t96.5 331
v699q0 52 -12 84.5t-37.5 45.5t-44.5 16t-54 3h-41v62q41 0 124 -4.5t124 -4.5q40 0 118.5 4.5t118.5 4.5v-62h-43q-22 0 -35.5 -1t-34 -9t-32 -23t-20.5 -44.5t-9 -71.5v-654q0 -113 -19.5 -204.5t-56 -156t-85.5 -111t-112 -73.5t-131 -39t-147 -12q-304 0 -458 121
t-154 389z" />
    <glyph glyph-name="V" unicode="V" horiz-adv-x="1478" 
d="M633 1430v-62h-47q-53 0 -80 -17t-27 -40q0 -15 19 -66l350 -911h4l326 852q26 66 26 114q0 40 -34.5 54t-96.5 14h-35v62q34 0 113 -4.5t125 -4.5q32 0 95.5 4.5t92.5 4.5v-62h-20q-22 0 -38 -3.5t-36 -20.5t-35 -48q-11 -20 -171 -422t-277 -702q-10 -26 -40 -95.5
t-44 -107.5h-76l-520 1282q-28 70 -65 93.5t-107 23.5h-21v62q52 0 158 -4.5t158 -4.5q55 0 167 4.5t136 4.5z" />
    <glyph glyph-name="W" unicode="W" horiz-adv-x="2048" 
d="M1343 -31l-274 641l-270 -641h-70l-516 1217l-12 28l-12 28t-11.5 25t-13 25t-14 20.5t-17 19.5t-19 14.5t-22.5 12t-26 6.5t-31 3h-31v62q36 0 140 -4.5t155 -4.5q45 0 136 4.5t122 4.5v-62h-18q-88 0 -88 -47q0 -45 69 -211l336 -788l166 399l-256 592q-23 55 -125 55
v62q48 0 144.5 -4.5t144.5 -4.5q38 0 112.5 4.5t112.5 4.5q33 0 98.5 -4.5t98.5 -4.5q30 0 92 4.5t92 4.5v-62h-29q-73 0 -105 -31t-73 -125l-121 -280l252 -594l316 860q30 88 30 113q0 33 -28 45t-95 12h-24v62q34 0 101.5 -4.5t101.5 -4.5q30 0 90.5 4.5t91.5 4.5v-62
h-25q-41 0 -69 -36.5t-52 -96.5l-483 -1266h-72zM1163 1036l74 185q27 75 27 86q0 36 -29 48.5t-86 12.5q-100 0 -100 -51q0 -11 3 -24t6.5 -21t11.5 -26.5t11 -26.5l78 -183h4z" />
    <glyph glyph-name="X" unicode="X" horiz-adv-x="1593" 
d="M678 659l-422 578q-46 66 -89.5 98.5t-105.5 32.5h-26v62q57 0 168 -4.5t168 -4.5q51 0 154.5 4.5t154.5 4.5v-62h-23q-112 0 -112 -47q0 -21 10 -39.5t53 -77.5l240 -330l235 304q47 61 61.5 85.5t14.5 47.5q0 57 -127 57h-31v62q49 0 147.5 -4.5t147.5 -4.5
q41 0 123 4.5t123 4.5v-62h-39q-128 0 -264 -164l-334 -407l412 -576q113 -160 211 -160h31v-61q-44 0 -134 4t-135 4q-58 0 -173 -4t-173 -4v61h23q102 0 102 35q0 8 -4.5 17.5t-9 16t-15 19.5t-16.5 21l-291 412l-276 -365q-3 -4 -12.5 -16.5t-13 -17t-10.5 -14
t-9.5 -14.5t-6 -12.5t-5 -13t-1.5 -10.5q0 -58 148 -58h18v-61q-47 0 -141 4t-141 4q-41 0 -124 -4t-124 -4v61h31q134 0 288 197z" />
    <glyph glyph-name="Y" unicode="Y" horiz-adv-x="1478" 
d="M651 229v439l-409 561q-54 77 -92.5 108t-104.5 31h-20v62q55 0 160 -4.5t161 -4.5q54 0 154.5 4.5t148.5 4.5v-62h-26q-45 0 -76 -12t-31 -35q0 -10 5.5 -21t18.5 -28.5t13 -18.5l309 -434l254 367q6 9 17.5 27t16 25.5t12 21t10.5 21.5t5.5 18t2.5 20q0 15 -13.5 25.5
t-34.5 15t-38 6.5t-31 2h-37v62q39 0 117 -4.5t117 -4.5q33 0 98 4.5t96 4.5v-62q-91 0 -160 -94l-381 -539v-489q0 -64 10 -102t35 -56t51 -22.5t74 -4.5h39v-61q-64 0 -178.5 4t-155.5 4q-49 0 -166 -4t-180 -4v61h39q94 0 132 35t38 133z" />
    <glyph glyph-name="Z" unicode="Z" horiz-adv-x="1478" 
d="M59 0l940 1327h-510q-81 0 -128 -7.5t-86 -32.5t-58.5 -72t-28.5 -125h-71q9 76 20 208q8 110 8 162l62 17q2 -12 9 -20.5t18.5 -13.5t22 -8.5t26.5 -4t25.5 -1t25.5 0t20 0.5h1026l-938 -1328h598q63 0 108 10.5t75 27t55 53.5t41.5 72.5t40.5 101.5l59 -15
q-6 -26 -25.5 -107.5t-31.5 -136t-21 -108.5h-1282z" />
    <glyph glyph-name="bracketleft" unicode="[" horiz-adv-x="681" 
d="M645 1460v-61h-98q-65 0 -121 -6q-49 -5 -49 -82v-1532q0 -77 49 -82q56 -6 121 -6h98v-62q-24 0 -95 2t-126 2q-67 0 -137.5 -2t-73.5 -2l-12 9q0 13 2 60t4 145t2 235v934q0 137 -2 235t-4 145t-2 60l12 8q3 0 73.5 -2t137.5 -2q55 0 126 2t95 2z" />
    <glyph glyph-name="backslash" unicode="\" horiz-adv-x="796" 
d="M201 1460l610 -1491h-197l-608 1491h195z" />
    <glyph glyph-name="bracketright" unicode="]" horiz-adv-x="681" 
d="M37 -371v62h98q65 0 121 6q49 5 49 82v1532q0 77 -49 82q-56 6 -121 6h-98v61q24 0 95 -2t126 -2q67 0 137.5 2t73.5 2l12 -8q0 -13 -2 -60t-4 -145t-2 -235v-934q0 -137 2 -235t4 -145t2 -60l-12 -9q-3 0 -73.5 2t-137.5 2q-55 0 -126 -2t-95 -2z" />
    <glyph glyph-name="asciicircum" unicode="^" 
d="M283 606h-187l396 807h155l395 -807h-186l-287 611z" />
    <glyph glyph-name="underscore" unicode="_" horiz-adv-x="1024" 
d="M1024 -256h-1024v102h1024v-102z" />
    <glyph glyph-name="grave" unicode="`" horiz-adv-x="569" 
d="M158 1434l301 -304h-82l-316 199q-21 11 -40 33t-19 43q0 78 72 78q35 0 84 -49z" />
    <glyph glyph-name="a" unicode="a" horiz-adv-x="1024" 
d="M623 530v115q0 85 -44 125.5t-118 40.5q-89 0 -120.5 -29t-37.5 -116q-3 -36 -56.5 -59t-88.5 -23q-39 0 -39 47q0 57 31 101.5t81 70.5q146 75 222 119q47 28 122 28q135 0 206 -69.5t71 -202.5v-418q0 -77 12 -114t51 -37q13 0 31 8.5t27 17.5l26 -37
q-52 -65 -99.5 -97t-115.5 -32q-71 0 -110 44t-45 118q-80 -78 -152 -120t-162 -42q-96 0 -159.5 56.5t-63.5 154.5q0 33 8.5 62t20.5 50.5t35.5 41.5t42 32.5t53 28.5t55.5 24t62 23zM623 217v244q-13 -4 -45 -14t-50.5 -16t-49 -18t-49 -22t-41.5 -26.5t-35.5 -33.5
t-21.5 -40t-9 -49q0 -133 124 -133q97 0 177 108z" />
    <glyph glyph-name="b" unicode="b" 
d="M135 160v1177q-89 34 -137 49v35q203 69 342 144l25 -17v-729q91 69 155 100t152 31q123 0 212.5 -61.5t133 -162t43.5 -226.5q0 -116 -41 -216t-110.5 -168.5t-163.5 -107.5t-199 -39q-90 0 -170 21.5t-125 56.5q-52 -33 -92 -78l-33 21q8 76 8 170zM365 754v-564
q26 -49 84 -98t126 -49q56 0 99 22.5t68.5 57.5t41.5 84t21.5 95.5t5.5 98.5q0 70 -17 140.5t-50 131.5t-88.5 99.5t-125.5 38.5q-79 0 -165 -57z" />
    <glyph glyph-name="c" unicode="c" horiz-adv-x="909" 
d="M858 258l37 -41q-41 -60 -76.5 -100.5t-82 -76.5t-103.5 -53.5t-125 -17.5q-202 0 -316 125.5t-114 331.5q0 106 41 202.5t110 167t165 112.5t202 42q268 0 268 -153q0 -46 -32 -77.5t-78 -31.5q-30 0 -52 17.5t-37.5 43t-32.5 51t-47.5 43t-72.5 17.5
q-106 0 -161.5 -78.5t-55.5 -210.5q0 -78 18 -152.5t54 -140t99 -105.5t144 -40q77 0 127 28t121 97z" />
    <glyph glyph-name="d" unicode="d" 
d="M977 1548v-1448l119 11v-52q-47 -7 -164 -41q-42 -13 -100.5 -30t-65.5 -19l-16 13v124q-88 -76 -149.5 -106.5t-160.5 -30.5q-150 0 -256 125.5t-106 304.5q0 116 43 220t113 175.5t160.5 113.5t185.5 42q98 0 168 -30v417l-138 49v35q203 69 342 144zM748 170v559
q-28 57 -85 94t-118 37q-66 0 -114.5 -32.5t-74 -86.5t-37.5 -113.5t-12 -125.5q0 -167 76.5 -280t196.5 -113q45 0 91 18.5t77 42.5z" />
    <glyph glyph-name="e" unicode="e" horiz-adv-x="909" 
d="M836 264l32 -39q-65 -114 -167.5 -185t-225.5 -71q-93 0 -170 40.5t-125.5 108t-75 150.5t-26.5 172q0 97 32 188.5t89 163t143.5 115t187.5 43.5q154 0 239.5 -100.5t82.5 -257.5l-25 -23h-553q0 -81 19 -153.5t56.5 -132t100 -94.5t142.5 -35q146 0 244 110zM279 631
h233q86 0 106.5 11t20.5 65q0 64 -39 117t-104 53q-88 0 -143 -70.5t-74 -175.5z" />
    <glyph glyph-name="f" unicode="f" horiz-adv-x="681" 
d="M436 805v-664q-1 -51 29 -65.5t119 -14.5h39v-61q-204 8 -306 8q-84 0 -256 -8v61h48q29 0 43 1.5t29 9t20.5 23.5t5.5 44v666h-146v37q64 30 146 82v143q0 199 162 358q76 74 130 107t109 33q142 0 142 -129q0 -46 -27.5 -79.5t-73.5 -33.5q-20 0 -36.5 16t-26.5 35
t-29.5 35t-44.5 16q-45 0 -60.5 -37t-15.5 -102v-366h230v-115h-230z" />
    <glyph glyph-name="g" unicode="g" horiz-adv-x="1024" 
d="M84 213l178 123q-91 41 -146 116t-55 171q0 99 60 175.5t148.5 114t185.5 37.5q141 0 250 -53q25 -12 92 -12h178v-103h-158q33 -75 33 -159q0 -95 -56.5 -170.5t-144 -114.5t-186.5 -39q-69 0 -133 18l-49 -41q-2 -30 7 -51t21.5 -31.5t36.5 -16t41.5 -6.5t48.5 -1
q45 0 135.5 5t135.5 5q116 0 192 -55t76 -166q0 -91 -35 -165t-90 -121.5t-127 -80t-142 -46t-139 -13.5q-102 0 -188 22t-145.5 73.5t-59.5 123.5q0 33 6.5 60t23 49t33.5 38t49.5 33.5t58 29t71.5 30.5v4q-105 9 -156 61.5t-51 155.5zM807 -178q0 38 -16.5 66t-40.5 43.5
t-60.5 24t-67 11t-69.5 2.5q-44 0 -84.5 -3.5t-88 -15t-82 -30.5t-58 -52.5t-23.5 -78.5q0 -182 262 -182q73 0 146 23.5t127.5 74.5t54.5 117zM291 643q0 -41 10 -85.5t29.5 -87t55 -70t81.5 -27.5q45 0 76.5 20.5t47.5 55.5t23 72t7 79t-8.5 88t-26 93t-52.5 77.5
t-81 30.5q-47 0 -81 -23t-50.5 -62t-23.5 -78t-7 -83z" />
    <glyph glyph-name="h" unicode="h" 
d="M395 729v-618q0 -18 7.5 -28.5t24 -15t30 -5.5t37.5 -1h30v-61q-156 8 -233 8q-86 0 -246 -8v61q25 0 38.5 0.5t32 4t27.5 10t16 19t7 30.5v1161q0 36 -9.5 52.5t-43.5 29.5l-68 27v49q151 38 328 121l22 -19v-745q11 8 45 31.5t51 35t50 30.5t56.5 28t55.5 16.5t62 7.5
q118 0 186 -63t68 -201v-567q0 -27 16.5 -40.5t34 -15.5t49.5 -2h25v-61q-156 8 -232 8q-80 0 -244 -8v61h21q21 0 34 1t30.5 6t26.5 16.5t9 30.5v512q0 172 -155 172q-80 0 -189 -70z" />
    <glyph glyph-name="i" unicode="i" horiz-adv-x="569" 
d="M395 932v-821q0 -18 7.5 -28.5t24 -15t30 -5.5t37.5 -1h30v-61q-156 8 -233 8q-86 0 -246 -8v61h14q22 0 34 0.5t28.5 3.5t24.5 9.5t14 18.5t6 30v579q0 27 -8.5 38t-40.5 20q-13 3 -36 10t-36 10v49q37 9 186 60q27 9 76.5 31.5t65.5 29.5zM406 1362q0 -52 -36 -88.5
t-89 -36.5t-89 36.5t-36 88.5q0 51 36.5 88t88.5 37t88.5 -37t36.5 -88z" />
    <glyph glyph-name="j" unicode="j" horiz-adv-x="569" 
d="M395 932v-1002q0 -69 -19 -125.5t-48.5 -96t-78.5 -73.5t-97 -56t-115 -46l-14 55q93 37 118 93t25 202v819q0 27 -8.5 38t-40.5 20q-13 3 -36 10t-36 10v49q37 9 186 60q27 9 76.5 31.5t65.5 29.5zM281 1487q52 0 88.5 -37t36.5 -88q0 -52 -36 -88.5t-89 -36.5t-89 36.5
t-36 88.5q0 51 36.5 88t88.5 37z" />
    <glyph glyph-name="k" unicode="k" 
d="M395 387v-262q0 -18 7 -30.5t16 -19t28 -10t32.5 -4t39.5 -0.5v-61q-164 8 -244 8q-125 0 -229 -8v61q25 0 38.5 0.5t32 4t27.5 10t16 19t7 30.5v1161q0 36 -9.5 52.5t-43.5 29.5q-12 4 -34.5 13.5t-33.5 13.5v49q151 38 328 121l22 -19v-1065q29 0 54 21l247 235
q58 58 58 82q0 20 -28.5 29.5t-59.5 9.5h-15v62q171 -9 230 -9q49 0 198 9v-62h-22q-27 0 -55.5 -6.5t-49 -13.5t-50 -26.5t-43.5 -28t-44.5 -37t-38 -35t-40.5 -40t-36 -36.5l-73 -72l338 -418q66 -84 135 -84h12v-61q-122 8 -186 8q-52 0 -150 -8q-12 13 -96 126.5
t-160.5 207.5t-93.5 94q-31 0 -31 -41z" />
    <glyph glyph-name="l" unicode="l" horiz-adv-x="569" 
d="M166 125v1161q0 36 -9.5 52.5t-43.5 29.5q-12 4 -34.5 13.5t-33.5 13.5v49q151 38 328 121l22 -19v-1421q0 -40 27.5 -52t79.5 -12h22v-61q-156 8 -235 8q-92 0 -244 -8v61q25 0 38.5 0.5t32 4t27.5 10t16 19t7 30.5z" />
    <glyph glyph-name="m" unicode="m" horiz-adv-x="1705" 
d="M45 0v61h14q22 0 34 0.5t28.5 3.5t24.5 9.5t14 18.5t6 30v579q0 27 -8.5 38t-40.5 20q-13 3 -36 10t-36 10v49q37 9 186 60q27 9 76.5 31.5t65.5 29.5l22 -18v-131q5 3 53 35.5t67.5 43.5t60 32t73 29.5t64.5 8.5q181 0 241 -151q7 5 44 28.5t49.5 31l45 27t51 27
t46 18.5t50.5 15t46 4q115 0 185.5 -67.5t70.5 -196.5v-563q0 -37 22.5 -49.5t69.5 -14.5h27v-59q-152 8 -229 8q-82 0 -242 -8v61h29q46 0 70 12.5t24 47.5v508q0 170 -158 170q-78 0 -186 -62v-612q0 -38 23.5 -51t70.5 -13h27v-61q-152 8 -230 8q-80 0 -244 -8v61h25
q48 0 73 13t25 51v504q0 170 -157 170q-44 0 -97 -23t-90 -53v-598q0 -22 8.5 -35.5t26 -19.5t32 -7.5t36.5 -1.5h24v-61q-160 8 -235 8q-90 0 -242 -8z" />
    <glyph glyph-name="n" unicode="n" 
d="M45 0v61h14q22 0 34 0.5t28.5 3.5t24.5 9.5t14 18.5t6 30v579q0 27 -8.5 38t-40.5 20q-13 3 -36 10t-36 10v49q37 9 186 60q27 9 76.5 31.5t65.5 29.5l22 -18v-131q11 8 45 31.5t51 35t50 30.5t56.5 28t55.5 16.5t62 7.5q118 0 186 -63t68 -201v-567q0 -27 16.5 -40.5
t34 -15.5t49.5 -2h25v-61q-156 8 -232 8q-80 0 -244 -8v61h21q21 0 34 1t30.5 6t26.5 16.5t9 30.5v512q0 172 -155 172q-80 0 -189 -70v-618q0 -18 7.5 -28.5t24 -15t30 -5.5t37.5 -1h30v-61q-156 8 -233 8q-86 0 -246 -8z" />
    <glyph glyph-name="o" unicode="o" 
d="M563 877q-45 0 -81 -15t-60.5 -39t-42 -60t-27.5 -71.5t-15.5 -80.5t-7 -79.5t-1.5 -76.5q0 -56 7 -109.5t25 -109.5t45 -98t72.5 -68.5t102.5 -26.5q231 0 231 381q0 49 -6.5 104t-24 118.5t-44 113.5t-71.5 83.5t-102 33.5zM78 461q0 209 138 349t351 140
q223 0 358.5 -131t135.5 -346q0 -137 -65.5 -253t-179 -183.5t-249.5 -67.5q-215 0 -352 139t-137 353z" />
    <glyph glyph-name="p" unicode="p" 
d="M381 756v-547q48 -59 80 -83q62 -48 129 -48q54 0 97 21t69.5 54.5t43.5 79t24 91.5t7 96q0 67 -16.5 133.5t-49 125.5t-89 95.5t-129.5 36.5q-79 0 -166 -55zM152 -365v1092q0 25 -13.5 35.5t-42.5 17.5q-11 2 -32.5 7.5t-32.5 7.5v36q195 59 331 134l19 -15v-131
q141 131 317 131q112 0 196 -57t125.5 -148.5t41.5 -201.5q0 -115 -41 -219t-109 -177t-159 -116t-189 -43q-106 0 -182 28v-356q0 -16 4.5 -27.5t16 -19t22 -11.5t31.5 -5.5t34.5 -2t40.5 -0.5h39v-61q-31 1 -126 4.5t-148 3.5q-51 0 -145.5 -3.5t-124.5 -4.5v61h26
q24 0 38.5 1t30.5 4.5t24 12.5t8 23z" />
    <glyph glyph-name="q" unicode="q" 
d="M748 170v559q-28 57 -85 94t-118 37q-66 0 -114.5 -32.5t-74 -86.5t-37.5 -113.5t-12 -125.5q0 -167 76.5 -280t196.5 -113q45 0 91 18.5t77 42.5zM748 -342v448q-88 -76 -149.5 -106.5t-158.5 -30.5q-150 0 -256 125.5t-106 304.5q0 116 43 220t113 175.5t160.5 113.5
t185.5 42q113 0 237 -55q15 9 68 51q55 41 69 41q13 0 21 -10t8 -25q-2 -22 -3 -45.5t-1.5 -51t-1.5 -42.5v-1157q0 -18 6.5 -30t14.5 -18t23.5 -9.5t25.5 -4t28 -0.5h23v-61q-172 8 -256 8t-248 -8v61h41q28 0 43.5 1.5t34 7t27 19t8.5 36.5z" />
    <glyph glyph-name="r" unicode="r" horiz-adv-x="796" 
d="M395 647v-538q0 -17 9 -27t32.5 -14.5t45 -5.5t65.5 -1h31v-61q-32 1 -133 4.5t-156 3.5q-49 0 -138 -3.5t-118 -4.5v61h20q58 0 85.5 11t27.5 43v557q0 51 -13 70.5t-51 25.5q-12 2 -32.5 6t-32.5 6v49q116 21 336 121l22 -12v-141h4q35 56 100 104.5t136 48.5
q57 0 94 -29.5t37 -91.5q0 -56 -33 -88t-82 -32q-27 0 -47.5 12t-30.5 26.5t-27 26.5t-38 12q-43 0 -78 -35t-35 -104z" />
    <glyph glyph-name="s" unicode="s" horiz-adv-x="796" 
d="M659 684l-57 -10q-8 96 -50 149.5t-134 53.5q-56 0 -97.5 -33t-41.5 -90q0 -45 23.5 -80.5t60.5 -59.5t82 -46t90.5 -47.5t82.5 -57t60.5 -81t23.5 -112.5q0 -80 -30 -140t-81 -94t-110.5 -50.5t-126.5 -16.5q-45 0 -95 10t-70 17t-76 27l-19 227l58 12q10 -92 62 -155.5
t138 -63.5q64 0 109 35.5t45 99.5q0 40 -22.5 72t-59 54.5t-80.5 45t-88 49.5t-80.5 59.5t-59 83.5t-22.5 115q0 133 92.5 213t235.5 80q110 0 242 -49q-11 -140 -5 -217z" />
    <glyph glyph-name="t" unicode="t" horiz-adv-x="681" 
d="M639 920v-115h-244v-561q0 -111 109 -111q63 0 121 37l26 -35q-62 -80 -128.5 -123t-149.5 -43q-109 0 -158 58.5t-49 152.5v625h-123v49q81 43 168.5 122.5t159.5 170.5l24 -12v-215h244z" />
    <glyph glyph-name="u" unicode="u" 
d="M166 209v555q0 24 -8 35t-35 18l-86 25v49q203 10 348 59l21 -12q-11 -157 -11 -184v-453q0 -168 152 -168q88 0 192 86v524q0 32 -9 43.5t-40 22.5l-102 33v49q262 15 370 59l21 -12q-10 -71 -10 -184v-586q0 -42 11.5 -58t43.5 -16h61v-49q-6 -1 -44.5 -7.5t-50 -8.5
t-45 -8t-50.5 -10.5t-44 -11.5t-48.5 -14t-42.5 -16l-21 17v145q-86 -72 -164.5 -117t-158.5 -45q-130 0 -190 64.5t-60 175.5z" />
    <glyph glyph-name="v" unicode="v" horiz-adv-x="1024" 
d="M477 -31l-332 813q-18 51 -36 63.5t-64 12.5h-16v62q175 -9 235 -9q58 0 234 9v-62h-64q-22 0 -31.5 -5t-9.5 -22q0 -9 23 -73l172 -457h4q7 22 100.5 240.5t93.5 253.5q0 18 -5.5 30.5t-13 19t-22.5 9.5t-25 3.5t-30 0.5h-24v62q142 -9 190 -9q33 0 139 9v-62h-12
q-38 0 -61 -27t-43 -73l-316 -715q-24 -56 -31 -74h-55z" />
    <glyph glyph-name="w" unicode="w" horiz-adv-x="1593" 
d="M805 582l-270 -613h-58l-317 785q-25 65 -38 79q-22 25 -81 25h-14v62q180 -9 237 -9q52 0 219 9v-62h-18h-12.5h-13.5h-13t-13 -1.5t-10.5 -3.5t-9 -6t-4.5 -9q-4 -20 12 -60l193 -483l174 393l-57 129q-21 41 -101 41h-22v62q198 -9 264 -9q55 0 217 9v-62h-20
q-82 0 -82 -29q0 -27 18 -73l180 -449l162 420q14 44 14 78q0 33 -23 43t-69 10h-22v62q137 -9 182 -9q39 0 158 9v-62h-17q-15 0 -28 -4t-22 -8t-19.5 -16t-15.5 -17t-14 -23l-11 -22t-11 -25.5t-10 -23.5l-307 -750h-57z" />
    <glyph glyph-name="x" unicode="x" 
d="M459 416l-266 364q-35 42 -63 60t-75 18h-20v62q207 -9 274 -9q60 0 240 9v-62h-23q-21 0 -34 -1.5t-24 -8t-11 -19.5q0 -7 2 -13.5t7 -15t9 -14t14 -18.5t15 -20l112 -148l115 137q5 6 18.5 21.5t18 21.5t12.5 17t10.5 18.5t2.5 15.5q0 27 -88 27h-17v62q162 -9 213 -9
q47 0 180 9v-62h-26q-66 0 -104 -21t-95 -85l-192 -220l297 -409q45 -62 133 -62h16v-61q-152 8 -227 8q-103 0 -287 -8v61h27h6q63 0 68 13q1 2 1 4q0 17 -32 57l-160 215l-131 -160q-3 -4 -10 -12.5t-10 -12t-9 -11t-8 -11t-7 -10t-6.5 -10t-4.5 -9t-4 -10l-2 -9t-1 -9.5
q0 -25 93 -25h20v-61q-140 8 -211 8q-60 0 -186 -8v61h28q48 0 81.5 13.5t55 33.5t60.5 66z" />
    <glyph glyph-name="y" unicode="y" horiz-adv-x="1024" 
d="M408 754l180 -467h4l162 413q26 67 26 111q0 28 -25 37.5t-71 9.5h-27v62q142 -9 191 -9q41 0 147 9v-62h-34q-27 0 -50.5 -35.5t-68.5 -144.5l-418 -1010q-57 -135 -156 -135q-51 0 -83.5 33.5t-32.5 85.5q0 43 31 76.5t79 33.5q56 0 103 -30l104 250l-309 766
q-26 63 -46.5 86.5t-54.5 23.5h-30v62q180 -9 237 -9t228 9v-62h-19q-88 0 -88 -31q0 -16 21 -73z" />
    <glyph glyph-name="z" unicode="z" horiz-adv-x="909" 
d="M840 895l-482 -805h234q68 0 97.5 8t58.5 37q10 10 20.5 27t15.5 28.5t18 43t17 40.5h49q-29 -164 -34 -274h-793l496 829h-152q-153 0 -192 -20q-30 -18 -45 -49.5t-27 -79.5h-49q24 201 22 287h49q6 -19 10.5 -27t19 -14t40.5 -6h614z" />
    <glyph glyph-name="braceleft" unicode="{" horiz-adv-x="681" 
d="M250 -72v375q0 104 -34 158.5t-124 83.5q90 29 124 83t34 158v375q0 79 15 134t40 87t70.5 49.5t93 23t121.5 5.5v-24q-172 0 -172 -260v-359q0 -126 -30.5 -182t-131.5 -88v-4q101 -32 131.5 -88.5t30.5 -182.5v-358q0 -260 172 -260v-25q-74 0 -121.5 5.5t-93 23
t-70.5 49.5t-40 87t-15 134z" />
    <glyph glyph-name="bar" unicode="|" horiz-adv-x="454" 
d="M135 -31v1596h184v-1596h-184z" />
    <glyph glyph-name="braceright" unicode="}" horiz-adv-x="681" 
d="M432 1161v-375q0 -104 34 -158t124 -83q-90 -29 -124 -83.5t-34 -158.5v-375q0 -79 -15 -134t-40 -87t-70.5 -49.5t-93 -23t-121.5 -5.5v25q172 0 172 260v358q0 126 30.5 182.5t131.5 88.5v4q-101 32 -131.5 88t-30.5 182v359q0 260 -172 260v24q74 0 121.5 -5.5t93 -23
t70.5 -49.5t40 -87t15 -134z" />
    <glyph glyph-name="asciitilde" unicode="~" 
d="M969 666l73 -131q-29 -41 -49 -65.5t-52.5 -54t-71 -43.5t-83.5 -14q-52 0 -99 17t-109 51q-41 23 -71 37t-75.5 26.5t-89.5 12.5q-32 0 -59.5 -12.5t-48.5 -36.5t-35 -45t-29 -50l-74 148q103 160 256 160q81 0 228 -66q12 -5 54.5 -24t60 -26.5t46 -15.5t47.5 -8
q36 0 70.5 22t53.5 44.5t49 62.5q5 7 8 11z" />
    <glyph glyph-name="uni00A0" unicode="&#xa0;" horiz-adv-x="569" 
 />
    <glyph glyph-name="exclamdown" unicode="&#xa1;" horiz-adv-x="681" 
d="M319 571h41q20 -119 63.5 -339.5t61.5 -319.5q11 -65 11 -127q0 -79 -39 -138t-115 -59q-83 0 -118.5 59.5t-35.5 149.5q0 73 11 127q21 107 60 323.5t60 323.5zM178 846q0 66 49 114t115 48q65 0 113.5 -48t48.5 -114q0 -65 -49 -114.5t-113 -49.5t-114 50t-50 114z" />
    <glyph glyph-name="cent" unicode="&#xa2;" 
d="M459 272l213 572q-32 16 -70 16q-56 0 -101.5 -28.5t-73 -74t-42 -98t-14.5 -104.5q0 -161 88 -283zM961 250l36 -33q-69 -124 -163 -186t-234 -62q-118 0 -172 33l-104 -299h-78l119 324q-104 55 -164 159t-60 236q0 148 77 270t207.5 190t285.5 68l108 267h78
l-109 -267q26 -1 56.5 -9.5t62 -25.5t52 -48.5t20.5 -71.5q0 -50 -32.5 -79.5t-74.5 -29.5q-28 0 -52 13t-35.5 25t-30.5 39t-25 34l-219 -586q88 -78 199 -78q153 0 252 117z" />
    <glyph glyph-name="sterling" unicode="&#xa3;" 
d="M365 756h-244l8 102h252q13 245 121 451q42 80 100 135.5t117.5 79.5t103.5 32.5t84 8.5q82 0 121 -32t39 -77q0 -44 -19.5 -76t-66.5 -32q-33 0 -52 13t-26.5 32t-15 37.5t-25.5 31.5t-49 13q-69 0 -114.5 -116t-75.5 -347l-25 -154h309l-12 -102h-311
q-34 -275 -230 -502q78 8 119 8q54 0 107 -19.5t94 -47.5t78 -56t73 -47.5t66 -19.5q74 0 74 59q0 24 -10 39t-24.5 23t-28.5 15.5t-24 22t-10 37.5q0 32 24.5 59t57.5 27q51 0 84 -39t33 -100q0 -96 -85 -171t-234 -75q-62 0 -118.5 21t-97 50.5t-76.5 59.5t-73.5 51
t-71.5 21q-25 -62 -80 -124t-108 -62q-51 0 -51 65q0 77 54.5 124.5t133.5 57.5q40 69 100 488q3 24 5 35z" />
    <glyph glyph-name="currency" unicode="&#xa4;" 
d="M868 1124l121 119l109 -115l-119 -114q44 -58 72 -136.5t28 -162.5q0 -79 -29.5 -164.5t-70.5 -134.5l119 -113l-109 -113l-121 121q-55 -49 -134 -76.5t-163 -27.5q-89 0 -168 28t-129 76l-124 -121l-109 113l117 113q-95 130 -95 299q0 165 95 299l-117 114l113 115
l120 -119q129 96 297 99q81 1 159.5 -25t137.5 -74zM248 715q0 -134 95 -229t228 -95t228.5 95.5t95.5 228.5t-95 228t-229 95q-133 0 -228 -95t-95 -228z" />
    <glyph glyph-name="yen" unicode="&#xa5;" 
d="M326 0v61h28q30 2 51.5 6t47 15t39.5 34t14 58v258h-293v103h293v161h-293v103h225l-364 528q-14 18 -43 29.5t-51 11.5h-43v62q9 0 90.5 -4.5t142.5 -4.5q51 0 145.5 4.5t139.5 4.5v-62h-25q-40 0 -70 -12t-30 -35q0 -8 4.5 -18.5t8 -17t12.5 -18.5t10 -14l288 -434
l240 367q4 7 12.5 21t11.5 19.5t9.5 17t9 17t6.5 14.5t5.5 15.5t3 14t1.5 14.5q0 14 -8 23.5t-26.5 14.5t-29 6.5t-34.5 3.5q-7 1 -10 1h-25v62q29 0 99.5 -4.5t109.5 -4.5q32 0 91 4.5t83 4.5v-62q-93 0 -162 -94l-305 -475h260v-103h-293v-161h293v-103h-293v-258
q0 -35 14 -58t39.5 -34t47 -15t51.5 -6h29v-61q-53 0 -148 4t-129 4q-57 0 -151.5 -4t-128.5 -4z" />
    <glyph glyph-name="brokenbar" unicode="&#xa6;" horiz-adv-x="454" 
d="M135 -31v578h184v-578h-184zM135 987v578h184v-578h-184z" />
    <glyph glyph-name="section" unicode="&#xa7;" 
d="M295 969q0 -59 16.5 -120.5t56.5 -140.5t65.5 -123t84.5 -141q134 -217 178.5 -319.5t44.5 -214.5q0 -92 -34 -160l4 -4q65 63 106 149.5t41 176.5q0 98 -48 217.5t-116 229.5t-136.5 217.5t-116.5 213.5t-48 185q0 51 19 137l-4 4q-113 -135 -113 -307zM178 -213
q0 35 27 59.5t67 24.5q48 0 80.5 -32.5t42.5 -76.5q2 -8 8.5 -20t19 -27.5t33.5 -26t46 -10.5q68 0 102.5 46t34.5 131q0 58 -8.5 99.5t-54.5 138t-140 247.5q-114 184 -150 255q-93 187 -93 359q0 103 41 196.5t109.5 161.5t162 108t194.5 40q35 0 73.5 -6.5t78.5 -21.5
t66 -44.5t26 -70.5q0 -40 -32 -69t-72 -29q-32 0 -55 15.5t-38 37.5t-31.5 44.5t-43.5 38t-64 15.5q-55 0 -90 -49.5t-35 -106.5q0 -90 54 -198.5t157 -267.5q5 -8 37.5 -58t40 -62t35.5 -57.5t36.5 -63t31 -59.5t30 -65.5t22 -63t19.5 -69.5t10 -67.5t5 -73.5
q0 -58 -13 -119t-49.5 -132t-92 -125.5t-151 -91t-215.5 -36.5q-39 0 -83 11.5t-85 33t-67.5 57.5t-26.5 80z" />
    <glyph glyph-name="dieresis" unicode="&#xa8;" horiz-adv-x="569" 
d="M-41 1276q0 47 34 81t81 34t80.5 -34t33.5 -81t-33.5 -81t-80.5 -34t-81 34t-34 81zM381 1276q0 47 34 81t81 34t80.5 -34t33.5 -81t-33.5 -81t-80.5 -34t-81 34t-34 81z" />
    <glyph glyph-name="copyright" unicode="&#xa9;" horiz-adv-x="1638" 
d="M74 713q0 155 57 293.5t155.5 238t237 157.5t295.5 58q158 0 297 -58t237 -157.5t155 -238t57 -293.5q0 -207 -96.5 -377t-268 -268.5t-381.5 -98.5q-209 0 -380.5 98.5t-268 269t-96.5 376.5zM229 713q0 -158 76.5 -296.5t213 -223t300.5 -84.5t300.5 84.5t213 223
t76.5 296.5q0 119 -45 230.5t-122.5 194.5t-188 133t-234.5 50q-123 0 -233.5 -50t-188 -133t-123 -194.5t-45.5 -230.5zM1137 532h49l-31 -155q-1 -5 -3 -9t-4 -6.5t-6.5 -6t-7 -5t-9 -4.5t-9.5 -4.5t-12 -5t-12 -4.5q-95 -39 -230 -39q-217 0 -342 108t-125 320
q0 57 15 112.5t51.5 111.5t90.5 98t138.5 68t188.5 26t223 -39q47 -14 47 -49v-146h-49q-10 38 -24 67t-38.5 57.5t-65.5 44t-95 15.5q-131 0 -197 -96t-68 -260q-1 -117 23 -200.5t86.5 -136t161.5 -52.5q92 0 156.5 51.5t97.5 138.5z" />
    <glyph glyph-name="ordfeminine" unicode="&#xaa;" horiz-adv-x="665" 
d="M547 1282v-274q0 -68 43 -68q21 0 37 16l16 -22q-34 -39 -65 -58.5t-74 -19.5q-46 0 -72 27.5t-29 74.5q-52 -50 -98.5 -76t-105.5 -26q-62 0 -104 33t-42 90q0 37 12 64.5t39 46.5t50.5 30t64.5 25l172 55v80q6 42 -17.5 58t-80.5 16q-81 0 -86 -43q-1 -1 -10 -39
q-4 -19 -41 -33t-58 -14q-26 0 -26 35q0 19 15 39t48.5 42t53 33t61.5 33q68 37 119 37q88 0 133 -41t45 -121zM391 1038v111q-5 -2 -28 -9.5t-31.5 -10.5t-29 -12t-30 -15t-24.5 -16.5t-21.5 -20.5t-12 -24t-5.5 -29q0 -66 72 -66q41 0 75 26.5t35 65.5z" />
    <glyph glyph-name="guillemotleft" unicode="&#xab;" 
d="M549 827l37 -34l-207 -306l203 -307l-37 -33q-82 72 -369 340q282 255 373 340zM926 827l37 -34l-207 -306l202 -307l-36 -33q-82 72 -369 340q282 255 373 340z" />
    <glyph glyph-name="logicalnot" unicode="&#xac;" 
d="M901 203v430h-848v184h1032v-614h-184z" />
    <glyph glyph-name="uni00AD" unicode="&#xad;" horiz-adv-x="681" 
d="M53 406l35 163q92 -2 277 -2q44 0 132 1t132 1l-35 -163q-39 0 -118 1t-118 1q-254 0 -305 -2z" />
    <glyph glyph-name="registered" unicode="&#xae;" horiz-adv-x="1638" 
d="M74 713q0 155 57 293.5t155.5 238t237 157.5t295.5 58q158 0 297 -58t237 -157.5t155 -238t57 -293.5q0 -207 -96.5 -377t-268 -268.5t-381.5 -98.5q-209 0 -380.5 98.5t-268 269t-96.5 376.5zM229 713q0 -158 76.5 -296.5t213 -223t300.5 -84.5t300.5 84.5t213 223
t76.5 296.5q0 119 -45 230.5t-122.5 194.5t-188 133t-234.5 50q-123 0 -233.5 -50t-188 -133t-123 -194.5t-45.5 -230.5zM809 319h-360v37q78 10 91 19q17 10 17 49v551q0 63 -18 83t-86 17v37h381q106 0 178.5 -50.5t72.5 -146.5q0 -81 -48.5 -140t-127.5 -85l123 -170
q100 -137 164 -176v-25h-145q-20 0 -40.5 15.5t-45.5 50.5t-48 71.5t-62 97.5t-73 110h-82v-248q0 -35 16.5 -42.5t92.5 -17.5v-37zM700 1063v-350h88q70 0 106 50t36 140q0 83 -41.5 121.5t-104.5 38.5h-84z" />
    <glyph glyph-name="macron" unicode="&#xaf;" horiz-adv-x="569" 
d="M567 1221h-565v102h565v-102z" />
    <glyph glyph-name="degree" unicode="&#xb0;" horiz-adv-x="819" 
d="M410 961q73 0 131.5 60.5t58.5 129.5t-58.5 129.5t-131.5 60.5t-132 -60.5t-59 -129.5t59 -129.5t132 -60.5zM410 858q-123 0 -208 85t-85 208t85 208t208 85t207.5 -85t84.5 -208t-84.5 -208t-207.5 -85z" />
    <glyph glyph-name="plusminus" unicode="&#xb1;" 
d="M477 748v284h185v-284h423v-185h-423v-284h-185v284h-424v185h424zM53 0v184h1032v-184h-1032z" />
    <glyph glyph-name="twosuperior" unicode="&#xb2;" horiz-adv-x="739" 
d="M47 578v47q69 46 135 101t132 125t106.5 149.5t40.5 152.5t-47 124.5t-131 51.5q-102 0 -177 -106l-26 28q39 84 120 138.5t177 54.5q109 0 174 -61t65 -162q0 -41 -12 -83t-38 -83.5t-50 -75.5t-65.5 -76t-66.5 -66t-70 -65t-60 -55h362q20 31 35 67h41
q-24 -136 -30 -206h-615z" />
    <glyph glyph-name="threesuperior" unicode="&#xb3;" horiz-adv-x="739" 
d="M213 971l-8 41q45 14 84.5 32t77.5 43t60 58.5t22 71.5q0 54 -39.5 89t-100.5 35q-86 0 -159 -73l-27 30q124 146 272 146q81 0 145 -43.5t64 -112.5q0 -82 -51.5 -133.5t-146.5 -91.5l4 -2q107 6 177 -43.5t70 -147.5q0 -89 -60.5 -162t-150 -111t-184.5 -38
q-56 0 -105 16t-65 52q-10 20 -10 51q0 3 14 12q36 12 56 8q15 -40 55.5 -65t89.5 -25q83 0 137.5 58t54.5 133q0 88 -45.5 139t-115.5 49q-68 -3 -115 -16z" />
    <glyph glyph-name="acute" unicode="&#xb4;" horiz-adv-x="569" 
d="M176 1130h-82l301 304q49 49 84 49q72 0 72 -78q0 -21 -19 -43t-40 -33z" />
    <glyph glyph-name="mu" unicode="&#xb5;" 
d="M166 283v481q0 24 -8 35t-35 18l-86 25v49q203 10 348 59l21 -12q-11 -157 -11 -184v-453q0 -168 152 -168q88 0 192 86v524q0 32 -9 43.5t-40 22.5l-102 33v49q262 15 370 59l21 -12q-10 -71 -10 -184v-586q0 -42 11.5 -58t43.5 -16h61v-49q-6 -1 -44.5 -7.5t-50 -8.5
t-45 -8t-50.5 -10.5t-44 -11.5t-48.5 -14t-42.5 -16l-21 17v145q-86 -72 -164.5 -117t-158.5 -45q-45 0 -80 6q1 -112 16 -217t15 -116q0 -56 -25.5 -82.5t-89.5 -26.5q-56 0 -83.5 28t-27.5 79q0 20 12.5 255t12.5 388z" />
    <glyph glyph-name="paragraph" unicode="&#xb6;" 
d="M250 -365v62q59 -2 89.5 3.5t52 28t28 62t6.5 111.5v661q-163 0 -271 119t-108 305q0 443 453 443h592v-62q-40 0 -60 -1t-42 -8t-31 -19t-18 -36t-11 -57t-2 -84v-1261q0 -49 2 -80t9.5 -55.5t17.5 -37t30.5 -20.5t43.5 -10t61 -2v-62h-332v1733h-166v-1733h-344z
M426 678v637q-66 -2 -111.5 -52.5t-64.5 -121.5t-19 -154q0 -88 19 -155.5t64 -110.5t112 -43z" />
    <glyph glyph-name="periodcentered" unicode="&#xb7;" horiz-adv-x="569" 
d="M123 582q0 67 48 115t116 48q66 0 114 -48t48 -115q0 -66 -48 -114t-114 -48q-67 0 -115.5 48t-48.5 114z" />
    <glyph glyph-name="cedilla" unicode="&#xb8;" horiz-adv-x="569" 
d="M246 0h71l-51 -135q27 6 60 6q75 0 123.5 -36t48.5 -103q0 -43 -18 -75.5t-45.5 -50.5t-65 -29.5t-70 -15t-68.5 -3.5q-89 0 -161 34l26 64q9 -2 30 -7.5t33.5 -9t30.5 -6t33 -2.5q57 0 88 25.5t31 69.5q0 35 -29.5 53t-62.5 18q-36 0 -74 -10l-14 10z" />
    <glyph glyph-name="onesuperior" unicode="&#xb9;" horiz-adv-x="739" 
d="M147 578v49h29q29 0 43.5 1t34 4.5t27.5 12t8 23.5v624q-54 -29 -170 -78l-21 41q103 51 174 95q142 86 154 94h47v-774q0 -21 14.5 -30.5t33 -11t61.5 -1.5h30v-49h-465z" />
    <glyph glyph-name="ordmasculine" unicode="&#xba;" horiz-adv-x="739" 
d="M375 905q139 0 139 223q0 38 -7 79.5t-23 86t-47.5 73t-74.5 28.5q-137 0 -137 -234q0 -40 7 -80.5t23 -82t47 -67.5t73 -26zM367 856q-145 0 -235.5 83t-90.5 212q0 126 91 209.5t235 83.5q153 0 242 -77.5t89 -207.5q0 -128 -94 -215.5t-237 -87.5z" />
    <glyph glyph-name="guillemotright" unicode="&#xbb;" 
d="M590 147l-37 35l207 305l-203 308l37 32q82 -72 369 -340q-282 -255 -373 -340zM213 147l-37 35l207 305l-203 308l37 32q82 -72 369 -340q-282 -255 -373 -340z" />
    <glyph glyph-name="onequarter" unicode="&#xbc;" horiz-adv-x="1708" 
d="M1264 360v328h-4l-267 -328h271zM1524 360v-114h-105v-246h-155v246h-373v71l444 549h84v-506h105zM393 -61l901 1536h111l-901 -1536h-111zM559 1444v-774q0 -21 14.5 -30.5t33 -11t61.5 -1.5h30v-49q-148 4 -223 4q-82 0 -242 -4v49h29q29 0 43.5 1t34 4.5t27.5 12
t8 23.5v624q-54 -29 -170 -78l-21 41q103 51 174 95q142 86 154 94h47z" />
    <glyph glyph-name="onehalf" unicode="&#xbd;" horiz-adv-x="1708" 
d="M336 -61l901 1536h111l-902 -1536h-110zM500 1444v-774q0 -11 2.5 -18.5t10.5 -12t14.5 -7t22 -4t26 -1.5h32.5h31v-49q-148 4 -223 4q-82 0 -242 -4v49h29q29 0 43.5 1t33.5 4.5t27 12t8 23.5v624q-54 -29 -170 -78l-20 41q103 51 174 95q142 86 154 94h47zM997 645
l-26 29q39 84 120 138t177 54q109 0 174 -61t65 -162q0 -29 -7.5 -59.5t-17 -56.5t-30 -57.5t-34.5 -53t-43.5 -53t-44.5 -47.5t-49 -47t-46 -41.5t-47.5 -40.5t-40.5 -35h362q14 9 33 55h41q-26 -146 -31 -207h-614v47q69 46 135 101t132 125t106.5 149.5t40.5 152.5
q0 74 -47 125.5t-131 51.5q-101 0 -177 -107z" />
    <glyph glyph-name="threequarters" unicode="&#xbe;" horiz-adv-x="1708" 
d="M1264 360v328h-4l-267 -328h271zM1524 360v-114h-105v-246h-155v246h-373v71l444 549h84v-506h105zM403 -61l902 1536h110l-901 -1536h-111zM315 971l-8 41q45 14 84.5 32t77.5 43t60 58.5t22 71.5q0 54 -39 89t-100 35q-87 0 -160 -73l-27 30q124 146 273 146
q81 0 145 -43.5t64 -112.5q0 -82 -51.5 -133t-147.5 -92l4 -2q108 6 178 -43.5t70 -147.5q0 -89 -60.5 -162t-150 -111t-184.5 -38q-56 0 -105 16t-65 52q-11 22 -11 51q0 2 15 12q36 12 55 8q15 -40 55.5 -65t89.5 -25q83 0 138 58t55 133q0 87 -45.5 138.5t-116.5 49.5
q-68 -3 -115 -16z" />
    <glyph glyph-name="questiondown" unicode="&#xbf;" horiz-adv-x="909" 
d="M520 571h53l9 -368q0 -25 -25 -25q-52 0 -103.5 -9.5t-102 -30.5t-82 -63.5t-31.5 -99.5q0 -74 19.5 -115t53.5 -69q8 -7 17 -12.5t17 -9.5t18 -7t17.5 -5t18 -3.5t16 -2t16 -1t14 -0.5h12.5h10q13 0 51.5 6t61.5 6q46 0 74 -29t28 -79q0 -54 -46.5 -87.5t-100.5 -33.5
q-86 -1 -154.5 48.5t-134.5 150.5q-52 81 -81.5 175.5t-29.5 170.5q0 190 125 278q60 42 170 62q73 13 80 47q10 62 10 106zM358 846q0 66 49 114t115 48q65 0 113.5 -48t48.5 -114q0 -65 -49 -114.5t-113 -49.5t-114 50t-50 114z" />
    <glyph glyph-name="Agrave" unicode="&#xc0;" horiz-adv-x="1478" 
d="M428 506l-66 -213q-7 -25 -19.5 -61.5t-19 -59.5t-6.5 -39q0 -72 154 -72h23v-61q-164 8 -248 8q-73 0 -221 -8v61h12q61 0 108 35t70 99l328 940q63 177 75 254q109 38 187 88q12 4 16 4q11 0 15 -6q3 -8 9 -26t9 -26l377 -1071q60 -173 76 -209q36 -82 135 -82h12v-61
q-184 8 -283 8t-307 -8v61h23q29 0 54.5 4t49 18t23.5 38q0 29 -41 147l-80 238h-465zM850 621l-188 579h-5l-190 -579h383zM612 1841l301 -303h-82l-315 199q-21 11 -40 32.5t-19 42.5q0 78 71 78q35 0 84 -49z" />
    <glyph glyph-name="Aacute" unicode="&#xc1;" horiz-adv-x="1478" 
d="M428 506l-66 -213q-7 -25 -19.5 -61.5t-19 -59.5t-6.5 -39q0 -72 154 -72h23v-61q-164 8 -248 8q-73 0 -221 -8v61h12q61 0 108 35t70 99l328 940q63 177 75 254q109 38 187 88q12 4 16 4q11 0 15 -6q3 -8 9 -26t9 -26l377 -1071q60 -173 76 -209q36 -82 135 -82h12v-61
q-184 8 -283 8t-307 -8v61h23q29 0 54.5 4t49 18t23.5 38q0 29 -41 147l-80 238h-465zM850 621l-188 579h-5l-190 -579h383zM631 1538h-82l301 303q49 49 84 49q72 0 72 -78q0 -21 -19.5 -42.5t-40.5 -32.5z" />
    <glyph glyph-name="Acircumflex" unicode="&#xc2;" horiz-adv-x="1478" 
d="M428 506l-66 -213q-7 -25 -19.5 -61.5t-19 -59.5t-6.5 -39q0 -72 154 -72h23v-61q-164 8 -248 8q-73 0 -221 -8v61h12q61 0 108 35t70 99l328 940q63 177 75 254q109 38 187 88q12 4 16 4q11 0 15 -6q3 -8 9 -26t9 -26l377 -1071q60 -173 76 -209q36 -82 135 -82h12v-61
q-184 8 -283 8t-307 -8v61h23q29 0 54.5 4t49 18t23.5 38q0 29 -41 147l-80 238h-465zM850 621l-188 579h-5l-190 -579h383zM676 1880h127l256 -342h-72l-248 211l-250 -211h-67z" />
    <glyph glyph-name="Atilde" unicode="&#xc3;" horiz-adv-x="1478" 
d="M428 506l-66 -213q-7 -25 -19.5 -61.5t-19 -59.5t-6.5 -39q0 -72 154 -72h23v-61q-164 8 -248 8q-73 0 -221 -8v61h12q61 0 108 35t70 99l328 940q63 177 75 254q109 38 187 88q12 4 16 4q11 0 15 -6q3 -8 9 -26t9 -26l377 -1071q60 -173 76 -209q36 -82 135 -82h12v-61
q-184 8 -283 8t-307 -8v61h23q29 0 54.5 4t49 18t23.5 38q0 29 -41 147l-80 238h-465zM850 621l-188 579h-5l-190 -579h383zM426 1587h-59q11 57 32 103.5t64 82t100 35.5q54 0 162 -45q112 -45 156 -45q83 0 96 92h61q-7 -42 -21 -78t-36.5 -69t-57.5 -52.5t-79 -19.5
q-64 0 -172 49q-7 3 -26.5 11t-28 11.5t-24 9.5t-25 9t-21.5 5t-21 2q-70 0 -100 -101z" />
    <glyph glyph-name="Adieresis" unicode="&#xc4;" horiz-adv-x="1478" 
d="M428 506l-66 -213q-7 -25 -19.5 -61.5t-19 -59.5t-6.5 -39q0 -72 154 -72h23v-61q-164 8 -248 8q-73 0 -221 -8v61h12q61 0 108 35t70 99l328 940q63 177 75 254q109 38 187 88q12 4 16 4q11 0 15 -6q3 -8 9 -26t9 -26l377 -1071q60 -173 76 -209q36 -82 135 -82h12v-61
q-184 8 -283 8t-307 -8v61h23q29 0 54.5 4t49 18t23.5 38q0 29 -41 147l-80 238h-465zM850 621l-188 579h-5l-190 -579h383zM414 1683q0 47 33.5 81t80.5 34t81 -34t34 -81t-34 -80.5t-81 -33.5t-80.5 33.5t-33.5 80.5zM836 1683q0 47 33.5 81t80.5 34t81 -34t34 -81
t-34 -80.5t-81 -33.5t-80.5 33.5t-33.5 80.5z" />
    <glyph glyph-name="Aring" unicode="&#xc5;" horiz-adv-x="1478" 
d="M428 506l-66 -213q-7 -25 -19.5 -61.5t-19 -59.5t-6.5 -39q0 -72 154 -72h23v-61q-164 8 -248 8q-73 0 -221 -8v61h12q61 0 108 35t70 99l328 940q63 177 75 254q109 38 187 88q12 4 16 4q11 0 15 -6q3 -8 9 -26t9 -26l377 -1071q60 -173 76 -209q36 -82 135 -82h12v-61
q-184 8 -283 8t-307 -8v61h23q29 0 54.5 4t49 18t23.5 38q0 29 -41 147l-80 238h-465zM850 621l-188 579h-5l-190 -579h383zM864 1733q0 54 -42 96.5t-97 42.5t-97 -42t-42 -97t42.5 -97.5t96.5 -42.5t96.5 43t42.5 97zM924 1733q0 -83 -58 -141t-141 -58t-141 58t-58 141
t58 140.5t141 57.5t141 -57.5t58 -140.5z" />
    <glyph glyph-name="AE" unicode="&#xc6;" horiz-adv-x="2048" 
d="M1243 700v-464q0 -86 27 -110t119 -24h258q69 0 114.5 12.5t76.5 44t49.5 72.5t37.5 109l57 -14q-45 -184 -69 -326q-94 0 -281.5 4t-281.5 4t-283 -4t-283 -4v61h29q94 0 131 39.5t37 137.5v462h-358l-291 -505q-19 -35 -19 -80q0 -22 41 -38t107 -16h20v-61
q-44 0 -132 4t-132 4q-34 0 -101.5 -4t-101.5 -4v61q73 0 116 36t85 112l604 1022q35 57 35 94q0 43 -137 43h-29v62q439 -9 582 -9q147 0 581 9q-7 -151 4 -314l-61 -16q-5 58 -15 97t-32 73.5t-61.5 51.5t-98.5 17h-344v-536h260q86 0 119 43.5t43 136.5h61
q-6 -120 -6 -240q0 -116 6 -233l-61 -12q-3 35 -5 50.5t-7 42.5t-11.5 39t-18 28.5t-27 23.5t-38.5 12.5t-53 5.5h-262zM981 803v524h-4l-295 -524h299z" />
    <glyph glyph-name="Ccedilla" unicode="&#xc7;" horiz-adv-x="1478" 
d="M1403 1016l-62 -8q-19 66 -40 115t-57.5 98t-83 80t-117.5 50t-160 19q-164 0 -281 -81.5t-174 -220.5t-57 -320q0 -105 21 -203t65.5 -187t109 -155t158.5 -105t207 -39q160 0 268.5 92t149.5 250l57 -8q-33 -138 -51 -332q-215 -92 -469 -92h-15l-38 -104q27 6 59 6
q75 0 123.5 -36t48.5 -103q0 -53 -26 -90t-69.5 -54t-84 -23.5t-86.5 -6.5q-90 0 -162 34l27 64q9 -2 30 -7.5t33.5 -9t30.5 -6t33 -2.5q57 0 87.5 25.5t30.5 69.5q0 35 -29.5 53t-62.5 18q-36 0 -74 -10l-14 10l72 174q-158 11 -288.5 64.5t-226.5 147t-149 234.5t-53 318
q0 167 64.5 306t174 229.5t252.5 140t302 49.5q105 0 187.5 -18.5t165.5 -45.5t156 -38q-3 -177 17 -342z" />
    <glyph glyph-name="Egrave" unicode="&#xc8;" horiz-adv-x="1251" 
d="M39 0v61h29q33 0 56 3.5t46.5 15t36 36t12.5 62.5v1073q0 38 -12.5 62.5t-36 36t-46.5 15t-56 3.5h-29v62q57 0 237.5 -4.5t272.5 -4.5q90 0 274.5 4.5t249.5 4.5q-7 -151 4 -314l-61 -16q-3 46 -9 76.5t-21.5 64.5t-41.5 53t-70.5 32t-107.5 13h-285v-536h244
q86 0 119 43.5t43 136.5h61q-6 -120 -6 -240q0 -116 6 -233l-61 -12q-3 35 -5 50.5t-7 42.5t-11.5 39t-18 28.5t-27 23.5t-38.5 12.5t-53 5.5h-246v-477q0 -32 8.5 -56t28.5 -38t38 -22.5t53 -12t57 -4t65 -0.5q70 0 113 2.5t90 10.5t75.5 24.5t56.5 44t47 69t34 99.5
l57 -14q-45 -184 -69 -326q-59 0 -255.5 4t-295.5 4q-100 0 -297.5 -4t-247.5 -4zM500 1841l301 -303h-82l-316 199q-21 11 -40 32.5t-19 42.5q0 78 72 78q35 0 84 -49z" />
    <glyph glyph-name="Eacute" unicode="&#xc9;" horiz-adv-x="1251" 
d="M39 0v61h29q33 0 56 3.5t46.5 15t36 36t12.5 62.5v1073q0 38 -12.5 62.5t-36 36t-46.5 15t-56 3.5h-29v62q57 0 237.5 -4.5t272.5 -4.5q90 0 274.5 4.5t249.5 4.5q-7 -151 4 -314l-61 -16q-3 46 -9 76.5t-21.5 64.5t-41.5 53t-70.5 32t-107.5 13h-285v-536h244
q86 0 119 43.5t43 136.5h61q-6 -120 -6 -240q0 -116 6 -233l-61 -12q-3 35 -5 50.5t-7 42.5t-11.5 39t-18 28.5t-27 23.5t-38.5 12.5t-53 5.5h-246v-477q0 -32 8.5 -56t28.5 -38t38 -22.5t53 -12t57 -4t65 -0.5q70 0 113 2.5t90 10.5t75.5 24.5t56.5 44t47 69t34 99.5
l57 -14q-45 -184 -69 -326q-59 0 -255.5 4t-295.5 4q-100 0 -297.5 -4t-247.5 -4zM518 1538h-82l301 303q49 49 84 49q72 0 72 -78q0 -21 -19 -42.5t-40 -32.5z" />
    <glyph glyph-name="Ecircumflex" unicode="&#xca;" horiz-adv-x="1251" 
d="M39 0v61h29q33 0 56 3.5t46.5 15t36 36t12.5 62.5v1073q0 38 -12.5 62.5t-36 36t-46.5 15t-56 3.5h-29v62q57 0 237.5 -4.5t272.5 -4.5q90 0 274.5 4.5t249.5 4.5q-7 -151 4 -314l-61 -16q-3 46 -9 76.5t-21.5 64.5t-41.5 53t-70.5 32t-107.5 13h-285v-536h244
q86 0 119 43.5t43 136.5h61q-6 -120 -6 -240q0 -116 6 -233l-61 -12q-3 35 -5 50.5t-7 42.5t-11.5 39t-18 28.5t-27 23.5t-38.5 12.5t-53 5.5h-246v-477q0 -32 8.5 -56t28.5 -38t38 -22.5t53 -12t57 -4t65 -0.5q70 0 113 2.5t90 10.5t75.5 24.5t56.5 44t47 69t34 99.5
l57 -14q-45 -184 -69 -326q-59 0 -255.5 4t-295.5 4q-100 0 -297.5 -4t-247.5 -4zM563 1880h127l256 -342h-72l-247 211l-250 -211h-68z" />
    <glyph glyph-name="Edieresis" unicode="&#xcb;" horiz-adv-x="1251" 
d="M39 0v61h29q33 0 56 3.5t46.5 15t36 36t12.5 62.5v1073q0 38 -12.5 62.5t-36 36t-46.5 15t-56 3.5h-29v62q57 0 237.5 -4.5t272.5 -4.5q90 0 274.5 4.5t249.5 4.5q-7 -151 4 -314l-61 -16q-3 46 -9 76.5t-21.5 64.5t-41.5 53t-70.5 32t-107.5 13h-285v-536h244
q86 0 119 43.5t43 136.5h61q-6 -120 -6 -240q0 -116 6 -233l-61 -12q-3 35 -5 50.5t-7 42.5t-11.5 39t-18 28.5t-27 23.5t-38.5 12.5t-53 5.5h-246v-477q0 -32 8.5 -56t28.5 -38t38 -22.5t53 -12t57 -4t65 -0.5q70 0 113 2.5t90 10.5t75.5 24.5t56.5 44t47 69t34 99.5
l57 -14q-45 -184 -69 -326q-59 0 -255.5 4t-295.5 4q-100 0 -297.5 -4t-247.5 -4zM301 1683q0 47 34 81t81 34t80.5 -34t33.5 -81t-33.5 -80.5t-80.5 -33.5t-81 33.5t-34 80.5zM723 1683q0 47 34 81t81 34t80.5 -34t33.5 -81t-33.5 -80.5t-80.5 -33.5t-81 33.5t-34 80.5z
" />
    <glyph glyph-name="Igrave" unicode="&#xcc;" horiz-adv-x="681" 
d="M29 0v61h28q33 0 56 3.5t47 15t36.5 36t12.5 62.5v1073q0 38 -12.5 62.5t-36.5 36t-47 15t-56 3.5h-28v62q37 0 144 -4.5t159 -4.5t163 4.5t158 4.5v-62h-28q-33 0 -56 -3.5t-47 -15t-36.5 -36t-12.5 -62.5v-1073q0 -38 12.5 -62.5t36.5 -36t47 -15t56 -3.5h28v-61
q-49 0 -160 4t-163 4t-157.5 -4t-143.5 -4zM215 1841l301 -303h-82l-315 199q-21 11 -40.5 32.5t-19.5 42.5q0 78 72 78q35 0 84 -49z" />
    <glyph glyph-name="Iacute" unicode="&#xcd;" horiz-adv-x="681" 
d="M29 0v61h28q33 0 56 3.5t47 15t36.5 36t12.5 62.5v1073q0 38 -12.5 62.5t-36.5 36t-47 15t-56 3.5h-28v62q37 0 144 -4.5t159 -4.5t163 4.5t158 4.5v-62h-28q-33 0 -56 -3.5t-47 -15t-36.5 -36t-12.5 -62.5v-1073q0 -38 12.5 -62.5t36.5 -36t47 -15t56 -3.5h28v-61
q-49 0 -160 4t-163 4t-157.5 -4t-143.5 -4zM233 1538h-81l301 303q49 49 84 49q71 0 71 -78q0 -21 -19 -42.5t-40 -32.5z" />
    <glyph glyph-name="Icircumflex" unicode="&#xce;" horiz-adv-x="681" 
d="M29 0v61h28q33 0 56 3.5t47 15t36.5 36t12.5 62.5v1073q0 38 -12.5 62.5t-36.5 36t-47 15t-56 3.5h-28v62q37 0 144 -4.5t159 -4.5t163 4.5t158 4.5v-62h-28q-33 0 -56 -3.5t-47 -15t-36.5 -36t-12.5 -62.5v-1073q0 -38 12.5 -62.5t36.5 -36t47 -15t56 -3.5h28v-61
q-49 0 -160 4t-163 4t-157.5 -4t-143.5 -4zM279 1880h127l256 -342h-72l-248 211l-250 -211h-67z" />
    <glyph glyph-name="Idieresis" unicode="&#xcf;" horiz-adv-x="681" 
d="M29 0v61h28q33 0 56 3.5t47 15t36.5 36t12.5 62.5v1073q0 38 -12.5 62.5t-36.5 36t-47 15t-56 3.5h-28v62q37 0 144 -4.5t159 -4.5t163 4.5t158 4.5v-62h-28q-33 0 -56 -3.5t-47 -15t-36.5 -36t-12.5 -62.5v-1073q0 -38 12.5 -62.5t36.5 -36t47 -15t56 -3.5h28v-61
q-49 0 -160 4t-163 4t-157.5 -4t-143.5 -4zM16 1683q0 47 34 81t81 34t81 -34t34 -81t-34 -80.5t-81 -33.5t-81 33.5t-34 80.5zM438 1683q0 47 34 81t81 34t81 -34t34 -81t-34 -80.5t-81 -33.5t-81 33.5t-34 80.5z" />
    <glyph glyph-name="Eth" unicode="&#xd0;" horiz-adv-x="1593" 
d="M481 1346v-490h318v-115h-318v-505q0 -53 11.5 -85.5t40.5 -49t65 -22t96 -5.5q126 0 228.5 50t167 135t99 193t34.5 228q0 132 -21.5 237.5t-62 178.5t-94 124.5t-123 80.5t-142.5 42t-159 13q-27 0 -140 -10zM39 0v61h29q34 0 52 1t40 4.5t33 11.5t18.5 22.5t7.5 36.5
v604h-180v115h180v434q0 22 -9 37t-21.5 23t-36.5 12t-42.5 5t-50.5 1h-20v62q21 -1 83 -3.5t124.5 -4t120.5 -1.5q71 0 180.5 4.5t148.5 4.5q375 0 594 -194t219 -517q0 -151 -60.5 -288.5t-162.5 -235t-242.5 -151t-293.5 -44.5q-180 8 -373 8q-206 0 -338 -8z" />
    <glyph glyph-name="Ntilde" unicode="&#xd1;" horiz-adv-x="1705" 
d="M446 1430l912 -1027l4 5v768q0 59 -18.5 100t-48.5 59.5t-56.5 25.5t-54.5 7h-45v62q48 0 143 -4.5t143 -4.5q42 0 126 4.5t126 4.5v-62h-30q-31 0 -52.5 -3.5t-48.5 -18t-43 -41t-27.5 -77t-11.5 -120.5v-932q0 -125 13 -207h-78l-1055 1176v-844q0 -137 38.5 -188.5
t154.5 -51.5h34v-61q-44 0 -132 4t-132 4q-46 0 -139 -4t-139 -4v61h28q101 0 143 65.5t42 195.5v862q0 82 -56.5 133t-130.5 51h-26v62q39 0 117.5 -4.5t117.5 -4.5q30 0 91 4.5t91 4.5zM578 1587h-60q8 42 22.5 78.5t37.5 70t58.5 53t78.5 19.5q54 0 162 -45
q112 -45 155 -45q83 0 96 92h62q-10 -57 -30.5 -103t-63.5 -81t-101 -35q-64 0 -172 49q-7 3 -31 13.5t-33.5 14t-27 9.5t-30 8.5t-23.5 2.5q-70 0 -100 -101z" />
    <glyph glyph-name="Ograve" unicode="&#xd2;" horiz-adv-x="1708" 
d="M84 705q0 157 58.5 297t159 240.5t241 159t297.5 58.5q219 0 396 -84.5t282.5 -247t105.5 -374.5q0 -231 -102.5 -411t-278.5 -277t-393 -97q-216 0 -390 91.5t-275 260t-101 384.5zM371 776q0 -140 32 -267t92.5 -228.5t157.5 -161.5t217 -60q467 0 467 650
q0 92 -19 183.5t-60 178t-98.5 153t-141.5 106.5t-182 40q-103 0 -185 -36t-133.5 -94t-85.5 -137t-47.5 -159.5t-13.5 -167.5zM727 1841l301 -303h-82l-315 199q-21 11 -40.5 32.5t-19.5 42.5q0 78 72 78q35 0 84 -49z" />
    <glyph glyph-name="Oacute" unicode="&#xd3;" horiz-adv-x="1708" 
d="M84 705q0 157 58.5 297t159 240.5t241 159t297.5 58.5q219 0 396 -84.5t282.5 -247t105.5 -374.5q0 -231 -102.5 -411t-278.5 -277t-393 -97q-216 0 -390 91.5t-275 260t-101 384.5zM371 776q0 -140 32 -267t92.5 -228.5t157.5 -161.5t217 -60q467 0 467 650
q0 92 -19 183.5t-60 178t-98.5 153t-141.5 106.5t-182 40q-103 0 -185 -36t-133.5 -94t-85.5 -137t-47.5 -159.5t-13.5 -167.5zM745 1538h-81l301 303q49 49 84 49q71 0 71 -78q0 -21 -19 -42.5t-40 -32.5z" />
    <glyph glyph-name="Ocircumflex" unicode="&#xd4;" horiz-adv-x="1708" 
d="M84 705q0 157 58.5 297t159 240.5t241 159t297.5 58.5q219 0 396 -84.5t282.5 -247t105.5 -374.5q0 -231 -102.5 -411t-278.5 -277t-393 -97q-216 0 -390 91.5t-275 260t-101 384.5zM371 776q0 -140 32 -267t92.5 -228.5t157.5 -161.5t217 -60q467 0 467 650
q0 92 -19 183.5t-60 178t-98.5 153t-141.5 106.5t-182 40q-103 0 -185 -36t-133.5 -94t-85.5 -137t-47.5 -159.5t-13.5 -167.5zM791 1880h127l256 -342h-72l-248 211l-250 -211h-67z" />
    <glyph glyph-name="Otilde" unicode="&#xd5;" horiz-adv-x="1708" 
d="M84 705q0 157 58.5 297t159 240.5t241 159t297.5 58.5q219 0 396 -84.5t282.5 -247t105.5 -374.5q0 -231 -102.5 -411t-278.5 -277t-393 -97q-216 0 -390 91.5t-275 260t-101 384.5zM371 776q0 -140 32 -267t92.5 -228.5t157.5 -161.5t217 -60q467 0 467 650
q0 92 -19 183.5t-60 178t-98.5 153t-141.5 106.5t-182 40q-103 0 -185 -36t-133.5 -94t-85.5 -137t-47.5 -159.5t-13.5 -167.5zM578 1587h-60q8 42 22.5 78.5t37.5 70t58.5 53t78.5 19.5q54 0 162 -45q112 -45 155 -45q83 0 96 92h62q-10 -57 -30.5 -103t-63.5 -81t-101 -35
q-64 0 -172 49q-7 3 -31 13.5t-33.5 14t-27 9.5t-30 8.5t-23.5 2.5q-70 0 -100 -101z" />
    <glyph glyph-name="Odieresis" unicode="&#xd6;" horiz-adv-x="1708" 
d="M84 705q0 157 58.5 297t159 240.5t241 159t297.5 58.5q219 0 396 -84.5t282.5 -247t105.5 -374.5q0 -231 -102.5 -411t-278.5 -277t-393 -97q-216 0 -390 91.5t-275 260t-101 384.5zM371 776q0 -140 32 -267t92.5 -228.5t157.5 -161.5t217 -60q467 0 467 650
q0 92 -19 183.5t-60 178t-98.5 153t-141.5 106.5t-182 40q-103 0 -185 -36t-133.5 -94t-85.5 -137t-47.5 -159.5t-13.5 -167.5zM528 1683q0 47 34 81t81 34t81 -34t34 -81t-34 -80.5t-81 -33.5t-81 33.5t-34 80.5zM950 1683q0 47 34 81t81 34t81 -34t34 -81t-34 -80.5
t-81 -33.5t-81 33.5t-34 80.5z" />
    <glyph glyph-name="multiply" unicode="&#xd7;" 
d="M569 385l-321 -322l-131 132l321 321l-321 324l129 129l323 -322l322 322l131 -131l-322 -322l322 -323l-129 -130z" />
    <glyph glyph-name="Oslash" unicode="&#xd8;" horiz-adv-x="1708" 
d="M449 375l774 762q-143 233 -387 233q-103 0 -185 -36t-133.5 -94t-85.5 -137t-47.5 -159.5t-13.5 -167.5q0 -226 78 -401zM1266 1053l-774 -762q138 -232 378 -232q467 0 467 650q0 186 -71 344zM1589 1497l64 -61l-211 -209q182 -188 182 -473q0 -231 -102.5 -411
t-278.5 -277t-393 -97q-301 0 -510 172l-223 -219l-64 62l221 219q-190 203 -190 502q0 157 58.5 297t159 240.5t241 159t297.5 58.5q322 0 536 -174z" />
    <glyph glyph-name="Ugrave" unicode="&#xd9;" horiz-adv-x="1593" 
d="M219 479v740q0 43 -9.5 72t-22 44t-36.5 22.5t-41 9t-49 1.5h-24v62q39 0 147 -4.5t178 -4.5q67 0 169.5 4.5t138.5 4.5v-62h-25q-32 0 -49.5 -1.5t-43 -9t-38.5 -22.5t-23 -44.5t-10 -71.5v-707q0 -101 20 -179t64 -138t121 -91.5t184 -31.5q197 0 293.5 117t96.5 331
v699q0 52 -12 84.5t-37.5 45.5t-44.5 16t-54 3h-41v62q41 0 124 -4.5t124 -4.5q40 0 118.5 4.5t118.5 4.5v-62h-43q-22 0 -35.5 -1t-34 -9t-32 -23t-20.5 -44.5t-9 -71.5v-654q0 -113 -19.5 -204.5t-56 -156t-85.5 -111t-112 -73.5t-131 -39t-147 -12q-304 0 -458 121
t-154 389zM707 1841l301 -303h-82l-316 199q-21 11 -40 32.5t-19 42.5q0 78 72 78q35 0 84 -49z" />
    <glyph glyph-name="Uacute" unicode="&#xda;" horiz-adv-x="1593" 
d="M219 479v740q0 43 -9.5 72t-22 44t-36.5 22.5t-41 9t-49 1.5h-24v62q39 0 147 -4.5t178 -4.5q67 0 169.5 4.5t138.5 4.5v-62h-25q-32 0 -49.5 -1.5t-43 -9t-38.5 -22.5t-23 -44.5t-10 -71.5v-707q0 -101 20 -179t64 -138t121 -91.5t184 -31.5q197 0 293.5 117t96.5 331
v699q0 52 -12 84.5t-37.5 45.5t-44.5 16t-54 3h-41v62q41 0 124 -4.5t124 -4.5q40 0 118.5 4.5t118.5 4.5v-62h-43q-22 0 -35.5 -1t-34 -9t-32 -23t-20.5 -44.5t-9 -71.5v-654q0 -113 -19.5 -204.5t-56 -156t-85.5 -111t-112 -73.5t-131 -39t-147 -12q-304 0 -458 121
t-154 389zM725 1538h-82l301 303q49 49 84 49q72 0 72 -78q0 -21 -19.5 -42.5t-40.5 -32.5z" />
    <glyph glyph-name="Ucircumflex" unicode="&#xdb;" horiz-adv-x="1593" 
d="M219 479v740q0 43 -9.5 72t-22 44t-36.5 22.5t-41 9t-49 1.5h-24v62q39 0 147 -4.5t178 -4.5q67 0 169.5 4.5t138.5 4.5v-62h-25q-32 0 -49.5 -1.5t-43 -9t-38.5 -22.5t-23 -44.5t-10 -71.5v-707q0 -101 20 -179t64 -138t121 -91.5t184 -31.5q197 0 293.5 117t96.5 331
v699q0 52 -12 84.5t-37.5 45.5t-44.5 16t-54 3h-41v62q41 0 124 -4.5t124 -4.5q40 0 118.5 4.5t118.5 4.5v-62h-43q-22 0 -35.5 -1t-34 -9t-32 -23t-20.5 -44.5t-9 -71.5v-654q0 -113 -19.5 -204.5t-56 -156t-85.5 -111t-112 -73.5t-131 -39t-147 -12q-304 0 -458 121
t-154 389zM770 1880h127l256 -342h-72l-247 211l-250 -211h-68z" />
    <glyph glyph-name="Udieresis" unicode="&#xdc;" horiz-adv-x="1593" 
d="M219 479v740q0 43 -9.5 72t-22 44t-36.5 22.5t-41 9t-49 1.5h-24v62q39 0 147 -4.5t178 -4.5q67 0 169.5 4.5t138.5 4.5v-62h-25q-32 0 -49.5 -1.5t-43 -9t-38.5 -22.5t-23 -44.5t-10 -71.5v-707q0 -101 20 -179t64 -138t121 -91.5t184 -31.5q197 0 293.5 117t96.5 331
v699q0 52 -12 84.5t-37.5 45.5t-44.5 16t-54 3h-41v62q41 0 124 -4.5t124 -4.5q40 0 118.5 4.5t118.5 4.5v-62h-43q-22 0 -35.5 -1t-34 -9t-32 -23t-20.5 -44.5t-9 -71.5v-654q0 -113 -19.5 -204.5t-56 -156t-85.5 -111t-112 -73.5t-131 -39t-147 -12q-304 0 -458 121
t-154 389zM508 1683q0 47 34 81t81 34t80.5 -34t33.5 -81t-33.5 -80.5t-80.5 -33.5t-81 33.5t-34 80.5zM930 1683q0 47 33.5 81t80.5 34t81 -34t34 -81t-34 -80.5t-81 -33.5t-80.5 33.5t-33.5 80.5z" />
    <glyph glyph-name="Yacute" unicode="&#xdd;" horiz-adv-x="1478" 
d="M651 229v439l-409 561q-54 77 -92.5 108t-104.5 31h-20v62q55 0 160 -4.5t161 -4.5q54 0 154.5 4.5t148.5 4.5v-62h-26q-45 0 -76 -12t-31 -35q0 -10 5.5 -21t18.5 -28.5t13 -18.5l309 -434l254 367q6 9 17.5 27t16 25.5t12 21t10.5 21.5t5.5 18t2.5 20q0 15 -13.5 25.5
t-34.5 15t-38 6.5t-31 2h-37v62q39 0 117 -4.5t117 -4.5q33 0 98 4.5t96 4.5v-62q-91 0 -160 -94l-381 -539v-489q0 -64 10 -102t35 -56t51 -22.5t74 -4.5h39v-61q-64 0 -178.5 4t-155.5 4q-49 0 -166 -4t-180 -4v61h39q94 0 132 35t38 133zM668 1538h-82l301 303
q49 49 84 49q71 0 71 -78q0 -21 -19 -42.5t-40 -32.5z" />
    <glyph glyph-name="Thorn" unicode="&#xde;" 
d="M47 0v61h33q32 0 50 1.5t39 9t30.5 24.5t9.5 45v1135q0 51 -31.5 71.5t-105.5 20.5h-25v62q55 0 166 -4.5t168 -4.5q52 0 155.5 4.5t155.5 4.5v-62h-59q-22 0 -32 -0.5t-33.5 -2t-37 -7t-29 -14.5t-23 -24t-7.5 -36v-59h125q123 0 214.5 -19.5t161.5 -63.5t106 -121
t36 -187q0 -418 -547 -418h-96v-264q0 -25 12.5 -42.5t30 -27t46.5 -14.5t51.5 -6t54.5 -1h32v-61q-52 0 -155.5 4t-155.5 4q-56 0 -168.5 -4t-171.5 -4zM471 1151v-674h66q146 0 224.5 97t78.5 260q0 146 -78.5 231.5t-231.5 85.5h-59z" />
    <glyph glyph-name="germandbls" unicode="&#xdf;" 
d="M395 1096v-987q0 -32 14 -40t46 -8h24v-61q-136 8 -203 8q-83 0 -231 -8v61h27q20 0 32 1t28.5 5.5t25 15.5t8.5 28v694h-121v49q84 41 121 70v75q0 119 46 211.5t130 175.5q95 90 208 134.5t220 44.5q88 0 157 -27t112.5 -86t43.5 -143q0 -58 -21 -109t-54.5 -87.5
t-74.5 -69.5t-81.5 -61.5t-74 -56t-54.5 -60.5t-21 -68q0 -33 20.5 -62.5t53.5 -54t72.5 -50t79.5 -56.5t73 -67.5t53.5 -89.5t20.5 -116q0 -136 -104.5 -234t-241.5 -98q-70 0 -129 33.5t-59 87.5q-2 32 18.5 53t54.5 21q29 0 51 -19t34.5 -41.5t37.5 -41.5t60 -19
q47 0 78.5 36.5t31.5 90.5q0 45 -20 84.5t-51.5 68.5t-70 57t-77 57t-70 61.5t-51.5 77.5t-20 98q0 59 19.5 108t50.5 84.5t68.5 67.5t75 63.5t68.5 65t50.5 79t19.5 99.5q0 96 -68 165t-163 69q-75 0 -129.5 -32t-85 -87t-44.5 -120t-14 -140z" />
    <glyph glyph-name="agrave" unicode="&#xe0;" horiz-adv-x="1024" 
d="M623 530v115q0 85 -44 125.5t-118 40.5q-89 0 -120.5 -29t-37.5 -116q-3 -36 -56.5 -59t-88.5 -23q-39 0 -39 47q0 57 31 101.5t81 70.5q146 75 222 119q47 28 122 28q135 0 206 -69.5t71 -202.5v-418q0 -77 12 -114t51 -37q13 0 31 8.5t27 17.5l26 -37
q-52 -65 -99.5 -97t-115.5 -32q-71 0 -110 44t-45 118q-80 -78 -152 -120t-162 -42q-96 0 -159.5 56.5t-63.5 154.5q0 33 8.5 62t20.5 50.5t35.5 41.5t42 32.5t53 28.5t55.5 24t62 23zM623 217v244q-13 -4 -45 -14t-50.5 -16t-49 -18t-49 -22t-41.5 -26.5t-35.5 -33.5
t-21.5 -40t-9 -49q0 -133 124 -133q97 0 177 108zM385 1434l301 -304h-82l-315 199q-21 11 -40.5 33t-19.5 43q0 78 72 78q35 0 84 -49z" />
    <glyph glyph-name="aacute" unicode="&#xe1;" horiz-adv-x="1024" 
d="M623 530v115q0 85 -44 125.5t-118 40.5q-89 0 -120.5 -29t-37.5 -116q-3 -36 -56.5 -59t-88.5 -23q-39 0 -39 47q0 57 31 101.5t81 70.5q146 75 222 119q47 28 122 28q135 0 206 -69.5t71 -202.5v-418q0 -77 12 -114t51 -37q13 0 31 8.5t27 17.5l26 -37
q-52 -65 -99.5 -97t-115.5 -32q-71 0 -110 44t-45 118q-80 -78 -152 -120t-162 -42q-96 0 -159.5 56.5t-63.5 154.5q0 33 8.5 62t20.5 50.5t35.5 41.5t42 32.5t53 28.5t55.5 24t62 23zM623 217v244q-13 -4 -45 -14t-50.5 -16t-49 -18t-49 -22t-41.5 -26.5t-35.5 -33.5
t-21.5 -40t-9 -49q0 -133 124 -133q97 0 177 108zM403 1130h-81l301 304q49 49 84 49q71 0 71 -78q0 -21 -19 -43t-40 -33z" />
    <glyph glyph-name="acircumflex" unicode="&#xe2;" horiz-adv-x="1024" 
d="M623 530v115q0 85 -44 125.5t-118 40.5q-89 0 -120.5 -29t-37.5 -116q-3 -36 -56.5 -59t-88.5 -23q-39 0 -39 47q0 57 31 101.5t81 70.5q146 75 222 119q47 28 122 28q135 0 206 -69.5t71 -202.5v-418q0 -77 12 -114t51 -37q13 0 31 8.5t27 17.5l26 -37
q-52 -65 -99.5 -97t-115.5 -32q-71 0 -110 44t-45 118q-80 -78 -152 -120t-162 -42q-96 0 -159.5 56.5t-63.5 154.5q0 33 8.5 62t20.5 50.5t35.5 41.5t42 32.5t53 28.5t55.5 24t62 23zM623 217v244q-13 -4 -45 -14t-50.5 -16t-49 -18t-49 -22t-41.5 -26.5t-35.5 -33.5
t-21.5 -40t-9 -49q0 -133 124 -133q97 0 177 108zM449 1473h126l256 -343h-71l-248 211l-250 -211h-67z" />
    <glyph glyph-name="atilde" unicode="&#xe3;" horiz-adv-x="1024" 
d="M623 530v115q0 85 -44 125.5t-118 40.5q-89 0 -120.5 -29t-37.5 -116q-3 -36 -56.5 -59t-88.5 -23q-39 0 -39 47q0 57 31 101.5t81 70.5q146 75 222 119q47 28 122 28q135 0 206 -69.5t71 -202.5v-418q0 -77 12 -114t51 -37q13 0 31 8.5t27 17.5l26 -37
q-52 -65 -99.5 -97t-115.5 -32q-71 0 -110 44t-45 118q-80 -78 -152 -120t-162 -42q-96 0 -159.5 56.5t-63.5 154.5q0 33 8.5 62t20.5 50.5t35.5 41.5t42 32.5t53 28.5t55.5 24t62 23zM623 217v244q-13 -4 -45 -14t-50.5 -16t-49 -18t-49 -22t-41.5 -26.5t-35.5 -33.5
t-21.5 -40t-9 -49q0 -133 124 -133q97 0 177 108zM236 1180h-60q8 42 22.5 78.5t37.5 70t58.5 53t78.5 19.5q54 0 162 -45q112 -45 155 -45q83 0 96 92h62q-10 -57 -30.5 -103t-63.5 -81t-101 -35q-64 0 -172 49q-7 3 -23 10t-23.5 10t-21 8t-22 7.5t-19 6t-19.5 4.5t-17 1
q-70 0 -100 -100z" />
    <glyph glyph-name="adieresis" unicode="&#xe4;" horiz-adv-x="1024" 
d="M623 530v115q0 85 -44 125.5t-118 40.5q-89 0 -120.5 -29t-37.5 -116q-3 -36 -56.5 -59t-88.5 -23q-39 0 -39 47q0 57 31 101.5t81 70.5q146 75 222 119q47 28 122 28q135 0 206 -69.5t71 -202.5v-418q0 -77 12 -114t51 -37q13 0 31 8.5t27 17.5l26 -37
q-52 -65 -99.5 -97t-115.5 -32q-71 0 -110 44t-45 118q-80 -78 -152 -120t-162 -42q-96 0 -159.5 56.5t-63.5 154.5q0 33 8.5 62t20.5 50.5t35.5 41.5t42 32.5t53 28.5t55.5 24t62 23zM623 217v244q-13 -4 -45 -14t-50.5 -16t-49 -18t-49 -22t-41.5 -26.5t-35.5 -33.5
t-21.5 -40t-9 -49q0 -133 124 -133q97 0 177 108zM186 1276q0 47 34 81t81 34t81 -34t34 -81t-34 -81t-81 -34t-81 34t-34 81zM608 1276q0 47 34 81t81 34t81 -34t34 -81t-34 -81t-81 -34t-81 34t-34 81z" />
    <glyph glyph-name="aring" unicode="&#xe5;" horiz-adv-x="1024" 
d="M623 530v115q0 85 -44 125.5t-118 40.5q-89 0 -120.5 -29t-37.5 -116q-3 -36 -56.5 -59t-88.5 -23q-39 0 -39 47q0 57 31 101.5t81 70.5q146 75 222 119q47 28 122 28q135 0 206 -69.5t71 -202.5v-418q0 -77 12 -114t51 -37q13 0 31 8.5t27 17.5l26 -37
q-52 -65 -99.5 -97t-115.5 -32q-71 0 -110 44t-45 118q-80 -78 -152 -120t-162 -42q-96 0 -159.5 56.5t-63.5 154.5q0 33 8.5 62t20.5 50.5t35.5 41.5t42 32.5t53 28.5t55.5 24t62 23zM623 217v244q-13 -4 -45 -14t-50.5 -16t-49 -18t-49 -22t-41.5 -26.5t-35.5 -33.5
t-21.5 -40t-9 -49q0 -133 124 -133q97 0 177 108zM674 1296q0 54 -42 97t-97 43t-97.5 -42t-42.5 -98q0 -55 43 -97t97 -42t96.5 42.5t42.5 96.5zM733 1296q0 -83 -57.5 -140.5t-140.5 -57.5t-141 57.5t-58 140.5t58 141t141 58t140.5 -58t57.5 -141z" />
    <glyph glyph-name="ae" unicode="&#xe6;" horiz-adv-x="1478" 
d="M1393 272l34 -32q-80 -114 -188 -192.5t-225 -78.5q-108 0 -181.5 42t-136.5 136q-48 -40 -83 -65.5t-84.5 -54.5t-101 -43.5t-105.5 -14.5q-96 0 -163 60t-67 153q0 45 6.5 69t37 49t78 44t144.5 51l271 90v148q0 77 -36.5 127.5t-111.5 50.5q-83 0 -120 -29t-37 -110
q0 -27 -33 -50.5t-67.5 -35t-51.5 -11.5q-20 0 -26.5 14t-6.5 48q0 54 14 85t46 48q131 66 260 145q58 35 135 35q173 0 231 -125q128 125 287 125q58 0 109.5 -12.5t95.5 -39t70 -73.5t26 -110q0 -38 -33 -49l-534 -174q6 -189 65 -274t207 -85q68 0 145.5 36t129.5 103z
M629 229v199q-135 -46 -198 -76t-86 -58t-23 -71q0 -50 35 -88.5t94 -38.5q55 0 116.5 46.5t61.5 86.5zM846 557l260 88q45 16 61.5 37.5t16.5 52.5q0 53 -40.5 89t-96.5 36q-204 0 -201 -303z" />
    <glyph glyph-name="ccedilla" unicode="&#xe7;" horiz-adv-x="909" 
d="M858 258l37 -41q-77 -114 -154.5 -175t-189.5 -71l-41 -106q27 6 59 6q75 0 123.5 -36t48.5 -103q0 -53 -26 -90t-69.5 -54t-84 -23.5t-86.5 -6.5q-90 0 -162 34l27 64q9 -2 30 -7.5t33.5 -9t30.5 -6t33 -2.5q57 0 88 25.5t31 69.5q0 35 -29.5 53t-62.5 18q-36 0 -74 -10
l-14 10l71 172q-189 10 -294 134t-105 323q0 106 41 202.5t110 167t165 112.5t202 42q268 0 268 -153q0 -46 -32 -77.5t-78 -31.5q-30 0 -52 17.5t-37.5 43t-32.5 51t-47.5 43t-72.5 17.5q-106 0 -161.5 -78.5t-55.5 -210.5q0 -78 18 -152.5t54 -140t99 -105.5t144 -40
q77 0 127 28t121 97z" />
    <glyph glyph-name="egrave" unicode="&#xe8;" horiz-adv-x="909" 
d="M836 264l32 -39q-65 -114 -167.5 -185t-225.5 -71q-93 0 -170 40.5t-125.5 108t-75 150.5t-26.5 172q0 97 32 188.5t89 163t143.5 115t187.5 43.5q154 0 239.5 -100.5t82.5 -257.5l-25 -23h-553q0 -81 19 -153.5t56.5 -132t100 -94.5t142.5 -35q146 0 244 110zM279 631
h233q86 0 106.5 11t20.5 65q0 64 -39 117t-104 53q-88 0 -143 -70.5t-74 -175.5zM365 1434l301 -304h-82l-316 199q-21 11 -40 33t-19 43q0 78 72 78q35 0 84 -49z" />
    <glyph glyph-name="eacute" unicode="&#xe9;" horiz-adv-x="909" 
d="M836 264l32 -39q-65 -114 -167.5 -185t-225.5 -71q-93 0 -170 40.5t-125.5 108t-75 150.5t-26.5 172q0 97 32 188.5t89 163t143.5 115t187.5 43.5q154 0 239.5 -100.5t82.5 -257.5l-25 -23h-553q0 -81 19 -153.5t56.5 -132t100 -94.5t142.5 -35q146 0 244 110zM279 631
h233q86 0 106.5 11t20.5 65q0 64 -39 117t-104 53q-88 0 -143 -70.5t-74 -175.5zM383 1130h-82l301 304q49 49 84 49q72 0 72 -78q0 -21 -19.5 -43t-40.5 -33z" />
    <glyph glyph-name="ecircumflex" unicode="&#xea;" horiz-adv-x="909" 
d="M836 264l32 -39q-65 -114 -167.5 -185t-225.5 -71q-93 0 -170 40.5t-125.5 108t-75 150.5t-26.5 172q0 97 32 188.5t89 163t143.5 115t187.5 43.5q154 0 239.5 -100.5t82.5 -257.5l-25 -23h-553q0 -81 19 -153.5t56.5 -132t100 -94.5t142.5 -35q146 0 244 110zM279 631
h233q86 0 106.5 11t20.5 65q0 64 -39 117t-104 53q-88 0 -143 -70.5t-74 -175.5zM428 1473h127l256 -343h-72l-247 211l-250 -211h-68z" />
    <glyph glyph-name="edieresis" unicode="&#xeb;" horiz-adv-x="909" 
d="M836 264l32 -39q-65 -114 -167.5 -185t-225.5 -71q-93 0 -170 40.5t-125.5 108t-75 150.5t-26.5 172q0 97 32 188.5t89 163t143.5 115t187.5 43.5q154 0 239.5 -100.5t82.5 -257.5l-25 -23h-553q0 -81 19 -153.5t56.5 -132t100 -94.5t142.5 -35q146 0 244 110zM279 631
h233q86 0 106.5 11t20.5 65q0 64 -39 117t-104 53q-88 0 -143 -70.5t-74 -175.5zM129 1276q0 47 34 81t81 34t80.5 -34t33.5 -81t-33.5 -81t-80.5 -34t-81 34t-34 81zM551 1276q0 47 34 81t81 34t80.5 -34t33.5 -81t-33.5 -81t-80.5 -34t-81 34t-34 81z" />
    <glyph glyph-name="igrave" unicode="&#xec;" horiz-adv-x="569" 
d="M395 932v-821q0 -18 7.5 -28.5t24 -15t30 -5.5t37.5 -1h30v-61q-156 8 -233 8q-86 0 -246 -8v61h14q22 0 34 0.5t28.5 3.5t24.5 9.5t14 18.5t6 30v579q0 27 -8.5 38t-40.5 20q-13 3 -36 10t-36 10v49q37 9 186 60q27 9 76.5 31.5t65.5 29.5zM158 1434l301 -304h-82
l-316 199q-21 11 -40 33t-19 43q0 78 72 78q35 0 84 -49z" />
    <glyph glyph-name="iacute" unicode="&#xed;" horiz-adv-x="569" 
d="M395 932v-821q0 -18 7.5 -28.5t24 -15t30 -5.5t37.5 -1h30v-61q-156 8 -233 8q-86 0 -246 -8v61h14q22 0 34 0.5t28.5 3.5t24.5 9.5t14 18.5t6 30v579q0 27 -8.5 38t-40.5 20q-13 3 -36 10t-36 10v49q37 9 186 60q27 9 76.5 31.5t65.5 29.5zM176 1130h-82l301 304
q49 49 84 49q72 0 72 -78q0 -21 -19 -43t-40 -33z" />
    <glyph glyph-name="icircumflex" unicode="&#xee;" horiz-adv-x="569" 
d="M395 932v-821q0 -18 7.5 -28.5t24 -15t30 -5.5t37.5 -1h30v-61q-156 8 -233 8q-86 0 -246 -8v61h14q22 0 34 0.5t28.5 3.5t24.5 9.5t14 18.5t6 30v579q0 27 -8.5 38t-40.5 20q-13 3 -36 10t-36 10v49q37 9 186 60q27 9 76.5 31.5t65.5 29.5zM221 1473h127l256 -343h-72
l-247 211l-250 -211h-68z" />
    <glyph glyph-name="idieresis" unicode="&#xef;" horiz-adv-x="569" 
d="M395 932v-821q0 -18 7.5 -28.5t24 -15t30 -5.5t37.5 -1h30v-61q-156 8 -233 8q-86 0 -246 -8v61h14q22 0 34 0.5t28.5 3.5t24.5 9.5t14 18.5t6 30v579q0 27 -8.5 38t-40.5 20q-13 3 -36 10t-36 10v49q37 9 186 60q27 9 76.5 31.5t65.5 29.5zM-41 1276q0 47 34 81t81 34
t80.5 -34t33.5 -81t-33.5 -81t-80.5 -34t-81 34t-34 81zM381 1276q0 47 34 81t81 34t80.5 -34t33.5 -81t-33.5 -81t-80.5 -34t-81 34t-34 81z" />
    <glyph glyph-name="eth" unicode="&#xf0;" 
d="M328 414q0 -45 9 -94.5t29.5 -99t49 -89t71.5 -64t93 -24.5q231 0 231 381q0 49 -6.5 104t-24 118.5t-44 113.5t-71.5 83.5t-102 33.5q-38 0 -70 -11.5t-55 -28t-41 -45.5t-29.5 -54.5t-19.5 -65.5t-11.5 -66.5t-6 -69.5t-2.5 -63.5v-58.5zM516 1276l-254 -162l-63 76
l245 153q-53 37 -133 81t-135 67l43 74q206 -58 334 -154l233 154l66 -78l-209 -131q175 -115 296.5 -331t121.5 -398q0 -165 -38 -292.5t-106 -206.5t-156.5 -119t-193.5 -40q-215 0 -352 139t-137 353q0 209 138 349t351 140q123 0 183 -67h4q-18 103 -84 210.5
t-154 182.5z" />
    <glyph glyph-name="ntilde" unicode="&#xf1;" 
d="M45 0v61h14q22 0 34 0.5t28.5 3.5t24.5 9.5t14 18.5t6 30v579q0 27 -8.5 38t-40.5 20q-13 3 -36 10t-36 10v49q37 9 186 60q27 9 76.5 31.5t65.5 29.5l22 -18v-131q11 8 45 31.5t51 35t50 30.5t56.5 28t55.5 16.5t62 7.5q118 0 186 -63t68 -201v-567q0 -27 16.5 -40.5
t34 -15.5t49.5 -2h25v-61q-156 8 -232 8q-80 0 -244 -8v61h21q21 0 34 1t30.5 6t26.5 16.5t9 30.5v512q0 172 -155 172q-80 0 -189 -70v-618q0 -18 7.5 -28.5t24 -15t30 -5.5t37.5 -1h30v-61q-156 8 -233 8q-86 0 -246 -8zM293 1180h-60q8 42 22.5 78.5t37.5 70t58.5 53
t78.5 19.5q54 0 162 -45q112 -45 156 -45q83 0 96 92h61q-7 -42 -21 -78t-36.5 -69t-57.5 -52.5t-79 -19.5q-64 0 -172 49q-112 47 -146 47q-70 0 -100 -100z" />
    <glyph glyph-name="ograve" unicode="&#xf2;" 
d="M563 877q-45 0 -81 -15t-60.5 -39t-42 -60t-27.5 -71.5t-15.5 -80.5t-7 -79.5t-1.5 -76.5q0 -56 7 -109.5t25 -109.5t45 -98t72.5 -68.5t102.5 -26.5q231 0 231 381q0 49 -6.5 104t-24 118.5t-44 113.5t-71.5 83.5t-102 33.5zM78 461q0 209 138 349t351 140
q223 0 358.5 -131t135.5 -346q0 -137 -65.5 -253t-179 -183.5t-249.5 -67.5q-215 0 -352 139t-137 353zM442 1434l301 -304h-81l-316 199q-21 11 -40 33t-19 43q0 78 71 78q35 0 84 -49z" />
    <glyph glyph-name="oacute" unicode="&#xf3;" 
d="M563 877q-45 0 -81 -15t-60.5 -39t-42 -60t-27.5 -71.5t-15.5 -80.5t-7 -79.5t-1.5 -76.5q0 -56 7 -109.5t25 -109.5t45 -98t72.5 -68.5t102.5 -26.5q231 0 231 381q0 49 -6.5 104t-24 118.5t-44 113.5t-71.5 83.5t-102 33.5zM78 461q0 209 138 349t351 140
q223 0 358.5 -131t135.5 -346q0 -137 -65.5 -253t-179 -183.5t-249.5 -67.5q-215 0 -352 139t-137 353zM461 1130h-82l301 304q49 49 84 49q72 0 72 -78q0 -21 -19.5 -43t-40.5 -33z" />
    <glyph glyph-name="ocircumflex" unicode="&#xf4;" 
d="M563 877q-45 0 -81 -15t-60.5 -39t-42 -60t-27.5 -71.5t-15.5 -80.5t-7 -79.5t-1.5 -76.5q0 -56 7 -109.5t25 -109.5t45 -98t72.5 -68.5t102.5 -26.5q231 0 231 381q0 49 -6.5 104t-24 118.5t-44 113.5t-71.5 83.5t-102 33.5zM78 461q0 209 138 349t351 140
q223 0 358.5 -131t135.5 -346q0 -137 -65.5 -253t-179 -183.5t-249.5 -67.5q-215 0 -352 139t-137 353zM506 1473h127l256 -343h-72l-248 211l-250 -211h-67z" />
    <glyph glyph-name="otilde" unicode="&#xf5;" 
d="M563 877q-45 0 -81 -15t-60.5 -39t-42 -60t-27.5 -71.5t-15.5 -80.5t-7 -79.5t-1.5 -76.5q0 -56 7 -109.5t25 -109.5t45 -98t72.5 -68.5t102.5 -26.5q231 0 231 381q0 49 -6.5 104t-24 118.5t-44 113.5t-71.5 83.5t-102 33.5zM78 461q0 209 138 349t351 140
q223 0 358.5 -131t135.5 -346q0 -137 -65.5 -253t-179 -183.5t-249.5 -67.5q-215 0 -352 139t-137 353zM293 1180h-60q8 42 22.5 78.5t37.5 70t58.5 53t78.5 19.5q54 0 162 -45q112 -45 156 -45q83 0 96 92h61q-7 -42 -21 -78t-36.5 -69t-57.5 -52.5t-79 -19.5
q-64 0 -172 49q-112 47 -146 47q-70 0 -100 -100z" />
    <glyph glyph-name="odieresis" unicode="&#xf6;" 
d="M563 877q-45 0 -81 -15t-60.5 -39t-42 -60t-27.5 -71.5t-15.5 -80.5t-7 -79.5t-1.5 -76.5q0 -56 7 -109.5t25 -109.5t45 -98t72.5 -68.5t102.5 -26.5q231 0 231 381q0 49 -6.5 104t-24 118.5t-44 113.5t-71.5 83.5t-102 33.5zM78 461q0 209 138 349t351 140
q223 0 358.5 -131t135.5 -346q0 -137 -65.5 -253t-179 -183.5t-249.5 -67.5q-215 0 -352 139t-137 353zM244 1276q0 47 33.5 81t80.5 34t81 -34t34 -81t-34 -81t-81 -34t-80.5 34t-33.5 81zM666 1276q0 47 33.5 81t80.5 34t81 -34t34 -81t-34 -81t-81 -34t-80.5 34t-33.5 81
z" />
    <glyph glyph-name="divide" unicode="&#xf7;" 
d="M1085 424h-1032v184h1032v-184zM416 90q0 63 45 108.5t108 45.5t108.5 -45.5t45.5 -108.5t-45.5 -108t-108.5 -45t-108 45t-45 108zM416 942q0 63 45 108.5t108 45.5t108.5 -45.5t45.5 -108.5t-45.5 -108.5t-108.5 -45.5t-108 45.5t-45 108.5z" />
    <glyph glyph-name="oslash" unicode="&#xf8;" 
d="M346 289l416 411q-29 79 -79 128t-120 49q-45 0 -81 -15t-60.5 -39t-42 -60t-27.5 -71.5t-15.5 -80.5t-7 -79.5t-1.5 -76.5q0 -95 18 -166zM1040 977l54 -57l-136 -136q103 -122 103 -311q0 -137 -65.5 -253t-179 -183.5t-249.5 -67.5q-189 0 -319 111l-150 -148l-53 58
l145 145q-112 134 -112 326q0 209 138 349t351 140q208 0 336 -110zM788 616l-415 -413q28 -73 80 -116.5t127 -43.5q231 0 231 381q0 91 -23 192z" />
    <glyph glyph-name="ugrave" unicode="&#xf9;" 
d="M166 209v555q0 24 -8 35t-35 18l-86 25v49q203 10 348 59l21 -12q-11 -157 -11 -184v-453q0 -168 152 -168q88 0 192 86v524q0 32 -9 43.5t-40 22.5l-102 33v49q262 15 370 59l21 -12q-10 -71 -10 -184v-586q0 -42 11.5 -58t43.5 -16h61v-49q-6 -1 -44.5 -7.5t-50 -8.5
t-45 -8t-50.5 -10.5t-44 -11.5t-48.5 -14t-42.5 -16l-21 17v145q-86 -72 -164.5 -117t-158.5 -45q-130 0 -190 64.5t-60 175.5zM442 1434l301 -304h-81l-316 199q-21 11 -40 33t-19 43q0 78 71 78q35 0 84 -49z" />
    <glyph glyph-name="uacute" unicode="&#xfa;" 
d="M166 209v555q0 24 -8 35t-35 18l-86 25v49q203 10 348 59l21 -12q-11 -157 -11 -184v-453q0 -168 152 -168q88 0 192 86v524q0 32 -9 43.5t-40 22.5l-102 33v49q262 15 370 59l21 -12q-10 -71 -10 -184v-586q0 -42 11.5 -58t43.5 -16h61v-49q-6 -1 -44.5 -7.5t-50 -8.5
t-45 -8t-50.5 -10.5t-44 -11.5t-48.5 -14t-42.5 -16l-21 17v145q-86 -72 -164.5 -117t-158.5 -45q-130 0 -190 64.5t-60 175.5zM461 1130h-82l301 304q49 49 84 49q72 0 72 -78q0 -21 -19.5 -43t-40.5 -33z" />
    <glyph glyph-name="ucircumflex" unicode="&#xfb;" 
d="M166 209v555q0 24 -8 35t-35 18l-86 25v49q203 10 348 59l21 -12q-11 -157 -11 -184v-453q0 -168 152 -168q88 0 192 86v524q0 32 -9 43.5t-40 22.5l-102 33v49q262 15 370 59l21 -12q-10 -71 -10 -184v-586q0 -42 11.5 -58t43.5 -16h61v-49q-6 -1 -44.5 -7.5t-50 -8.5
t-45 -8t-50.5 -10.5t-44 -11.5t-48.5 -14t-42.5 -16l-21 17v145q-86 -72 -164.5 -117t-158.5 -45q-130 0 -190 64.5t-60 175.5zM506 1473h127l256 -343h-72l-248 211l-250 -211h-67z" />
    <glyph glyph-name="udieresis" unicode="&#xfc;" 
d="M166 209v555q0 24 -8 35t-35 18l-86 25v49q203 10 348 59l21 -12q-11 -157 -11 -184v-453q0 -168 152 -168q88 0 192 86v524q0 32 -9 43.5t-40 22.5l-102 33v49q262 15 370 59l21 -12q-10 -71 -10 -184v-586q0 -42 11.5 -58t43.5 -16h61v-49q-6 -1 -44.5 -7.5t-50 -8.5
t-45 -8t-50.5 -10.5t-44 -11.5t-48.5 -14t-42.5 -16l-21 17v145q-86 -72 -164.5 -117t-158.5 -45q-130 0 -190 64.5t-60 175.5zM244 1276q0 47 33.5 81t80.5 34t81 -34t34 -81t-34 -81t-81 -34t-80.5 34t-33.5 81zM666 1276q0 47 33.5 81t80.5 34t81 -34t34 -81t-34 -81
t-81 -34t-80.5 34t-33.5 81z" />
    <glyph glyph-name="yacute" unicode="&#xfd;" horiz-adv-x="1024" 
d="M408 754l180 -467h4l162 413q26 67 26 111q0 28 -25 37.5t-71 9.5h-27v62q142 -9 191 -9q41 0 147 9v-62h-34q-27 0 -50.5 -35.5t-68.5 -144.5l-418 -1010q-57 -135 -156 -135q-51 0 -83.5 33.5t-32.5 85.5q0 43 31 76.5t79 33.5q56 0 103 -30l104 250l-309 766
q-26 63 -46.5 86.5t-54.5 23.5h-30v62q180 -9 237 -9t228 9v-62h-19q-88 0 -88 -31q0 -16 21 -73zM403 1130h-81l301 304q49 49 84 49q71 0 71 -78q0 -21 -19 -43t-40 -33z" />
    <glyph glyph-name="thorn" unicode="&#xfe;" 
d="M381 756v-547q48 -59 80 -83q62 -48 129 -48q54 0 97 21t69.5 54.5t43.5 79t24 91.5t7 96q0 67 -16.5 133.5t-49 125.5t-89 95.5t-129.5 36.5q-79 0 -166 -55zM152 -365v1690q0 70 -97 70h-24v37q90 19 172 55q104 39 159 78l19 -13v-733q141 131 317 131q112 0 196 -57
t125.5 -148.5t41.5 -201.5q0 -115 -41 -219t-109 -177t-159 -116t-189 -43q-106 0 -182 28v-356q0 -16 4.5 -27.5t16 -19t22 -11.5t31.5 -5.5t34.5 -2t40.5 -0.5h39v-61q-31 1 -126 4.5t-148 3.5q-51 0 -145.5 -3.5t-124.5 -4.5v61h26q24 0 38.5 1t30.5 4.5t24 12.5t8 23z
" />
    <glyph glyph-name="ydieresis" unicode="&#xff;" horiz-adv-x="1024" 
d="M408 754l180 -467h4l162 413q26 67 26 111q0 28 -25 37.5t-71 9.5h-27v62q142 -9 191 -9q41 0 147 9v-62h-34q-27 0 -50.5 -35.5t-68.5 -144.5l-418 -1010q-57 -135 -156 -135q-51 0 -83.5 33.5t-32.5 85.5q0 43 31 76.5t79 33.5q56 0 103 -30l104 250l-309 766
q-26 63 -46.5 86.5t-54.5 23.5h-30v62q180 -9 237 -9t228 9v-62h-19q-88 0 -88 -31q0 -16 21 -73zM186 1276q0 47 34 81t81 34t81 -34t34 -81t-34 -81t-81 -34t-81 34t-34 81zM608 1276q0 47 34 81t81 34t81 -34t34 -81t-34 -81t-81 -34t-81 34t-34 81z" />
    <glyph glyph-name="dotlessi" unicode="&#x131;" horiz-adv-x="569" 
d="M395 932v-821q0 -18 7.5 -28.5t24 -15t30 -5.5t37.5 -1h30v-61q-156 8 -233 8q-86 0 -246 -8v61h14q22 0 34 0.5t28.5 3.5t24.5 9.5t14 18.5t6 30v579q0 27 -8.5 38t-40.5 20q-13 3 -36 10t-36 10v49q37 9 186 60q27 9 76.5 31.5t65.5 29.5z" />
    <glyph glyph-name="Lslash" unicode="&#x141;" horiz-adv-x="1251" 
d="M905 1180v-117l-413 -283v-579q0 -57 32.5 -82.5t89.5 -32.5q140 -10 271 4q61 7 113.5 38.5t82.5 72.5q39 53 64 147h59q-13 -67 -40.5 -189t-35.5 -159q-90 0 -270 4t-270 4t-270.5 -4t-270.5 -4v61h29q33 0 56 4t47.5 17t37 42.5t12.5 74.5v401l-163 -113v117l163 113
v534q0 31 -9 53t-23 34t-35.5 19t-40.5 9t-45 2h-29v62q54 0 161.5 -4.5t162.5 -4.5q52 0 155.5 4.5t155.5 4.5v-62h-51q-29 0 -45 -1t-37 -6.5t-31.5 -17t-18 -33t-7.5 -53.5v-360z" />
    <glyph glyph-name="lslash" unicode="&#x142;" horiz-adv-x="569" 
d="M45 0v61q25 0 38.5 0.5t32 4t27.5 10t16 19t7 30.5v567l-166 -108v116l166 109v477q0 36 -9.5 52.5t-43.5 29.5q-12 4 -34.5 13.5t-33.5 13.5v49q151 38 328 121l22 -19v-590l166 107v-117l-166 -106v-715q0 -40 27.5 -52t79.5 -12h22v-61q-156 8 -235 8q-92 0 -244 -8z
" />
    <glyph glyph-name="OE" unicode="&#x152;" horiz-adv-x="2048" 
d="M1319 1339v-536h268q42 0 70.5 31.5t38.5 70.5t10 80h66q-7 -287 -3 -459l-59 -12q0 38 -4.5 67t-17 58t-38.5 45t-65 16h-266v-454q0 -29 4.5 -51.5t12 -38t21.5 -25.5t27.5 -16t37 -9t42 -3.5t49.5 -0.5h191q26 0 48.5 4.5t40 10t34 17.5t27.5 21.5t22.5 27.5
t17.5 28.5t15 32.5t12.5 32.5l11.5 34.5l11 33l57 -10q-53 -255 -64 -334q-64 1 -267.5 4.5t-313.5 3.5q-158 0 -283 -8q-13 -1 -135 -18q-124 -13 -186 -13q-148 0 -277.5 62t-218 165t-139.5 238t-51 279q0 222 99 392.5t273.5 262.5t395.5 92q67 0 191 -14t179 -16
q144 -5 346 -5q111 0 351 5q-2 -97 6 -289l-64 -13q-6 116 -57.5 163.5t-169.5 47.5h-297zM1057 225v897q0 79 -8.5 123.5t-35.5 74.5t-71.5 40t-122.5 10q-99 0 -179.5 -35.5t-133 -95t-88 -140.5t-51 -168t-15.5 -181q0 -96 13.5 -188.5t47.5 -185t84.5 -162t131 -112.5
t180.5 -43q55 0 96.5 7.5t77.5 25t55 51t19 82.5z" />
    <glyph glyph-name="oe" unicode="&#x153;" horiz-adv-x="1593" 
d="M764 453q0 43 -3 83t-10.5 91.5t-23.5 93t-39.5 78.5t-61 57.5t-85.5 20.5q-39 -2 -71.5 -18t-54 -40.5t-38 -59t-25.5 -68.5t-15 -74.5t-7.5 -72.5t-1.5 -65t1.5 -65.5t7 -77.5t15 -84t26 -78.5t39 -67.5t56 -45.5t74.5 -17.5q217 0 217 410zM1182 872q-82 0 -139 -73
t-62 -168h311q30 0 37.5 16t7.5 66q0 68 -42 113.5t-113 45.5zM1518 569h-537q0 -415 301 -415q71 0 129.5 29.5t118.5 86.5l31 -32q-68 -118 -163 -193.5t-206 -75.5q-199 0 -307 166q-122 -166 -353 -166q-142 0 -246.5 67.5t-156 179t-51.5 251.5q0 202 140 342.5
t341 140.5q224 0 346 -162q158 162 334 162q132 0 223.5 -76.5t91.5 -205.5q0 -56 -6 -74z" />
    <glyph glyph-name="Scaron" unicode="&#x160;" horiz-adv-x="1024" 
d="M877 1137l-58 -11q-11 107 -76 183.5t-165 76.5q-121 0 -186.5 -68t-65.5 -190q0 -69 34 -121t88 -86.5t119.5 -66.5t131 -69.5t119.5 -84.5t88 -124t34 -177q0 -103 -40.5 -186t-109.5 -135.5t-157.5 -80.5t-188.5 -28q-145 0 -325 92q-5 52 -17.5 156t-17.5 156l57 12
q10 -68 33.5 -125t61.5 -103t95 -72t128 -26q107 0 179.5 64t72.5 170q0 64 -26 115.5t-68 84t-96.5 64.5t-110.5 58t-110.5 64.5t-96.5 83t-68 115t-26 158.5q0 196 125 310t327 114q59 0 295 -30q0 -122 21 -293zM575 1640h-126l-254 342h67l250 -210l248 210h71z" />
    <glyph glyph-name="scaron" unicode="&#x161;" horiz-adv-x="796" 
d="M659 684l-57 -10q-8 96 -50 149.5t-134 53.5q-56 0 -97.5 -33t-41.5 -90q0 -45 23.5 -80.5t60.5 -59.5t82 -46t90.5 -47.5t82.5 -57t60.5 -81t23.5 -112.5q0 -80 -30 -140t-81 -94t-110.5 -50.5t-126.5 -16.5q-45 0 -95 10t-70 17t-76 27l-19 227l58 12q10 -92 62 -155.5
t138 -63.5q64 0 109 35.5t45 99.5q0 40 -22.5 72t-59 54.5t-80.5 45t-88 49.5t-80.5 59.5t-59 83.5t-22.5 115q0 133 92.5 213t235.5 80q110 0 242 -49q-11 -140 -5 -217zM463 1130h-127l-254 343h68l249 -211l248 211h72z" />
    <glyph glyph-name="Ydieresis" unicode="&#x178;" horiz-adv-x="1478" 
d="M651 229v439l-409 561q-54 77 -92.5 108t-104.5 31h-20v62q55 0 160 -4.5t161 -4.5q54 0 154.5 4.5t148.5 4.5v-62h-26q-45 0 -76 -12t-31 -35q0 -10 5.5 -21t18.5 -28.5t13 -18.5l309 -434l254 367q6 9 17.5 27t16 25.5t12 21t10.5 21.5t5.5 18t2.5 20q0 15 -13.5 25.5
t-34.5 15t-38 6.5t-31 2h-37v62q39 0 117 -4.5t117 -4.5q33 0 98 4.5t96 4.5v-62q-91 0 -160 -94l-381 -539v-489q0 -64 10 -102t35 -56t51 -22.5t74 -4.5h39v-61q-64 0 -178.5 4t-155.5 4q-49 0 -166 -4t-180 -4v61h39q94 0 132 35t38 133zM451 1683q0 47 33.5 81t80.5 34
t81 -34t34 -81t-34 -80.5t-81 -33.5t-80.5 33.5t-33.5 80.5zM872 1683q0 47 34 81t81 34t81 -34t34 -81t-34 -80.5t-81 -33.5t-81 33.5t-34 80.5z" />
    <glyph glyph-name="Zcaron" unicode="&#x17d;" horiz-adv-x="1478" 
d="M59 0l940 1327h-510q-81 0 -128 -7.5t-86 -32.5t-58.5 -72t-28.5 -125h-71q9 76 20 208q8 110 8 162l62 17q2 -12 9 -20.5t18.5 -13.5t22 -8.5t26.5 -4t25.5 -1t25.5 0t20 0.5h1026l-938 -1328h598q63 0 108 10.5t75 27t55 53.5t41.5 72.5t40.5 101.5l59 -15
q-6 -26 -25.5 -107.5t-31.5 -136t-21 -108.5h-1282zM803 1640h-127l-254 342h67l250 -210l248 210h72z" />
    <glyph glyph-name="zcaron" unicode="&#x17e;" horiz-adv-x="909" 
d="M840 895l-482 -805h234q68 0 97.5 8t58.5 37q10 10 20.5 27t15.5 28.5t18 43t17 40.5h49q-29 -164 -34 -274h-793l496 829h-152q-153 0 -192 -20q-30 -18 -45 -49.5t-27 -79.5h-49q24 201 22 287h49q6 -19 10.5 -27t19 -14t40.5 -6h614zM518 1130h-127l-254 343h68
l250 -211l247 211h72z" />
    <glyph glyph-name="florin" unicode="&#x192;" 
d="M504 829h-197l19 91h192q14 79 35.5 149t59.5 144t86.5 126.5t120 86.5t157.5 34q30 0 60.5 -6.5t62 -21.5t51.5 -47t20 -76q0 -26 -6 -49.5t-29.5 -45.5t-62.5 -22q-40 0 -69 18t-29 50q0 26 6 54t6 38q0 34 -31 34q-22 0 -42 -12.5t-36 -37t-29.5 -50.5t-25 -65.5
t-19.5 -68.5t-16 -72t-11.5 -64t-9 -57t-5.5 -39h242l-21 -91h-229l-103 -489q-168 -807 -495 -807q-79 0 -134 45.5t-55 116.5q0 38 29.5 72t75.5 34q34 0 63 -24.5t29 -65.5q0 -18 -7 -43t-7 -35q0 -17 10.5 -21.5t29.5 -4.5q25 0 48 27t42 75t34.5 100t28.5 117t21 110
t16 94.5t9 55.5z" />
    <glyph glyph-name="circumflex" unicode="&#x2c6;" horiz-adv-x="569" 
d="M221 1473h127l256 -343h-72l-247 211l-250 -211h-68z" />
    <glyph glyph-name="caron" unicode="&#x2c7;" horiz-adv-x="569" 
d="M348 1130h-127l-254 343h68l250 -211l247 211h72z" />
    <glyph glyph-name="uni02C9" unicode="&#x2c9;" horiz-adv-x="569" 
d="M567 1221h-565v102h565v-102z" />
    <glyph glyph-name="breve" unicode="&#x2d8;" horiz-adv-x="569" 
d="M512 1444h61q-10 -141 -82.5 -231.5t-209.5 -90.5q-134 0 -213 94t-70 228h61q37 -195 232 -195q89 0 145 53t76 142z" />
    <glyph glyph-name="dotaccent" unicode="&#x2d9;" horiz-adv-x="569" 
d="M170 1276q0 47 34 81t81 34t80.5 -34t33.5 -81t-33.5 -81t-80.5 -34t-81 34t-34 81z" />
    <glyph glyph-name="ring" unicode="&#x2da;" horiz-adv-x="569" 
d="M446 1296q0 54 -42 97t-97 43t-97 -42t-42 -98q0 -55 42.5 -97t96.5 -42t96.5 42.5t42.5 96.5zM506 1296q0 -83 -58 -140.5t-141 -57.5t-140.5 57.5t-57.5 140.5t57.5 141t140.5 58t141 -58t58 -141z" />
    <glyph glyph-name="ogonek" unicode="&#x2db;" horiz-adv-x="569" 
d="M373 -283l41 -20q-32 -69 -90.5 -104t-133.5 -35q-165 0 -165 157q0 48 29 98t72.5 88t76 61t59.5 38h78q-100 -88 -136 -148t-36 -118q0 -39 22 -62.5t60 -23.5q73 0 123 69z" />
    <glyph glyph-name="tilde" unicode="&#x2dc;" horiz-adv-x="569" 
d="M8 1180h-59q11 57 32 103.5t64 82t100 35.5q54 0 162 -45q112 -45 156 -45q83 0 96 92h62q-10 -57 -30.5 -103t-63.5 -81t-101 -35q-64 0 -172 49q-7 3 -23 10t-23.5 10t-21 8t-22 7.5t-19 6t-19.5 4.5t-17 1q-71 0 -101 -100z" />
    <glyph glyph-name="hungarumlaut" unicode="&#x2dd;" horiz-adv-x="569" 
d="M-25 1130h-81l301 304q49 49 84 49q71 0 71 -78q0 -21 -19 -43t-40 -33zM389 1133h-82l301 303q49 49 84 49q72 0 72 -78q0 -21 -19 -43t-40 -33z" />
    <glyph glyph-name="uni03A9" unicode="&#x3a9;" horiz-adv-x="1488" 
d="M1419 309l-51 -309h-491l-17 41q13 26 49 96t57.5 114.5t53 119.5t50 135t31.5 135.5t13 144.5q-1 126 -21.5 227t-55 167.5t-82.5 111t-101 63.5t-113 19q-64 0 -117 -19t-100 -63.5t-79.5 -112t-51 -170t-18.5 -233.5q0 -94 20 -190.5t60 -194t71 -162t82 -160.5
q10 -19 15 -28l-17 -41h-489l-49 309l57 2q31 -96 62 -124.5t96 -28.5h206q-52 44 -88.5 78.5t-89.5 98.5t-86 126t-57.5 150t-24.5 182q0 146 47 268.5t128 205.5t192 129t238 46q129 0 238.5 -44t188.5 -125t123.5 -200.5t44.5 -265.5q0 -84 -23.5 -166.5t-55.5 -144.5
t-85.5 -130t-93 -110t-98.5 -98h221q67 0 95 26.5t59 126.5z" />
    <glyph glyph-name="uni03BC" unicode="&#x3bc;" 
d="M166 283v481q0 24 -8 35t-35 18l-86 25v49q203 10 348 59l21 -12q-11 -157 -11 -184v-453q0 -168 152 -168q88 0 192 86v524q0 32 -9 43.5t-40 22.5l-102 33v49q262 15 370 59l21 -12q-10 -71 -10 -184v-586q0 -42 11.5 -58t43.5 -16h61v-49q-6 -1 -44.5 -7.5t-50 -8.5
t-45 -8t-50.5 -10.5t-44 -11.5t-48.5 -14t-42.5 -16l-21 17v145q-86 -72 -164.5 -117t-158.5 -45q-45 0 -80 6q1 -112 16 -217t15 -116q0 -56 -25.5 -82.5t-89.5 -26.5q-56 0 -83.5 28t-27.5 79q0 20 12.5 255t12.5 388z" />
    <glyph glyph-name="pi" unicode="&#x3c0;" horiz-adv-x="1167" 
d="M1059 979l53 -18q-10 -58 -31.5 -114t-42.5 -85q-35 -10 -137 -10q-10 -107 -10 -461q2 -95 22.5 -140t65.5 -45q28 0 48.5 13t49.5 43l27 -45q-37 -67 -97 -104.5t-122 -37.5q-43 0 -76 12.5t-60 41.5t-41 83.5t-14 131.5q0 176 21 512q-226 4 -303 4v-33
q0 -166 -16 -304.5t-40 -220.5t-44 -127.5t-36 -64.5q-79 -32 -126 -35l-15 37q71 91 116.5 236t61 270.5t15.5 245.5q-63 0 -112 -12.5t-76 -28t-77 -49.5l-30 51q3 3 20.5 25.5t24.5 29.5t26 27.5t31.5 29.5t35 25t43.5 23.5t48 16.5t58.5 12.5t66.5 3.5q34 0 234.5 -4.5
t314.5 -4.5q50 0 74 13.5t49 56.5z" />
    <glyph glyph-name="uni2010" unicode="&#x2010;" horiz-adv-x="681" 
d="M53 406l35 163q92 -2 277 -2q44 0 132 1t132 1l-35 -163q-39 0 -118 1t-118 1q-254 0 -305 -2z" />
    <glyph glyph-name="endash" unicode="&#x2013;" horiz-adv-x="1024" 
d="M0 406v163h1024v-163h-1024z" />
    <glyph glyph-name="emdash" unicode="&#x2014;" horiz-adv-x="2048" 
d="M0 406v163h2048v-163h-2048z" />
    <glyph glyph-name="quoteleft" unicode="&#x2018;" horiz-adv-x="569" 
d="M440 1430l29 -62q-80 -14 -145.5 -60t-65.5 -114q0 -18 6 -32t11.5 -21t22.5 -16t21.5 -11t26.5 -10q27 -10 42.5 -19.5t29.5 -33.5t14 -60q0 -64 -42.5 -101.5t-106.5 -37.5q-85 0 -133 62t-48 151q0 70 28 132t76.5 106.5t107.5 76.5t126 50z" />
    <glyph glyph-name="quoteright" unicode="&#x2019;" horiz-adv-x="569" 
d="M129 852l-29 61q80 14 145.5 60t65.5 114q0 22 -6.5 37t-23 26t-25.5 15t-33 13q-27 10 -42.5 19.5t-29.5 33t-14 59.5q0 64 43 102t107 38q85 0 132.5 -62t47.5 -151q0 -70 -28 -132t-76.5 -106.5t-107.5 -76.5t-126 -50z" />
    <glyph glyph-name="quotesinglbase" unicode="&#x201a;" horiz-adv-x="569" 
d="M129 -315l-29 61q80 14 145.5 60t65.5 114q0 18 -6 32t-11.5 21t-22.5 16t-21.5 11t-26.5 10q-27 10 -42.5 19.5t-29.5 33.5t-14 60q0 64 43 101.5t107 37.5q85 0 132.5 -62t47.5 -151q0 -57 -18.5 -108t-50.5 -91t-75.5 -72.5t-92 -55t-101.5 -37.5z" />
    <glyph glyph-name="quotedblleft" unicode="&#x201c;" 
d="M510 1430l29 -62q-80 -14 -145.5 -60t-65.5 -114q0 -18 6 -32t11.5 -21t22.5 -16t21.5 -11t26.5 -10q27 -10 42.5 -19.5t29.5 -33.5t14 -60q0 -64 -43 -101.5t-107 -37.5q-85 0 -132.5 62t-47.5 151q0 70 28 132t76.5 106.5t107.5 76.5t126 50zM938 1430l29 -62
q-80 -14 -145.5 -60t-65.5 -114q0 -18 6 -32t11.5 -21t22.5 -16t21.5 -11t26.5 -10q27 -10 42.5 -19.5t29.5 -33.5t14 -60q0 -64 -43 -101.5t-107 -37.5q-85 0 -132.5 62t-47.5 151q0 70 28 132t76.5 106.5t107.5 76.5t126 50z" />
    <glyph glyph-name="quotedblright" unicode="&#x201d;" 
d="M629 852l-29 61q80 14 145.5 60t65.5 114q0 22 -6.5 37t-23 26t-25.5 15t-33 13q-27 10 -42.5 19.5t-29.5 33t-14 59.5q0 64 42.5 102t106.5 38q85 0 133 -62t48 -151q0 -70 -28 -132t-76.5 -106.5t-107.5 -76.5t-126 -50zM201 852l-29 61q80 14 145.5 60t65.5 114
q0 22 -6.5 37t-23 26t-25.5 15t-33 13q-27 10 -42.5 19.5t-29.5 33t-14 59.5q0 64 42.5 102t106.5 38q85 0 133 -62t48 -151q0 -70 -28 -132t-76.5 -106.5t-107.5 -76.5t-126 -50z" />
    <glyph glyph-name="quotedblbase" unicode="&#x201e;" 
d="M629 -315l-29 61q80 14 145.5 60t65.5 114q0 18 -6 32t-11.5 21t-22.5 16t-21.5 11t-26.5 10q-27 10 -42.5 19.5t-29.5 33.5t-14 60q0 64 42.5 101.5t106.5 37.5q85 0 133 -62t48 -151q0 -57 -18.5 -108t-50.5 -91t-75.5 -72.5t-92 -55t-101.5 -37.5zM201 -315l-29 61
q80 14 145.5 60t65.5 114q0 18 -6 32t-11.5 21t-22.5 16t-21.5 11t-26.5 10q-27 10 -42.5 19.5t-29.5 33.5t-14 60q0 64 42.5 101.5t106.5 37.5q85 0 133 -62t48 -151q0 -57 -18.5 -108t-50.5 -91t-75.5 -72.5t-92 -55t-101.5 -37.5z" />
    <glyph glyph-name="dagger" unicode="&#x2020;" 
d="M633 805q1 -102 1 -307t2.5 -367.5t10.5 -308.5q9 -161 12 -191q-62 4 -90 4t-90 -4q5 52 13 191q8 146 10.5 308.5t2.5 367.5t1 307q-262 0 -391 -12q0 13 1 38t1 37q0 49 -2 76q68 -4 196 -8q126 -4 195 -4q0 252 -27 504q3 0 39.5 -3t56.5 -3q11 0 41.5 2.5t42.5 3.5
q-26 -243 -26 -504q195 0 391 12q-2 -27 -2 -76q0 -12 1 -37t1 -38q-129 12 -391 12z" />
    <glyph glyph-name="daggerdbl" unicode="&#x2021;" 
d="M653 532q-20 -105 -20 -344q196 0 373 17q-1 -12 -2.5 -37.5t-2.5 -38.5q0 -43 5 -72q-212 17 -373 17q1 -75 10 -223.5t10 -221.5q-75 6 -84 6t-84 -6q1 73 10.5 221.5t10.5 223.5q-160 0 -373 -17q4 23 4 72q-1 13 -2 38t-2 38q177 -17 373 -17q0 234 -21 344
q21 110 21 349q-175 0 -373 -19q1 13 2 37t2 37q0 49 -4 74q187 -15 373 -15q-1 72 -10.5 219.5t-10.5 221.5q75 -6 84 -6t84 6q-1 -74 -10 -221.5t-10 -219.5q185 0 373 15q-5 -31 -5 -74q1 -12 2.5 -36.5t2.5 -37.5q-198 19 -373 19q0 -244 20 -349z" />
    <glyph glyph-name="bullet" unicode="&#x2022;" horiz-adv-x="1024" 
d="M156 715q0 148 104 252t252 104t253 -104t105 -252t-105 -253.5t-253 -105.5q-147 0 -251.5 105.5t-104.5 253.5z" />
    <glyph glyph-name="ellipsis" unicode="&#x2026;" horiz-adv-x="2048" 
d="M506 131q0 -66 -49 -114t-115 -48q-65 0 -113.5 48t-48.5 114q0 65 49 114.5t113 49.5t114 -49.5t50 -114.5zM1188 131q0 -66 -49 -114t-115 -48q-65 0 -113.5 48t-48.5 114q0 65 49 114.5t113 49.5t114 -49.5t50 -114.5zM1870 131q0 -66 -49 -114t-115 -48
q-65 0 -113.5 48t-48.5 114q0 65 49 114.5t113 49.5t114 -49.5t50 -114.5z" />
    <glyph glyph-name="perthousand" unicode="&#x2030;" horiz-adv-x="2048" 
d="M20 1104q0 142 85 241t231 99q147 0 231 -95.5t84 -244.5q0 -93 -35 -169t-108 -123.5t-172 -47.5q-142 0 -229 92t-87 248zM217 1104v-38.5t2.5 -47.5t6.5 -55t12.5 -50t21 -46t32 -29.5t44.5 -12.5q29 0 51 13.5t34 36t20.5 50.5t10 57t3.5 56.5t0 48.5v17v11v43.5
t-2.5 48t-6.5 51.5t-13 46t-21 41t-31.5 26t-44.5 11q-119 0 -119 -278zM883 309q0 -31 0.5 -47t3 -56t10 -64.5t20 -53t34 -43t50.5 -14.5t51 13.5t34 35.5t20.5 50.5t10 57.5t3.5 56t0 48v17v10v42t-2.5 47.5t-6.5 52.5t-13 47t-21 42t-31.5 27t-44.5 11q-118 0 -118 -279
zM686 309q0 142 84.5 241t230.5 99q147 0 231.5 -95.5t84.5 -244.5q0 -93 -35.5 -169t-108.5 -123.5t-172 -47.5q-142 0 -228.5 92t-86.5 248zM1593 309v-38.5t2.5 -47t6.5 -55t12.5 -50t21 -45.5t32 -29.5t44.5 -12.5q29 0 51 13.5t34 35.5t20.5 50.5t10 57.5t3.5 56t0 48
v17q0 143 -25 205q-31 73 -94 74q-119 0 -119 -279zM1397 309q0 142 84.5 241t230.5 99q147 0 231.5 -95.5t84.5 -244.5q0 -93 -35.5 -169t-108.5 -123.5t-172 -47.5q-142 0 -228.5 92t-86.5 248zM164 -61l901 1536h111l-902 -1536h-110z" />
    <glyph glyph-name="guilsinglleft" unicode="&#x2039;" horiz-adv-x="569" 
d="M453 827l36 -34l-206 -306l202 -307l-36 -33q-82 72 -369 340q282 255 373 340z" />
    <glyph glyph-name="guilsinglright" unicode="&#x203a;" horiz-adv-x="569" 
d="M117 147l-37 35l207 305l-203 308l37 32q67 -58 368 -340q-252 -228 -372 -340z" />
    <glyph glyph-name="fraction" unicode="&#x2044;" horiz-adv-x="342" 
d="M-334 -61l899 1536h111l-899 -1536h-111z" />
    <glyph glyph-name="Euro" unicode="&#x20ac;" 
d="M61 606h86q-4 33 -4 99v43h-102l20 102h93q18 118 63 224.5t115 194t173 139.5t226 52q81 0 203.5 -27t148.5 -30l15 -336l-62 -6q-50 309 -286 309q-47 0 -92.5 -14.5t-94.5 -51.5t-87.5 -94t-66.5 -150t-36 -210h565l-20 -102h-547q0 -79 8 -142h512l-21 -102h-475
q18 -91 50.5 -167t80.5 -138t117.5 -96.5t153.5 -34.5q158 0 276 112l41 -47q-70 -73 -175.5 -118.5t-213.5 -45.5q-121 0 -220.5 43t-167 118.5t-111 169t-64.5 204.5h-121z" />
    <glyph glyph-name="afii61289" unicode="&#x2113;" horiz-adv-x="860" 
d="M782 250l43 -37q-128 -240 -352 -240q-145 0 -215 80q-38 50 -55 114t-17 189v160l-118 -86l-27 53l145 113v272q0 244 21.5 352.5t87.5 186.5q81 109 192 109q93 0 144 -79.5t51 -199.5q0 -169 -77 -310t-224 -290v-184q0 -197 42.5 -275t135.5 -78q120 0 223 150z
M381 987v-250q83 99 133.5 230.5t50.5 265.5q0 98 -23 156.5t-67 58.5q-55 0 -74.5 -98.5t-19.5 -362.5z" />
    <glyph glyph-name="trademark" unicode="&#x2122;" horiz-adv-x="2027" 
d="M203 602v49q52 0 78 19.5t26 48.5v661h-88q-106 -3 -135 -131h-49v181h741v-181h-49q-29 128 -135 131h-88v-661q0 -14 1 -20t8 -18.5t27.5 -19.5t53.5 -10v-49h-391zM897 602v49q60 1 83.5 25.5t23.5 71.5v528q0 47 -44.5 75.5t-99.5 28.5v50h285l285 -592l309 592h254
v-50q-66 -3 -86.5 -23.5t-20.5 -72.5v-536q0 -40 20 -65t81 -32v-49h-404v49q65 1 86 27t21 70v454h-7l-303 -602h-26l-285 598h-4v-450q0 -48 21.5 -72t82.5 -25v-49h-272z" />
    <glyph glyph-name="Omega" unicode="&#x2126;" horiz-adv-x="1488" 
d="M1419 309l-51 -309h-491l-17 41q13 26 49 96t57.5 114.5t53 119.5t50 135t31.5 135.5t13 144.5q-1 126 -21.5 227t-55 167.5t-82.5 111t-101 63.5t-113 19q-64 0 -117 -19t-100 -63.5t-79.5 -112t-51 -170t-18.5 -233.5q0 -94 20 -190.5t60 -194t71 -162t82 -160.5
q10 -19 15 -28l-17 -41h-489l-49 309l57 2q31 -96 62 -124.5t96 -28.5h206q-52 44 -88.5 78.5t-89.5 98.5t-86 126t-57.5 150t-24.5 182q0 146 47 268.5t128 205.5t192 129t238 46q129 0 238.5 -44t188.5 -125t123.5 -200.5t44.5 -265.5q0 -84 -23.5 -166.5t-55.5 -144.5
t-85.5 -130t-93 -110t-98.5 -98h221q67 0 95 26.5t59 126.5z" />
    <glyph glyph-name="estimated" unicode="&#x212e;" horiz-adv-x="1775" 
d="M1704 684h-1323q-12 0 -12 -8v-402q0 -24 18 -45q99 -102 228 -159.5t272 -57.5q155 0 291.5 65t236.5 179h117q-111 -131 -281.5 -208t-365.5 -77q-166 0 -317 58t-260 156.5t-173.5 234t-64.5 285.5q0 201 109 370t296.5 267t409.5 98q168 0 319.5 -58t261 -156
t174 -234.5t64.5 -286.5v-21zM1403 737v404q0 28 -19 47q-100 98 -227.5 153.5t-269.5 55.5q-141 0 -270 -57t-228 -158q-20 -20 -20 -52v-393q0 -12 12 -12h1014q8 0 8 12z" />
    <glyph glyph-name="partialdiff" unicode="&#x2202;" horiz-adv-x="1097" 
d="M543 885h2q73 0 146 -35t120 -102q16 129 18 221q7 183 -51 323q-34 75 -103 128t-157 53q-136 0 -285 -123q-17 -1 -36.5 24.5t-29.5 60.5t-1 58q134 84 291 84q281 0 432 -293q104 -198 104 -483q0 -132 -24 -269t-74 -243q-68 -147 -175.5 -231.5t-252.5 -84.5
q-172 0 -275.5 111t-103.5 301q0 199 121 346q59 69 148 111.5t186 42.5zM590 799h-2q-128 0 -211 -121q-44 -72 -67 -177.5t-23 -217.5q-2 -106 47 -175t133 -69q49 0 94.5 34.5t75.5 79.5t55 103q39 90 61 178.5t40 222.5q-21 49 -77.5 95.5t-125.5 46.5z" />
    <glyph glyph-name="Delta" unicode="&#x2206;" horiz-adv-x="1308" 
d="M1237 0h-1167v57l530 1360l90 25l547 -1385v-57zM987 104l-403 1043l-394 -1043h797z" />
    <glyph glyph-name="product" unicode="&#x220f;" horiz-adv-x="1421" 
d="M1364 1427v-57q-70 -6 -104 -12t-54.5 -25.5t-24 -44t-3.5 -78.5v-1153q0 -40 1.5 -63t8.5 -44t17.5 -30.5t33 -18.5t49.5 -12.5t72 -7.5v-57h-551v57q44 3 67 6t45 11t30 17t15 31t8 45t1 66v1227q0 45 -13.5 57.5t-60.5 12.5h-387q-45 0 -57.5 -10.5t-12.5 -51.5v-1235
q0 -30 0.5 -43.5t1.5 -34.5t4 -28.5t7.5 -20.5t13 -17.5t18.5 -11t26.5 -9.5t35 -6t45.5 -5v-57h-537v57q54 4 83.5 9.5t52 15t31.5 30.5t12.5 47t3.5 74v1153q0 37 -1.5 57.5t-9 39.5t-17.5 27.5t-34 17t-51.5 11.5t-75.5 7v57h1311z" />
    <glyph glyph-name="summation" unicode="&#x2211;" horiz-adv-x="1140" 
d="M1092 217l-91 -403h-944v53l455 696l-444 809v55h933q1 -9 25 -340l-59 -12q-26 134 -70 211q-23 42 -63.5 56t-151.5 14h-365l369 -658l-457 -710h512q51 0 78.5 1.5t57.5 10.5t45.5 22.5t35.5 44t35.5 67t38.5 99.5z" />
    <glyph glyph-name="minus" unicode="&#x2212;" 
d="M1085 424h-1032v184h1032v-184z" />
    <glyph glyph-name="uni2215" unicode="&#x2215;" horiz-adv-x="342" 
d="M-334 -61l899 1536h111l-899 -1536h-111z" />
    <glyph glyph-name="uni2219" unicode="&#x2219;" horiz-adv-x="569" 
d="M123 582q0 67 48 115t116 48q66 0 114 -48t48 -115q0 -66 -48 -114t-114 -48q-67 0 -115.5 48t-48.5 114z" />
    <glyph glyph-name="radical" unicode="&#x221a;" horiz-adv-x="1134" 
d="M1104 1812l-348 -2127l-45 -23l-443 1124l-178 -84l-24 72l337 156l328 -877h4l283 1780z" />
    <glyph glyph-name="infinity" unicode="&#x221e;" horiz-adv-x="1546" 
d="M1448 590v-2q0 -151 -93 -243.5t-220 -92.5q-91 0 -175.5 53t-183.5 178q-45 -54 -81 -90t-82.5 -71t-99 -52.5t-110.5 -17.5q-126 0 -216.5 93t-90.5 233q0 145 92 238t232 93q103 0 189 -58.5t173 -166.5q84 94 117 123q117 104 248 102q131 0 216 -88.5t85 -230.5z
M420 375h2q29 0 55.5 7t55.5 26t45.5 30.5t48 45t39 42t41.5 47.5q-81 106 -119 141q-83 77 -176 77q-87 0 -138 -61.5t-51 -154.5q0 -84 56 -142t141 -58zM1135 791h-2q-30 0 -61.5 -11.5t-54 -24.5t-53 -41t-43.5 -42.5t-42.5 -48t-34.5 -39.5q100 -118 161.5 -163.5
t135.5 -45.5q82 0 132 63t50 140q0 96 -52 154.5t-136 58.5z" />
    <glyph glyph-name="integral" unicode="&#x222b;" horiz-adv-x="786" 
d="M330 12l-41 838q-10 209 4.5 368.5t45.5 254t78 153.5t95 79.5t104 20.5q49 0 91.5 -26.5t42.5 -73.5q0 -48 -29.5 -74t-69.5 -26q-24 0 -40.5 16.5t-23.5 36.5t-19 36.5t-27 16.5q-93 0 -76 -334l37 -776q7 -183 1.5 -323.5t-28.5 -244.5t-53 -174.5t-72.5 -113.5
t-86.5 -61.5t-95 -18.5q-56 0 -93.5 31.5t-37.5 73.5q-1 44 34 75t81 31q20 0 35 -17.5t22 -38.5t19 -38.5t26 -17.5q45 0 64.5 87.5t11.5 239.5z" />
    <glyph glyph-name="approxequal" unicode="&#x2248;" horiz-adv-x="1099" 
d="M934 897l82 -74q-45 -90 -113.5 -144t-152.5 -54q-56 0 -104 18t-120 62q-38 23 -59 34t-53.5 21t-63.5 10q-59 0 -100.5 -36.5t-87.5 -106.5l-84 71q44 90 120 144.5t164 54.5q27 0 52 -4t52 -15.5t38.5 -16.5t42 -22t31.5 -18q43 -26 64.5 -38t51 -21.5t58.5 -9.5
q55 0 96 35.5t86 109.5zM934 539l82 -74q-46 -90 -114 -144.5t-152 -54.5q-56 0 -104 18.5t-120 61.5q-39 24 -60.5 35.5t-53 22t-60.5 10.5q-62 0 -103.5 -37.5t-86.5 -108.5l-84 72q44 90 120 144.5t164 54.5q24 0 47.5 -4t39 -8t39 -15t30.5 -14.5t31 -17.5t26 -15
q7 -4 29.5 -17.5t30.5 -18t26.5 -14t30 -12.5t28 -6.5t32.5 -3.5q54 0 94 35t88 111z" />
    <glyph glyph-name="notequal" unicode="&#x2260;" horiz-adv-x="1099" 
d="M797 1024l-80 -180h282v-129h-331l-123 -277h454v-129h-505l-101 -227l-102 43l84 184h-279v129h330l121 277h-451v129h500l100 223z" />
    <glyph glyph-name="lessequal" unicode="&#x2264;" horiz-adv-x="1099" 
d="M995 207l-886 448v136l886 446v-150l-755 -360v-6l755 -363v-151zM1001 0h-903v129h903v-129z" />
    <glyph glyph-name="greaterequal" unicode="&#x2265;" horiz-adv-x="1099" 
d="M111 1237l886 -446v-138l-886 -446v151l755 363v4l-755 362v150zM999 0h-899v129h899v-129z" />
    <glyph glyph-name="lozenge" unicode="&#x25ca;" horiz-adv-x="1150" 
d="M1051 686l-400 -829h-153l-400 829l402 836h151zM905 686l-325 698h-7l-329 -696l329 -698h7z" />
    <glyph glyph-name="zero.taboldstyle" unicode="&#xf643;" 
d="M90 485q0 204 138.5 341t340.5 137t341 -137t139 -341q0 -220 -139 -365t-341 -145t-340.5 145t-138.5 365zM246 469q0 -84 38 -161t113.5 -129t171.5 -52t172 52t114 129t38 161q0 152 -94 247t-230 95q-135 0 -229 -95t-94 -247z" />
    <glyph glyph-name="one.taboldstyle" unicode="&#xf644;" 
d="M199 0v61h59q58 0 91 3.5t56.5 10.5t33 25t13 39.5t3.5 61.5v522q0 56 -4.5 85t-23 45.5t-42.5 20t-74 3.5h-112v61q42 -1 118.5 -2.5t138 -2.5t113.5 -1q14 0 371 6v-61h-113q-50 0 -74 -3.5t-42 -20t-22.5 -45.5t-4.5 -85v-522q0 -40 3.5 -61.5t13 -39.5t33 -25
t56.5 -10.5t91 -3.5h59v-61q-345 6 -371 6q-47 0 -108 -1t-138.5 -2.5t-123.5 -2.5z" />
    <glyph glyph-name="two.taboldstyle" unicode="&#xf645;" 
d="M88 0v61q58 24 123.5 61t137.5 90.5t129 112.5t94.5 130.5t37.5 140.5q0 93 -50.5 148t-133.5 55q-141 0 -250 -135l-39 41q100 136 200 197t214 61q72 0 129.5 -23.5t91 -62.5t51 -84.5t17.5 -94.5q0 -73 -43.5 -152.5t-110.5 -145.5t-134 -117t-128 -84v-2h500l49 77
h61l-53 -274q-43 1 -121.5 2.5t-142.5 2.5t-121 1q-76 0 -160.5 -1t-187.5 -2.5t-160 -2.5z" />
    <glyph glyph-name="three.taboldstyle" unicode="&#xf646;" 
d="M256 217l-14 68q173 51 273.5 136.5t100.5 209.5q0 91 -55.5 141.5t-126.5 50.5q-60 0 -118.5 -31.5t-102.5 -84.5l-29 61q202 195 394 195q123 0 195.5 -67t72.5 -167q0 -120 -78.5 -201.5t-245.5 -162.5v-9q92 15 127 15q117 0 194 -76.5t77 -198.5q0 -94 -45 -189.5
t-123.5 -173t-197.5 -126.5t-255 -49q-79 0 -138 29t-59 89q0 28 17.5 50t44.5 22q32 0 47 -31q21 -39 71.5 -62.5t120.5 -23.5q113 0 200 97.5t87 242.5q0 139 -73 212t-183 73q-51 0 -101.5 -13t-76.5 -26z" />
    <glyph glyph-name="four.taboldstyle" unicode="&#xf647;" 
d="M39 0v94l610 844h185v-754h161v-184h-161v-418h-230v418h-565zM604 184v570h-4l-391 -570h395z" />
    <glyph glyph-name="five.taboldstyle" unicode="&#xf648;" 
d="M213 360l184 578h557l-71 -197h-471l-56 -178q80 -23 152 -55t140 -79t117 -103t79 -130t30 -157q0 -129 -67.5 -240t-184 -176t-253.5 -65q-107 0 -185 34.5t-78 94.5q0 33 20.5 56.5t49.5 23.5q26 0 41 -23q74 -113 211 -113q78 0 136.5 42.5t86 104.5t27.5 130
q0 88 -33.5 160t-97.5 126.5t-145.5 94.5t-188.5 71z" />
    <glyph glyph-name="six.taboldstyle" unicode="&#xf649;" 
d="M410 567l-15 62q43 42 79.5 70t100.5 53.5t132 25.5q139 0 231 -98t92 -252q0 -188 -134.5 -320.5t-324.5 -132.5q-113 0 -206 46t-151.5 122t-90 168.5t-31.5 190.5q0 116 40.5 229t110 206t163.5 173.5t200.5 137t221.5 91t225 41.5l6 -61q-143 -18 -273 -86
t-228.5 -171t-157 -245t-58.5 -299q0 -120 36 -227t103 -174.5t148 -67.5q79 0 131.5 63.5t52.5 163.5q0 149 -77 250t-179 101q-36 0 -78 -19t-69 -41z" />
    <glyph glyph-name="seven.taboldstyle" unicode="&#xf64a;" 
d="M94 592l53 346h924l16 -18l-753 -1362l-105 28l615 1135h-639l-49 -129h-62z" />
    <glyph glyph-name="eight.taboldstyle" unicode="&#xf64b;" 
d="M150 315q0 68 24.5 124.5t65.5 95t83.5 63.5t90.5 41q-112 66 -176 158.5t-64 206.5q0 44 12.5 91.5t43.5 99t76.5 92t120 67t165.5 26.5t163 -27t114.5 -71.5t64.5 -96.5t22 -108q0 -117 -55.5 -191t-210.5 -145q156 -78 227.5 -168t71.5 -211q0 -169 -122.5 -278
t-321.5 -109q-117 0 -208.5 49t-139 126t-47.5 165zM549 49q108 0 165.5 65t57.5 150q0 92 -60.5 163t-240.5 181q-79 -41 -122.5 -116.5t-43.5 -157.5q0 -134 76 -209.5t168 -75.5zM371 1083q0 -88 62.5 -157t209.5 -156q78 62 118 127t40 158q0 112 -64.5 182t-156.5 70
q-97 0 -153 -66t-56 -158z" />
    <glyph glyph-name="nine.taboldstyle" unicode="&#xf64c;" 
d="M719 371l14 -62q-32 -31 -58.5 -52.5t-66 -46t-87 -37.5t-99.5 -13q-139 0 -231.5 98t-92.5 252q0 188 134.5 320.5t324.5 132.5q113 0 206 -46t151.5 -122t90 -168.5t31.5 -190.5q0 -139 -57 -272t-153.5 -237t-219.5 -185.5t-260 -128.5t-270 -55l-6 61q143 18 273 86
t228 171t156.5 245t58.5 299q0 120 -36 227t-102.5 174.5t-147.5 67.5q-79 0 -132 -63.5t-53 -163.5q0 -149 77 -250t179 -101q36 0 78.5 19.5t69.5 40.5z" />
    <glyph glyph-name="dollar.taboldstyle" unicode="&#xf653;" 
d="M532 909v461q-147 -51 -147 -237q0 -78 38.5 -130.5t108.5 -93.5zM594 555v-489q63 -2 123.5 71.5t60.5 159.5q0 90 -47.5 150.5t-136.5 107.5zM143 377l58 12q38 -124 49 -150q50 -122 150 -160q56 -21 132 -20v531q-60 30 -98.5 52t-85 53.5t-75.5 64t-55 74t-38 93
t-12 113.5q0 174 98 284.5t266 135.5v115h62v-115q135 0 321 -24q-2 -74 21 -295l-62 -11q-9 102 -74.5 179t-158.5 77q-33 0 -47 -2v-510q157 -82 200 -110q129 -84 173 -194q28 -73 28 -167q0 -162 -119.5 -293.5t-281.5 -140.5v-178h-62v178q-177 0 -356 97z" />
    <glyph glyph-name="cent.taboldstyle" unicode="&#xf654;" 
d="M459 272l213 572q-32 16 -70 16q-56 0 -101.5 -28.5t-73 -74t-42 -98t-14.5 -104.5q0 -161 88 -283zM961 250l36 -33q-69 -124 -163 -186t-234 -62q-118 0 -172 33l-104 -299h-78l119 324q-104 55 -164 159t-60 236q0 148 77 270t207.5 190t285.5 68l108 267h78
l-109 -267q26 -1 56.5 -9.5t62 -25.5t52 -48.5t20.5 -71.5q0 -50 -32.5 -79.5t-74.5 -29.5q-28 0 -52 13t-35.5 25t-30.5 39t-25 34l-219 -586q88 -78 199 -78q153 0 252 117z" />
    <glyph glyph-name="fi" unicode="&#xfb01;" 
d="M403 805v-664q-1 -50 22.5 -65t76.5 -15h39v-61q-204 8 -256 8q-84 0 -256 -8v61h47q29 0 43 1.5t29 9t20.5 23.5t5.5 44v666h-145v37q60 28 145 82v131q0 132 72 249.5t197.5 189t271.5 71.5q71 0 132.5 -18t105.5 -61.5t44 -105.5q0 -50 -32.5 -74t-83.5 -24
q-43 0 -67 20t-34 48t-21.5 56.5t-41.5 48.5t-82 20q-38 0 -69 -8.5t-54 -21.5t-40.5 -37t-29 -44t-19.5 -55t-11.5 -58.5t-5.5 -65.5t-2.5 -64.5t-0.5 -66.5v-3.5v-3v-3.5v-124h422q28 0 51.5 9.5t32 16.5t31.5 29l41 -25v-839q0 -18 7.5 -28.5t23.5 -15t29.5 -5.5t37.5 -1
h31v-61q-156 8 -233 8q-86 0 -246 -8v61h14q22 0 34 0.5t28.5 3.5t24.5 9.5t14 18.5t6 30v579q0 58 -18 80.5t-64 22.5h-267z" />
    <glyph glyph-name="fl" unicode="&#xfb02;" 
d="M403 805v-664q-1 -50 22.5 -65t76.5 -15h39v-61q-204 8 -256 8q-84 0 -256 -8v61h47q29 0 43 1.5t29 9t20.5 23.5t5.5 44v666h-145v37q60 28 145 82v73q0 182 113 338q80 110 186 170t223 60q25 0 48 -2.5t48.5 -8.5t37.5 -9.5t40 -12.5t31 -10l55 28l25 -10v-1434
q0 -16 8.5 -26t26.5 -13.5t30.5 -4.5t34.5 -1h29v-61q-168 8 -250 8q-75 0 -227 -8v61h24q23 0 35 1t28.5 4.5t24 13.5t7.5 26v1293q-57 63 -144 63q-108 0 -156.5 -76.5t-48.5 -261.5v-204h246v-115h-246z" />
    <glyph glyph-name="one.superior" horiz-adv-x="739" 
d="M147 578v49h29q29 0 43.5 1t34 4.5t27.5 12t8 23.5v624q-54 -29 -170 -78l-21 41q103 51 174 95q142 86 154 94h47v-774q0 -21 14.5 -30.5t33 -11t61.5 -1.5h30v-49h-465z" />
    <glyph glyph-name="two.superior" horiz-adv-x="739" 
d="M47 578v47q69 46 135 101t132 125t106.5 149.5t40.5 152.5t-47 124.5t-131 51.5q-102 0 -177 -106l-26 28q39 84 120 138.5t177 54.5q109 0 174 -61t65 -162q0 -41 -12 -83t-38 -83.5t-50 -75.5t-65.5 -76t-66.5 -66t-70 -65t-60 -55h362q20 31 35 67h41
q-24 -136 -30 -206h-615z" />
    <glyph glyph-name="three.superior" horiz-adv-x="739" 
d="M213 971l-8 41q45 14 84.5 32t77.5 43t60 58.5t22 71.5q0 54 -39.5 89t-100.5 35q-86 0 -159 -73l-27 30q124 146 272 146q81 0 145 -43.5t64 -112.5q0 -82 -51.5 -133.5t-146.5 -91.5l4 -2q107 6 177 -43.5t70 -147.5q0 -89 -60.5 -162t-150 -111t-184.5 -38
q-56 0 -105 16t-65 52q-10 20 -10 51q0 3 14 12q36 12 56 8q15 -40 55.5 -65t89.5 -25q83 0 137.5 58t54.5 133q0 88 -45.5 139t-115.5 49q-68 -3 -115 -16z" />
    <glyph glyph-name="a.superior" horiz-adv-x="665" 
d="M547 1282v-274q0 -68 43 -68q21 0 37 16l16 -22q-34 -39 -65 -58.5t-74 -19.5q-46 0 -72 27.5t-29 74.5q-52 -50 -98.5 -76t-105.5 -26q-62 0 -104 33t-42 90q0 37 12 64.5t39 46.5t50.5 30t64.5 25l172 55v80q6 42 -17.5 58t-80.5 16q-81 0 -86 -43q-1 -1 -10 -39
q-4 -19 -41 -33t-58 -14q-26 0 -26 35q0 19 15 39t48.5 42t53 33t61.5 33q68 37 119 37q88 0 133 -41t45 -121zM391 1038v111q-5 -2 -28 -9.5t-31.5 -10.5t-29 -12t-30 -15t-24.5 -16.5t-21.5 -20.5t-12 -24t-5.5 -29q0 -66 72 -66q41 0 75 26.5t35 65.5z" />
    <glyph glyph-name="o.superior" horiz-adv-x="739" 
d="M375 905q139 0 139 223q0 38 -7 79.5t-23 86t-47.5 73t-74.5 28.5q-137 0 -137 -234q0 -40 7 -80.5t23 -82t47 -67.5t73 -26zM367 856q-145 0 -235.5 83t-90.5 212q0 126 91 209.5t235 83.5q153 0 242 -77.5t89 -207.5q0 -128 -94 -215.5t-237 -87.5z" />
    </font>
</defs>
</svg>
