<svg version="1.2" xmlns="http://www.w3.org/2000/svg" viewBox="0 0 512 512" width="512" height="512">
	<title>envelope-1-svg</title>
	<style>
		.s0 { fill: #002366 } 
	</style>
	<path fill-rule="evenodd" class="s0" d="m512 112v288c0 26.5-21.5 48-48 48h-416c-26.5 0-48-21.5-48-48v-288c0-26.5 21.5-48 48-48h416c26.5 0 48 21.5 48 48zm-464 0v40.8c22.4 18.3 58.2 46.7 134.6 106.5 16.8 13.2 50.2 45.1 73.4 44.7 23.2 0.4 56.6-31.5 73.4-44.7 76.4-59.8 112.2-88.2 134.6-106.5v-40.8zm416 288v-185.6c-22.9 18.3-55.4 43.9-104.9 82.7-22.6 17.7-60.4 55.1-103.1 54.9-42.9 0.2-81.2-37.8-103.1-55-49.5-38.7-82-64.4-104.9-82.6v185.6z"/>
</svg>