<svg version="1.2" xmlns="http://www.w3.org/2000/svg" viewBox="0 0 3781 3781" width="3781" height="3781">
	<title>hmrc-svg-svg</title>
	<style>
		.s0 { fill: #000000 } 
	</style>
	<path id="Path 9" fill-rule="evenodd" class="s0" d="m2463.3 1189c-29.1-71.1-111.1-105.8-181.4-76.6-71.6 29.4-105.5 111.6-76.1 182.2 29.5 71.1 110.9 105 182.5 75.3 70.6-28.9 104.2-110.3 75-180.9zm-443.3 493.7c-29.2-71.1-111.2-105.8-181.5-76.7-71.6 29.5-105.2 111.4-75.8 182.3 29.2 71.1 110.6 105 182.5 75.3 70.3-28.9 104.2-110.3 74.8-180.9zm816.7-270.9c-29.4-71.1-111.1-105.8-181.7-76.6-71.6 29.1-105.3 111.4-75.8 182.5 29.2 70.8 110.6 104.7 182.5 75 70.3-28.9 104.2-110.3 75-180.9zm247 367.6c-29.2-70.9-111.1-105.6-181.4-76.4-71.7 29.4-105.6 111.7-76.1 182.5 29.4 70.8 110.8 104.7 182.5 75 70.3-28.9 104.2-110.3 75-181.1zm-1118.5-853.5l0.3-0.2 176.4 92.5v-260.1l-176.1 55.9-0.6-0.6q-7.5-9.7-16.9-17.2l-0.6-0.6 70.9-223h-254.8l71.1 223-0.5 0.6c-6.4 5-12.2 10.8-17 17.2l-0.5 0.6-176.2-55.9v260.1l176.2-92.5 0.5 0.2c5.3 7 11.4 13.1 18.1 18.1l-101.1 305.6c-0.3 0.5-0.3 0.8-0.3 1.4v0.3c-5 15.2-7.5 31.4-7.5 48 0 82.8 61.1 151.1 140.6 162.8 1.1 0.3 2.2 0.3 3.6 0.6 6.6 0.8 13.3 1.4 20.5 1.4 7 0 13.9-0.6 20.6-1.4 1.1-0.3 2.2-0.3 3.6-0.6 79.5-11.7 140.6-80 140.6-162.8 0-16.6-2.8-32.8-7.5-48v-0.3c0-0.6-0.3-0.9-0.3-1.4l-101.4-305.6c6.9-5 13.1-11.1 18.3-18.1zm-573.4 444c71.7 29.7 153.1-4.2 182.6-75.3 29.4-70.6-4.5-152.8-76.2-182.2-70.3-29.2-152.2 5.5-181.4 76.6-29.1 70.6 4.7 152 75 180.9zm-373.3 222.8c71.9 29.7 153.3-4.2 182.5-75 29.4-71.1-4.2-153.4-75.9-182.5-70.3-29.2-152.2 5.5-181.7 76.6-29.1 70.6 4.8 152 75.1 180.9zm-247 367.8c71.7 29.7 153.1-4.2 182.5-75 29.4-70.8-4.4-153.1-76.1-182.5-70.3-29.2-152.3 5.5-181.4 76.4-29.2 70.8 4.7 152.2 75 181.1zm1119.6 827.9c333.9 0 650 22.8 931.5 63 80-336.1 177.2-528.9 277.8-665.9l-189.2-67.5c18.9 96.1 21.6 140.9 0.8 202.6-31.4-30.6-60.8-86.4-83.9-172.3l-91.7 305.3c55.9-38.3 98.7-63.3 147.8-64.4-86.9 188-196.1 236.4-266.7 223.3-86.1-15.8-125.8-92.8-112.5-158 19.7-92.3 114.8-116.4 158.9-8.9 84.8-172.8-58.9-226.7-151.4-175.6 142-141.7 158.4-267.8 43.6-420.1-159.7 122-161.7 243.1-89.7 413.1-93.3-106.6-238.4-49.4-185.9 123.1 67.3-103.9 156.2-38.3 142.3 60.6-12 86.1-125.6 155.8-267.3 143.3-203-18.3-215.3-158.6-220.3-274.5 49.8-9.4 139.8 37 216.4 144.5l28.1-323.6c-83.3 86.9-158.9 103.3-243.1 106.1 27.8-87.5 156.7-230.9 156.7-230.9h-403.9c0 0 128.6 143.4 156.7 230.9-84.2-2.8-160.1-19.2-243.4-106.1l28.3 323.6c76.7-107.5 166.4-153.9 216.4-144.5-5 115.9-17.2 256.2-220.3 274.5-141.6 12.5-255.3-57.2-267.2-143.3-13.9-98.9 75-164.5 142.2-60.6 52.5-172.5-92.8-229.7-185.8-123.1 71.6-170 70-291.1-89.8-413.1-114.7 152.3-98.6 278.4 43.6 420.1-92.5-51.1-236.4 2.8-151.4 175.6 44.2-107.5 138.9-83.4 159 8.9 13.3 65.2-26.4 142.2-112.6 158-70.8 13.1-179.7-35.3-266.9-223.3 49.4 1.1 92.2 26.1 148 64.4l-91.6-305.3c-23.1 85.9-52.8 141.7-83.9 172.3-21.2-61.7-18.1-106.5 0.8-202.6l-189.2 67.5c100.6 137 197.8 329.8 277.8 665.9 281.4-40.2 597.3-63 931-63z"/>
	<path id="Path 10" fill-rule="evenodd" class="s0" d="m1891.2 3779.3c-1044.6 0-1889-844.6-1889-1889.6 0-1045 844.4-1889.7 1889-1889.7 1044.6 0 1889 844.7 1889 1889.7 0 1045-844.4 1889.6-1889 1889.6zm1673.1-1889.8c0-925.4-747.8-1673.4-1673-1673.4-925.1 0-1672.9 748-1672.9 1673.4 0 925.4 747.8 1673.4 1672.9 1673.4 925.2 0 1673-748 1673-1673.4zm-3229.5 2826.1v770.9h944v-770.9h238.6v1793.2h-238.6v-821.2h-944v821.2h-238.7v-1793.2zm1880.8 0l565.1 1507.1 567.3-1507.1h326.4v1793.2h-225.9v-1491.8h-5l-560 1491.8h-203.4l-560.1-1491.8h-5v1491.8h-225.8v-1793.2zm3143.7 0c170.8 0 304.2 41.9 400.6 125.5 96.1 83.9 144.2 198.4 144.2 344.2q0.2 163.1-73.9 286.2-74.2 123-237.3 168.3v5c51.7 10 94.2 27 126.7 50.3q48.9 35.3 78.1 84.2 28.6 48.9 42.5 109.2c9.1 40.3 16.4 82.2 21.4 125.5q5 65.3 7.5 133.1 2.5 68.1 12.5 133.4 10 65.2 28.9 124.1 18.8 59.2 56.3 104.2h-265.8q-25.3-27.5-33.9-75.3-8.9-47.7-11.4-106.6c-1.7-39.5-3.3-81.7-5-127q-2.8-67.8-15-133.1-10.3-65.3-25.3-124.2c-10-39.4-26.1-73.9-47.8-103-21.6-29.2-50-52.8-85.3-70.3q-52.7-26.4-140.5-26.4h-582.6v765.9h-238.6v-1793.2zm50.2 813.7c50.3-8.4 94.2-24.8 131.7-48.9q56.7-36.4 90.6-98.1 33.9-61.4 33.9-159.5 0-135.5-75.3-221.1c-50.3-56.7-131.4-85.3-243.6-85.3h-592.6v625.4h497c55.6 0 108.1-4.2 158.3-12.5zm1710 896.7q-145.6 110.6-366.5 110.6-155.8 0-270-50.3-114.2-50.3-192-140.6c-51.9-60.5-90.8-132.5-116.9-216.1q-38.9-125.6-43.9-273.6 0-148.4 45.3-271.5c30-81.9 72.5-153 126.7-213.3q81.6-90.6 193.3-140.9c74.5-33.3 156.1-50 244.8-50 115.5 0 211.4 23.6 287.5 71.4q114.5 71.7 183.3 182 69.2 110.8 95.6 241.1 26.4 130.9 21.1 248.7h-971.5q-2.8 85.5 20 162.2c15 51.1 39.2 96.4 72.8 135.6q50.3 58.9 128.1 94.2 77.8 35 183.3 35c90.3 0 164.5-20.9 222.3-62.5q86.7-63 114.2-190.9h210.8c-28.3 145.6-91.1 255.3-188.3 328.9zm-51.4-834q-28.9-67.7-77.8-116.6-49.2-49.2-115.6-77.8c-44.4-19.5-93.3-29.2-146.9-29.2-55 0-105.1 9.7-149.5 29.2q-66.4 28.6-114.2 78.9c-31.7 33.6-56.9 72.5-75.3 116.9-18.3 44.5-29.1 91.7-32.5 142h745.7q-5-75.6-33.9-143.4zm837.3 916.8l-482-1298.5h238.4l364.2 1082.7h5l353.9-1082.7h223.6l-474.5 1298.5zm1818-82.8q-145.8 110.6-366.7 110.6-155.6 0-270-50.3-114.2-50.3-192-140.6c-51.9-60.5-90.8-132.5-116.7-216.1q-38.9-125.6-43.9-273.6 0-148.4 45-271.5c30.3-81.9 72.6-153 127-213.3q81.4-90.6 193.4-140.9c74.4-33.3 156.1-50 244.7-50 115.6 0 211.4 23.6 287.5 71.4q114.2 71.7 183.4 182 68.9 110.8 95.3 241.1 26.4 130.9 21.4 248.7h-971.8q-2.5 85.5 20 162.2 22.8 76.7 72.8 135.6 50.3 58.9 128.1 94.2 77.7 35 183.3 35c90.6 0 164.5-20.9 222.3-62.5 57.8-42 95.8-105.6 114.4-190.9h210.9c-28.6 145.6-91.4 255.3-188.4 328.9zm-51.6-834q-28.7-67.7-77.8-116.6-48.9-49.2-115.6-77.8c-44.2-19.5-93.3-29.2-146.7-29.2-55.3 0-105 9.7-149.4 29.2q-66.7 28.6-114.2 78.9c-32 33.6-57 72.5-75.3 116.9-18.6 44.5-29.5 91.7-32.8 142h745.6q-5-75.6-33.8-143.4zm681.7-381.7v205.9h5c88.9-157.2 229.5-235.9 422-235.9q127.9 0 213.4 35 85.5 35.3 138 98.1 52.8 62.8 74.2 149.5c14.2 57.5 21.4 121.6 21.4 191.9v854h-213.4v-879c0-80.3-23.6-143.9-70.3-190.8q-70.5-70.6-193.3-70.6-98.1 0-169.8 30.3c-47.5 20-87.5 48.6-119.1 85.3-31.7 36.9-55.6 80-71.7 129.4q-23.9 74.2-23.9 162v733.4h-213.4v-1298.5zm2069.2 1298.5v-205.8h-5c-45.3 80.3-103.1 139.4-173.4 176.9q-105.3 56.7-248.6 56.7c-85.3 0-156.4-11.4-213.4-33.9-56.9-22.8-103-55-138-96.7-35.3-41.9-59.8-91.9-74.2-149.7-14.2-57.5-21.1-121.7-21.1-192v-854h213.3v879c0 80.6 23.4 144.2 70.3 190.9q70.3 70.5 193.4 70.5 97.8 0 169.4-30.2c47.8-20 87.5-48.7 119.2-85.3q47.8-55.3 71.7-129.5c15.8-49.2 23.9-103.3 23.9-161.9v-733.5h213.3v1298.5zm1441.3-82.8q-145.6 110.6-366.4 110.6-155.9 0-270.1-50.3-114.1-50.3-191.9-140.6c-52-60.5-91.1-132.5-117-216.1q-38.9-125.6-43.9-273.6 0-148.4 45.3-271.5 45-122.9 126.7-213.3 81.7-90.6 193.4-140.9c74.4-33.3 156.1-50 244.7-50 115.6 0 211.4 23.6 287.5 71.4q114.2 71.7 183.4 182 69.2 110.8 95.6 241.1 26.3 130.9 21.1 248.7h-971.5q-2.8 85.5 20 162.2 22.5 76.7 72.8 135.6 50.2 58.9 128 94.2 77.8 35 183.4 35c90.3 0 164.4-20.9 222.2-62.5q86.7-63 114.2-190.9h210.9c-28.4 145.6-91.4 255.3-188.4 328.9zm-51.4-834q-28.9-67.7-77.8-116.6-49.1-49.2-115.5-77.8c-44.5-19.5-93.4-29.2-147-29.2-55 0-105 9.7-149.5 29.2q-66.4 28.6-114.1 78.9c-31.7 33.6-57 72.5-75.3 116.9-18.6 44.5-29.2 91.7-32.5 142h745.6q-5-75.6-33.9-143.4zm-12961.5 3393.5q-139.5 62.8-287.5 62.8-180.9 0-291.5-55.3-110.3-55.3-170.5-133.1-60.6-77.8-79.2-160.8c-12.5-55.3-18.9-101.1-18.9-138.1 0-70.3 11.4-132.2 33.9-185.8 22.5-53.7 52.8-101.7 90.6-144.5 37.5-42.8 81.9-81.1 132.7-115.6 51.2-34.2 105.1-66.7 162-96.7-25-35.2-49.2-68.6-72.8-100.2-23.3-32-44.7-64.2-63.9-97-19.1-32.5-34.4-66.7-45.3-103.1-10.8-35.8-16.1-76.4-16.1-121.7q0-72.7 26.4-139.4 26.1-66.4 77.8-117.8 51.4-51.7 126.7-81.7 75.3-30.3 173.3-30.3 82.8 0 161.7 22.8 79.2 22.5 139.5 68.9c40.3 31.1 72.5 69.5 96.7 115.6q36.4 68.9 36.4 159.4 0 80.6-27.5 149.5-27.8 69.2-75.3 127-47.8 57.5-108.1 104.1-60.3 46.4-125.6 84.2l324 394.2c33.3-93.6 52.7-186.7 57.7-278.6h203.4q-7.5 80.3-16.4 136.7-8.6 56.7-22.5 104.4-13.9 47.8-33.9 94.2-20 46.4-47.8 106.7l349 404.5h-278.7l-190.6-223.7q-80.5 125.6-219.7 188.4zm-429.5-758.7c-37.8 25.3-70.8 53.6-99.2 85.6-28.3 31.6-51.1 67.5-67.8 106.6q-25.2 59.2-25.2 139.5 0 67.8 29.1 124.5 28.6 56.4 76.4 95.3c32 26.1 68.4 46.3 109.5 61.6q61.4 22.5 126.7 22.5c81.9 0 155.3-19.1 219.4-57.8q97-57.7 162-155.5l-411.4-495.1c-42 23.6-81.7 47.8-119.5 72.8zm270-364.2c28.4-20 54.2-42.5 77.8-67.8 23.4-25 42.8-53.1 57.8-84.2q22.5-46.4 22.5-104.2 0-77.7-55.3-134.1-55.3-56.7-150.6-56.7-75.2 0-140.5 46.4c-43.6 31.1-65.3 79.2-65.3 144.4q0 40.3 16.1 80.3 16.4 40.6 41.7 79.2 25 39.2 55 76.7c20.3 25.3 40.3 50.3 60.3 75.6q37.7-25.3 80.5-55.6zm2534.8-381.7q-137-95.3-325.3-95.3c-107 0-198.7 20-274.8 60-76.4 40.3-139.2 94.5-188.4 162.2q-74.1 101.7-109.1 232.3-35.3 130.6-35.3 271.4 0 153.1 35.3 290c23.3 91.4 59.7 170.6 109.1 238.7q73.9 101.7 189.5 161.9c77 40.3 169.2 60.3 276.2 60.3 78.9 0 148.6-13 209.7-38.9q91.7-38.9 158.1-108c44.4-46.1 79.4-100.9 104.4-164.5q37.5-95.6 45-205.9h238.7c-23.4 225.9-101.4 401.8-233.7 527.3-132.2 125.6-313.1 188.4-542.2 188.4q-208.4 0-364-71.4c-103.9-47.8-190-113.6-258.6-197.3q-103.1-125.5-154.5-296.4-51.4-170.8-51.4-366.7 0-195.8 55-368.1 55.3-172 162-300 106.7-128.1 266.4-202.3 159.2-74.1 365.1-74.1 140.8 0 266.4 37.7 125.3 37.8 223.3 110.6 97.8 72.8 163.1 182c43.6 73 72 156.9 85.6 252.5h-238.7q-40-190.9-176.9-286.4zm1565.4 1539.9v-206.2h-5c-45.2 80.6-103 139.5-173.3 177.3q-105.3 56.4-248.4 56.4c-85.3 0-156.7-11.4-213.3-33.9-57-22.5-103.1-55-138.4-96.7-35-41.9-59.7-91.7-73.9-149.4-14.4-57.8-21.4-122-21.4-192.3v-854h213.4v879.3c0 80.3 23.3 143.9 70.3 190.8q70.3 70.3 193.3 70.3 98.1 0 169.5-30.3c47.8-20 87.5-48.3 119.2-85.2q47.8-55.3 71.6-129.5c16.2-49.2 23.9-103.3 23.9-162v-733.4h213.4v1298.8zm685.6-290.3c20 32.8 46.4 58.6 78.9 77.8q49.2 29.1 110.6 41.6 61.7 12.5 127 12.5c33.3 0 68.6-2.5 105.2-7.5 37-5 70.9-14.1 101.7-27.8 31.1-13.3 56.7-32.7 76.7-58.8q30.3-38.9 30.3-99.2 0-83.1-62.8-125.6-63.1-42.8-157-69.2c-62.8-17.5-131.1-33.3-204.7-47.8-73.6-14.1-142-34.1-204.8-60.2q-93.9-38.9-156.9-109.2-62.5-70.3-62.8-195.9 0.3-98 44.2-168.3c29.1-47 66.9-85 113-114.5q68.9-43.9 155.6-65.3c57.8-13.9 115-21.1 172-21.1q110.5 0 203.3 18.9c62 12.5 116.7 34.2 164.5 65.3 47.8 30.8 85.8 72.8 114.2 125.6 28.6 52.5 45.3 118.3 50.3 197.2h-213.4q-5-63.1-32.8-104.4c-18.3-27.6-41.7-49.8-70.3-66.4q-42.8-25.3-94.1-36.7-51.4-11.1-104.2-11.1-47.5 0-96.7 7.5-48.9 7.5-89.2 26.4-40.3 18.9-65.3 50.2-25 31.4-25 81.4 0 55.3 38.9 92c25.9 24.2 59.2 44.2 99.2 60 40.3 16.1 85.3 29.5 135.6 40.3q75.5 16.4 150.5 33.9 80.6 17.5 157 42.8c51.1 16.6 96.4 38.9 135.6 66.4 39.4 27.7 71.1 62.5 95.5 104.4q36.4 62.8 36.4 155.6 0 118.1-48.9 196.1c-32.7 51.7-75.2 93.6-128 125.3q-79.2 47.9-178.4 66.7c-66.1 12.5-131.9 18.9-197.2 18.9-72 0-140.6-7.5-205.9-22.8q-97.8-22.5-173.1-73.9c-50.2-34.4-90.5-79.4-120.5-135.8-30.3-55.9-47-124.2-50.3-204.5h213.3c1.7 46.9 12.8 86.7 32.8 119.2zm1647.2-1008.5v188.4h-258.7v806.2q0 37.8 6.4 60.5 6.1 22.5 23.6 35 17.8 12.5 49.2 16.4 31.4 3.6 81.7 3.6h97.8v188.7h-163.1c-55.3 0-102.8-3.9-142-11.4q-59.1-11.4-95.3-41.4-36.6-30.3-54.1-85.6c-11.7-36.6-17.5-85.3-17.5-145.5v-826.5h-221.2v-188.4h221.2v-389.2h213.3v389.2z"/>
</svg>